<?xml version="1.0" encoding="utf-8"?>
<!-- Generator: Adobe Illustrator 26.0.2, SVG Export Plug-In . SVG Version: 6.00 Build 0)  -->
<svg version="1.1" id="Layer_1" xmlns="http://www.w3.org/2000/svg" xmlns:xlink="http://www.w3.org/1999/xlink" x="0px" y="0px"
	 viewBox="0 0 878.4 225.7" style="enable-background:new 0 0 878.4 225.7;" xml:space="preserve">
<style type="text/css">
	.st0{fill:none;}
	.st1{clip-path:url(#SVGID_00000025416655372683175760000016469950477959734456_);fill:#9866CF;}
	.st2{clip-path:url(#SVGID_00000145776873410894927290000004984260846951859334_);fill:#9866CF;}
	.st3{clip-path:url(#SVGID_00000112620388966067864810000009685880064080773001_);fill:#9866CF;}
	.st4{clip-path:url(#SVGID_00000126287521009136019220000016924237481232981434_);fill:#9866CF;}
	.st5{clip-path:url(#SVGID_00000101801295564963208190000007226499486491692437_);fill:#9866CF;}
	.st6{clip-path:url(#SVGID_00000070815904343425835770000001640552546686339712_);fill:#9866CF;}
	.st7{fill:#290849;stroke:#290849;stroke-width:0.8;stroke-linejoin:round;}
	.st8{fill:#290849;}
</style>
<g id="figure_1">
	<g id="patch_1">
		<path class="st0" d="M0,225.7h878.4V0H0V225.7z"/>
	</g>
	<g id="axes_1">
		<g id="patch_2">
			<path class="st0" d="M7.2,168.7h864v-144H7.2V168.7z"/>
		</g>
		<g id="patch_3">
			<g>
				<defs>
					<rect id="SVGID_1_" x="7.2" y="24.7" width="864" height="144"/>
				</defs>
				<clipPath id="SVGID_00000114768064970733525330000000533398115980641963_">
					<use xlink:href="#SVGID_1_"  style="overflow:visible;"/>
				</clipPath>
				<path style="clip-path:url(#SVGID_00000114768064970733525330000000533398115980641963_);fill:#9866CF;" d="M46.5,168.7h84.2
					V31.6H46.5V168.7z"/>
			</g>
		</g>
		<g id="patch_4">
			<g>
				<defs>
					<rect id="SVGID_00000052814674393687388400000013897400600728040628_" x="7.2" y="24.7" width="864" height="144"/>
				</defs>
				<clipPath id="SVGID_00000140732100660870906310000005649778174779624865_">
					<use xlink:href="#SVGID_00000052814674393687388400000013897400600728040628_"  style="overflow:visible;"/>
				</clipPath>
				<path style="clip-path:url(#SVGID_00000140732100660870906310000005649778174779624865_);fill:#9866CF;" d="M186.7,168.7h84.2
					V31.6h-84.2V168.7z"/>
			</g>
		</g>
		<g id="patch_5">
			<g>
				<defs>
					<rect id="SVGID_00000176013883981059423020000006396894949218648452_" x="7.2" y="24.7" width="864" height="144"/>
				</defs>
				<clipPath id="SVGID_00000103972283501834814720000003663665824269590956_">
					<use xlink:href="#SVGID_00000176013883981059423020000006396894949218648452_"  style="overflow:visible;"/>
				</clipPath>
				<path style="clip-path:url(#SVGID_00000103972283501834814720000003663665824269590956_);fill:#9866CF;" d="M327,168.7h84.2
					V75.6H327V168.7z"/>
			</g>
		</g>
		<g id="patch_6">
			<g>
				<defs>
					<rect id="SVGID_00000051343548670663030620000006712682403010167187_" x="7.2" y="24.7" width="864" height="144"/>
				</defs>
				<clipPath id="SVGID_00000175298857660402707700000002927805643812559805_">
					<use xlink:href="#SVGID_00000051343548670663030620000006712682403010167187_"  style="overflow:visible;"/>
				</clipPath>
				<path style="clip-path:url(#SVGID_00000175298857660402707700000002927805643812559805_);fill:#9866CF;" d="M467.3,168.7h84.2
					V95.2h-84.2V168.7z"/>
			</g>
		</g>
		<g id="patch_7">
			<g>
				<defs>
					<rect id="SVGID_00000114779966879715792520000008979860457574936502_" x="7.2" y="24.7" width="864" height="144"/>
				</defs>
				<clipPath id="SVGID_00000137834996801926851410000014874939258951239297_">
					<use xlink:href="#SVGID_00000114779966879715792520000008979860457574936502_"  style="overflow:visible;"/>
				</clipPath>
				<path style="clip-path:url(#SVGID_00000137834996801926851410000014874939258951239297_);fill:#9866CF;" d="M607.5,168.7h84.2
					v-24.5h-84.2V168.7z"/>
			</g>
		</g>
		<g id="patch_8">
			<g>
				<defs>
					<rect id="SVGID_00000081632962260474748750000003950093245768035235_" x="7.2" y="24.7" width="864" height="144"/>
				</defs>
				<clipPath id="SVGID_00000000182006050939583190000018250561077152327079_">
					<use xlink:href="#SVGID_00000081632962260474748750000003950093245768035235_"  style="overflow:visible;"/>
				</clipPath>
				<path style="clip-path:url(#SVGID_00000000182006050939583190000018250561077152327079_);fill:#9866CF;" d="M747.8,168.7h84.2
					v-19.6h-84.2V168.7z"/>
			</g>
		</g>
		<g id="matplotlib.axis_1">
			<g id="xtick_1">
				<g id="line2d_1">
					<g>
						<g>
							<path id="m0a97658e4d_00000111910420682130233460000012774992927272612269_" class="st7" d="M88.6,168.7"/>
						</g>
					</g>
				</g>
				<g id="text_1">
					<g transform="translate(51.90729 198.596763)scale(0.15 -0.15)">
						<g>
							<path id="DejaVuSans-52" class="st8" d="M44.4,34.2c2.1-0.7,4.2-2.2,6.2-4.6s4-5.6,6-9.7L66.6,0H56l-9.3,18.7
								c-2.4,4.9-4.8,8.1-7,9.7s-5.3,2.4-9.2,2.4H19.7V0H9.8v72.9h22.3c8.3,0,14.6-1.7,18.7-5.2c4.1-3.5,6.2-8.7,6.2-15.8
								c0-4.6-1.1-8.4-3.2-11.4C51.6,37.4,48.5,35.4,44.4,34.2z M19.7,64.8V38.9h12.4c4.8,0,8.3,1.1,10.8,3.3s3.6,5.4,3.6,9.7
								s-1.2,7.5-3.6,9.6s-6,3.2-10.8,3.2H19.7z"/>
						</g>
						<g>
							<path id="DejaVuSans-65" class="st8" d="M121.2,29.6v-4.4H79.9c0.4-6.2,2.3-10.9,5.6-14.1s8-4.9,13.9-4.9
								c3.4,0,6.8,0.4,10,1.3c3.2,0.8,6.5,2.1,9.7,3.8V2.8c-3.2-1.4-6.5-2.4-9.9-3.1c-3.4-0.7-6.8-1.1-10.3-1.1
								c-8.7,0-15.6,2.5-20.7,7.6c-5.1,5.1-7.6,12-7.6,20.6c0,8.9,2.4,16,7.2,21.3c4.8,5.3,11.4,7.9,19.6,7.9
								c7.4,0,13.2-2.4,17.5-7.1C119,44.2,121.2,37.7,121.2,29.6z M112.2,32.2c-0.1,4.9-1.4,8.8-4.1,11.8c-2.7,2.9-6.2,4.4-10.7,4.4
								c-5,0-9-1.4-12-4.3c-3-2.8-4.7-6.8-5.2-12L112.2,32.2z"/>
						</g>
						<g>
							<path id="DejaVuSans-6c" class="st8" d="M135.9,76h9V0h-9V76z"/>
						</g>
						<g>
							<path id="DejaVuSans-69" class="st8" d="M163.7,54.7h9V0h-9V54.7z M163.7,76h9V64.6h-9V76z"/>
						</g>
						<g>
							<path id="DejaVuSans-61" class="st8" d="M216.4,27.5c-7.3,0-12.3-0.8-15.1-2.5c-2.8-1.7-4.2-4.5-4.2-8.5
								c0-3.2,1.1-5.7,3.2-7.6c2.1-1.9,5-2.8,8.6-2.8c5,0,9,1.8,12,5.3s4.5,8.2,4.5,14.1v2H216.4z M234.3,31.2V0h-9v8.3
								c-2.1-3.3-4.6-5.8-7.7-7.3s-6.8-2.4-11.2-2.4c-5.6,0-10,1.6-13.4,4.7c-3.3,3.1-5,7.4-5,12.6c0,6.1,2.1,10.8,6.2,13.9
								c4.1,3.1,10.3,4.7,18.4,4.7h12.6v0.9c0,4.1-1.4,7.3-4.1,9.6c-2.7,2.3-6.5,3.4-11.5,3.4c-3.1,0-6.2-0.4-9.1-1.1
								c-3-0.8-5.8-1.9-8.5-3.4v8.3c3.3,1.3,6.5,2.2,9.6,2.8c3.1,0.6,6.1,1,9,1c7.9,0,13.8-2.1,17.7-6.2
								C232.3,45.8,234.3,39.5,234.3,31.2z"/>
						</g>
						<g>
							<path id="DejaVuSans-62" class="st8" d="M292,27.3c0,6.6-1.4,11.8-4.1,15.5c-2.7,3.8-6.5,5.6-11.2,5.6
								c-4.8,0-8.5-1.9-11.2-5.6c-2.7-3.8-4.1-8.9-4.1-15.5s1.4-11.8,4.1-15.5s6.5-5.6,11.2-5.6c4.8,0,8.5,1.9,11.2,5.6
								S292,20.7,292,27.3z M261.5,46.4c1.9,3.2,4.3,5.7,7.2,7.2c2.9,1.6,6.3,2.4,10.3,2.4c6.6,0,12-2.6,16.2-7.9
								c4.2-5.3,6.2-12.2,6.2-20.8s-2.1-15.5-6.2-20.8c-4.1-5.3-9.5-7.9-16.2-7.9c-4,0-7.4,0.8-10.3,2.4c-2.9,1.6-5.3,4-7.2,7.2V0
								h-9v76h9V46.4z"/>
						</g>
						<g>
							<path id="DejaVuSans-69_00000064311791416956064970000002778959860384866442_" class="st8" d="M316.3,54.7h9V0h-9V54.7z
								 M316.3,76h9V64.6h-9V76z"/>
						</g>
						<g>
							<path id="DejaVuSans-6c_00000123412816767529712010000015512393684363455645_" class="st8" d="M344,76h9V0h-9V76z"/>
						</g>
						<g>
							<path id="DejaVuSans-69_00000160155305042379059050000003547855322656226965_" class="st8" d="M371.8,54.7h9V0h-9V54.7z
								 M371.8,76h9V64.6h-9V76z"/>
						</g>
						<g>
							<path id="DejaVuSans-74" class="st8" d="M408.5,70.2V54.7H427v-7h-18.5V18c0-4.5,0.6-7.3,1.8-8.6s3.7-1.9,7.5-1.9h9.2V0h-9.2
								c-6.9,0-11.7,1.3-14.4,3.9c-2.6,2.6-4,7.3-4,14.1v29.7h-6.6v7h6.6v15.5H408.5z"/>
						</g>
						<g>
							<path id="DejaVuSans-79" class="st8" d="M461.6-5.1c-2.5-6.5-5-10.8-7.4-12.7c-2.4-2-5.6-3-9.7-3h-7.2v7.5h5.3
								c2.5,0,4.4,0.6,5.8,1.8c1.4,1.2,2.9,3.9,4.5,8.3l1.6,4.1l-22.1,53.8h9.5L459,11.9l17.1,42.8h9.5L461.6-5.1z"/>
						</g>
					</g>
				</g>
			</g>
			<g id="xtick_2">
				<g id="line2d_2">
					<g>
						<g>
							<path id="m0a97658e4d_00000125597219025684380510000009891798852782469018_" class="st7" d="M228.8,168.7"/>
						</g>
					</g>
				</g>
				<g id="text_2">
					<g transform="translate(181.287343 198.596763)scale(0.15 -0.15)">
						<g>
							<path id="DejaVuSans-50" class="st8" d="M19.7,64.8V37.4h12.4c4.6,0,8.1,1.2,10.6,3.6c2.5,2.4,3.8,5.8,3.8,10.2
								c0,4.4-1.3,7.7-3.8,10.1c-2.5,2.4-6,3.6-10.6,3.6H19.7z M9.8,72.9h22.3c8.2,0,14.4-1.8,18.5-5.5c4.2-3.7,6.3-9.1,6.3-16.2
								c0-7.2-2.1-12.6-6.3-16.3c-4.2-3.7-10.4-5.5-18.5-5.5H19.7V0H9.8V72.9z"/>
						</g>
						<g>
							<path id="DejaVuSans-65_00000122686488028039001800000008125888271299037316_" class="st8" d="M112.9,29.6v-4.4H71.6
								c0.4-6.2,2.3-10.9,5.6-14.1c3.3-3.2,8-4.9,13.9-4.9c3.4,0,6.8,0.4,10,1.3c3.2,0.8,6.5,2.1,9.7,3.8V2.8
								c-3.2-1.4-6.5-2.4-9.9-3.1C97.5-1.1,94-1.4,90.6-1.4c-8.7,0-15.6,2.5-20.7,7.6c-5.1,5.1-7.6,12-7.6,20.6
								c0,8.9,2.4,16,7.3,21.3C74.3,53.4,80.8,56,89,56c7.4,0,13.2-2.4,17.5-7.1C110.7,44.2,112.9,37.7,112.9,29.6z M103.9,32.2
								c-0.1,4.9-1.4,8.8-4.1,11.8c-2.7,2.9-6.2,4.4-10.7,4.4c-5,0-9-1.4-12-4.3c-3-2.8-4.7-6.8-5.2-12L103.9,32.2z"/>
						</g>
						<g>
							<path id="DejaVuSans-72" class="st8" d="M159.3,46.3c-1,0.6-2.1,1-3.3,1.3c-1.2,0.3-2.5,0.4-3.9,0.4c-5.1,0-9-1.7-11.7-5
								c-2.7-3.3-4.1-8-4.1-14.2V0h-9v54.7h9v-8.5c1.9,3.3,4.4,5.8,7.4,7.4c3,1.6,6.7,2.4,11,2.4c0.6,0,1.3,0,2-0.1
								c0.8-0.1,1.6-0.2,2.5-0.4L159.3,46.3z"/>
						</g>
						<g>
							<path id="DejaVuSans-66" class="st8" d="M196.4,76v-7.5h-8.6c-3.2,0-5.5-0.7-6.7-2c-1.2-1.3-1.9-3.6-1.9-7v-4.8H194v-7h-14.8
								V0h-9v47.7h-8.6v7h8.6v3.8c0,6.1,1.4,10.5,4.2,13.3c2.8,2.8,7.3,4.2,13.5,4.2H196.4z"/>
						</g>
						<g>
							<path id="DejaVuSans-6f" class="st8" d="M225.1,48.4c-4.8,0-8.6-1.9-11.4-5.6c-2.8-3.8-4.2-8.9-4.2-15.5s1.4-11.7,4.2-15.5
								c2.8-3.8,6.6-5.6,11.5-5.6c4.8,0,8.6,1.9,11.4,5.7c2.8,3.8,4.2,8.9,4.2,15.4c0,6.5-1.4,11.6-4.2,15.4
								C233.7,46.5,229.9,48.4,225.1,48.4z M225.1,56c7.8,0,13.9-2.5,18.4-7.6c4.5-5.1,6.7-12.1,6.7-21.1c0-8.9-2.2-16-6.7-21.1
								c-4.5-5.1-10.6-7.6-18.4-7.6c-7.8,0-14,2.5-18.4,7.6c-4.4,5.1-6.7,12.1-6.7,21.1c0,9,2.2,16,6.7,21.1
								C211.1,53.5,217.3,56,225.1,56z"/>
						</g>
						<g>
							<path id="DejaVuSans-72_00000129175422164323505090000000789928936255042222_" class="st8" d="M296.8,46.3
								c-1,0.6-2.1,1-3.3,1.3c-1.2,0.3-2.5,0.4-3.9,0.4c-5.1,0-9-1.7-11.7-5c-2.7-3.3-4.1-8-4.1-14.2V0h-9v54.7h9v-8.5
								c1.9,3.3,4.4,5.8,7.4,7.4c3,1.6,6.7,2.4,11,2.4c0.6,0,1.3,0,2-0.1c0.8-0.1,1.6-0.2,2.5-0.4L296.8,46.3z"/>
						</g>
						<g>
							<path id="DejaVuSans-6d" class="st8" d="M347.1,44.2c2.2,4,4.9,7,8.1,8.9s6.8,2.9,11,2.9c5.7,0,10.1-2,13.2-6
								c3.1-4,4.6-9.6,4.6-17V0h-9v32.7c0,5.2-0.9,9.1-2.8,11.7c-1.9,2.5-4.7,3.8-8.5,3.8c-4.7,0-8.3-1.5-11-4.6
								c-2.7-3.1-4-7.3-4-12.6V0h-9v32.7c0,5.3-0.9,9.2-2.8,11.7c-1.9,2.5-4.7,3.8-8.6,3.8c-4.6,0-8.2-1.6-11-4.7
								c-2.7-3.1-4-7.3-4-12.6V0h-9v54.7h9v-8.5c2.1,3.4,4.5,5.8,7.4,7.4c2.9,1.6,6.3,2.4,10.2,2.4c4,0,7.4-1,10.1-3
								C343.7,51,345.7,48,347.1,44.2z"/>
						</g>
						<g>
							<path id="DejaVuSans-61_00000013176240492458115930000005461890190851722652_" class="st8" d="M426.8,27.5
								c-7.3,0-12.3-0.8-15.1-2.5c-2.8-1.7-4.2-4.5-4.2-8.5c0-3.2,1.1-5.7,3.2-7.6c2.1-1.9,5-2.8,8.6-2.8c5,0,9,1.8,12,5.3
								c3,3.5,4.5,8.2,4.5,14.1v2H426.8z M444.7,31.2V0h-9v8.3C433.6,5,431.1,2.5,428,1s-6.8-2.4-11.2-2.4c-5.6,0-10,1.6-13.4,4.7
								c-3.3,3.1-5,7.4-5,12.6c0,6.1,2.1,10.8,6.2,13.9c4.1,3.1,10.3,4.7,18.4,4.7h12.6v0.9c0,4.1-1.4,7.3-4.1,9.6
								c-2.7,2.3-6.5,3.4-11.5,3.4c-3.1,0-6.2-0.4-9.1-1.1c-3-0.8-5.8-1.9-8.5-3.4v8.3c3.3,1.3,6.5,2.2,9.6,2.8c3.1,0.6,6.1,1,9,1
								c7.9,0,13.8-2.1,17.7-6.2C442.7,45.8,444.7,39.5,444.7,31.2z"/>
						</g>
						<g>
							<path id="DejaVuSans-6e" class="st8" d="M508.6,33V0h-9v32.7c0,5.2-1,9-3,11.6c-2,2.6-5,3.9-9.1,3.9c-4.9,0-8.7-1.5-11.5-4.6
								c-2.8-3.1-4.2-7.3-4.2-12.6V0h-9v54.7h9v-8.5c2.2,3.3,4.7,5.8,7.6,7.4c2.9,1.6,6.3,2.4,10.1,2.4c6.3,0,11-1.9,14.2-5.8
								C507,46.3,508.6,40.6,508.6,33z"/>
						</g>
						<g>
							<path id="DejaVuSans-63" class="st8" d="M565.9,52.6v-8.4c-2.5,1.4-5.1,2.5-7.6,3.2c-2.6,0.7-5.1,1-7.7,1
								c-5.8,0-10.4-1.8-13.6-5.5c-3.2-3.7-4.8-8.9-4.8-15.5s1.6-11.9,4.8-15.6c3.2-3.7,7.8-5.5,13.6-5.5c2.6,0,5.2,0.3,7.7,1
								c2.6,0.7,5.1,1.8,7.6,3.2V2.1c-2.5-1.2-5.1-2-7.8-2.6c-2.7-0.6-5.5-0.9-8.6-0.9c-8.2,0-14.8,2.6-19.6,7.8
								c-4.8,5.2-7.3,12.2-7.3,21c0,8.9,2.4,15.9,7.3,21c4.9,5.1,11.6,7.7,20.2,7.7c2.8,0,5.5-0.3,8.1-0.9
								C560.9,54.6,563.4,53.7,565.9,52.6z"/>
						</g>
						<g>
							<path id="DejaVuSans-65_00000126309626374120868300000005373291720907708333_" class="st8" d="M628.3,29.6v-4.4H587
								c0.4-6.2,2.3-10.9,5.6-14.1c3.3-3.2,8-4.9,13.9-4.9c3.4,0,6.8,0.4,10,1.3c3.2,0.8,6.5,2.1,9.7,3.8V2.8
								c-3.2-1.4-6.5-2.4-9.9-3.1c-3.4-0.7-6.8-1.1-10.3-1.1c-8.7,0-15.6,2.5-20.7,7.6c-5.1,5.1-7.6,12-7.6,20.6
								c0,8.9,2.4,16,7.2,21.3c4.8,5.3,11.4,7.9,19.6,7.9c7.4,0,13.2-2.4,17.5-7.1C626.2,44.2,628.3,37.7,628.3,29.6z M619.3,32.2
								c-0.1,4.9-1.4,8.8-4.1,11.8c-2.7,2.9-6.2,4.4-10.7,4.4c-5,0-9-1.4-12-4.3c-3-2.8-4.7-6.8-5.2-12L619.3,32.2z"/>
						</g>
					</g>
				</g>
			</g>
			<g id="xtick_3">
				<g id="line2d_3">
					<g>
						<g>
							<path id="m0a97658e4d_00000150093071639883305240000014720761439284658330_" class="st7" d="M369.1,168.7"/>
						</g>
					</g>
				</g>
				<g id="text_3">
					<g transform="translate(311.253333 198.596763)scale(0.15 -0.15)">
						<g>
							<path id="DejaVuSans-44" class="st8" d="M19.7,64.8V8.1h11.9c10.1,0,17.4,2.3,22.1,6.8c4.7,4.6,7,11.8,7,21.6
								c0,9.8-2.3,16.9-7,21.5s-12,6.8-22.1,6.8H19.7z M9.8,72.9h20.3c14.1,0,24.5-2.9,31.1-8.8c6.6-5.9,9.9-15.1,9.9-27.6
								c0-12.6-3.3-21.8-10-27.7c-6.6-5.9-17-8.8-31-8.8H9.8V72.9z"/>
						</g>
						<g>
							<path id="DejaVuSans-6f_00000135663052033103184800000011969194073408771755_" class="st8" d="M107.6,48.4
								c-4.8,0-8.6-1.9-11.4-5.6C93.4,39,92,33.8,92,27.3s1.4-11.7,4.2-15.5c2.8-3.8,6.6-5.6,11.5-5.6c4.8,0,8.6,1.9,11.4,5.7
								c2.8,3.8,4.2,8.9,4.2,15.4c0,6.5-1.4,11.6-4.2,15.4C116.2,46.5,112.4,48.4,107.6,48.4z M107.6,56c7.8,0,13.9-2.5,18.4-7.6
								c4.5-5.1,6.7-12.1,6.7-21.1c0-8.9-2.2-16-6.7-21.1c-4.5-5.1-10.6-7.6-18.4-7.6c-7.8,0-14,2.5-18.4,7.6
								c-4.4,5.1-6.7,12.1-6.7,21.1c0,9,2.2,16,6.7,21.1C93.6,53.5,99.8,56,107.6,56z"/>
						</g>
						<g>
							<path id="DejaVuSans-63_00000131329737653985673300000016193618096212421522_" class="st8" d="M187,52.6v-8.4
								c-2.5,1.4-5.1,2.5-7.6,3.2c-2.6,0.7-5.1,1-7.7,1c-5.8,0-10.4-1.8-13.6-5.5c-3.2-3.7-4.8-8.9-4.8-15.5s1.6-11.9,4.8-15.6
								c3.2-3.7,7.8-5.5,13.6-5.5c2.6,0,5.2,0.3,7.7,1c2.6,0.7,5.1,1.8,7.6,3.2V2.1c-2.5-1.2-5.1-2-7.8-2.6
								c-2.7-0.6-5.5-0.9-8.6-0.9c-8.2,0-14.8,2.6-19.6,7.8c-4.8,5.2-7.3,12.2-7.3,21c0,8.9,2.4,15.9,7.3,21
								c4.9,5.1,11.6,7.7,20.2,7.7c2.8,0,5.5-0.3,8.1-0.9C181.9,54.6,184.5,53.7,187,52.6z"/>
						</g>
						<g>
							<path id="DejaVuSans-75" class="st8" d="M201.7,21.6v33.1h9V21.9c0-5.2,1-9.1,3-11.7c2-2.6,5.1-3.9,9.1-3.9
								c4.8,0,8.7,1.5,11.5,4.6c2.8,3.1,4.2,7.3,4.2,12.7v31h9V0h-9v8.4c-2.2-3.3-4.7-5.8-7.6-7.4c-2.9-1.6-6.2-2.4-10-2.4
								c-6.3,0-11.1,2-14.3,5.9C203.3,8.3,201.7,14.1,201.7,21.6z M224.3,56L224.3,56z"/>
						</g>
						<g>
							<path id="DejaVuSans-6d_00000111151187253162278520000015694850537774269338_" class="st8" d="M308.5,44.2
								c2.2,4,4.9,7,8.1,8.9c3.1,1.9,6.8,2.9,11,2.9c5.7,0,10.1-2,13.2-6c3.1-4,4.6-9.6,4.6-17V0h-9v32.7c0,5.2-0.9,9.1-2.8,11.7
								c-1.9,2.5-4.7,3.8-8.5,3.8c-4.7,0-8.3-1.5-11-4.6c-2.7-3.1-4-7.3-4-12.6V0h-9v32.7c0,5.3-0.9,9.2-2.8,11.7
								c-1.9,2.5-4.7,3.8-8.6,3.8c-4.6,0-8.2-1.6-11-4.7c-2.7-3.1-4-7.3-4-12.6V0h-9v54.7h9v-8.5c2.1,3.4,4.5,5.8,7.4,7.4
								c2.9,1.6,6.3,2.4,10.2,2.4c4,0,7.4-1,10.1-3C305.2,51,307.2,48,308.5,44.2z"/>
						</g>
						<g>
							<path id="DejaVuSans-65_00000068669548805412298580000008561244952337758879_" class="st8" d="M410.2,29.6v-4.4h-41.3
								c0.4-6.2,2.3-10.9,5.6-14.1c3.3-3.2,8-4.9,13.9-4.9c3.4,0,6.8,0.4,10,1.3c3.2,0.8,6.5,2.1,9.7,3.8V2.8
								c-3.2-1.4-6.5-2.4-9.9-3.1c-3.4-0.7-6.8-1.1-10.3-1.1c-8.7,0-15.6,2.5-20.7,7.6c-5.1,5.1-7.6,12-7.6,20.6
								c0,8.9,2.4,16,7.2,21.3c4.8,5.3,11.4,7.9,19.6,7.9c7.4,0,13.2-2.4,17.5-7.1C408,44.2,410.2,37.7,410.2,29.6z M401.2,32.2
								c-0.1,4.9-1.4,8.8-4.1,11.8c-2.7,2.9-6.2,4.4-10.7,4.4c-5,0-9-1.4-12-4.3c-3-2.8-4.7-6.8-5.2-12L401.2,32.2z"/>
						</g>
						<g>
							<path id="DejaVuSans-6e_00000151515666561530057430000008847826141819111827_" class="st8" d="M470.4,33V0h-9v32.7
								c0,5.2-1,9-3,11.6c-2,2.6-5,3.9-9.1,3.9c-4.9,0-8.7-1.5-11.5-4.6c-2.8-3.1-4.2-7.3-4.2-12.6V0h-9v54.7h9v-8.5
								c2.2,3.3,4.7,5.8,7.6,7.4c2.9,1.6,6.3,2.4,10.1,2.4c6.3,0,11-1.9,14.2-5.8C468.8,46.3,470.4,40.6,470.4,33z"/>
						</g>
						<g>
							<path id="DejaVuSans-74_00000173847323558169864510000005678206355653549220_" class="st8" d="M497.2,70.2V54.7h18.5v-7
								h-18.5V18c0-4.5,0.6-7.3,1.8-8.6s3.7-1.9,7.5-1.9h9.2V0h-9.2c-6.9,0-11.7,1.3-14.4,3.9c-2.6,2.6-4,7.3-4,14.1v29.7h-6.6v7
								h6.6v15.5H497.2z"/>
						</g>
						<g>
							<path id="DejaVuSans-61_00000067949637145458658070000013531377119716562359_" class="st8" d="M552.3,27.5
								c-7.3,0-12.3-0.8-15.1-2.5c-2.8-1.7-4.2-4.5-4.2-8.5c0-3.2,1.1-5.7,3.2-7.6c2.1-1.9,5-2.8,8.6-2.8c5,0,9,1.8,12,5.3
								c3,3.5,4.5,8.2,4.5,14.1v2H552.3z M570.3,31.2V0h-9v8.3c-2.1-3.3-4.6-5.8-7.7-7.3s-6.8-2.4-11.2-2.4c-5.6,0-10,1.6-13.4,4.7
								c-3.3,3.1-5,7.4-5,12.6c0,6.1,2.1,10.8,6.2,13.9c4.1,3.1,10.3,4.7,18.4,4.7h12.6v0.9c0,4.1-1.4,7.3-4.1,9.6
								c-2.7,2.3-6.5,3.4-11.5,3.4c-3.1,0-6.2-0.4-9.1-1.1c-3-0.8-5.8-1.9-8.5-3.4v8.3c3.3,1.3,6.5,2.2,9.6,2.8c3.1,0.6,6.1,1,9,1
								c7.9,0,13.8-2.1,17.7-6.2C568.3,45.8,570.3,39.5,570.3,31.2z"/>
						</g>
						<g>
							<path id="DejaVuSans-74_00000105428271806842530190000007269162962574588054_" class="st8" d="M597.7,70.2V54.7h18.5v-7
								h-18.5V18c0-4.5,0.6-7.3,1.8-8.6s3.7-1.9,7.5-1.9h9.2V0h-9.2c-6.9,0-11.7,1.3-14.4,3.9c-2.6,2.6-4,7.3-4,14.1v29.7H582v7h6.6
								v15.5H597.7z"/>
						</g>
						<g>
							<path id="DejaVuSans-69_00000006709907220464370880000013642449584510139268_" class="st8" d="M628,54.7h9V0h-9V54.7z
								 M628,76h9V64.6h-9V76z"/>
						</g>
						<g>
							<path id="DejaVuSans-6f_00000080899950845281160830000003461907404082243001_" class="st8" d="M676.9,48.4
								c-4.8,0-8.6-1.9-11.4-5.6c-2.8-3.8-4.2-8.9-4.2-15.5s1.4-11.7,4.2-15.5c2.8-3.8,6.6-5.6,11.5-5.6c4.8,0,8.6,1.9,11.4,5.7
								c2.8,3.8,4.2,8.9,4.2,15.4c0,6.5-1.4,11.6-4.2,15.4C685.5,46.5,681.7,48.4,676.9,48.4z M676.9,56c7.8,0,13.9-2.5,18.4-7.6
								c4.5-5.1,6.7-12.1,6.7-21.1c0-8.9-2.2-16-6.7-21.1c-4.5-5.1-10.6-7.6-18.4-7.6c-7.8,0-14,2.5-18.4,7.6
								c-4.4,5.1-6.7,12.1-6.7,21.1c0,9,2.2,16,6.7,21.1C663,53.5,669.1,56,676.9,56z"/>
						</g>
						<g>
							<path id="DejaVuSans-6e_00000129891214503421481470000006495722528732191138_" class="st8" d="M762.4,33V0h-9v32.7
								c0,5.2-1,9-3,11.6c-2,2.6-5,3.9-9.1,3.9c-4.9,0-8.7-1.5-11.5-4.6c-2.8-3.1-4.2-7.3-4.2-12.6V0h-9v54.7h9v-8.5
								c2.2,3.3,4.7,5.8,7.6,7.4c2.9,1.6,6.3,2.4,10.1,2.4c6.3,0,11-1.9,14.2-5.8C760.8,46.3,762.4,40.6,762.4,33z"/>
						</g>
					</g>
				</g>
			</g>
			<g id="xtick_4">
				<g id="line2d_4">
					<g>
						<g>
							<path id="m0a97658e4d_00000160891933299117236700000014234462446120955041_" class="st7" d="M509.3,168.7"/>
						</g>
					</g>
				</g>
				<g id="text_4">
					<g transform="translate(459.606042 198.596763)scale(0.15 -0.15)">
						<g>
							<path id="DejaVuSans-4e" class="st8" d="M9.8,72.9h13.3l32.3-61v61H65V0H51.7L19.4,61V0H9.8V72.9z"/>
						</g>
						<g>
							<path id="DejaVuSans-65_00000176760469895889516270000016938045022333963942_" class="st8" d="M131,29.6v-4.4H89.7
								c0.4-6.2,2.3-10.9,5.6-14.1s8-4.9,13.9-4.9c3.4,0,6.8,0.4,10,1.3c3.2,0.8,6.5,2.1,9.7,3.8V2.8c-3.2-1.4-6.5-2.4-9.9-3.1
								c-3.4-0.7-6.8-1.1-10.3-1.1C100-1.4,93.1,1.1,88,6.2c-5.1,5.1-7.6,12-7.6,20.6c0,8.9,2.4,16,7.2,21.3
								c4.8,5.3,11.4,7.9,19.6,7.9c7.4,0,13.2-2.4,17.5-7.1C128.9,44.2,131,37.7,131,29.6z M122,32.2c-0.1,4.9-1.4,8.8-4.1,11.8
								c-2.7,2.9-6.2,4.4-10.7,4.4c-5,0-9-1.4-12-4.3c-3-2.8-4.7-6.8-5.2-12L122,32.2z"/>
						</g>
						<g>
							<path id="DejaVuSans-77" class="st8" d="M140.5,54.7h9L160.8,12l11.2,42.7h10.6L193.8,12l11.2,42.7h9L199.6,0H189l-11.8,44.8
								L165.4,0h-10.6L140.5,54.7z"/>
						</g>
						<g>
							<path id="DejaVuSans-20" class="st8" d="M218.1,0"/>
						</g>
						<g>
							<path id="DejaVuSans-66_00000149373752894827371470000007480705265879743111_" class="st8" d="M287,76v-7.5h-8.6
								c-3.2,0-5.5-0.7-6.7-2c-1.2-1.3-1.9-3.6-1.9-7v-4.8h14.8v-7h-14.8V0h-9v47.7h-8.6v7h8.6v3.8c0,6.1,1.4,10.5,4.2,13.3
								c2.8,2.8,7.3,4.2,13.5,4.2H287z"/>
						</g>
						<g>
							<path id="DejaVuSans-65_00000161604293989429966390000017595823723305227685_" class="st8" d="M341.3,29.6v-4.4H300
								c0.4-6.2,2.3-10.9,5.6-14.1c3.3-3.2,8-4.9,13.9-4.9c3.4,0,6.8,0.4,10,1.3c3.2,0.8,6.5,2.1,9.7,3.8V2.8
								c-3.2-1.4-6.5-2.4-9.9-3.1c-3.4-0.7-6.8-1.1-10.3-1.1c-8.7,0-15.6,2.5-20.7,7.6c-5.1,5.1-7.6,12-7.6,20.6
								c0,8.9,2.4,16,7.2,21.3c4.8,5.3,11.4,7.9,19.6,7.9c7.4,0,13.2-2.4,17.5-7.1C339.2,44.2,341.3,37.7,341.3,29.6z M332.3,32.2
								c-0.1,4.9-1.4,8.8-4.1,11.8c-2.7,2.9-6.2,4.4-10.7,4.4c-5,0-9-1.4-12-4.3c-3-2.8-4.7-6.8-5.2-12L332.3,32.2z"/>
						</g>
						<g>
							<path id="DejaVuSans-61_00000083064414829727984940000008710531121097465516_" class="st8" d="M380.9,27.5
								c-7.3,0-12.3-0.8-15.1-2.5c-2.8-1.7-4.2-4.5-4.2-8.5c0-3.2,1.1-5.7,3.2-7.6c2.1-1.9,5-2.8,8.6-2.8c5,0,9,1.8,12,5.3
								c3,3.5,4.5,8.2,4.5,14.1v2H380.9z M398.8,31.2V0h-9v8.3c-2.1-3.3-4.6-5.8-7.7-7.3s-6.8-2.4-11.2-2.4c-5.6,0-10,1.6-13.4,4.7
								c-3.3,3.1-5,7.4-5,12.6c0,6.1,2.1,10.8,6.2,13.9c4.1,3.1,10.3,4.7,18.4,4.7h12.6v0.9c0,4.1-1.4,7.3-4.1,9.6
								c-2.7,2.3-6.5,3.4-11.5,3.4c-3.1,0-6.2-0.4-9.1-1.1c-3-0.8-5.8-1.9-8.5-3.4v8.3c3.3,1.3,6.5,2.2,9.6,2.8c3.1,0.6,6.1,1,9,1
								c7.9,0,13.8-2.1,17.7-6.2C396.9,45.8,398.8,39.5,398.8,31.2z"/>
						</g>
						<g>
							<path id="DejaVuSans-74_00000053543691835915083670000002695662804384297654_" class="st8" d="M426.2,70.2V54.7h18.5v-7
								h-18.5V18c0-4.5,0.6-7.3,1.8-8.6s3.7-1.9,7.5-1.9h9.2V0h-9.2c-6.9,0-11.7,1.3-14.4,3.9c-2.6,2.6-4,7.3-4,14.1v29.7h-6.6v7
								h6.6v15.5H426.2z"/>
						</g>
						<g>
							<path id="DejaVuSans-75_00000043447487774445712100000014998726631942870967_" class="st8" d="M455.6,21.6v33.1h9V21.9
								c0-5.2,1-9.1,3-11.7c2-2.6,5.1-3.9,9.1-3.9c4.8,0,8.7,1.5,11.5,4.6c2.8,3.1,4.2,7.3,4.2,12.7v31h9V0h-9v8.4
								c-2.2-3.3-4.7-5.8-7.6-7.4c-2.9-1.6-6.2-2.4-10-2.4c-6.3,0-11.1,2-14.3,5.9C457.2,8.3,455.6,14.1,455.6,21.6z M478.2,56
								L478.2,56z"/>
						</g>
						<g>
							<path id="DejaVuSans-72_00000163043308341181202910000005843227113770269069_" class="st8" d="M551.6,46.3
								c-1,0.6-2.1,1-3.3,1.3c-1.2,0.3-2.5,0.4-3.9,0.4c-5.1,0-9-1.7-11.7-5c-2.7-3.3-4.1-8-4.1-14.2V0h-9v54.7h9v-8.5
								c1.9,3.3,4.4,5.8,7.4,7.4c3,1.6,6.7,2.4,11,2.4c0.6,0,1.3,0,2-0.1c0.8-0.1,1.6-0.2,2.5-0.4L551.6,46.3z"/>
						</g>
						<g>
							<path id="DejaVuSans-65_00000062176397930199480910000014237604221946880171_" class="st8" d="M605.6,29.6v-4.4h-41.3
								c0.4-6.2,2.3-10.9,5.6-14.1c3.3-3.2,8-4.9,13.9-4.9c3.4,0,6.8,0.4,10,1.3c3.2,0.8,6.5,2.1,9.7,3.8V2.8
								c-3.2-1.4-6.5-2.4-9.9-3.1c-3.4-0.7-6.8-1.1-10.3-1.1c-8.7,0-15.6,2.5-20.7,7.6c-5.1,5.1-7.6,12-7.6,20.6
								c0,8.9,2.4,16,7.2,21.3c4.8,5.3,11.4,7.9,19.6,7.9c7.4,0,13.2-2.4,17.5-7.1C603.4,44.2,605.6,37.7,605.6,29.6z M596.6,32.2
								c-0.1,4.9-1.4,8.8-4.1,11.8c-2.7,2.9-6.2,4.4-10.7,4.4c-5,0-9-1.4-12-4.3c-3-2.8-4.7-6.8-5.2-12L596.6,32.2z"/>
						</g>
						<g>
							<path id="DejaVuSans-73" class="st8" d="M655.2,53.1v-8.5c-2.5,1.3-5.2,2.3-7.9,2.9c-2.7,0.7-5.6,1-8.5,1
								c-4.5,0-7.8-0.7-10-2c-2.2-1.4-3.3-3.4-3.3-6.2c0-2.1,0.8-3.7,2.4-4.9s4.8-2.3,9.6-3.4l3.1-0.7c6.4-1.4,10.9-3.3,13.6-5.8
								s4-6,4-10.4c0-5.1-2-9.1-6-12.1c-4-3-9.5-4.4-16.6-4.4c-2.9,0-6,0.3-9.2,0.9c-3.2,0.6-6.5,1.4-10,2.6v9.3
								c3.3-1.7,6.6-3,9.8-3.9c3.2-0.9,6.4-1.3,9.6-1.3c4.2,0,7.5,0.7,9.8,2.2c2.3,1.4,3.4,3.5,3.4,6.1c0,2.4-0.8,4.3-2.5,5.6
								c-1.6,1.3-5.2,2.6-10.8,3.8l-3.1,0.7c-5.6,1.2-9.6,3-12.1,5.4c-2.5,2.4-3.7,5.8-3.7,10c0,5.1,1.8,9.1,5.5,11.9
								c3.6,2.8,8.8,4.2,15.5,4.2c3.3,0,6.4-0.2,9.4-0.7C650,54.8,652.7,54.1,655.2,53.1z"/>
						</g>
					</g>
				</g>
			</g>
			<g id="xtick_5">
				<g id="line2d_5">
					<g>
						<g>
							<path id="m0a97658e4d_00000101098505825349833720000015738858449981627011_" class="st7" d="M649.6,168.7"/>
						</g>
					</g>
				</g>
				<g id="text_5">
					<g transform="translate(611.517735 198.596763)scale(0.15 -0.15)">
						<g>
							<path id="DejaVuSans-50_00000119827998309306737520000003666784189388351901_" class="st8" d="M19.7,64.8V37.4h12.4
								c4.6,0,8.1,1.2,10.6,3.6c2.5,2.4,3.8,5.8,3.8,10.2c0,4.4-1.3,7.7-3.8,10.1c-2.5,2.4-6,3.6-10.6,3.6H19.7z M9.8,72.9h22.3
								c8.2,0,14.4-1.8,18.5-5.5c4.2-3.7,6.3-9.1,6.3-16.2c0-7.2-2.1-12.6-6.3-16.3c-4.2-3.7-10.4-5.5-18.5-5.5H19.7V0H9.8V72.9z"/>
						</g>
						<g>
							<path id="DejaVuSans-61_00000135663800708443565770000012498177444861196965_" class="st8" d="M90.1,27.5
								c-7.3,0-12.3-0.8-15.1-2.5c-2.8-1.7-4.2-4.5-4.2-8.5c0-3.2,1.1-5.7,3.2-7.6c2.1-1.9,5-2.8,8.6-2.8c5,0,9,1.8,12,5.3
								c3,3.5,4.5,8.2,4.5,14.1v2H90.1z M108,31.2V0h-9v8.3C97,5,94.4,2.5,91.3,1s-6.8-2.4-11.2-2.4c-5.6,0-10,1.6-13.4,4.7
								c-3.3,3.1-5,7.4-5,12.6c0,6.1,2.1,10.8,6.2,13.9c4.1,3.1,10.3,4.7,18.4,4.7H99v0.9c0,4.1-1.4,7.3-4.1,9.6
								c-2.7,2.3-6.5,3.4-11.5,3.4c-3.1,0-6.2-0.4-9.1-1.1c-3-0.8-5.8-1.9-8.5-3.4v8.3c3.3,1.3,6.5,2.2,9.6,2.8c3.1,0.6,6.1,1,9,1
								c7.9,0,13.8-2.1,17.7-6.2C106.1,45.8,108,39.5,108,31.2z"/>
						</g>
						<g>
							<path id="DejaVuSans-63_00000173872042101659783950000013306706554047680644_" class="st8" d="M165.9,52.6v-8.4
								c-2.5,1.4-5.1,2.5-7.6,3.2c-2.6,0.7-5.1,1-7.7,1c-5.8,0-10.4-1.8-13.6-5.5c-3.2-3.7-4.8-8.9-4.8-15.5s1.6-11.9,4.8-15.6
								c3.2-3.7,7.8-5.5,13.6-5.5c2.6,0,5.2,0.3,7.7,1c2.6,0.7,5.1,1.8,7.6,3.2V2.1c-2.5-1.2-5.1-2-7.8-2.6
								c-2.7-0.6-5.5-0.9-8.6-0.9c-8.2,0-14.8,2.6-19.6,7.8c-4.8,5.2-7.3,12.2-7.3,21c0,8.9,2.4,15.9,7.3,21
								c4.9,5.1,11.6,7.7,20.2,7.7c2.8,0,5.5-0.3,8.1-0.9C160.8,54.6,163.4,53.7,165.9,52.6z"/>
						</g>
						<g>
							<path id="DejaVuSans-6b" class="st8" d="M181.1,76h9V31.1L217,54.7h11.5l-29-25.6L229.7,0H218l-27.8,26.7V0h-9V76z"/>
						</g>
						<g>
							<path id="DejaVuSans-61_00000101087114283576271920000008409667304074343553_" class="st8" d="M262.5,27.5
								c-7.3,0-12.3-0.8-15.1-2.5c-2.8-1.7-4.2-4.5-4.2-8.5c0-3.2,1.1-5.7,3.2-7.6c2.1-1.9,5-2.8,8.6-2.8c5,0,9,1.8,12,5.3
								c3,3.5,4.5,8.2,4.5,14.1v2H262.5z M280.4,31.2V0h-9v8.3c-2.1-3.3-4.6-5.8-7.7-7.3s-6.8-2.4-11.2-2.4c-5.6,0-10,1.6-13.4,4.7
								c-3.3,3.1-5,7.4-5,12.6c0,6.1,2.1,10.8,6.2,13.9c4.1,3.1,10.3,4.7,18.4,4.7h12.6v0.9c0,4.1-1.4,7.3-4.1,9.6
								c-2.7,2.3-6.5,3.4-11.5,3.4c-3.1,0-6.2-0.4-9.1-1.1c-3-0.8-5.8-1.9-8.5-3.4v8.3c3.3,1.3,6.5,2.2,9.6,2.8c3.1,0.6,6.1,1,9,1
								c7.9,0,13.8-2.1,17.7-6.2C278.5,45.8,280.4,39.5,280.4,31.2z"/>
						</g>
						<g>
							<path id="DejaVuSans-67" class="st8" d="M334.9,28c0,6.5-1.3,11.6-4,15.1c-2.7,3.6-6.4,5.4-11.3,5.4c-4.8,0-8.6-1.8-11.2-5.4
								c-2.7-3.6-4-8.6-4-15.1c0-6.5,1.3-11.5,4-15.1s6.4-5.4,11.2-5.4c4.9,0,8.6,1.8,11.3,5.4C333.6,16.5,334.9,21.5,334.9,28z
								 M343.9,6.8c0-9.3-2.1-16.2-6.2-20.8c-4.1-4.5-10.5-6.8-19-6.8c-3.2,0-6.1,0.2-8.9,0.7c-2.8,0.5-5.5,1.2-8.2,2.2v8.7
								c2.6-1.4,5.2-2.5,7.8-3.2c2.6-0.7,5.2-1,7.9-1c5.9,0,10.3,1.5,13.2,4.6c2.9,3.1,4.4,7.7,4.4,13.9v4.5
								c-1.9-3.2-4.2-5.6-7.1-7.2c-2.9-1.6-6.4-2.4-10.4-2.4c-6.7,0-12.1,2.6-16.2,7.7c-4.1,5.1-6.2,11.9-6.2,20.3
								c0,8.5,2.1,15.2,6.2,20.3c4.1,5.1,9.5,7.7,16.2,7.7c4,0,7.5-0.8,10.4-2.4c2.9-1.6,5.3-4,7.1-7.2v8.3h9V6.8z"/>
						</g>
						<g>
							<path id="DejaVuSans-69_00000100351278898206187760000004120206108942467474_" class="st8" d="M362.4,54.7h9V0h-9V54.7z
								 M362.4,76h9V64.6h-9V76z"/>
						</g>
						<g>
							<path id="DejaVuSans-6e_00000097492192569230798530000005196847960218573215_" class="st8" d="M435.7,33V0h-9v32.7
								c0,5.2-1,9-3,11.6c-2,2.6-5,3.9-9.1,3.9c-4.9,0-8.7-1.5-11.5-4.6c-2.8-3.1-4.2-7.3-4.2-12.6V0h-9v54.7h9v-8.5
								c2.2,3.3,4.7,5.8,7.6,7.4c2.9,1.6,6.3,2.4,10.1,2.4c6.3,0,11-1.9,14.2-5.8C434,46.3,435.7,40.6,435.7,33z"/>
						</g>
						<g>
							<path id="DejaVuSans-67_00000093138718922677874330000000581383186066962077_" class="st8" d="M489.5,28
								c0,6.5-1.3,11.6-4,15.1c-2.7,3.6-6.4,5.4-11.3,5.4c-4.8,0-8.6-1.8-11.2-5.4c-2.7-3.6-4-8.6-4-15.1c0-6.5,1.3-11.5,4-15.1
								s6.4-5.4,11.2-5.4c4.9,0,8.6,1.8,11.3,5.4C488.2,16.5,489.5,21.5,489.5,28z M498.5,6.8c0-9.3-2.1-16.2-6.2-20.8
								c-4.1-4.5-10.5-6.8-19-6.8c-3.2,0-6.1,0.2-8.9,0.7c-2.8,0.5-5.5,1.2-8.2,2.2v8.7c2.6-1.4,5.2-2.5,7.8-3.2
								c2.6-0.7,5.2-1,7.9-1c5.9,0,10.3,1.5,13.2,4.6c2.9,3.1,4.4,7.7,4.4,13.9v4.5c-1.9-3.2-4.2-5.6-7.1-7.2
								C479.5,0.8,476.1,0,472,0c-6.7,0-12.1,2.6-16.2,7.7c-4.1,5.1-6.2,11.9-6.2,20.3c0,8.5,2.1,15.2,6.2,20.3
								c4.1,5.1,9.5,7.7,16.2,7.7c4,0,7.5-0.8,10.4-2.4c2.9-1.6,5.3-4,7.1-7.2v8.3h9V6.8z"/>
						</g>
					</g>
				</g>
			</g>
			<g id="xtick_6">
				<g id="line2d_6">
					<g>
						<g>
							<path id="m0a97658e4d_00000150091768401205823180000010465925789186512777_" class="st7" d="M789.8,168.7"/>
						</g>
					</g>
				</g>
				<g id="text_6">
					<g transform="translate(759.952476 198.596763)scale(0.15 -0.15)">
						<g>
							<path id="DejaVuSans-57" class="st8" d="M3.3,72.9h10l15.3-61.6l15.3,61.6H55l15.3-61.6l15.3,61.6h10L77.3,0H64.9L49.5,63.3
								L34,0H21.6L3.3,72.9z"/>
						</g>
						<g>
							<path id="DejaVuSans-65_00000080198694760024353390000006819842640334100389_" class="st8" d="M149.2,29.6v-4.4h-41.3
								c0.4-6.2,2.3-10.9,5.6-14.1s8-4.9,13.9-4.9c3.4,0,6.8,0.4,10,1.3s6.5,2.1,9.7,3.8V2.8c-3.2-1.4-6.5-2.4-9.9-3.1
								s-6.8-1.1-10.3-1.1c-8.7,0-15.6,2.5-20.7,7.6c-5.1,5.1-7.6,12-7.6,20.6c0,8.9,2.4,16,7.2,21.3c4.8,5.3,11.4,7.9,19.6,7.9
								c7.4,0,13.2-2.4,17.5-7.1C147.1,44.2,149.2,37.7,149.2,29.6z M140.2,32.2c-0.1,4.9-1.4,8.8-4.1,11.8
								c-2.7,2.9-6.2,4.4-10.7,4.4c-5,0-9-1.4-12-4.3c-3-2.8-4.7-6.8-5.2-12L140.2,32.2z"/>
						</g>
						<g>
							<path id="DejaVuSans-62_00000008127988247354709340000001386961921875952267_" class="st8" d="M203.2,27.3
								c0,6.6-1.4,11.8-4.1,15.5c-2.7,3.8-6.5,5.6-11.2,5.6c-4.8,0-8.5-1.9-11.2-5.6c-2.7-3.8-4.1-8.9-4.1-15.5s1.4-11.8,4.1-15.5
								s6.5-5.6,11.2-5.6c4.8,0,8.5,1.9,11.2,5.6S203.2,20.7,203.2,27.3z M172.6,46.4c1.9,3.2,4.3,5.7,7.2,7.2
								c2.9,1.6,6.3,2.4,10.3,2.4c6.6,0,12-2.6,16.2-7.9c4.2-5.3,6.2-12.2,6.2-20.8s-2.1-15.5-6.2-20.8c-4.1-5.3-9.5-7.9-16.2-7.9
								c-4,0-7.4,0.8-10.3,2.4c-2.9,1.6-5.3,4-7.2,7.2V0h-9v76h9V46.4z"/>
						</g>
						<g>
							<path id="DejaVuSans-73_00000169555759295862181200000009300986859863410361_" class="st8" d="M262.3,53.1v-8.5
								c-2.5,1.3-5.2,2.3-7.9,2.9c-2.7,0.7-5.6,1-8.5,1c-4.5,0-7.8-0.7-10-2c-2.2-1.4-3.3-3.4-3.3-6.2c0-2.1,0.8-3.7,2.4-4.9
								s4.8-2.3,9.6-3.4l3.1-0.7c6.4-1.4,10.9-3.3,13.6-5.8s4-6,4-10.4c0-5.1-2-9.1-6-12.1c-4-3-9.5-4.4-16.6-4.4
								c-2.9,0-6,0.3-9.2,0.9c-3.2,0.6-6.5,1.4-10,2.6v9.3c3.3-1.7,6.6-3,9.8-3.9c3.2-0.9,6.4-1.3,9.6-1.3c4.2,0,7.5,0.7,9.8,2.2
								c2.3,1.4,3.4,3.5,3.4,6.1c0,2.4-0.8,4.3-2.5,5.6c-1.6,1.3-5.2,2.6-10.8,3.8l-3.1,0.7c-5.6,1.2-9.6,3-12.1,5.4
								c-2.5,2.4-3.7,5.8-3.7,10c0,5.1,1.8,9.1,5.5,11.9c3.6,2.8,8.8,4.2,15.5,4.2c3.3,0,6.4-0.2,9.4-0.7
								C257.1,54.8,259.8,54.1,262.3,53.1z"/>
						</g>
						<g>
							<path id="DejaVuSans-69_00000143599944435968850230000013240361190263548093_" class="st8" d="M279.5,54.7h9V0h-9V54.7z
								 M279.5,76h9V64.6h-9V76z"/>
						</g>
						<g>
							<path id="DejaVuSans-74_00000070838891142825837420000018237267097605898644_" class="st8" d="M316.2,70.2V54.7h18.5v-7
								h-18.5V18c0-4.5,0.6-7.3,1.8-8.6s3.7-1.9,7.5-1.9h9.2V0h-9.2c-6.9,0-11.7,1.3-14.4,3.9c-2.6,2.6-4,7.3-4,14.1v29.7h-6.6v7
								h6.6v15.5H316.2z"/>
						</g>
						<g>
							<path id="DejaVuSans-65_00000160188870109894946300000017676581519008846783_" class="st8" d="M393.3,29.6v-4.4H352
								c0.4-6.2,2.3-10.9,5.6-14.1c3.3-3.2,8-4.9,13.9-4.9c3.4,0,6.8,0.4,10,1.3c3.2,0.8,6.5,2.1,9.7,3.8V2.8
								c-3.2-1.4-6.5-2.4-9.9-3.1c-3.4-0.7-6.8-1.1-10.3-1.1c-8.7,0-15.6,2.5-20.7,7.6c-5.1,5.1-7.6,12-7.6,20.6
								c0,8.9,2.4,16,7.2,21.3c4.8,5.3,11.4,7.9,19.6,7.9c7.4,0,13.2-2.4,17.5-7.1C391.2,44.2,393.3,37.7,393.3,29.6z M384.3,32.2
								c-0.1,4.9-1.4,8.8-4.1,11.8c-2.7,2.9-6.2,4.4-10.7,4.4c-5,0-9-1.4-12-4.3c-3-2.8-4.7-6.8-5.2-12L384.3,32.2z"/>
						</g>
					</g>
					<g transform="translate(757.438804 215.393482)scale(0.15 -0.15)">
						<g>
							<path id="DejaVuSans-72_00000032607057515976154530000018107017843935059594_" class="st8" d="M41.1,46.3
								c-1,0.6-2.1,1-3.3,1.3c-1.2,0.3-2.5,0.4-3.9,0.4c-5.1,0-9-1.7-11.7-5s-4.1-8-4.1-14.2V0h-9v54.7h9v-8.5
								c1.9,3.3,4.4,5.8,7.4,7.4c3,1.6,6.7,2.4,11,2.4c0.6,0,1.3,0,2-0.1c0.8-0.1,1.6-0.2,2.5-0.4L41.1,46.3z"/>
						</g>
						<g>
							<path id="DejaVuSans-65_00000135666962984964517180000000540743262451460250_" class="st8" d="M95.1,29.6v-4.4H53.8
								c0.4-6.2,2.3-10.9,5.6-14.1c3.3-3.2,8-4.9,13.9-4.9c3.4,0,6.8,0.4,10,1.3c3.2,0.8,6.5,2.1,9.7,3.8V2.8
								c-3.2-1.4-6.5-2.4-9.9-3.1c-3.4-0.7-6.8-1.1-10.3-1.1C64-1.4,57.1,1.1,52,6.2c-5.1,5.1-7.6,12-7.6,20.6
								c0,8.9,2.4,16,7.2,21.3C56.5,53.4,63,56,71.2,56c7.4,0,13.2-2.4,17.5-7.1C92.9,44.2,95.1,37.7,95.1,29.6z M86.1,32.2
								C86,37.1,84.6,41.1,82,44c-2.7,2.9-6.2,4.4-10.7,4.4c-5,0-9-1.4-12-4.2c-3-2.8-4.7-6.8-5.2-12L86.1,32.2z"/>
						</g>
						<g>
							<path id="DejaVuSans-64" class="st8" d="M145.8,46.4V76h9V0h-9v8.2c-1.9-3.3-4.3-5.7-7.2-7.3c-2.9-1.6-6.3-2.4-10.4-2.4
								c-6.6,0-12,2.6-16.1,7.9c-4.1,5.3-6.2,12.2-6.2,20.8s2.1,15.5,6.2,20.8c4.2,5.3,9.5,7.9,16.1,7.9c4,0,7.5-0.8,10.4-2.4
								C141.5,52.1,143.9,49.6,145.8,46.4z M115.2,27.3c0-6.6,1.4-11.8,4.1-15.5s6.5-5.6,11.2-5.6s8.5,1.9,11.2,5.6
								c2.7,3.8,4.1,8.9,4.1,15.5s-1.4,11.8-4.1,15.5c-2.7,3.8-6.5,5.6-11.2,5.6s-8.5-1.9-11.2-5.6S115.2,33.9,115.2,27.3z"/>
						</g>
						<g>
							<path id="DejaVuSans-65_00000121267000871444722950000004271897259192403613_" class="st8" d="M220.1,29.6v-4.4h-41.3
								c0.4-6.2,2.3-10.9,5.6-14.1c3.3-3.2,8-4.9,13.9-4.9c3.4,0,6.8,0.4,10,1.3c3.2,0.8,6.5,2.1,9.7,3.8V2.8
								c-3.2-1.4-6.5-2.4-9.9-3.1c-3.4-0.7-6.8-1.1-10.3-1.1c-8.7,0-15.6,2.5-20.7,7.6c-5.1,5.1-7.6,12-7.6,20.6
								c0,8.9,2.4,16,7.2,21.3c4.8,5.3,11.4,7.9,19.6,7.9c7.4,0,13.2-2.4,17.5-7.1C217.9,44.2,220.1,37.7,220.1,29.6z M211.1,32.2
								c-0.1,4.9-1.4,8.8-4.1,11.8c-2.7,2.9-6.2,4.4-10.7,4.4c-5,0-9-1.4-12-4.2c-3-2.8-4.7-6.8-5.2-12L211.1,32.2z"/>
						</g>
						<g>
							<path id="DejaVuSans-73_00000169528882035273818690000014879080295892293817_" class="st8" d="M269.7,53.1v-8.5
								c-2.5,1.3-5.2,2.3-7.9,2.9c-2.7,0.7-5.6,1-8.5,1c-4.5,0-7.8-0.7-10-2c-2.2-1.4-3.3-3.4-3.3-6.2c0-2.1,0.8-3.7,2.4-4.9
								s4.8-2.3,9.6-3.4l3.1-0.7c6.4-1.4,10.9-3.3,13.6-5.8s4-6,4-10.4c0-5.1-2-9.1-6-12.1c-4-3-9.5-4.4-16.6-4.4
								c-2.9,0-6,0.3-9.2,0.9c-3.2,0.6-6.5,1.4-10,2.6v9.3c3.3-1.7,6.6-3,9.8-3.9c3.2-0.9,6.4-1.3,9.6-1.3c4.2,0,7.5,0.7,9.7,2.2
								c2.3,1.4,3.4,3.5,3.4,6.1c0,2.4-0.8,4.3-2.5,5.6c-1.6,1.3-5.2,2.6-10.8,3.8l-3.1,0.7c-5.6,1.2-9.6,3-12.1,5.4
								c-2.5,2.4-3.7,5.8-3.7,10c0,5.1,1.8,9.1,5.5,11.9c3.6,2.8,8.8,4.2,15.5,4.2c3.3,0,6.4-0.2,9.4-0.7
								C264.5,54.8,267.2,54.1,269.7,53.1z"/>
						</g>
						<g>
							<path id="DejaVuSans-69_00000052076483212188581980000003049233997018751872_" class="st8" d="M286.9,54.7h9V0h-9V54.7z
								 M286.9,76h9V64.6h-9V76z"/>
						</g>
						<g>
							<path id="DejaVuSans-67_00000077320462793514275460000011938290455497594790_" class="st8" d="M350.7,28
								c0,6.5-1.3,11.6-4,15.1c-2.7,3.6-6.4,5.4-11.3,5.4c-4.8,0-8.6-1.8-11.2-5.4c-2.7-3.6-4-8.6-4-15.1c0-6.5,1.3-11.5,4-15.1
								s6.4-5.4,11.2-5.4c4.9,0,8.6,1.8,11.3,5.4C349.3,16.5,350.7,21.5,350.7,28z M359.7,6.8c0-9.3-2.1-16.2-6.2-20.8
								c-4.1-4.5-10.5-6.8-19-6.8c-3.2,0-6.1,0.2-8.9,0.7c-2.8,0.5-5.5,1.2-8.2,2.2v8.7c2.6-1.4,5.2-2.5,7.8-3.2
								c2.6-0.7,5.2-1,7.9-1c5.9,0,10.3,1.5,13.2,4.6c2.9,3.1,4.4,7.7,4.4,13.9v4.5c-1.9-3.2-4.2-5.6-7.1-7.2
								c-2.9-1.6-6.4-2.4-10.4-2.4c-6.7,0-12.1,2.6-16.2,7.7c-4.1,5.1-6.2,11.9-6.2,20.3c0,8.5,2.1,15.2,6.2,20.3
								c4.1,5.1,9.5,7.7,16.2,7.7c4,0,7.5-0.8,10.4-2.4c2.9-1.6,5.3-4,7.1-7.2v8.3h9V6.8z"/>
						</g>
						<g>
							<path id="DejaVuSans-6e_00000011013426499229422080000015909521135111748241_" class="st8" d="M423.6,33V0h-9v32.7
								c0,5.2-1,9-3,11.6c-2,2.6-5,3.9-9.1,3.9c-4.9,0-8.7-1.5-11.5-4.6c-2.8-3.1-4.2-7.3-4.2-12.6V0h-9v54.7h9v-8.5
								c2.2,3.3,4.7,5.8,7.6,7.4c2.9,1.6,6.3,2.4,10.1,2.4c6.3,0,11-1.9,14.2-5.8C422,46.3,423.6,40.6,423.6,33z"/>
						</g>
					</g>
				</g>
			</g>
		</g>
		<g id="text_7">
			<g transform="translate(66.324087 22.396875)scale(0.2 -0.2)">
				<g>
					<path id="DejaVuSans-32" class="st8" d="M19.2,8.3h34.4V0H7.3v8.3c3.7,3.9,8.8,9.1,15.3,15.6c6.5,6.5,10.5,10.7,12.2,12.6
						c3.2,3.5,5.4,6.5,6.6,9c1.3,2.5,1.9,4.9,1.9,7.2c0,3.9-1.4,7-4.1,9.5c-2.7,2.4-6.3,3.7-10.6,3.7c-3.1,0-6.4-0.5-9.8-1.6
						c-3.4-1.1-7.1-2.7-11-4.9v10c4,1.6,7.7,2.8,11.1,3.6c3.5,0.8,6.6,1.2,9.5,1.2c7.6,0,13.6-1.9,18.1-5.7
						c4.5-3.8,6.7-8.8,6.7-15.1c0-3-0.6-5.8-1.7-8.5c-1.1-2.7-3.2-5.8-6.1-9.5c-0.8-0.9-3.4-3.7-7.8-8.2
						C33.3,22.7,27.1,16.4,19.2,8.3z"/>
				</g>
				<g>
					<path id="DejaVuSans-38" class="st8" d="M95.4,34.6c-4.7,0-8.4-1.3-11.1-3.8c-2.7-2.5-4-6-4-10.3c0-4.4,1.3-7.8,4-10.4
						c2.7-2.5,6.4-3.8,11.1-3.8s8.4,1.3,11.1,3.8c2.7,2.5,4.1,6,4.1,10.3c0,4.4-1.3,7.8-4,10.3C103.8,33.4,100.1,34.6,95.4,34.6z
						 M85.5,38.8c-4.2,1-7.5,3-9.9,5.9c-2.4,2.9-3.5,6.4-3.5,10.6c0,5.8,2.1,10.4,6.2,13.8c4.2,3.4,9.8,5.1,17.1,5.1
						c7.3,0,13-1.7,17.1-5.1c4.1-3.4,6.2-8,6.2-13.8c0-4.2-1.2-7.7-3.5-10.6c-2.4-2.9-5.6-4.9-9.8-5.9c4.8-1.1,8.4-3.3,11.1-6.5
						c2.7-3.2,4-7.2,4-11.8c0-7.1-2.2-12.5-6.5-16.3c-4.3-3.8-10.5-5.7-18.5-5.7c-8,0-14.2,1.9-18.5,5.7c-4.3,3.8-6.5,9.2-6.5,16.3
						c0,4.6,1.3,8.6,4,11.8C77.1,35.5,80.8,37.7,85.5,38.8z M81.9,54.4c0-3.8,1.2-6.7,3.5-8.8c2.4-2.1,5.7-3.2,9.9-3.2
						c4.2,0,7.6,1.1,9.9,3.2c2.4,2.1,3.6,5.1,3.6,8.8c0,3.8-1.2,6.7-3.6,8.8c-2.4,2.1-5.7,3.2-9.9,3.2c-4.3,0-7.6-1.1-9.9-3.2
						C83.1,61.1,81.9,58.2,81.9,54.4z"/>
				</g>
				<g>
					<path id="DejaVuSans-25" class="st8" d="M199.9,32.1c-2.8,0-5.1-1.2-6.7-3.6c-1.6-2.4-2.4-5.8-2.4-10.1c0-4.2,0.8-7.6,2.4-10
						c1.6-2.4,3.8-3.6,6.7-3.6c2.8,0,5,1.2,6.6,3.6c1.6,2.4,2.4,5.8,2.4,10c0,4.3-0.8,7.6-2.4,10C204.9,30.9,202.7,32.1,199.9,32.1z
						 M199.9,38.3c5.1,0,9.2-1.8,12.2-5.4c3-3.6,4.5-8.4,4.5-14.5c0-6.1-1.5-10.9-4.6-14.5c-3-3.6-7.1-5.3-12.2-5.3
						c-5.2,0-9.3,1.8-12.4,5.3c-3,3.6-4.5,8.4-4.5,14.5c0,6.1,1.5,11,4.6,14.5S194.8,38.3,199.9,38.3z M149.6,68
						c-2.8,0-5-1.2-6.6-3.6c-1.6-2.4-2.4-5.7-2.4-10c0-4.3,0.8-7.6,2.4-10.1c1.6-2.4,3.8-3.6,6.6-3.6c2.8,0,5.1,1.2,6.7,3.6
						c1.6,2.4,2.4,5.8,2.4,10.1c0,4.2-0.8,7.5-2.4,10C154.6,66.8,152.4,68,149.6,68z M193.7,74.2h7.8L155.9-1.4H148L193.7,74.2z
						 M149.6,74.2c5.1,0,9.2-1.8,12.3-5.3c3.1-3.6,4.6-8.4,4.6-14.5c0-6.1-1.5-11-4.6-14.5c-3-3.6-7.2-5.3-12.3-5.3
						c-5.2,0-9.3,1.8-12.3,5.3c-3,3.6-4.5,8.4-4.5,14.5c0,6.1,1.5,10.9,4.5,14.5C140.3,72.4,144.4,74.2,149.6,74.2z"/>
				</g>
			</g>
		</g>
		<g id="text_8">
			<g transform="translate(206.583827 22.396875)scale(0.2 -0.2)">
				<g>
					<path id="DejaVuSans-32_00000022558587732445336320000005758187721709206455_" class="st8" d="M19.2,8.3h34.4V0H7.3v8.3
						c3.7,3.9,8.8,9.1,15.3,15.6c6.5,6.5,10.5,10.7,12.2,12.6c3.2,3.5,5.4,6.5,6.6,9c1.3,2.5,1.9,4.9,1.9,7.2c0,3.9-1.4,7-4.1,9.5
						c-2.7,2.4-6.3,3.7-10.6,3.7c-3.1,0-6.4-0.5-9.8-1.6c-3.4-1.1-7.1-2.7-11-4.9v10c4,1.6,7.7,2.8,11.1,3.6
						c3.5,0.8,6.6,1.2,9.5,1.2c7.6,0,13.6-1.9,18.1-5.7c4.5-3.8,6.7-8.8,6.7-15.1c0-3-0.6-5.8-1.7-8.5c-1.1-2.7-3.2-5.8-6.1-9.5
						c-0.8-0.9-3.4-3.7-7.8-8.2C33.3,22.7,27.1,16.4,19.2,8.3z"/>
				</g>
				<g>
					<path id="DejaVuSans-38_00000183942736014885315510000014641273328643578286_" class="st8" d="M95.4,34.6
						c-4.7,0-8.4-1.3-11.1-3.8c-2.7-2.5-4-6-4-10.3c0-4.4,1.3-7.8,4-10.4c2.7-2.5,6.4-3.8,11.1-3.8s8.4,1.3,11.1,3.8
						c2.7,2.5,4.1,6,4.1,10.3c0,4.4-1.3,7.8-4,10.3C103.8,33.4,100.1,34.6,95.4,34.6z M85.5,38.8c-4.2,1-7.5,3-9.9,5.9
						c-2.4,2.9-3.5,6.4-3.5,10.6c0,5.8,2.1,10.4,6.2,13.8c4.2,3.4,9.8,5.1,17.1,5.1c7.3,0,13-1.7,17.1-5.1c4.1-3.4,6.2-8,6.2-13.8
						c0-4.2-1.2-7.7-3.5-10.6c-2.4-2.9-5.6-4.9-9.8-5.9c4.8-1.1,8.4-3.3,11.1-6.5c2.7-3.2,4-7.2,4-11.8c0-7.1-2.2-12.5-6.5-16.3
						c-4.3-3.8-10.5-5.7-18.5-5.7c-8,0-14.2,1.9-18.5,5.7c-4.3,3.8-6.5,9.2-6.5,16.3c0,4.6,1.3,8.6,4,11.8
						C77.1,35.5,80.8,37.7,85.5,38.8z M81.9,54.4c0-3.8,1.2-6.7,3.5-8.8c2.4-2.1,5.7-3.2,9.9-3.2c4.2,0,7.6,1.1,9.9,3.2
						c2.4,2.1,3.6,5.1,3.6,8.8c0,3.8-1.2,6.7-3.6,8.8c-2.4,2.1-5.7,3.2-9.9,3.2c-4.3,0-7.6-1.1-9.9-3.2
						C83.1,61.1,81.9,58.2,81.9,54.4z"/>
				</g>
				<g>
					<path id="DejaVuSans-25_00000158730880584687106360000001085594100799534519_" class="st8" d="M199.9,32.1
						c-2.8,0-5.1-1.2-6.7-3.6c-1.6-2.4-2.4-5.8-2.4-10.1c0-4.2,0.8-7.6,2.4-10c1.6-2.4,3.8-3.6,6.7-3.6c2.8,0,5,1.2,6.6,3.6
						c1.6,2.4,2.4,5.8,2.4,10c0,4.3-0.8,7.6-2.4,10C204.9,30.9,202.7,32.1,199.9,32.1z M199.9,38.3c5.1,0,9.2-1.8,12.2-5.4
						c3-3.6,4.5-8.4,4.5-14.5c0-6.1-1.5-10.9-4.6-14.5c-3-3.6-7.1-5.3-12.2-5.3c-5.2,0-9.3,1.8-12.4,5.3c-3,3.6-4.5,8.4-4.5,14.5
						c0,6.1,1.5,11,4.6,14.5S194.8,38.3,199.9,38.3z M149.6,68c-2.8,0-5-1.2-6.6-3.6c-1.6-2.4-2.4-5.7-2.4-10
						c0-4.3,0.8-7.6,2.4-10.1c1.6-2.4,3.8-3.6,6.6-3.6s5.1,1.2,6.7,3.6c1.6,2.4,2.4,5.8,2.4,10.1c0,4.2-0.8,7.5-2.4,10
						C154.6,66.8,152.4,68,149.6,68z M193.7,74.2h7.8L155.9-1.4H148L193.7,74.2z M149.6,74.2c5.1,0,9.2-1.8,12.3-5.3
						c3.1-3.6,4.6-8.4,4.6-14.5c0-6.1-1.5-11-4.6-14.5s-7.2-5.3-12.3-5.3s-9.3,1.8-12.3,5.3c-3,3.6-4.5,8.4-4.5,14.5
						c0,6.1,1.5,10.9,4.5,14.5C140.3,72.4,144.4,74.2,149.6,74.2z"/>
				</g>
			</g>
		</g>
		<g id="text_9">
			<g transform="translate(346.843567 66.478508)scale(0.2 -0.2)">
				<g>
					<path id="DejaVuSans-31" class="st8" d="M12.4,8.3h16.1v55.6L11,60.4v9l17.4,3.5h9.9V8.3h16.1V0h-42V8.3z"/>
				</g>
				<g>
					<path id="DejaVuSans-39" class="st8" d="M74.6,1.5v9c2.5-1.2,5-2.1,7.5-2.7c2.5-0.6,5-0.9,7.5-0.9c6.5,0,11.5,2.2,14.9,6.6
						c3.4,4.4,5.4,11,5.9,20c-1.9-2.8-4.3-5-7.2-6.5c-2.9-1.5-6.1-2.2-9.6-2.2c-7.3,0-13.1,2.2-17.3,6.6c-4.2,4.4-6.4,10.5-6.4,18.1
						c0,7.5,2.2,13.5,6.6,18c4.4,4.5,10.3,6.8,17.7,6.8c8.4,0,14.9-3.2,19.3-9.7c4.4-6.5,6.7-15.8,6.7-28.1
						c0-11.5-2.7-20.7-8.2-27.5C106.6,2,99.3-1.4,90-1.4c-2.5,0-5,0.2-7.5,0.7C80-0.2,77.3,0.5,74.6,1.5z M94.2,32.4
						c4.4,0,7.9,1.5,10.5,4.5c2.6,3,3.9,7.2,3.9,12.5c0,5.2-1.3,9.4-3.9,12.4c-2.6,3-6.1,4.6-10.5,4.6s-7.9-1.5-10.5-4.6
						c-2.6-3-3.9-7.2-3.9-12.4c0-5.3,1.3-9.4,3.9-12.5C86.3,33.9,89.8,32.4,94.2,32.4z"/>
				</g>
				<g>
					<path id="DejaVuSans-25_00000124124558783392358330000018001620261434570384_" class="st8" d="M199.9,32.1
						c-2.8,0-5.1-1.2-6.7-3.6c-1.6-2.4-2.4-5.8-2.4-10.1c0-4.2,0.8-7.6,2.4-10c1.6-2.4,3.8-3.6,6.7-3.6c2.8,0,5,1.2,6.6,3.6
						c1.6,2.4,2.4,5.8,2.4,10c0,4.3-0.8,7.6-2.4,10C204.9,30.9,202.7,32.1,199.9,32.1z M199.9,38.3c5.1,0,9.2-1.8,12.2-5.4
						c3-3.6,4.5-8.4,4.5-14.5c0-6.1-1.5-10.9-4.6-14.5c-3-3.6-7.1-5.3-12.2-5.3c-5.2,0-9.3,1.8-12.4,5.3c-3,3.6-4.5,8.4-4.5,14.5
						c0,6.1,1.5,11,4.6,14.5S194.8,38.3,199.9,38.3z M149.6,68c-2.8,0-5-1.2-6.6-3.6c-1.6-2.4-2.4-5.7-2.4-10
						c0-4.3,0.8-7.6,2.4-10.1c1.6-2.4,3.8-3.6,6.6-3.6s5.1,1.2,6.7,3.6c1.6,2.4,2.4,5.8,2.4,10.1c0,4.2-0.8,7.5-2.4,10
						C154.6,66.8,152.4,68,149.6,68z M193.7,74.2h7.8L155.9-1.4H148L193.7,74.2z M149.6,74.2c5.1,0,9.2-1.8,12.3-5.3
						c3.1-3.6,4.6-8.4,4.6-14.5c0-6.1-1.5-11-4.6-14.5s-7.2-5.3-12.3-5.3s-9.3,1.8-12.3,5.3c-3,3.6-4.5,8.4-4.5,14.5
						c0,6.1,1.5,10.9,4.5,14.5C140.3,72.4,144.4,74.2,149.6,74.2z"/>
				</g>
			</g>
		</g>
		<g id="text_10">
			<g transform="translate(487.103308 86.070344)scale(0.2 -0.2)">
				<g>
					<path id="DejaVuSans-31_00000046336833435570923230000012835542890834467225_" class="st8" d="M12.4,8.3h16.1v55.6L11,60.4v9
						l17.4,3.5h9.9V8.3h16.1V0h-42V8.3z"/>
				</g>
				<g>
					<path id="DejaVuSans-35" class="st8" d="M74.4,72.9h38.7v-8.3H83.5V46.7c1.4,0.5,2.9,0.9,4.3,1.1c1.4,0.2,2.9,0.4,4.3,0.4
						c8.1,0,14.6-2.2,19.3-6.7c4.8-4.5,7.1-10.5,7.1-18.1c0-7.8-2.4-13.9-7.3-18.3c-4.9-4.3-11.8-6.5-20.7-6.5
						c-3.1,0-6.2,0.3-9.4,0.8c-3.2,0.5-6.4,1.3-9.8,2.3v9.9c2.9-1.6,6-2.8,9.1-3.6s6.4-1.2,9.9-1.2c5.6,0,10.1,1.5,13.4,4.4
						c3.3,3,4.9,7,4.9,12.1c0,5.1-1.6,9.1-4.9,12c-3.3,3-7.7,4.5-13.4,4.5c-2.6,0-5.3-0.3-7.9-0.9c-2.6-0.6-5.3-1.5-8-2.7V72.9z"/>
				</g>
				<g>
					<path id="DejaVuSans-25_00000112606142921741164940000018025356455220445831_" class="st8" d="M199.9,32.1
						c-2.8,0-5.1-1.2-6.7-3.6c-1.6-2.4-2.4-5.8-2.4-10.1c0-4.2,0.8-7.6,2.4-10c1.6-2.4,3.8-3.6,6.7-3.6c2.8,0,5,1.2,6.6,3.6
						c1.6,2.4,2.4,5.8,2.4,10c0,4.3-0.8,7.6-2.4,10C204.9,30.9,202.7,32.1,199.9,32.1z M199.9,38.3c5.1,0,9.2-1.8,12.2-5.4
						c3-3.6,4.5-8.4,4.5-14.5c0-6.1-1.5-10.9-4.6-14.5c-3-3.6-7.1-5.3-12.2-5.3c-5.2,0-9.3,1.8-12.4,5.3c-3,3.6-4.5,8.4-4.5,14.5
						c0,6.1,1.5,11,4.6,14.5S194.8,38.3,199.9,38.3z M149.6,68c-2.8,0-5-1.2-6.6-3.6c-1.6-2.4-2.4-5.7-2.4-10
						c0-4.3,0.8-7.6,2.4-10.1c1.6-2.4,3.8-3.6,6.6-3.6c2.8,0,5.1,1.2,6.7,3.6c1.6,2.4,2.4,5.8,2.4,10.1c0,4.2-0.8,7.5-2.4,10
						C154.6,66.8,152.4,68,149.6,68z M193.7,74.2h7.8L155.9-1.4H148L193.7,74.2z M149.6,74.2c5.1,0,9.2-1.8,12.3-5.3
						c3.1-3.6,4.6-8.4,4.6-14.5c0-6.1-1.5-11-4.6-14.5c-3-3.6-7.2-5.3-12.3-5.3c-5.2,0-9.3,1.8-12.3,5.3c-3,3.6-4.5,8.4-4.5,14.5
						c0,6.1,1.5,10.9,4.5,14.5C140.3,72.4,144.4,74.2,149.6,74.2z"/>
				</g>
			</g>
		</g>
		<g id="text_11">
			<g transform="translate(633.725548 135.049936)scale(0.2 -0.2)">
				<g>
					<path id="DejaVuSans-35_00000103246481452554157050000002659955150779740337_" class="st8" d="M10.8,72.9h38.7v-8.3H19.8V46.7
						c1.4,0.5,2.9,0.9,4.3,1.1c1.4,0.2,2.9,0.4,4.3,0.4c8.1,0,14.6-2.2,19.3-6.7c4.8-4.5,7.1-10.5,7.1-18.1c0-7.8-2.4-13.9-7.3-18.3
						c-4.9-4.3-11.8-6.5-20.7-6.5c-3.1,0-6.2,0.3-9.4,0.8c-3.2,0.5-6.4,1.3-9.8,2.3v9.9c2.9-1.6,6-2.8,9.1-3.6s6.4-1.2,9.9-1.2
						c5.6,0,10.1,1.5,13.4,4.4c3.3,3,4.9,7,4.9,12.1c0,5.1-1.6,9.1-4.9,12c-3.3,3-7.7,4.5-13.4,4.5c-2.6,0-5.3-0.3-7.9-0.9
						c-2.6-0.6-5.3-1.5-8-2.7V72.9z"/>
				</g>
				<g>
					<path id="DejaVuSans-25_00000152965287665440293440000015028153849011340949_" class="st8" d="M136.3,32.1
						c-2.8,0-5.1-1.2-6.7-3.6c-1.6-2.4-2.4-5.8-2.4-10.1c0-4.2,0.8-7.6,2.4-10c1.6-2.4,3.8-3.6,6.7-3.6c2.8,0,5,1.2,6.6,3.6
						c1.6,2.4,2.4,5.8,2.4,10c0,4.3-0.8,7.6-2.4,10C141.3,30.9,139.1,32.1,136.3,32.1z M136.3,38.3c5.1,0,9.2-1.8,12.2-5.4
						c3-3.6,4.5-8.4,4.5-14.5c0-6.1-1.5-10.9-4.6-14.5c-3-3.6-7.1-5.3-12.2-5.3c-5.2,0-9.3,1.8-12.4,5.3c-3,3.6-4.5,8.4-4.5,14.5
						c0,6.1,1.5,11,4.6,14.5C127,36.5,131.1,38.3,136.3,38.3z M85.9,68c-2.8,0-5-1.2-6.6-3.6c-1.6-2.4-2.4-5.7-2.4-10
						c0-4.3,0.8-7.6,2.4-10.1c1.6-2.4,3.8-3.6,6.6-3.6s5.1,1.2,6.7,3.6c1.6,2.4,2.4,5.8,2.4,10.1c0,4.2-0.8,7.5-2.4,10
						C91,66.8,88.7,68,85.9,68z M130,74.2h7.8L92.2-1.4h-7.8L130,74.2z M85.9,74.2c5.1,0,9.2-1.8,12.3-5.3c3.1-3.6,4.6-8.4,4.6-14.5
						c0-6.1-1.5-11-4.6-14.5c-3-3.6-7.2-5.3-12.3-5.3s-9.3,1.8-12.3,5.3c-3,3.6-4.5,8.4-4.5,14.5c0,6.1,1.5,10.9,4.5,14.5
						C76.7,72.4,80.8,74.2,85.9,74.2z"/>
				</g>
			</g>
		</g>
		<g id="text_12">
			<g transform="translate(773.985288 139.947895)scale(0.2 -0.2)">
				<g>
					<path id="DejaVuSans-34" class="st8" d="M37.8,64.3L12.9,25.4h24.9V64.3z M35.2,72.9h12.4V25.4H58v-8.2H47.6V0h-9.8v17.2H4.9
						v9.5L35.2,72.9z"/>
				</g>
				<g>
					<path id="DejaVuSans-25_00000114763216063366815350000008591127851903913384_" class="st8" d="M136.3,32.1
						c-2.8,0-5.1-1.2-6.7-3.6c-1.6-2.4-2.4-5.8-2.4-10.1c0-4.2,0.8-7.6,2.4-10c1.6-2.4,3.8-3.6,6.7-3.6c2.8,0,5,1.2,6.6,3.6
						c1.6,2.4,2.4,5.8,2.4,10c0,4.3-0.8,7.6-2.4,10C141.3,30.9,139.1,32.1,136.3,32.1z M136.3,38.3c5.1,0,9.2-1.8,12.2-5.4
						c3-3.6,4.5-8.4,4.5-14.5c0-6.1-1.5-10.9-4.6-14.5c-3-3.6-7.1-5.3-12.2-5.3c-5.2,0-9.3,1.8-12.4,5.3c-3,3.6-4.5,8.4-4.5,14.5
						c0,6.1,1.5,11,4.6,14.5C127,36.5,131.1,38.3,136.3,38.3z M85.9,68c-2.8,0-5-1.2-6.6-3.6c-1.6-2.4-2.4-5.7-2.4-10
						c0-4.3,0.8-7.6,2.4-10.1c1.6-2.4,3.8-3.6,6.6-3.6s5.1,1.2,6.7,3.6c1.6,2.4,2.4,5.8,2.4,10.1c0,4.2-0.8,7.5-2.4,10
						C91,66.8,88.7,68,85.9,68z M130,74.2h7.8L92.2-1.4h-7.8L130,74.2z M85.9,74.2c5.1,0,9.2-1.8,12.3-5.3c3.1-3.6,4.6-8.4,4.6-14.5
						c0-6.1-1.5-11-4.6-14.5s-7.2-5.3-12.3-5.3s-9.3,1.8-12.3,5.3c-3,3.6-4.5,8.4-4.5,14.5c0,6.1,1.5,10.9,4.5,14.5
						C76.7,72.4,80.8,74.2,85.9,74.2z"/>
				</g>
			</g>
		</g>
	</g>
</g>
</svg>
