<?xml version="1.0" encoding="utf-8"?>
<!-- Generator: Adobe Illustrator 26.0.2, SVG Export Plug-In . SVG Version: 6.00 Build 0)  -->
<svg version="1.1" id="Layer_1" xmlns="http://www.w3.org/2000/svg" xmlns:xlink="http://www.w3.org/1999/xlink" x="0px" y="0px"
	 viewBox="0 0 734.4 242.5" style="enable-background:new 0 0 734.4 242.5;" xml:space="preserve">
<style type="text/css">
	.st0{fill:none;}
	.st1{clip-path:url(#SVGID_00000101788772563051018240000012381423102325989515_);fill:#9866CF;}
	.st2{clip-path:url(#SVGID_00000179628863991230870410000015186626760613791150_);fill:#9866CF;}
	.st3{clip-path:url(#SVGID_00000052786783030344279870000001808118360925299383_);fill:#9866CF;}
	.st4{clip-path:url(#SVGID_00000148638472529935495150000004076908587726720659_);fill:#9866CF;}
	.st5{clip-path:url(#SVGID_00000080916939152608744520000016184033793340342414_);fill:#9866CF;}
	.st6{clip-path:url(#SVGID_00000122693971932705563360000007489565867200733847_);fill:#9866CF;}
	.st7{fill:#290849;stroke:#290849;stroke-width:0.8;stroke-linejoin:round;}
	.st8{fill:#290849;}
</style>
<g id="figure_1">
	<g id="patch_1">
		<path class="st0" d="M0,242.5h734.4V0H0V242.5z"/>
	</g>
	<g id="axes_1">
		<g id="patch_2">
			<path class="st0" d="M7.2,168.7h720v-144H7.2V168.7z"/>
		</g>
		<g id="patch_3">
			<g>
				<defs>
					<rect id="SVGID_1_" x="7.2" y="24.7" width="720" height="144"/>
				</defs>
				<clipPath id="SVGID_00000149362464626046345410000015391233890879579537_">
					<use xlink:href="#SVGID_1_"  style="overflow:visible;"/>
				</clipPath>
				<path style="clip-path:url(#SVGID_00000149362464626046345410000015391233890879579537_);fill:#9866CF;" d="M39.9,168.7h70.1
					V31.6H39.9V168.7z"/>
			</g>
		</g>
		<g id="patch_4">
			<g>
				<defs>
					<rect id="SVGID_00000120528646352638386760000005466842843377504695_" x="7.2" y="24.7" width="720" height="144"/>
				</defs>
				<clipPath id="SVGID_00000149377353245512993650000008935835341058121600_">
					<use xlink:href="#SVGID_00000120528646352638386760000005466842843377504695_"  style="overflow:visible;"/>
				</clipPath>
				<path style="clip-path:url(#SVGID_00000149377353245512993650000008935835341058121600_);fill:#9866CF;" d="M156.8,168.7h70.1
					V85.8h-70.1V168.7z"/>
			</g>
		</g>
		<g id="patch_5">
			<g>
				<defs>
					<rect id="SVGID_00000073701277339151305720000012076340793177237921_" x="7.2" y="24.7" width="720" height="144"/>
				</defs>
				<clipPath id="SVGID_00000133525713448069899940000006208044194829393558_">
					<use xlink:href="#SVGID_00000073701277339151305720000012076340793177237921_"  style="overflow:visible;"/>
				</clipPath>
				<path style="clip-path:url(#SVGID_00000133525713448069899940000006208044194829393558_);fill:#9866CF;" d="M273.7,168.7h70.1
					V140h-70.1V168.7z"/>
			</g>
		</g>
		<g id="patch_6">
			<g>
				<defs>
					<rect id="SVGID_00000084487895489167615050000018334030445386881168_" x="7.2" y="24.7" width="720" height="144"/>
				</defs>
				<clipPath id="SVGID_00000050661599362931468810000003311923306515693462_">
					<use xlink:href="#SVGID_00000084487895489167615050000018334030445386881168_"  style="overflow:visible;"/>
				</clipPath>
				<path style="clip-path:url(#SVGID_00000050661599362931468810000003311923306515693462_);fill:#9866CF;" d="M390.6,168.7h70.1
					v-25.5h-70.1V168.7z"/>
			</g>
		</g>
		<g id="patch_7">
			<g>
				<defs>
					<rect id="SVGID_00000161617454575406215670000017407561621860058007_" x="7.2" y="24.7" width="720" height="144"/>
				</defs>
				<clipPath id="SVGID_00000156586736062615832470000016412073399981366664_">
					<use xlink:href="#SVGID_00000161617454575406215670000017407561621860058007_"  style="overflow:visible;"/>
				</clipPath>
				<path style="clip-path:url(#SVGID_00000156586736062615832470000016412073399981366664_);fill:#9866CF;" d="M507.5,168.7h70.1
					v-22.3h-70.1V168.7z"/>
			</g>
		</g>
		<g id="patch_8">
			<g>
				<defs>
					<rect id="SVGID_00000101066204146419212040000008879842392408553644_" x="7.2" y="24.7" width="720" height="144"/>
				</defs>
				<clipPath id="SVGID_00000057116005721868426340000014635926650967557550_">
					<use xlink:href="#SVGID_00000101066204146419212040000008879842392408553644_"  style="overflow:visible;"/>
				</clipPath>
				<path style="clip-path:url(#SVGID_00000057116005721868426340000014635926650967557550_);fill:#9866CF;" d="M624.3,168.7h70.1
					v-22.3h-70.1V168.7z"/>
			</g>
		</g>
		<g id="matplotlib.axis_1">
			<g id="xtick_1">
				<g id="line2d_1">
					<g>
						<g>
							<path id="mba776fd20c_00000031909032651341692140000014946189902495680687_" class="st7" d="M75,168.7"/>
						</g>
					</g>
				</g>
				<g id="text_1">
					<g transform="translate(24.626192 198.596763)scale(0.15 -0.15)">
						<g>
							<path id="DejaVuSans-53" class="st8" d="M53.5,70.5v-9.6c-3.7,1.8-7.3,3.1-10.6,4c-3.3,0.9-6.5,1.3-9.6,1.3
								c-5.4,0-9.5-1-12.4-3.1s-4.4-5-4.4-8.9c0-3.2,1-5.7,2.9-7.3c1.9-1.6,5.6-3,11-4l6-1.2c7.4-1.4,12.8-3.9,16.3-7.4
								s5.2-8.3,5.2-14.2c0-7.1-2.4-12.4-7.1-16.1C46.1,0.4,39.1-1.4,30-1.4c-3.4,0-7.1,0.4-11,1.2c-3.9,0.8-7.9,1.9-12.1,3.5v10.2
								c4-2.2,7.9-3.9,11.8-5.1c3.8-1.1,7.6-1.7,11.3-1.7c5.6,0,10,1.1,13,3.3c3.1,2.2,4.6,5.4,4.6,9.5c0,3.6-1.1,6.4-3.3,8.4
								s-5.8,3.5-10.8,4.5l-6,1.2c-7.4,1.5-12.7,3.8-16,6.9c-3.3,3.1-4.9,7.5-4.9,13c0,6.4,2.3,11.5,6.8,15.2s10.8,5.6,18.8,5.6
								c3.4,0,6.9-0.3,10.5-0.9C46.2,72.7,49.8,71.7,53.5,70.5z"/>
						</g>
						<g>
							<path id="DejaVuSans-6f" class="st8" d="M94.1,48.4c-4.8,0-8.6-1.9-11.4-5.6c-2.8-3.8-4.2-8.9-4.2-15.5s1.4-11.7,4.2-15.5
								c2.8-3.8,6.6-5.6,11.5-5.6c4.8,0,8.6,1.9,11.4,5.7c2.8,3.8,4.2,8.9,4.2,15.4c0,6.5-1.4,11.6-4.2,15.4
								C102.7,46.5,98.9,48.4,94.1,48.4z M94.1,56c7.8,0,13.9-2.5,18.4-7.6c4.5-5.1,6.7-12.1,6.7-21.1c0-8.9-2.2-16-6.7-21.1
								c-4.5-5.1-10.6-7.6-18.4-7.6c-7.8,0-14,2.5-18.4,7.6C71.2,11.3,69,18.3,69,27.3c0,9,2.2,16,6.7,21.1
								C80.1,53.5,86.2,56,94.1,56z"/>
						</g>
						<g>
							<path id="DejaVuSans-63" class="st8" d="M173.4,52.6v-8.4c-2.5,1.4-5.1,2.5-7.6,3.2c-2.6,0.7-5.1,1-7.7,1
								c-5.8,0-10.4-1.8-13.6-5.5c-3.2-3.7-4.8-8.9-4.8-15.5s1.6-11.9,4.8-15.6c3.2-3.7,7.8-5.5,13.6-5.5c2.6,0,5.2,0.3,7.7,1
								c2.6,0.7,5.1,1.8,7.6,3.2V2.1c-2.5-1.2-5.1-2-7.8-2.6c-2.7-0.6-5.5-0.9-8.6-0.9c-8.2,0-14.8,2.6-19.6,7.8
								c-4.8,5.2-7.3,12.2-7.3,21c0,8.9,2.4,15.9,7.3,21c4.9,5.1,11.6,7.7,20.2,7.7c2.8,0,5.5-0.3,8.1-0.9
								C168.4,54.6,171,53.7,173.4,52.6z"/>
						</g>
						<g>
							<path id="DejaVuSans-69" class="st8" d="M189.1,54.7h9V0h-9V54.7z M189.1,76h9V64.6h-9V76z"/>
						</g>
						<g>
							<path id="DejaVuSans-61" class="st8" d="M241.7,27.5c-7.3,0-12.3-0.8-15.1-2.5c-2.8-1.7-4.2-4.5-4.2-8.5
								c0-3.2,1.1-5.7,3.2-7.6c2.1-1.9,5-2.8,8.6-2.8c5,0,9,1.8,12,5.3c3,3.5,4.5,8.2,4.5,14.1v2H241.7z M259.6,31.2V0h-9v8.3
								C248.6,5,246,2.5,243,1s-6.8-2.4-11.2-2.4c-5.6,0-10,1.6-13.4,4.7c-3.3,3.1-5,7.4-5,12.6c0,6.1,2.1,10.8,6.2,13.9
								c4.1,3.1,10.3,4.7,18.4,4.7h12.6v0.9c0,4.1-1.4,7.3-4.1,9.6c-2.7,2.3-6.5,3.4-11.5,3.4c-3.1,0-6.2-0.4-9.1-1.1
								c-3-0.8-5.8-1.9-8.5-3.4v8.3c3.3,1.3,6.5,2.2,9.6,2.8c3.1,0.6,6.1,1,9,1c7.9,0,13.8-2.1,17.7-6.2
								C257.7,45.8,259.6,39.5,259.6,31.2z"/>
						</g>
						<g>
							<path id="DejaVuSans-6c" class="st8" d="M278.1,76h9V0h-9V76z"/>
						</g>
						<g>
							<path id="DejaVuSans-20" class="st8" d="M296.5,0"/>
						</g>
						<g>
							<path id="DejaVuSans-6d" class="st8" d="M380.3,44.2c2.2,4,4.9,7,8.1,8.9s6.8,2.9,11,2.9c5.7,0,10.1-2,13.2-6
								c3.1-4,4.6-9.6,4.6-17V0h-9v32.7c0,5.2-0.9,9.1-2.8,11.7c-1.9,2.5-4.7,3.8-8.5,3.8c-4.7,0-8.3-1.5-11-4.6
								c-2.7-3.1-4-7.3-4-12.6V0h-9v32.7c0,5.3-0.9,9.2-2.8,11.7c-1.9,2.5-4.7,3.8-8.6,3.8c-4.6,0-8.2-1.6-11-4.7
								c-2.7-3.1-4-7.3-4-12.6V0h-9v54.7h9v-8.5c2.1,3.4,4.5,5.8,7.4,7.4c2.9,1.6,6.3,2.4,10.2,2.4c4,0,7.4-1,10.1-3
								C376.9,51,378.9,48,380.3,44.2z"/>
						</g>
						<g>
							<path id="DejaVuSans-65" class="st8" d="M481.9,29.6v-4.4h-41.3c0.4-6.2,2.3-10.9,5.6-14.1c3.3-3.2,8-4.9,13.9-4.9
								c3.4,0,6.8,0.4,10,1.3c3.2,0.8,6.5,2.1,9.7,3.8V2.8c-3.2-1.4-6.5-2.4-9.9-3.1c-3.4-0.7-6.8-1.1-10.3-1.1
								c-8.7,0-15.6,2.5-20.7,7.6c-5.1,5.1-7.6,12-7.6,20.6c0,8.9,2.4,16,7.2,21.3c4.8,5.3,11.4,7.9,19.6,7.9
								c7.4,0,13.2-2.4,17.5-7.1C479.7,44.2,481.9,37.7,481.9,29.6z M472.9,32.2c-0.1,4.9-1.4,8.8-4.1,11.8
								c-2.7,2.9-6.2,4.4-10.7,4.4c-5,0-9-1.4-12-4.3c-3-2.8-4.7-6.8-5.2-12L472.9,32.2z"/>
						</g>
						<g>
							<path id="DejaVuSans-64" class="st8" d="M532.6,46.4V76h9V0h-9v8.2c-1.9-3.2-4.3-5.7-7.2-7.2c-2.9-1.6-6.3-2.4-10.4-2.4
								c-6.6,0-12,2.6-16.1,7.9c-4.1,5.3-6.2,12.2-6.2,20.8s2.1,15.5,6.2,20.8c4.2,5.3,9.5,7.9,16.1,7.9c4,0,7.5-0.8,10.4-2.4
								C528.3,52.1,530.7,49.6,532.6,46.4z M502,27.3c0-6.6,1.4-11.8,4.1-15.5s6.5-5.6,11.2-5.6s8.5,1.9,11.2,5.6
								c2.7,3.8,4.1,8.9,4.1,15.5s-1.4,11.8-4.1,15.5c-2.7,3.8-6.5,5.6-11.2,5.6s-8.5-1.9-11.2-5.6C503.4,39.1,502,33.9,502,27.3z"
								/>
						</g>
						<g>
							<path id="DejaVuSans-69_00000102509342889309554210000003835340193836554677_" class="st8" d="M560.1,54.7h9V0h-9V54.7z
								 M560.1,76h9V64.6h-9V76z"/>
						</g>
						<g>
							<path id="DejaVuSans-61_00000124147090990473049630000008002738757891709071_" class="st8" d="M612.7,27.5
								c-7.3,0-12.3-0.8-15.1-2.5c-2.8-1.7-4.2-4.5-4.2-8.5c0-3.2,1.1-5.7,3.2-7.6c2.1-1.9,5-2.8,8.6-2.8c5,0,9,1.8,12,5.3
								c3,3.5,4.5,8.2,4.5,14.1v2H612.7z M630.7,31.2V0h-9v8.3C619.6,5,617.1,2.5,614,1s-6.8-2.4-11.2-2.4c-5.6,0-10,1.6-13.4,4.7
								c-3.3,3.1-5,7.4-5,12.6c0,6.1,2.1,10.8,6.2,13.9c4.1,3.1,10.3,4.7,18.4,4.7h12.6v0.9c0,4.1-1.4,7.3-4.1,9.6
								c-2.7,2.3-6.5,3.4-11.5,3.4c-3.1,0-6.2-0.4-9.1-1.1c-3-0.8-5.8-1.9-8.5-3.4v8.3c3.3,1.3,6.5,2.2,9.6,2.8c3.1,0.6,6.1,1,9,1
								c7.9,0,13.8-2.1,17.7-6.2C628.7,45.8,630.7,39.5,630.7,31.2z"/>
						</g>
						<g>
							<path id="DejaVuSans-20_00000155867127701190272550000001902559606994183811_" class="st8" d="M639.7,0"/>
						</g>
					</g>
					<g transform="translate(7.908223 215.393482)scale(0.15 -0.15)">
						<g>
							<path id="DejaVuSans-70" class="st8" d="M18.1,8.2v-29h-9v75.5h9v-8.3c1.9,3.2,4.3,5.7,7.2,7.2c2.9,1.6,6.3,2.4,10.3,2.4
								c6.6,0,12-2.6,16.2-7.9c4.2-5.3,6.2-12.2,6.2-20.8s-2.1-15.5-6.2-20.8c-4.1-5.3-9.5-7.9-16.2-7.9c-4,0-7.4,0.8-10.3,2.4
								C22.4,2.5,20,5,18.1,8.2z M48.7,27.3c0,6.6-1.4,11.8-4.1,15.5s-6.5,5.6-11.2,5.6c-4.8,0-8.5-1.9-11.2-5.6s-4.1-8.9-4.1-15.5
								s1.4-11.8,4.1-15.5s6.5-5.6,11.2-5.6c4.8,0,8.5,1.9,11.2,5.6S48.7,20.7,48.7,27.3z"/>
						</g>
						<g>
							<path id="DejaVuSans-6c_00000150071003711639840490000015613703588090696591_" class="st8" d="M72.9,76h9V0h-9V76z"/>
						</g>
						<g>
							<path id="DejaVuSans-61_00000075156264093651387580000006093447160674399112_" class="st8" d="M125.5,27.5
								c-7.3,0-12.3-0.8-15.1-2.5c-2.8-1.7-4.2-4.5-4.2-8.5c0-3.2,1.1-5.7,3.2-7.6c2.1-1.9,5-2.8,8.6-2.8c5,0,9,1.8,12,5.3
								c3,3.5,4.5,8.2,4.5,14.1v2H125.5z M143.5,31.2V0h-9v8.3c-2.1-3.3-4.6-5.8-7.7-7.3c-3.1-1.6-6.8-2.4-11.2-2.4
								c-5.6,0-10,1.6-13.4,4.7c-3.3,3.1-5,7.4-5,12.6c0,6.1,2.1,10.8,6.2,13.9c4.1,3.1,10.3,4.7,18.4,4.7h12.6v0.9
								c0,4.1-1.4,7.3-4.1,9.6c-2.7,2.3-6.5,3.4-11.5,3.4c-3.1,0-6.2-0.4-9.1-1.1c-3-0.8-5.8-1.9-8.5-3.4v8.3
								c3.3,1.3,6.5,2.2,9.6,2.8c3.1,0.6,6.1,1,9,1c7.9,0,13.8-2.1,17.7-6.2C141.5,45.8,143.5,39.5,143.5,31.2z"/>
						</g>
						<g>
							<path id="DejaVuSans-74" class="st8" d="M170.9,70.2V54.7h18.5v-7h-18.5V18c0-4.5,0.6-7.3,1.8-8.6s3.7-1.9,7.5-1.9h9.2V0
								h-9.2c-6.9,0-11.7,1.3-14.4,3.9c-2.6,2.6-4,7.3-4,14.1v29.7h-6.6v7h6.6v15.5H170.9z"/>
						</g>
						<g>
							<path id="DejaVuSans-66" class="st8" d="M228.9,76v-7.5h-8.6c-3.2,0-5.5-0.7-6.7-2c-1.2-1.3-1.9-3.6-1.9-7v-4.8h14.8v-7
								h-14.8V0h-9v47.7H194v7h8.6v3.8c0,6.1,1.4,10.5,4.2,13.3c2.8,2.8,7.3,4.2,13.5,4.2H228.9z"/>
						</g>
						<g>
							<path id="DejaVuSans-6f_00000000188650379304159770000000392784281847183027_" class="st8" d="M257.6,48.4
								c-4.8,0-8.6-1.9-11.4-5.6c-2.8-3.8-4.2-8.9-4.2-15.5s1.4-11.7,4.2-15.5c2.8-3.8,6.6-5.6,11.5-5.6c4.8,0,8.6,1.9,11.4,5.7
								c2.8,3.8,4.2,8.9,4.2,15.4c0,6.5-1.4,11.6-4.2,15.4C266.1,46.5,262.4,48.4,257.6,48.4z M257.6,56c7.8,0,13.9-2.5,18.4-7.6
								c4.5-5.1,6.7-12.1,6.7-21.1c0-8.9-2.2-16-6.7-21.1c-4.5-5.1-10.6-7.6-18.4-7.6c-7.8,0-14,2.5-18.4,7.6
								c-4.4,5.1-6.7,12.1-6.7,21.1c0,9,2.2,16,6.7,21.1C243.6,53.5,249.7,56,257.6,56z"/>
						</g>
						<g>
							<path id="DejaVuSans-72" class="st8" d="M329.2,46.3c-1,0.6-2.1,1-3.3,1.3c-1.2,0.3-2.5,0.4-3.9,0.4c-5.1,0-9-1.7-11.7-5
								s-4.1-8-4.1-14.2V0h-9v54.7h9v-8.5c1.9,3.3,4.4,5.8,7.4,7.4c3,1.6,6.7,2.4,11,2.4c0.6,0,1.3,0,2-0.1c0.8-0.1,1.6-0.2,2.5-0.4
								L329.2,46.3z"/>
						</g>
						<g>
							<path id="DejaVuSans-6d_00000011723966496680580800000006005017724010455185_" class="st8" d="M379.5,44.2
								c2.2,4,4.9,7,8.1,8.9s6.8,2.9,11,2.9c5.7,0,10.1-2,13.2-6c3.1-4,4.6-9.6,4.6-17V0h-9v32.7c0,5.2-0.9,9.1-2.8,11.7
								c-1.9,2.5-4.7,3.8-8.5,3.8c-4.7,0-8.3-1.5-11-4.6c-2.7-3.1-4-7.3-4-12.6V0h-9v32.7c0,5.3-0.9,9.2-2.8,11.7
								c-1.9,2.5-4.7,3.8-8.6,3.8c-4.6,0-8.2-1.6-11-4.7c-2.7-3.1-4-7.3-4-12.6V0h-9v54.7h9v-8.5c2.1,3.4,4.5,5.8,7.4,7.4
								c2.9,1.6,6.3,2.4,10.2,2.4c4,0,7.4-1,10.1-3C376.1,51,378.2,48,379.5,44.2z"/>
						</g>
						<g>
							<path id="DejaVuSans-20_00000017504654430301816780000015621630048146438312_" class="st8" d="M424.9,0"/>
						</g>
						<g>
							<path id="DejaVuSans-28" class="st8" d="M487.7,75.9c-4.4-7.5-7.6-14.9-9.7-22.2c-2.1-7.3-3.2-14.7-3.2-22.3
								c0-7.5,1.1-15,3.2-22.3c2.1-7.4,5.4-14.8,9.7-22.2h-7.8c-4.9,7.7-8.5,15.2-11,22.6c-2.4,7.4-3.6,14.7-3.6,22
								c0,7.3,1.2,14.6,3.6,21.9c2.4,7.4,6.1,14.9,11,22.6H487.7z"/>
						</g>
						<g>
							<path id="DejaVuSans-54" class="st8" d="M495.4,72.9h61.7v-8.3h-25.9V0h-9.9v64.6h-25.9V72.9z"/>
						</g>
						<g>
							<path id="DejaVuSans-77" class="st8" d="M544.5,54.7h9L564.7,12l11.2,42.7h10.6L597.7,12l11.2,42.7h9L603.6,0H593l-11.8,44.8
								L569.4,0h-10.6L544.5,54.7z"/>
						</g>
						<g>
							<path id="DejaVuSans-69_00000138551211808519818410000017687511870516812945_" class="st8" d="M631.5,54.7h9V0h-9V54.7z
								 M631.5,76h9V64.6h-9V76z"/>
						</g>
						<g>
							<path id="DejaVuSans-74_00000116195192883937284680000007396566591315877287_" class="st8" d="M668.2,70.2V54.7h18.5v-7
								h-18.5V18c0-4.5,0.6-7.3,1.8-8.6s3.7-1.9,7.5-1.9h9.2V0h-9.2c-6.9,0-11.7,1.3-14.4,3.9c-2.6,2.6-4,7.3-4,14.1v29.7h-6.6v7
								h6.6v15.5H668.2z"/>
						</g>
						<g>
							<path id="DejaVuSans-74_00000049210336836711115460000005540037319352703387_" class="st8" d="M707.4,70.2V54.7h18.5v-7
								h-18.5V18c0-4.5,0.6-7.3,1.8-8.6s3.7-1.9,7.5-1.9h9.2V0h-9.2c-6.9,0-11.7,1.3-14.4,3.9c-2.6,2.6-4,7.3-4,14.1v29.7h-6.6v7
								h6.6v15.5H707.4z"/>
						</g>
						<g>
							<path id="DejaVuSans-65_00000157271690504758285850000000160490273926345396_" class="st8" d="M784.5,29.6v-4.4h-41.3
								c0.4-6.2,2.3-10.9,5.6-14.1c3.3-3.2,8-4.9,13.9-4.9c3.4,0,6.8,0.4,10,1.3c3.2,0.8,6.5,2.1,9.7,3.8V2.8
								c-3.2-1.4-6.5-2.4-9.9-3.1c-3.4-0.7-6.8-1.1-10.3-1.1c-8.7,0-15.6,2.5-20.7,7.6c-5.1,5.1-7.6,12-7.6,20.6
								c0,8.9,2.4,16,7.2,21.3c4.8,5.3,11.4,7.9,19.6,7.9c7.4,0,13.2-2.4,17.5-7.1C782.3,44.2,784.5,37.7,784.5,29.6z M775.5,32.2
								c-0.1,4.9-1.4,8.8-4.1,11.8c-2.7,2.9-6.2,4.4-10.7,4.4c-5,0-9-1.4-12-4.2c-3-2.8-4.7-6.8-5.2-12L775.5,32.2z"/>
						</g>
						<g>
							<path id="DejaVuSans-72_00000163055736001201979320000003243344314861119374_" class="st8" d="M830.9,46.3
								c-1,0.6-2.1,1-3.3,1.3c-1.2,0.3-2.5,0.4-3.9,0.4c-5.1,0-9-1.7-11.7-5s-4.1-8-4.1-14.2V0h-9v54.7h9v-8.5
								c1.9,3.3,4.4,5.8,7.4,7.4c3,1.6,6.7,2.4,11,2.4c0.6,0,1.3,0,2-0.1c0.8-0.1,1.6-0.2,2.5-0.4L830.9,46.3z"/>
						</g>
						<g>
							<path id="DejaVuSans-2c" class="st8" d="M842.6,12.4h10.3V4l-8-15.6h-6.3l4,15.6V12.4z"/>
						</g>
						<g>
							<path id="DejaVuSans-20_00000080178463110289962650000012513084846448626564_" class="st8" d="M862.7,0"/>
						</g>
					</g>
					<g transform="translate(29.66877 232.190201)scale(0.15 -0.15)">
						<g>
							<path id="DejaVuSans-46" class="st8" d="M9.8,72.9h41.9v-8.3h-32V43.1h28.9v-8.3H19.7V0H9.8V72.9z"/>
						</g>
						<g>
							<path id="DejaVuSans-61_00000057868978581508990060000003676215549758565250_" class="st8" d="M82.7,27.5
								c-7.3,0-12.3-0.8-15.1-2.5s-4.2-4.5-4.2-8.5c0-3.2,1.1-5.7,3.2-7.6c2.1-1.9,5-2.8,8.6-2.8c5,0,9,1.8,12,5.3
								c3,3.5,4.5,8.2,4.5,14.1v2H82.7z M100.6,31.2V0h-9v8.3C89.6,5,87,2.5,83.9,1s-6.8-2.4-11.2-2.4c-5.6,0-10,1.6-13.4,4.7
								c-3.3,3.1-5,7.4-5,12.6c0,6.1,2.1,10.8,6.2,13.9c4.1,3.1,10.3,4.7,18.4,4.7h12.6v0.9c0,4.1-1.4,7.3-4.1,9.6
								s-6.5,3.4-11.5,3.4c-3.1,0-6.2-0.4-9.1-1.1c-3-0.8-5.8-1.9-8.5-3.4v8.3c3.3,1.3,6.5,2.2,9.6,2.8c3.1,0.6,6.1,1,9,1
								c7.9,0,13.8-2.1,17.7-6.2C98.6,45.8,100.6,39.5,100.6,31.2z"/>
						</g>
						<g>
							<path id="DejaVuSans-63_00000021805542167320989990000005343358162725698741_" class="st8" d="M158.5,52.6v-8.4
								c-2.5,1.4-5.1,2.5-7.6,3.2c-2.6,0.7-5.1,1-7.7,1c-5.8,0-10.4-1.8-13.6-5.5c-3.2-3.7-4.8-8.9-4.8-15.5s1.6-11.9,4.8-15.6
								c3.2-3.7,7.8-5.5,13.6-5.5c2.6,0,5.2,0.3,7.7,1c2.6,0.7,5.1,1.8,7.6,3.2V2.1c-2.5-1.2-5.1-2-7.8-2.6
								c-2.7-0.6-5.5-0.9-8.6-0.9c-8.2,0-14.8,2.6-19.6,7.8c-4.8,5.2-7.3,12.2-7.3,21c0,8.9,2.4,15.9,7.3,21
								c4.9,5.1,11.6,7.7,20.2,7.7c2.8,0,5.5-0.3,8.1-0.9C153.4,54.6,156,53.7,158.5,52.6z"/>
						</g>
						<g>
							<path id="DejaVuSans-65_00000066473523505437803660000011039161416574647982_" class="st8" d="M220.9,29.6v-4.4h-41.3
								c0.4-6.2,2.3-10.9,5.6-14.1c3.3-3.2,8-4.9,13.9-4.9c3.4,0,6.8,0.4,10,1.3c3.2,0.8,6.5,2.1,9.7,3.8V2.8
								c-3.2-1.4-6.5-2.4-9.9-3.1c-3.4-0.7-6.8-1.1-10.3-1.1c-8.7,0-15.6,2.5-20.7,7.6c-5.1,5.1-7.6,12-7.6,20.6
								c0,8.9,2.4,16,7.2,21.3c4.8,5.3,11.4,7.9,19.6,7.9c7.4,0,13.2-2.4,17.5-7.1C218.7,44.2,220.9,37.7,220.9,29.6z M211.9,32.2
								c-0.1,4.9-1.4,8.8-4.1,11.8c-2.7,2.9-6.2,4.4-10.7,4.4c-5,0-9-1.4-12-4.2c-3-2.8-4.7-6.8-5.2-12L211.9,32.2z"/>
						</g>
						<g>
							<path id="DejaVuSans-62" class="st8" d="M274.9,27.3c0,6.6-1.4,11.8-4.1,15.5s-6.5,5.6-11.2,5.6c-4.8,0-8.5-1.9-11.2-5.6
								s-4.1-8.9-4.1-15.5s1.4-11.8,4.1-15.5s6.5-5.6,11.2-5.6c4.8,0,8.5,1.9,11.2,5.6S274.9,20.7,274.9,27.3z M244.3,46.4
								c1.9,3.2,4.3,5.7,7.2,7.2c2.9,1.6,6.3,2.4,10.3,2.4c6.6,0,12-2.6,16.2-7.9c4.2-5.3,6.2-12.2,6.2-20.8s-2.1-15.5-6.2-20.8
								c-4.1-5.3-9.5-7.9-16.2-7.9c-4,0-7.4,0.8-10.3,2.4c-2.9,1.6-5.3,4-7.2,7.3V0h-9v76h9V46.4z"/>
						</g>
						<g>
							<path id="DejaVuSans-6f_00000000922432602412237280000001912451202884771006_" class="st8" d="M320.3,48.4
								c-4.8,0-8.6-1.9-11.4-5.6c-2.8-3.8-4.2-8.9-4.2-15.5s1.4-11.7,4.2-15.5c2.8-3.8,6.6-5.6,11.5-5.6c4.8,0,8.6,1.9,11.4,5.7
								c2.8,3.8,4.2,8.9,4.2,15.4c0,6.5-1.4,11.6-4.2,15.4C328.8,46.5,325.1,48.4,320.3,48.4z M320.3,56c7.8,0,13.9-2.5,18.4-7.6
								c4.5-5.1,6.7-12.1,6.7-21.1c0-8.9-2.2-16-6.7-21.1c-4.5-5.1-10.6-7.6-18.4-7.6c-7.8,0-14,2.5-18.4,7.6
								c-4.4,5.1-6.7,12.1-6.7,21.1c0,9,2.2,16,6.7,21.1C306.3,53.5,312.4,56,320.3,56z"/>
						</g>
						<g>
							<path id="DejaVuSans-6f_00000053535721374987952930000005862914539052436915_" class="st8" d="M381.4,48.4
								c-4.8,0-8.6-1.9-11.4-5.6c-2.8-3.8-4.2-8.9-4.2-15.5s1.4-11.7,4.2-15.5c2.8-3.8,6.6-5.6,11.5-5.6c4.8,0,8.6,1.9,11.4,5.7
								c2.8,3.8,4.2,8.9,4.2,15.4c0,6.5-1.4,11.6-4.2,15.4C390,46.5,386.2,48.4,381.4,48.4z M381.4,56c7.8,0,13.9-2.5,18.4-7.6
								c4.5-5.1,6.7-12.1,6.7-21.1c0-8.9-2.2-16-6.7-21.1c-4.5-5.1-10.6-7.6-18.4-7.6c-7.8,0-14,2.5-18.4,7.6
								c-4.4,5.1-6.7,12.1-6.7,21.1c0,9,2.2,16,6.7,21.1C367.5,53.5,373.6,56,381.4,56z"/>
						</g>
						<g>
							<path id="DejaVuSans-6b" class="st8" d="M421.1,76h9V31.1l26.8,23.6h11.5l-29-25.6L469.6,0h-11.7l-27.8,26.7V0h-9V76z"/>
						</g>
						<g>
							<path id="DejaVuSans-2e" class="st8" d="M480.6,12.4h10.3V0h-10.3V12.4z"/>
						</g>
						<g>
							<path id="DejaVuSans-2e_00000021829439847190228600000005967568206710626956_" class="st8" d="M512.4,12.4h10.3V0h-10.3V12.4
								z"/>
						</g>
						<g>
							<path id="DejaVuSans-2e_00000010999678245581649660000008767978904809394616_" class="st8" d="M544.2,12.4h10.3V0h-10.3V12.4
								z"/>
						</g>
						<g>
							<path id="DejaVuSans-29" class="st8" d="M573.3,75.9h7.8c4.9-7.7,8.5-15.2,11-22.6c2.4-7.4,3.6-14.7,3.6-21.9
								c0-7.3-1.2-14.6-3.6-22c-2.4-7.4-6.1-14.9-11-22.6h-7.8c4.3,7.5,7.6,14.9,9.7,22.2c2.1,7.4,3.2,14.8,3.2,22.3
								c0,7.5-1.1,14.9-3.2,22.3C580.9,61,577.6,68.4,573.3,75.9z"/>
						</g>
					</g>
				</g>
			</g>
			<g id="xtick_2">
				<g id="line2d_2">
					<g>
						<g>
							<path id="mba776fd20c_00000051342988744555111890000008861805793999946165_" class="st7" d="M191.9,168.7"/>
						</g>
					</g>
				</g>
				<g id="text_2">
					<g transform="translate(151.627278 198.596763)scale(0.15 -0.15)">
						<g>
							<path id="DejaVuSans-4e" class="st8" d="M9.8,72.9h13.3l32.3-61v61H65V0H51.7L19.4,61V0H9.8V72.9z"/>
						</g>
						<g>
							<path id="DejaVuSans-75" class="st8" d="M83.3,21.6v33.1h9V21.9c0-5.2,1-9.1,3-11.7c2-2.6,5.1-3.9,9.1-3.9
								c4.8,0,8.7,1.5,11.5,4.6c2.8,3.1,4.2,7.3,4.2,12.7v31h9V0h-9v8.4c-2.2-3.3-4.7-5.8-7.6-7.4c-2.9-1.6-6.2-2.4-10-2.4
								c-6.3,0-11.1,2-14.3,5.9C84.9,8.3,83.3,14.1,83.3,21.6z M105.9,56L105.9,56z"/>
						</g>
						<g>
							<path id="DejaVuSans-6d_00000114796608462542061110000015031738860723708806_" class="st8" d="M190.2,44.2
								c2.2,4,4.9,7,8.1,8.9s6.8,2.9,11,2.9c5.7,0,10.1-2,13.2-6c3.1-4,4.6-9.6,4.6-17V0h-9v32.7c0,5.2-0.9,9.1-2.8,11.7
								c-1.9,2.5-4.7,3.8-8.5,3.8c-4.7,0-8.3-1.5-11-4.6c-2.7-3.1-4-7.3-4-12.6V0h-9v32.7c0,5.3-0.9,9.2-2.8,11.7
								c-1.9,2.5-4.7,3.8-8.6,3.8c-4.6,0-8.2-1.6-11-4.7c-2.7-3.1-4-7.3-4-12.6V0h-9v54.7h9v-8.5c2.1,3.4,4.5,5.8,7.4,7.4
								c2.9,1.6,6.3,2.4,10.2,2.4c4,0,7.4-1,10.1-3C186.8,51,188.9,48,190.2,44.2z"/>
						</g>
						<g>
							<path id="DejaVuSans-50" class="st8" d="M255.3,64.8V37.4h12.4c4.6,0,8.1,1.2,10.6,3.6c2.5,2.4,3.8,5.8,3.8,10.2
								c0,4.4-1.3,7.7-3.8,10.1c-2.5,2.4-6,3.6-10.6,3.6H255.3z M245.4,72.9h22.3c8.2,0,14.4-1.8,18.5-5.5c4.2-3.7,6.3-9.1,6.3-16.2
								c0-7.2-2.1-12.6-6.3-16.3c-4.2-3.7-10.4-5.5-18.5-5.5h-12.4V0h-9.9V72.9z"/>
						</g>
						<g>
							<path id="DejaVuSans-79" class="st8" d="M328.1-5.1c-2.5-6.5-5-10.8-7.4-12.7c-2.4-2-5.6-3-9.7-3h-7.2v7.5h5.3
								c2.5,0,4.4,0.6,5.8,1.8c1.4,1.2,2.9,3.9,4.5,8.3l1.6,4.1l-22.1,53.8h9.5l17.1-42.8l17.1,42.8h9.5L328.1-5.1z"/>
						</g>
						<g>
							<path id="DejaVuSans-2e_00000039133081559702436070000006808213046102968206_" class="st8" d="M351.5,12.4h10.3V0h-10.3V12.4
								z"/>
						</g>
						<g>
							<path id="DejaVuSans-6f_00000163768520341612956370000017816369796250243516_" class="st8" d="M403.2,48.4
								c-4.8,0-8.6-1.9-11.4-5.6c-2.8-3.8-4.2-8.9-4.2-15.5s1.4-11.7,4.2-15.5c2.8-3.8,6.6-5.6,11.5-5.6c4.8,0,8.6,1.9,11.4,5.7
								c2.8,3.8,4.2,8.9,4.2,15.4c0,6.5-1.4,11.6-4.2,15.4C411.8,46.5,408,48.4,403.2,48.4z M403.2,56c7.8,0,13.9-2.5,18.4-7.6
								c4.5-5.1,6.7-12.1,6.7-21.1c0-8.9-2.2-16-6.7-21.1c-4.5-5.1-10.6-7.6-18.4-7.6c-7.8,0-14,2.5-18.4,7.6
								c-4.4,5.1-6.7,12.1-6.7,21.1c0,9,2.2,16,6.7,21.1C389.2,53.5,395.4,56,403.2,56z"/>
						</g>
						<g>
							<path id="DejaVuSans-72_00000001663100614123981020000009794277140688613050_" class="st8" d="M474.9,46.3
								c-1,0.6-2.1,1-3.3,1.3c-1.2,0.3-2.5,0.4-3.9,0.4c-5.1,0-9-1.7-11.7-5c-2.7-3.3-4.1-8-4.1-14.2V0h-9v54.7h9v-8.5
								c1.9,3.3,4.4,5.8,7.4,7.4c3,1.6,6.7,2.4,11,2.4c0.6,0,1.3,0,2-0.1c0.8-0.1,1.6-0.2,2.5-0.4L474.9,46.3z"/>
						</g>
						<g>
							<path id="DejaVuSans-67" class="st8" d="M518.6,28c0,6.5-1.3,11.6-4,15.1c-2.7,3.6-6.4,5.4-11.3,5.4c-4.8,0-8.6-1.8-11.2-5.4
								c-2.7-3.6-4-8.6-4-15.1c0-6.5,1.3-11.5,4-15.1s6.4-5.4,11.2-5.4c4.9,0,8.6,1.8,11.3,5.4C517.2,16.5,518.6,21.5,518.6,28z
								 M527.6,6.8c0-9.3-2.1-16.2-6.2-20.8c-4.1-4.5-10.5-6.8-19-6.8c-3.2,0-6.1,0.2-8.9,0.7c-2.8,0.5-5.5,1.2-8.2,2.2v8.7
								c2.6-1.4,5.2-2.5,7.8-3.2c2.6-0.7,5.2-1,7.9-1c5.9,0,10.3,1.5,13.2,4.6c2.9,3.1,4.4,7.7,4.4,13.9v4.5
								c-1.9-3.2-4.2-5.6-7.1-7.2S505.1,0,501,0c-6.7,0-12.1,2.6-16.2,7.7c-4.1,5.1-6.2,11.9-6.2,20.3c0,8.5,2.1,15.2,6.2,20.3
								c4.1,5.1,9.5,7.7,16.2,7.7c4,0,7.5-0.8,10.4-2.4s5.3-4,7.1-7.2v8.3h9V6.8z"/>
						</g>
					</g>
					<g transform="translate(151.879231 215.393482)scale(0.15 -0.15)">
						<g>
							<path id="DejaVuSans-68" class="st8" d="M54.9,33V0h-9v32.7c0,5.2-1,9-3,11.6c-2,2.6-5,3.9-9.1,3.9c-4.9,0-8.7-1.5-11.5-4.6
								c-2.8-3.1-4.2-7.3-4.2-12.6V0h-9v76h9V46.2c2.2,3.3,4.7,5.8,7.6,7.4C28.6,55.2,32,56,35.8,56c6.3,0,11-1.9,14.2-5.8
								C53.3,46.3,54.9,40.6,54.9,33z"/>
						</g>
						<g>
							<path id="DejaVuSans-6f_00000085209802980789366610000014506290204496931738_" class="st8" d="M94,48.4
								c-4.8,0-8.6-1.9-11.4-5.6s-4.2-8.9-4.2-15.5s1.4-11.7,4.2-15.5c2.8-3.8,6.6-5.6,11.5-5.6c4.8,0,8.6,1.9,11.4,5.7
								c2.8,3.8,4.2,8.9,4.2,15.4c0,6.5-1.4,11.6-4.2,15.4C102.6,46.5,98.8,48.4,94,48.4z M94,56c7.8,0,13.9-2.5,18.4-7.6
								c4.5-5.1,6.7-12.1,6.7-21.1c0-8.9-2.2-16-6.7-21.1c-4.5-5.1-10.6-7.6-18.4-7.6c-7.8,0-14,2.5-18.4,7.6
								c-4.4,5.1-6.7,12.1-6.7,21.1c0,9,2.2,16,6.7,21.1C80,53.5,86.1,56,94,56z"/>
						</g>
						<g>
							<path id="DejaVuSans-6d_00000066487619932691772900000007994569071984191373_" class="st8" d="M176.6,44.2
								c2.2,4,4.9,7,8.1,8.9s6.8,2.9,11,2.9c5.7,0,10.1-2,13.2-6c3.1-4,4.6-9.6,4.6-17V0h-9v32.7c0,5.2-0.9,9.1-2.8,11.7
								c-1.9,2.5-4.7,3.8-8.5,3.8c-4.7,0-8.3-1.5-11-4.6c-2.7-3.1-4-7.3-4-12.6V0h-9v32.7c0,5.3-0.9,9.2-2.8,11.7
								c-1.9,2.5-4.7,3.8-8.6,3.8c-4.6,0-8.2-1.6-11-4.7c-2.7-3.1-4-7.3-4-12.6V0h-9v54.7h9v-8.5c2.1,3.4,4.5,5.8,7.4,7.4
								c2.9,1.6,6.3,2.4,10.2,2.4c4,0,7.4-1,10.1-3C173.2,51,175.2,48,176.6,44.2z"/>
						</g>
						<g>
							<path id="DejaVuSans-65_00000065752818521905562790000014425400662454131376_" class="st8" d="M278.2,29.6v-4.4h-41.3
								c0.4-6.2,2.3-10.9,5.6-14.1c3.3-3.2,8-4.9,13.9-4.9c3.4,0,6.8,0.4,10,1.3c3.2,0.8,6.5,2.1,9.7,3.8V2.8
								c-3.2-1.4-6.5-2.4-9.9-3.1c-3.4-0.7-6.8-1.1-10.3-1.1c-8.7,0-15.6,2.5-20.7,7.6c-5.1,5.1-7.6,12-7.6,20.6
								c0,8.9,2.4,16,7.2,21.3c4.8,5.3,11.4,7.9,19.6,7.9c7.4,0,13.2-2.4,17.5-7.1C276,44.2,278.2,37.7,278.2,29.6z M269.2,32.2
								c-0.1,4.9-1.4,8.8-4.1,11.8c-2.7,2.9-6.2,4.4-10.7,4.4c-5,0-9-1.4-12-4.2c-3-2.8-4.7-6.8-5.2-12L269.2,32.2z"/>
						</g>
						<g>
							<path id="DejaVuSans-70_00000003790566683412511070000005842912672873468298_" class="st8" d="M301.6,8.2v-29h-9v75.5h9v-8.3
								c1.9,3.2,4.3,5.7,7.2,7.2c2.9,1.6,6.3,2.4,10.3,2.4c6.6,0,12-2.6,16.2-7.9c4.2-5.3,6.2-12.2,6.2-20.8s-2.1-15.5-6.2-20.8
								c-4.1-5.3-9.5-7.9-16.2-7.9c-4,0-7.4,0.8-10.3,2.4C305.9,2.5,303.5,5,301.6,8.2z M332.2,27.3c0,6.6-1.4,11.8-4.1,15.5
								s-6.5,5.6-11.2,5.6c-4.8,0-8.5-1.9-11.2-5.6s-4.1-8.9-4.1-15.5s1.4-11.8,4.1-15.5s6.5-5.6,11.2-5.6c4.8,0,8.5,1.9,11.2,5.6
								S332.2,20.7,332.2,27.3z"/>
						</g>
						<g>
							<path id="DejaVuSans-61_00000099621551626797223580000013282810507416930446_" class="st8" d="M381.3,27.5
								c-7.3,0-12.3-0.8-15.1-2.5c-2.8-1.7-4.2-4.5-4.2-8.5c0-3.2,1.1-5.7,3.2-7.6c2.1-1.9,5-2.8,8.6-2.8c5,0,9,1.8,12,5.3
								c3,3.5,4.5,8.2,4.5,14.1v2H381.3z M399.2,31.2V0h-9v8.3c-2.1-3.3-4.6-5.8-7.7-7.3s-6.8-2.4-11.2-2.4c-5.6,0-10,1.6-13.4,4.7
								c-3.3,3.1-5,7.4-5,12.6c0,6.1,2.1,10.8,6.2,13.9c4.1,3.1,10.3,4.7,18.4,4.7h12.6v0.9c0,4.1-1.4,7.3-4.1,9.6
								s-6.5,3.4-11.5,3.4c-3.1,0-6.2-0.4-9.1-1.1c-3-0.8-5.8-1.9-8.5-3.4v8.3c3.3,1.3,6.5,2.2,9.6,2.8c3.1,0.6,6.1,1,9,1
								c7.9,0,13.8-2.1,17.7-6.2C397.2,45.8,399.2,39.5,399.2,31.2z"/>
						</g>
						<g>
							<path id="DejaVuSans-67_00000108274890265506112400000011763552296514823335_" class="st8" d="M453.7,28
								c0,6.5-1.3,11.6-4,15.1c-2.7,3.6-6.4,5.4-11.3,5.4c-4.8,0-8.6-1.8-11.3-5.4c-2.7-3.6-4-8.6-4-15.1c0-6.5,1.3-11.5,4-15.1
								s6.4-5.4,11.3-5.4c4.9,0,8.6,1.8,11.3,5.4C452.3,16.5,453.7,21.5,453.7,28z M462.6,6.8c0-9.3-2.1-16.2-6.2-20.8
								c-4.1-4.5-10.5-6.8-19-6.8c-3.2,0-6.1,0.2-8.9,0.7c-2.8,0.5-5.5,1.2-8.2,2.2v8.7c2.6-1.4,5.2-2.5,7.8-3.2
								c2.6-0.7,5.2-1,7.9-1c5.9,0,10.3,1.5,13.2,4.6c2.9,3.1,4.4,7.7,4.4,13.9v4.5c-1.9-3.2-4.2-5.6-7.1-7.2
								c-2.9-1.6-6.4-2.4-10.4-2.4c-6.7,0-12.1,2.6-16.2,7.7c-4.1,5.1-6.2,11.9-6.2,20.3c0,8.5,2.1,15.2,6.2,20.3
								c4.1,5.1,9.5,7.7,16.2,7.7c4,0,7.5-0.8,10.4-2.4c2.9-1.6,5.3-4,7.1-7.2v8.3h9V6.8z"/>
						</g>
						<g>
							<path id="DejaVuSans-65_00000106868872206017613350000002129152238385233305_" class="st8" d="M527.9,29.6v-4.4h-41.3
								c0.4-6.2,2.3-10.9,5.6-14.1c3.3-3.2,8-4.9,13.9-4.9c3.4,0,6.8,0.4,10,1.3c3.2,0.8,6.5,2.1,9.7,3.8V2.8
								c-3.2-1.4-6.5-2.4-9.9-3.1c-3.4-0.7-6.8-1.1-10.3-1.1c-8.7,0-15.6,2.5-20.7,7.6c-5.1,5.1-7.6,12-7.6,20.6
								c0,8.9,2.4,16,7.2,21.3c4.8,5.3,11.4,7.9,19.6,7.9c7.4,0,13.2-2.4,17.5-7.1C525.8,44.2,527.9,37.7,527.9,29.6z M518.9,32.2
								c-0.1,4.9-1.4,8.8-4.1,11.8c-2.7,2.9-6.2,4.4-10.7,4.4c-5,0-9-1.4-12-4.2c-3-2.8-4.7-6.8-5.2-12L518.9,32.2z"/>
						</g>
					</g>
				</g>
			</g>
			<g id="xtick_3">
				<g id="line2d_3">
					<g>
						<g>
							<path id="mba776fd20c_00000116207863690636551400000004013314470664634522_" class="st7" d="M308.8,168.7"/>
						</g>
					</g>
				</g>
				<g id="text_3">
					<g transform="translate(287.463129 198.596763)scale(0.15 -0.15)">
						<g>
							<path id="DejaVuSans-4f" class="st8" d="M39.4,66.2c-7.2,0-12.9-2.7-17.1-8C18.1,52.9,16,45.6,16,36.4
								c0-9.2,2.1-16.4,6.3-21.8c4.2-5.3,9.9-8,17.1-8c7.2,0,12.8,2.7,17,8c4.2,5.3,6.3,12.6,6.3,21.8c0,9.2-2.1,16.5-6.3,21.8
								C52.2,63.5,46.6,66.2,39.4,66.2z M39.4,74.2c10.2,0,18.4-3.4,24.5-10.3c6.1-6.9,9.2-16,9.2-27.6c0-11.5-3.1-20.7-9.2-27.5
								C57.8,2,49.6-1.4,39.4-1.4C29.2-1.4,21,2,14.8,8.8c-6.1,6.8-9.2,16-9.2,27.5s3.1,20.7,9.2,27.6C21,70.8,29.2,74.2,39.4,74.2z
								"/>
						</g>
						<g>
							<path id="DejaVuSans-74_00000163778818596216697790000017258585305601683108_" class="st8" d="M97,70.2V54.7h18.5v-7H97V18
								c0-4.5,0.6-7.3,1.8-8.6s3.7-1.9,7.5-1.9h9.2V0h-9.2c-6.9,0-11.7,1.3-14.4,3.9c-2.6,2.6-4,7.3-4,14.1v29.7h-6.6v7H88v15.5H97z
								"/>
						</g>
						<g>
							<path id="DejaVuSans-68_00000165211974791271407710000017831105195978658176_" class="st8" d="M172.8,33V0h-9v32.7
								c0,5.2-1,9-3,11.6c-2,2.6-5,3.9-9.1,3.9c-4.9,0-8.7-1.5-11.5-4.6c-2.8-3.1-4.2-7.3-4.2-12.6V0h-9v76h9V46.2
								c2.2,3.3,4.7,5.8,7.6,7.4c2.9,1.6,6.3,2.4,10.1,2.4c6.3,0,11-1.9,14.2-5.8C171.2,46.3,172.8,40.6,172.8,33z"/>
						</g>
						<g>
							<path id="DejaVuSans-65_00000135676115366298578560000012237870339398296741_" class="st8" d="M237.5,29.6v-4.4h-41.3
								c0.4-6.2,2.3-10.9,5.6-14.1c3.3-3.2,8-4.9,13.9-4.9c3.4,0,6.8,0.4,10,1.3c3.2,0.8,6.5,2.1,9.7,3.8V2.8
								c-3.2-1.4-6.5-2.4-9.9-3.1c-3.4-0.7-6.8-1.1-10.3-1.1c-8.7,0-15.6,2.5-20.7,7.6c-5.1,5.1-7.6,12-7.6,20.6
								c0,8.9,2.4,16,7.2,21.3c4.8,5.3,11.4,7.9,19.6,7.9c7.4,0,13.2-2.4,17.5-7.1C235.4,44.2,237.5,37.7,237.5,29.6z M228.5,32.2
								c-0.1,4.9-1.4,8.8-4.1,11.8c-2.7,2.9-6.2,4.4-10.7,4.4c-5,0-9-1.4-12-4.3c-3-2.8-4.7-6.8-5.2-12L228.5,32.2z"/>
						</g>
						<g>
							<path id="DejaVuSans-72_00000161630377187787072870000009110531587926862772_" class="st8" d="M283.9,46.3
								c-1,0.6-2.1,1-3.3,1.3c-1.2,0.3-2.5,0.4-3.9,0.4c-5.1,0-9-1.7-11.7-5c-2.7-3.3-4.1-8-4.1-14.2V0h-9v54.7h9v-8.5
								c1.9,3.3,4.4,5.8,7.4,7.4c3,1.6,6.7,2.4,11,2.4c0.6,0,1.3,0,2-0.1c0.8-0.1,1.6-0.2,2.5-0.4L283.9,46.3z"/>
						</g>
					</g>
				</g>
			</g>
			<g id="xtick_4">
				<g id="line2d_4">
					<g>
						<g>
							<path id="mba776fd20c_00000093891743979087543180000016463424568518512009_" class="st7" d="M425.6,168.7"/>
						</g>
					</g>
				</g>
				<g id="text_4">
					<g transform="translate(368.077887 198.596763)scale(0.15 -0.15)">
						<g>
							<path id="DejaVuSans-46_00000182490851083628482640000002126077258312570502_" class="st8" d="M9.8,72.9h41.9v-8.3h-32V43.1
								h28.9v-8.3H19.7V0H9.8V72.9z"/>
						</g>
						<g>
							<path id="DejaVuSans-6f_00000121968446796115079200000005845697011891081351_" class="st8" d="M84.5,48.4
								c-4.8,0-8.6-1.9-11.4-5.6c-2.8-3.8-4.2-8.9-4.2-15.5s1.4-11.7,4.2-15.5c2.8-3.8,6.6-5.6,11.5-5.6c4.8,0,8.6,1.9,11.4,5.7
								c2.8,3.8,4.2,8.9,4.2,15.4c0,6.5-1.4,11.6-4.2,15.4C93.1,46.5,89.3,48.4,84.5,48.4z M84.5,56c7.8,0,13.9-2.5,18.4-7.6
								c4.5-5.1,6.7-12.1,6.7-21.1c0-8.9-2.2-16-6.7-21.1c-4.5-5.1-10.6-7.6-18.4-7.6c-7.8,0-14,2.5-18.4,7.6
								c-4.4,5.1-6.7,12.1-6.7,21.1c0,9,2.2,16,6.7,21.1C70.5,53.5,76.7,56,84.5,56z"/>
						</g>
						<g>
							<path id="DejaVuSans-72_00000067215316285616011870000000688428384025751197_" class="st8" d="M156.2,46.3
								c-1,0.6-2.1,1-3.3,1.3c-1.2,0.3-2.5,0.4-3.9,0.4c-5.1,0-9-1.7-11.7-5c-2.7-3.3-4.1-8-4.1-14.2V0h-9v54.7h9v-8.5
								c1.9,3.3,4.4,5.8,7.4,7.4c3,1.6,6.7,2.4,11,2.4c0.6,0,1.3,0,2-0.1c0.8-0.1,1.6-0.2,2.5-0.4L156.2,46.3z"/>
						</g>
						<g>
							<path id="DejaVuSans-77_00000034061243938349748970000005209754606134822077_" class="st8" d="M160.4,54.7h9L180.6,12
								l11.2,42.7h10.6L213.6,12l11.2,42.7h9L219.5,0h-10.6l-11.8,44.8L185.3,0h-10.6L160.4,54.7z"/>
						</g>
						<g>
							<path id="DejaVuSans-61_00000024687636444117778710000001240573831006962346_" class="st8" d="M272.3,27.5
								c-7.3,0-12.3-0.8-15.1-2.5c-2.8-1.7-4.2-4.5-4.2-8.5c0-3.2,1.1-5.7,3.2-7.6c2.1-1.9,5-2.8,8.6-2.8c5,0,9,1.8,12,5.3
								c3,3.5,4.5,8.2,4.5,14.1v2H272.3z M290.2,31.2V0h-9v8.3c-2.1-3.3-4.6-5.8-7.7-7.3s-6.8-2.4-11.2-2.4c-5.6,0-10,1.6-13.4,4.7
								c-3.3,3.1-5,7.4-5,12.6c0,6.1,2.1,10.8,6.2,13.9c4.1,3.1,10.3,4.7,18.4,4.7h12.6v0.9c0,4.1-1.4,7.3-4.1,9.6
								c-2.7,2.3-6.5,3.4-11.5,3.4c-3.1,0-6.2-0.4-9.1-1.1c-3-0.8-5.8-1.9-8.5-3.4v8.3c3.3,1.3,6.5,2.2,9.6,2.8c3.1,0.6,6.1,1,9,1
								c7.9,0,13.8-2.1,17.7-6.2C288.2,45.8,290.2,39.5,290.2,31.2z"/>
						</g>
						<g>
							<path id="DejaVuSans-72_00000001643732495038812780000013626729343175604387_" class="st8" d="M340.4,46.3
								c-1,0.6-2.1,1-3.3,1.3c-1.2,0.3-2.5,0.4-3.9,0.4c-5.1,0-9-1.7-11.7-5c-2.7-3.3-4.1-8-4.1-14.2V0h-9v54.7h9v-8.5
								c1.9,3.3,4.4,5.8,7.4,7.4c3,1.6,6.7,2.4,11,2.4c0.6,0,1.3,0,2-0.1c0.8-0.1,1.6-0.2,2.5-0.4L340.4,46.3z"/>
						</g>
						<g>
							<path id="DejaVuSans-64_00000039843387136220906540000001378756995198284694_" class="st8" d="M384,46.4V76h9V0h-9v8.2
								c-1.9-3.2-4.3-5.7-7.2-7.2c-2.9-1.6-6.3-2.4-10.4-2.4c-6.6,0-12,2.6-16.1,7.9c-4.1,5.3-6.2,12.2-6.2,20.8s2.1,15.5,6.2,20.8
								c4.2,5.3,9.5,7.9,16.1,7.9c4,0,7.5-0.8,10.4-2.4C379.8,52.1,382.1,49.6,384,46.4z M353.4,27.3c0-6.6,1.4-11.8,4.1-15.5
								s6.5-5.6,11.2-5.6s8.5,1.9,11.2,5.6c2.7,3.8,4.1,8.9,4.1,15.5s-1.4,11.8-4.1,15.5c-2.7,3.8-6.5,5.6-11.2,5.6
								s-8.5-1.9-11.2-5.6C354.8,39.1,353.4,33.9,353.4,27.3z"/>
						</g>
						<g>
							<path id="DejaVuSans-65_00000133520236240406994360000017137772367110207649_" class="st8" d="M458.3,29.6v-4.4H417
								c0.4-6.2,2.3-10.9,5.6-14.1c3.3-3.2,8-4.9,13.9-4.9c3.4,0,6.8,0.4,10,1.3c3.2,0.8,6.5,2.1,9.7,3.8V2.8
								c-3.2-1.4-6.5-2.4-9.9-3.1c-3.4-0.7-6.8-1.1-10.3-1.1c-8.7,0-15.6,2.5-20.7,7.6c-5.1,5.1-7.6,12-7.6,20.6
								c0,8.9,2.4,16,7.2,21.3c4.8,5.3,11.4,7.9,19.6,7.9c7.4,0,13.2-2.4,17.5-7.1C456.2,44.2,458.3,37.7,458.3,29.6z M449.3,32.2
								c-0.1,4.9-1.4,8.8-4.1,11.8c-2.7,2.9-6.2,4.4-10.7,4.4c-5,0-9-1.4-12-4.3c-3-2.8-4.7-6.8-5.2-12L449.3,32.2z"/>
						</g>
						<g>
							<path id="DejaVuSans-64_00000163035980007273579550000004798167451570841508_" class="st8" d="M509,46.4V76h9V0h-9v8.2
								c-1.9-3.2-4.3-5.7-7.2-7.2c-2.9-1.6-6.3-2.4-10.4-2.4c-6.6,0-12,2.6-16.1,7.9c-4.1,5.3-6.2,12.2-6.2,20.8s2.1,15.5,6.2,20.8
								c4.2,5.3,9.5,7.9,16.1,7.9c4,0,7.5-0.8,10.4-2.4C504.8,52.1,507.1,49.6,509,46.4z M478.4,27.3c0-6.6,1.4-11.8,4.1-15.5
								s6.5-5.6,11.2-5.6s8.5,1.9,11.2,5.6c2.7,3.8,4.1,8.9,4.1,15.5s-1.4,11.8-4.1,15.5c-2.7,3.8-6.5,5.6-11.2,5.6
								s-8.5-1.9-11.2-5.6C479.8,39.1,478.4,33.9,478.4,27.3z"/>
						</g>
						<g>
							<path id="DejaVuSans-20_00000080887737007395312120000012643867635048526264_" class="st8" d="M527.1,0"/>
						</g>
						<g>
							<path id="DejaVuSans-6c_00000147930598218417125200000010712346168577206674_" class="st8" d="M568.3,76h9V0h-9V76z"/>
						</g>
						<g>
							<path id="DejaVuSans-69_00000145743027043221530840000012163467810107999908_" class="st8" d="M596.1,54.7h9V0h-9V54.7z
								 M596.1,76h9V64.6h-9V76z"/>
						</g>
						<g>
							<path id="DejaVuSans-6e" class="st8" d="M669.3,33V0h-9v32.7c0,5.2-1,9-3,11.6c-2,2.6-5,3.9-9.1,3.9c-4.9,0-8.7-1.5-11.5-4.6
								c-2.8-3.1-4.2-7.3-4.2-12.6V0h-9v54.7h9v-8.5c2.2,3.3,4.7,5.8,7.6,7.4c2.9,1.6,6.3,2.4,10.1,2.4c6.3,0,11-1.9,14.2-5.8
								C667.7,46.3,669.3,40.6,669.3,33z"/>
						</g>
						<g>
							<path id="DejaVuSans-6b_00000129184107854955479240000000772209411362671019_" class="st8" d="M686.9,76h9V31.1l26.8,23.6
								h11.5l-29-25.6L735.5,0h-11.7l-27.8,26.7V0h-9V76z"/>
						</g>
						<g>
							<path id="DejaVuSans-20_00000008831738746054275470000007178841941411537308_" class="st8" d="M735.7,0"/>
						</g>
					</g>
					<g transform="translate(376.89273 215.393482)scale(0.15 -0.15)">
						<g>
							<path id="DejaVuSans-66_00000132773540273183281420000001840164491739781507_" class="st8" d="M37.1,76v-7.5h-8.6
								c-3.2,0-5.5-0.7-6.7-2c-1.2-1.3-1.9-3.6-1.9-7v-4.8h14.8v-7H19.9V0h-9v47.7H2.3v7h8.6v3.8c0,6.1,1.4,10.5,4.3,13.3
								C18,74.6,22.5,76,28.6,76H37.1z"/>
						</g>
						<g>
							<path id="DejaVuSans-72_00000106862965407107770420000003087259681538535596_" class="st8" d="M76.3,46.3
								c-1,0.6-2.1,1-3.3,1.3c-1.2,0.3-2.5,0.4-3.9,0.4c-5.1,0-9-1.7-11.7-5s-4.1-8-4.1-14.2V0h-9v54.7h9v-8.5
								c1.9,3.3,4.4,5.8,7.4,7.4c3,1.6,6.7,2.4,11,2.4c0.6,0,1.3,0,2-0.1c0.8-0.1,1.6-0.2,2.5-0.4L76.3,46.3z"/>
						</g>
						<g>
							<path id="DejaVuSans-6f_00000004528732083615442790000011422571844368844429_" class="st8" d="M104.7,48.4
								c-4.8,0-8.6-1.9-11.4-5.6s-4.2-8.9-4.2-15.5s1.4-11.7,4.2-15.5c2.8-3.8,6.6-5.6,11.5-5.6c4.8,0,8.6,1.9,11.4,5.7
								c2.8,3.8,4.2,8.9,4.2,15.4c0,6.5-1.4,11.6-4.2,15.4C113.3,46.5,109.5,48.4,104.7,48.4z M104.7,56c7.8,0,13.9-2.5,18.4-7.6
								c4.5-5.1,6.7-12.1,6.7-21.1c0-8.9-2.2-16-6.7-21.1c-4.5-5.1-10.6-7.6-18.4-7.6c-7.8,0-14,2.5-18.4,7.6
								c-4.4,5.1-6.7,12.1-6.7,21.1c0,9,2.2,16,6.7,21.1C90.7,53.5,96.8,56,104.7,56z"/>
						</g>
						<g>
							<path id="DejaVuSans-6d_00000158736368103051259430000015070232411126448515_" class="st8" d="M187.2,44.2
								c2.2,4,4.9,7,8.1,8.9s6.8,2.9,11,2.9c5.7,0,10.1-2,13.2-6c3.1-4,4.6-9.6,4.6-17V0h-9v32.7c0,5.2-0.9,9.1-2.8,11.7
								c-1.9,2.5-4.7,3.8-8.5,3.8c-4.7,0-8.3-1.5-11-4.6c-2.7-3.1-4-7.3-4-12.6V0h-9v32.7c0,5.3-0.9,9.2-2.8,11.7
								c-1.9,2.5-4.7,3.8-8.6,3.8c-4.6,0-8.2-1.6-11-4.7c-2.7-3.1-4-7.3-4-12.6V0h-9v54.7h9v-8.5c2.1,3.4,4.5,5.8,7.4,7.4
								c2.9,1.6,6.3,2.4,10.2,2.4c4,0,7.4-1,10.1-3C183.9,51,185.9,48,187.2,44.2z"/>
						</g>
						<g>
							<path id="DejaVuSans-20_00000040558582690617136460000003208802583979285180_" class="st8" d="M232.7,0"/>
						</g>
						<g>
							<path id="DejaVuSans-61_00000160912372849462150880000017033117520950055848_" class="st8" d="M298.7,27.5
								c-7.3,0-12.3-0.8-15.1-2.5c-2.8-1.7-4.2-4.5-4.2-8.5c0-3.2,1.1-5.7,3.2-7.6c2.1-1.9,5-2.8,8.6-2.8c5,0,9,1.8,12,5.3
								c3,3.5,4.5,8.2,4.5,14.1v2H298.7z M316.7,31.2V0h-9v8.3C305.6,5,303.1,2.5,300,1s-6.8-2.4-11.2-2.4c-5.6,0-10,1.6-13.4,4.7
								c-3.3,3.1-5,7.4-5,12.6c0,6.1,2.1,10.8,6.2,13.9c4.1,3.1,10.3,4.7,18.4,4.7h12.6v0.9c0,4.1-1.4,7.3-4.1,9.6
								s-6.5,3.4-11.5,3.4c-3.1,0-6.2-0.4-9.1-1.1c-3-0.8-5.8-1.9-8.5-3.4v8.3c3.3,1.3,6.5,2.2,9.6,2.8c3.1,0.6,6.1,1,9,1
								c7.9,0,13.8-2.1,17.7-6.2C314.7,45.8,316.7,39.5,316.7,31.2z"/>
						</g>
						<g>
							<path id="DejaVuSans-20_00000115473311337026827720000007300850751419558548_" class="st8" d="M325.7,0"/>
						</g>
						<g>
							<path id="DejaVuSans-66_00000160169132496417271400000006093965747105636232_" class="st8" d="M394.6,76v-7.5H386
								c-3.2,0-5.5-0.7-6.7-2c-1.2-1.3-1.9-3.6-1.9-7v-4.8h14.8v-7h-14.8V0h-9v47.7h-8.6v7h8.6v3.8c0,6.1,1.4,10.5,4.2,13.3
								c2.8,2.8,7.3,4.2,13.5,4.2H394.6z"/>
						</g>
						<g>
							<path id="DejaVuSans-72_00000183228757753079197580000009165174473390717847_" class="st8" d="M433.8,46.3
								c-1,0.6-2.1,1-3.3,1.3c-1.2,0.3-2.5,0.4-3.9,0.4c-5.1,0-9-1.7-11.7-5s-4.1-8-4.1-14.2V0h-9v54.7h9v-8.5
								c1.9,3.3,4.4,5.8,7.4,7.4c3,1.6,6.7,2.4,11,2.4c0.6,0,1.3,0,2-0.1c0.8-0.1,1.6-0.2,2.5-0.4L433.8,46.3z"/>
						</g>
						<g>
							<path id="DejaVuSans-69_00000129202869495950934100000016218865432901442203_" class="st8" d="M443.3,54.7h9V0h-9V54.7z
								 M443.3,76h9V64.6h-9V76z"/>
						</g>
						<g>
							<path id="DejaVuSans-65_00000077324047753043506070000009030005437369775792_" class="st8" d="M517.8,29.6v-4.4h-41.3
								c0.4-6.2,2.3-10.9,5.6-14.1c3.3-3.2,8-4.9,13.9-4.9c3.4,0,6.8,0.4,10,1.3c3.2,0.8,6.5,2.1,9.7,3.8V2.8
								c-3.2-1.4-6.5-2.4-9.9-3.1c-3.4-0.7-6.8-1.1-10.3-1.1c-8.7,0-15.6,2.5-20.7,7.6c-5.1,5.1-7.6,12-7.6,20.6
								c0,8.9,2.4,16,7.2,21.3c4.8,5.3,11.4,7.9,19.6,7.9c7.4,0,13.2-2.4,17.5-7.1C515.7,44.2,517.8,37.7,517.8,29.6z M508.8,32.2
								c-0.1,4.9-1.4,8.8-4.1,11.8c-2.7,2.9-6.2,4.4-10.7,4.4c-5,0-9-1.4-12-4.2c-3-2.8-4.7-6.8-5.2-12L508.8,32.2z"/>
						</g>
						<g>
							<path id="DejaVuSans-6e_00000010276917685729737990000015359652083597555638_" class="st8" d="M578,33V0h-9v32.7
								c0,5.2-1,9-3,11.6c-2,2.6-5,3.9-9.1,3.9c-4.9,0-8.7-1.5-11.5-4.6c-2.8-3.1-4.2-7.3-4.2-12.6V0h-9v54.7h9v-8.5
								c2.2,3.3,4.7,5.8,7.6,7.4c2.9,1.6,6.3,2.4,10.1,2.4c6.3,0,11-1.9,14.2-5.8C576.4,46.3,578,40.6,578,33z"/>
						</g>
						<g>
							<path id="DejaVuSans-64_00000089573855180495549270000008106251997356798592_" class="st8" d="M631.9,46.4V76h9V0h-9v8.2
								C630,5,627.7,2.5,624.8,1c-2.9-1.6-6.3-2.4-10.4-2.4c-6.6,0-12,2.6-16.1,7.9c-4.1,5.3-6.2,12.2-6.2,20.8s2.1,15.5,6.2,20.8
								c4.2,5.3,9.5,7.9,16.1,7.9c4,0,7.5-0.8,10.4-2.4C627.7,52.1,630,49.6,631.9,46.4z M601.3,27.3c0-6.6,1.4-11.8,4.1-15.5
								s6.5-5.6,11.2-5.6s8.5,1.9,11.2,5.6c2.7,3.8,4.1,8.9,4.1,15.5s-1.4,11.8-4.1,15.5c-2.7,3.8-6.5,5.6-11.2,5.6
								s-8.5-1.9-11.2-5.6S601.3,33.9,601.3,27.3z"/>
						</g>
					</g>
				</g>
			</g>
			<g id="xtick_5">
				<g id="line2d_5">
					<g>
						<g>
							<path id="mba776fd20c_00000134245287883437373420000014164895810127808690_" class="st7" d="M542.5,168.7"/>
						</g>
					</g>
				</g>
				<g id="text_5">
					<g transform="translate(513.510222 198.596763)scale(0.15 -0.15)">
						<g>
							<path id="DejaVuSans-4e_00000106846618847551964840000004553343694652165275_" class="st8" d="M9.8,72.9h13.3l32.3-61v61H65
								V0H51.7L19.4,61V0H9.8V72.9z"/>
						</g>
						<g>
							<path id="DejaVuSans-75_00000147937930735582081410000015262482476046255001_" class="st8" d="M83.3,21.6v33.1h9V21.9
								c0-5.2,1-9.1,3-11.7c2-2.6,5.1-3.9,9.1-3.9c4.8,0,8.7,1.5,11.5,4.6c2.8,3.1,4.2,7.3,4.2,12.7v31h9V0h-9v8.4
								c-2.2-3.3-4.7-5.8-7.6-7.4c-2.9-1.6-6.2-2.4-10-2.4c-6.3,0-11.1,2-14.3,5.9C84.9,8.3,83.3,14.1,83.3,21.6z M105.9,56
								L105.9,56z"/>
						</g>
						<g>
							<path id="DejaVuSans-6d_00000093161767320681589160000011058787412980040638_" class="st8" d="M190.2,44.2
								c2.2,4,4.9,7,8.1,8.9s6.8,2.9,11,2.9c5.7,0,10.1-2,13.2-6c3.1-4,4.6-9.6,4.6-17V0h-9v32.7c0,5.2-0.9,9.1-2.8,11.7
								c-1.9,2.5-4.7,3.8-8.5,3.8c-4.7,0-8.3-1.5-11-4.6c-2.7-3.1-4-7.3-4-12.6V0h-9v32.7c0,5.3-0.9,9.2-2.8,11.7
								c-1.9,2.5-4.7,3.8-8.6,3.8c-4.6,0-8.2-1.6-11-4.7c-2.7-3.1-4-7.3-4-12.6V0h-9v54.7h9v-8.5c2.1,3.4,4.5,5.8,7.4,7.4
								c2.9,1.6,6.3,2.4,10.2,2.4c4,0,7.4-1,10.1-3C186.8,51,188.9,48,190.2,44.2z"/>
						</g>
						<g>
							<path id="DejaVuSans-50_00000102519994529070002990000005461745883374742458_" class="st8" d="M255.3,64.8V37.4h12.4
								c4.6,0,8.1,1.2,10.6,3.6c2.5,2.4,3.8,5.8,3.8,10.2c0,4.4-1.3,7.7-3.8,10.1c-2.5,2.4-6,3.6-10.6,3.6H255.3z M245.4,72.9h22.3
								c8.2,0,14.4-1.8,18.5-5.5c4.2-3.7,6.3-9.1,6.3-16.2c0-7.2-2.1-12.6-6.3-16.3c-4.2-3.7-10.4-5.5-18.5-5.5h-12.4V0h-9.9V72.9z"
								/>
						</g>
						<g>
							<path id="DejaVuSans-79_00000130607813423877586950000003106087893089457295_" class="st8" d="M328.1-5.1
								c-2.5-6.5-5-10.8-7.4-12.7c-2.4-2-5.6-3-9.7-3h-7.2v7.5h5.3c2.5,0,4.4,0.6,5.8,1.8c1.4,1.2,2.9,3.9,4.5,8.3l1.6,4.1
								l-22.1,53.8h9.5l17.1-42.8l17.1,42.8h9.5L328.1-5.1z"/>
						</g>
						<g>
							<path id="DejaVuSans-20_00000044159151836206326270000005589372874024219265_" class="st8" d="M355.1,0"/>
						</g>
					</g>
					<g transform="translate(501.459832 215.393482)scale(0.15 -0.15)">
						<g>
							<path id="DejaVuSans-6d_00000150781921024490401230000002665830194434806663_" class="st8" d="M52,44.2c2.2,4,4.9,7,8.1,8.9
								s6.8,2.9,11,2.9c5.7,0,10.1-2,13.2-6c3.1-4,4.6-9.6,4.6-17V0h-9v32.7c0,5.2-0.9,9.1-2.8,11.7c-1.9,2.5-4.7,3.8-8.5,3.8
								c-4.7,0-8.3-1.5-11-4.6c-2.7-3.1-4-7.3-4-12.6V0h-9v32.7c0,5.3-0.9,9.2-2.8,11.7s-4.7,3.8-8.6,3.8c-4.6,0-8.2-1.6-11-4.7
								c-2.7-3.1-4-7.3-4-12.6V0h-9v54.7h9v-8.5c2.1,3.4,4.5,5.8,7.4,7.4S31.8,56,35.7,56c4,0,7.4-1,10.1-3C48.6,51,50.7,48,52,44.2
								z"/>
						</g>
						<g>
							<path id="DejaVuSans-61_00000080165181689781758410000009111089030032399527_" class="st8" d="M131.7,27.5
								c-7.3,0-12.3-0.8-15.1-2.5c-2.8-1.7-4.2-4.5-4.2-8.5c0-3.2,1.1-5.7,3.2-7.6c2.1-1.9,5-2.8,8.6-2.8c5,0,9,1.8,12,5.3
								c3,3.5,4.5,8.2,4.5,14.1v2H131.7z M149.6,31.2V0h-9v8.3C138.6,5,136,2.5,133,1s-6.8-2.4-11.2-2.4c-5.6,0-10,1.6-13.4,4.7
								c-3.3,3.1-5,7.4-5,12.6c0,6.1,2.1,10.8,6.2,13.9c4.1,3.1,10.3,4.7,18.4,4.7h12.6v0.9c0,4.1-1.4,7.3-4.1,9.6
								s-6.5,3.4-11.5,3.4c-3.1,0-6.2-0.4-9.1-1.1c-3-0.8-5.8-1.9-8.5-3.4v8.3c3.3,1.3,6.5,2.2,9.6,2.8c3.1,0.6,6.1,1,9,1
								c7.9,0,13.8-2.1,17.7-6.2C147.7,45.8,149.6,39.5,149.6,31.2z"/>
						</g>
						<g>
							<path id="DejaVuSans-69_00000027577048465145487010000015604001957253101983_" class="st8" d="M168.1,54.7h9V0h-9V54.7z
								 M168.1,76h9V64.6h-9V76z"/>
						</g>
						<g>
							<path id="DejaVuSans-6c_00000057119906498221850800000004094247554175211662_" class="st8" d="M195.9,76h9V0h-9V76z"/>
						</g>
						<g>
							<path id="DejaVuSans-69_00000061459673411963225620000017323746481052124849_" class="st8" d="M223.7,54.7h9V0h-9V54.7z
								 M223.7,76h9V64.6h-9V76z"/>
						</g>
						<g>
							<path id="DejaVuSans-6e_00000031897669218057434720000016504146469465733538_" class="st8" d="M296.9,33V0h-9v32.7
								c0,5.2-1,9-3,11.6c-2,2.6-5,3.9-9.1,3.9c-4.9,0-8.7-1.5-11.5-4.6c-2.8-3.1-4.2-7.3-4.2-12.6V0h-9v54.7h9v-8.5
								c2.2,3.3,4.7,5.8,7.6,7.4c2.9,1.6,6.3,2.4,10.1,2.4c6.3,0,11-1.9,14.2-5.8C295.3,46.3,296.9,40.6,296.9,33z"/>
						</g>
						<g>
							<path id="DejaVuSans-67_00000076566563669435532860000001719781484393373852_" class="st8" d="M350.8,28
								c0,6.5-1.3,11.6-4,15.1c-2.7,3.6-6.4,5.4-11.3,5.4c-4.8,0-8.6-1.8-11.2-5.4c-2.7-3.6-4-8.6-4-15.1c0-6.5,1.3-11.5,4-15.1
								s6.4-5.4,11.2-5.4c4.9,0,8.6,1.8,11.3,5.4C349.5,16.5,350.8,21.5,350.8,28z M359.8,6.8c0-9.3-2.1-16.2-6.2-20.8
								c-4.1-4.5-10.5-6.8-19-6.8c-3.2,0-6.1,0.2-8.9,0.7c-2.8,0.5-5.5,1.2-8.2,2.2v8.7c2.6-1.4,5.2-2.5,7.8-3.2
								c2.6-0.7,5.2-1,7.9-1c5.9,0,10.3,1.5,13.2,4.6c2.9,3.1,4.4,7.7,4.4,13.9v4.5c-1.9-3.2-4.2-5.6-7.1-7.2
								c-2.9-1.6-6.4-2.4-10.4-2.4c-6.7,0-12.1,2.6-16.2,7.7c-4.1,5.1-6.2,11.9-6.2,20.3c0,8.5,2.1,15.2,6.2,20.3
								c4.1,5.1,9.5,7.7,16.2,7.7c4,0,7.5-0.8,10.4-2.4c2.9-1.6,5.3-4,7.1-7.2v8.3h9V6.8z"/>
						</g>
						<g>
							<path id="DejaVuSans-20_00000173850611660430967780000000414920248210721671_" class="st8" d="M368.9,0"/>
						</g>
						<g>
							<path id="DejaVuSans-6c_00000173875166930564125740000012754803755616070537_" class="st8" d="M410.1,76h9V0h-9V76z"/>
						</g>
						<g>
							<path id="DejaVuSans-69_00000175302021729350231970000012087881191827666082_" class="st8" d="M437.9,54.7h9V0h-9V54.7z
								 M437.9,76h9V64.6h-9V76z"/>
						</g>
						<g>
							<path id="DejaVuSans-73" class="st8" d="M500.5,53.1v-8.5c-2.5,1.3-5.2,2.3-7.9,2.9c-2.7,0.7-5.6,1-8.5,1
								c-4.5,0-7.8-0.7-10-2c-2.2-1.4-3.3-3.4-3.3-6.2c0-2.1,0.8-3.7,2.4-4.9s4.8-2.3,9.6-3.4l3.1-0.7c6.4-1.4,10.9-3.3,13.6-5.8
								s4-6,4-10.4c0-5.1-2-9.1-6-12.1c-4-3-9.5-4.4-16.6-4.4c-2.9,0-6,0.3-9.2,0.9c-3.2,0.6-6.5,1.4-10,2.6v9.3
								c3.3-1.7,6.6-3,9.8-3.9c3.2-0.9,6.4-1.3,9.6-1.3c4.2,0,7.5,0.7,9.8,2.2c2.3,1.4,3.4,3.5,3.4,6.1c0,2.4-0.8,4.3-2.5,5.6
								c-1.6,1.3-5.2,2.6-10.8,3.8l-3.1,0.7c-5.6,1.2-9.6,3-12.1,5.4c-2.5,2.4-3.7,5.8-3.7,10c0,5.1,1.8,9.1,5.5,11.9
								c3.6,2.8,8.8,4.2,15.5,4.2c3.3,0,6.4-0.2,9.4-0.7C495.4,54.8,498.1,54.1,500.5,53.1z"/>
						</g>
						<g>
							<path id="DejaVuSans-74_00000178162669014675529860000004472939015446420405_" class="st8" d="M526.7,70.2V54.7h18.5v-7
								h-18.5V18c0-4.5,0.6-7.3,1.8-8.6s3.7-1.9,7.5-1.9h9.2V0h-9.2c-6.9,0-11.7,1.3-14.4,3.9c-2.6,2.6-4,7.3-4,14.1v29.7H511v7h6.6
								v15.5H526.7z"/>
						</g>
					</g>
				</g>
			</g>
			<g id="xtick_6">
				<g id="line2d_6">
					<g>
						<g>
							<path id="mba776fd20c_00000041983279492913630030000009435546942004825237_" class="st7" d="M659.4,168.7"/>
						</g>
					</g>
				</g>
				<g id="text_6">
					<g transform="translate(637.09412 198.596763)scale(0.15 -0.15)">
						<g>
							<path id="DejaVuSans-53_00000090296111312887619690000011645916108516278201_" class="st8" d="M53.5,70.5v-9.6
								c-3.7,1.8-7.3,3.1-10.6,4c-3.3,0.9-6.5,1.3-9.6,1.3c-5.4,0-9.5-1-12.4-3.1s-4.4-5-4.4-8.9c0-3.2,1-5.7,2.9-7.3
								c1.9-1.6,5.6-3,11-4l6-1.2c7.4-1.4,12.8-3.9,16.3-7.4s5.2-8.3,5.2-14.2c0-7.1-2.4-12.4-7.1-16.1C46.1,0.4,39.1-1.4,30-1.4
								c-3.4,0-7.1,0.4-11,1.2c-3.9,0.8-7.9,1.9-12.1,3.5v10.2c4-2.2,7.9-3.9,11.8-5.1c3.8-1.1,7.6-1.7,11.3-1.7
								c5.6,0,10,1.1,13,3.3c3.1,2.2,4.6,5.4,4.6,9.5c0,3.6-1.1,6.4-3.3,8.4s-5.8,3.5-10.8,4.5l-6,1.2c-7.4,1.5-12.7,3.8-16,6.9
								c-3.3,3.1-4.9,7.5-4.9,13c0,6.4,2.3,11.5,6.8,15.2s10.8,5.6,18.8,5.6c3.4,0,6.9-0.3,10.5-0.9C46.2,72.7,49.8,71.7,53.5,70.5z
								"/>
						</g>
						<g>
							<path id="DejaVuSans-63_00000054228235567189752900000011190223876493472686_" class="st8" d="M112.3,52.6v-8.4
								c-2.5,1.4-5.1,2.5-7.6,3.2c-2.6,0.7-5.1,1-7.7,1c-5.8,0-10.4-1.8-13.6-5.5c-3.2-3.7-4.8-8.9-4.8-15.5s1.6-11.9,4.8-15.6
								C86.5,8,91,6.2,96.9,6.2c2.6,0,5.2,0.3,7.7,1c2.6,0.7,5.1,1.8,7.6,3.2V2.1c-2.5-1.2-5.1-2-7.8-2.6c-2.7-0.6-5.5-0.9-8.6-0.9
								c-8.2,0-14.8,2.6-19.6,7.8c-4.8,5.2-7.3,12.2-7.3,21c0,8.9,2.4,15.9,7.3,21C81.2,53.4,88,56,96.5,56c2.8,0,5.5-0.3,8.1-0.9
								C107.2,54.6,109.8,53.7,112.3,52.6z"/>
						</g>
						<g>
							<path id="DejaVuSans-69_00000158745126568634468270000002337423735977694873_" class="st8" d="M127.9,54.7h9V0h-9V54.7z
								 M127.9,76h9V64.6h-9V76z"/>
						</g>
						<g>
							<path id="DejaVuSans-50_00000022550398218519926340000014796985546924187320_" class="st8" d="M165.9,64.8V37.4h12.4
								c4.6,0,8.1,1.2,10.6,3.6c2.5,2.4,3.8,5.8,3.8,10.2c0,4.4-1.3,7.7-3.8,10.1c-2.5,2.4-6,3.6-10.6,3.6H165.9z M156.1,72.9h22.3
								c8.2,0,14.4-1.8,18.5-5.5c4.2-3.7,6.3-9.1,6.3-16.2c0-7.2-2.1-12.6-6.3-16.3c-4.2-3.7-10.4-5.5-18.5-5.5h-12.4V0h-9.9V72.9z"
								/>
						</g>
						<g>
							<path id="DejaVuSans-79_00000181084081028062510430000004168861724340145837_" class="st8" d="M238.7-5.1
								c-2.5-6.5-5-10.8-7.4-12.7c-2.4-2-5.6-3-9.7-3h-7.2v7.5h5.3c2.5,0,4.4,0.6,5.8,1.8c1.4,1.2,2.9,3.9,4.5,8.3l1.6,4.1
								l-22.1,53.8h9.5l17.1-42.8l17.1,42.8h9.5L238.7-5.1z"/>
						</g>
						<g>
							<path id="DejaVuSans-20_00000122682898618492398320000011289958719657798320_" class="st8" d="M265.7,0"/>
						</g>
					</g>
					<g transform="translate(615.282011 215.393482)scale(0.15 -0.15)">
						<g>
							<path id="DejaVuSans-20_00000123414128917113742460000003758128212404283534_" class="st8" d="M0,0"/>
						</g>
						<g>
							<path id="DejaVuSans-63_00000005945204809639848550000015252334469088516027_" class="st8" d="M80.6,52.6v-8.4
								c-2.5,1.4-5.1,2.5-7.6,3.2c-2.6,0.7-5.1,1-7.7,1c-5.8,0-10.4-1.8-13.6-5.5c-3.2-3.7-4.8-8.9-4.8-15.5s1.6-11.9,4.8-15.6
								c3.2-3.7,7.8-5.5,13.6-5.5c2.6,0,5.2,0.3,7.7,1c2.6,0.7,5.1,1.8,7.6,3.2V2.1c-2.5-1.2-5.1-2-7.8-2.6
								c-2.7-0.6-5.5-0.9-8.6-0.9c-8.2,0-14.8,2.6-19.6,7.8c-4.8,5.2-7.3,12.2-7.3,21c0,8.9,2.4,15.9,7.3,21
								c4.9,5.1,11.6,7.7,20.2,7.7c2.8,0,5.5-0.3,8.1-0.9C75.5,54.6,78.1,53.7,80.6,52.6z"/>
						</g>
						<g>
							<path id="DejaVuSans-6f_00000143586610232869690080000002135695485283916978_" class="st8" d="M117.4,48.4
								c-4.8,0-8.6-1.9-11.4-5.6s-4.2-8.9-4.2-15.5s1.4-11.7,4.2-15.5c2.8-3.8,6.6-5.6,11.5-5.6c4.8,0,8.6,1.9,11.4,5.7
								c2.8,3.8,4.2,8.9,4.2,15.4c0,6.5-1.4,11.6-4.2,15.4C126,46.5,122.2,48.4,117.4,48.4z M117.4,56c7.8,0,13.9-2.5,18.4-7.6
								c4.5-5.1,6.7-12.1,6.7-21.1c0-8.9-2.2-16-6.7-21.1c-4.5-5.1-10.6-7.6-18.4-7.6c-7.8,0-14,2.5-18.4,7.6
								c-4.4,5.1-6.7,12.1-6.7,21.1c0,9,2.2,16,6.7,21.1C103.4,53.5,109.5,56,117.4,56z"/>
						</g>
						<g>
							<path id="DejaVuSans-6e_00000137128912737176334200000010499653476397004698_" class="st8" d="M202.8,33V0h-9v32.7
								c0,5.2-1,9-3,11.6c-2,2.6-5,3.9-9.1,3.9c-4.9,0-8.7-1.5-11.5-4.6c-2.8-3.1-4.2-7.3-4.2-12.6V0h-9v54.7h9v-8.5
								c2.2,3.3,4.7,5.8,7.6,7.4c2.9,1.6,6.3,2.4,10.1,2.4c6.3,0,11-1.9,14.2-5.8C201.2,46.3,202.8,40.6,202.8,33z"/>
						</g>
						<g>
							<path id="DejaVuSans-66_00000142857979904688475900000004707836409085695638_" class="st8" d="M248.4,76v-7.5h-8.6
								c-3.2,0-5.5-0.7-6.7-2c-1.2-1.3-1.9-3.6-1.9-7v-4.8H246v-7h-14.8V0h-9v47.7h-8.6v7h8.6v3.8c0,6.1,1.4,10.5,4.2,13.3
								c2.8,2.8,7.3,4.2,13.5,4.2H248.4z"/>
						</g>
						<g>
							<path id="DejaVuSans-65_00000043436232459559636840000006198162898450272664_" class="st8" d="M302.7,29.6v-4.4h-41.3
								c0.4-6.2,2.3-10.9,5.6-14.1c3.3-3.2,8-4.9,13.9-4.9c3.4,0,6.8,0.4,10,1.3c3.2,0.8,6.5,2.1,9.7,3.8V2.8
								c-3.2-1.4-6.5-2.4-9.9-3.1c-3.4-0.7-6.8-1.1-10.3-1.1c-8.7,0-15.6,2.5-20.7,7.6c-5.1,5.1-7.6,12-7.6,20.6
								c0,8.9,2.4,16,7.2,21.3c4.8,5.3,11.4,7.9,19.6,7.9c7.4,0,13.2-2.4,17.5-7.1C300.6,44.2,302.7,37.7,302.7,29.6z M293.8,32.2
								c-0.1,4.9-1.4,8.8-4.1,11.8c-2.7,2.9-6.2,4.4-10.7,4.4c-5,0-9-1.4-12-4.2c-3-2.8-4.7-6.8-5.2-12L293.8,32.2z"/>
						</g>
						<g>
							<path id="DejaVuSans-72_00000049179647141796323660000002452569712357350567_" class="st8" d="M349.2,46.3
								c-1,0.6-2.1,1-3.3,1.3c-1.2,0.3-2.5,0.4-3.9,0.4c-5.1,0-9-1.7-11.7-5s-4.1-8-4.1-14.2V0h-9v54.7h9v-8.5
								c1.9,3.3,4.4,5.8,7.4,7.4c3,1.6,6.7,2.4,11,2.4c0.6,0,1.3,0,2-0.1c0.8-0.1,1.6-0.2,2.5-0.4L349.2,46.3z"/>
						</g>
						<g>
							<path id="DejaVuSans-65_00000078753410986230777040000000931302587353616059_" class="st8" d="M403.1,29.6v-4.4h-41.3
								c0.4-6.2,2.3-10.9,5.6-14.1c3.3-3.2,8-4.9,13.9-4.9c3.4,0,6.8,0.4,10,1.3c3.2,0.8,6.5,2.1,9.7,3.8V2.8
								c-3.2-1.4-6.5-2.4-9.9-3.1c-3.4-0.7-6.8-1.1-10.3-1.1c-8.7,0-15.6,2.5-20.7,7.6c-5.1,5.1-7.6,12-7.6,20.6
								c0,8.9,2.4,16,7.2,21.3c4.8,5.3,11.4,7.9,19.6,7.9c7.4,0,13.2-2.4,17.5-7.1C401,44.2,403.1,37.7,403.1,29.6z M394.1,32.2
								c-0.1,4.9-1.4,8.8-4.1,11.8c-2.7,2.9-6.2,4.4-10.7,4.4c-5,0-9-1.4-12-4.2c-3-2.8-4.7-6.8-5.2-12L394.1,32.2z"/>
						</g>
						<g>
							<path id="DejaVuSans-6e_00000084513713717307307380000017479068219891486600_" class="st8" d="M463.3,33V0h-9v32.7
								c0,5.2-1,9-3,11.6c-2,2.6-5,3.9-9.1,3.9c-4.9,0-8.7-1.5-11.5-4.6c-2.8-3.1-4.2-7.3-4.2-12.6V0h-9v54.7h9v-8.5
								c2.2,3.3,4.7,5.8,7.6,7.4c2.9,1.6,6.3,2.4,10.1,2.4c6.3,0,11-1.9,14.2-5.8C461.7,46.3,463.3,40.6,463.3,33z"/>
						</g>
						<g>
							<path id="DejaVuSans-63_00000139279929136601666920000001030985506209767298_" class="st8" d="M520.6,52.6v-8.4
								c-2.5,1.4-5.1,2.5-7.6,3.2c-2.6,0.7-5.1,1-7.7,1c-5.8,0-10.4-1.8-13.6-5.5c-3.2-3.7-4.8-8.9-4.8-15.5s1.6-11.9,4.8-15.6
								c3.2-3.7,7.8-5.5,13.6-5.5c2.6,0,5.2,0.3,7.7,1c2.6,0.7,5.1,1.8,7.6,3.2V2.1c-2.5-1.2-5.1-2-7.8-2.6
								c-2.7-0.6-5.5-0.9-8.6-0.9c-8.2,0-14.8,2.6-19.6,7.8c-4.8,5.2-7.3,12.2-7.3,21c0,8.9,2.4,15.9,7.3,21
								c4.9,5.1,11.6,7.7,20.2,7.7c2.8,0,5.5-0.3,8.1-0.9C515.6,54.6,518.1,53.7,520.6,52.6z"/>
						</g>
						<g>
							<path id="DejaVuSans-65_00000048468598218155444630000002722236933578883204_" class="st8" d="M583,29.6v-4.4h-41.3
								c0.4-6.2,2.3-10.9,5.6-14.1c3.3-3.2,8-4.9,13.9-4.9c3.4,0,6.8,0.4,10,1.3c3.2,0.8,6.5,2.1,9.7,3.8V2.8
								c-3.2-1.4-6.5-2.4-9.9-3.1c-3.4-0.7-6.8-1.1-10.3-1.1c-8.7,0-15.6,2.5-20.7,7.6c-5.1,5.1-7.6,12-7.6,20.6
								c0,8.9,2.4,16,7.2,21.3c4.8,5.3,11.4,7.9,19.6,7.9c7.4,0,13.2-2.4,17.5-7.1C580.9,44.2,583,37.7,583,29.6z M574,32.2
								c-0.1,4.9-1.4,8.8-4.1,11.8c-2.7,2.9-6.2,4.4-10.7,4.4c-5,0-9-1.4-12-4.2c-3-2.8-4.7-6.8-5.2-12L574,32.2z"/>
						</g>
					</g>
				</g>
			</g>
		</g>
		<g id="text_7">
			<g transform="translate(52.765645 22.396875)scale(0.2 -0.2)">
				<g>
					<path id="DejaVuSans-34" class="st8" d="M37.8,64.3L12.9,25.4h24.9V64.3z M35.2,72.9h12.4V25.4H58v-8.2H47.6V0h-9.8v17.2H4.9
						v9.5L35.2,72.9z"/>
				</g>
				<g>
					<path id="DejaVuSans-33" class="st8" d="M104.2,39.3c4.7-1,8.4-3.1,11-6.3c2.7-3.2,4-7.1,4-11.8c0-7.2-2.5-12.8-7.4-16.7
						c-4.9-3.9-12-5.9-21.1-5.9c-3.1,0-6.2,0.3-9.4,0.9C78,0.1,74.7,1,71.2,2.2v9.5c2.7-1.6,5.7-2.8,9-3.6c3.3-0.8,6.7-1.2,10.2-1.2
						c6.2,0,10.9,1.2,14.1,3.7c3.2,2.4,4.9,6,4.9,10.6c0,4.3-1.5,7.7-4.5,10.1c-3,2.4-7.2,3.6-12.6,3.6h-8.5V43h8.9
						c4.8,0,8.6,1,11.1,2.9c2.6,1.9,3.9,4.7,3.9,8.4c0,3.7-1.3,6.6-4,8.6c-2.6,2-6.4,3-11.4,3c-2.7,0-5.6-0.3-8.7-0.9
						c-3.1-0.6-6.5-1.5-10.2-2.7v8.8c3.8,1,7.3,1.8,10.5,2.3s6.4,0.8,9.2,0.8c7.5,0,13.4-1.7,17.8-5.1c4.4-3.4,6.5-8,6.5-13.8
						c0-4-1.2-7.5-3.5-10.2S108.5,40.4,104.2,39.3z"/>
				</g>
				<g>
					<path id="DejaVuSans-25" class="st8" d="M199.9,32.1c-2.8,0-5.1-1.2-6.7-3.6c-1.6-2.4-2.4-5.8-2.4-10.1c0-4.2,0.8-7.6,2.4-10
						c1.6-2.4,3.8-3.6,6.7-3.6c2.8,0,5,1.2,6.6,3.6c1.6,2.4,2.4,5.8,2.4,10c0,4.3-0.8,7.6-2.4,10C204.9,30.9,202.7,32.1,199.9,32.1z
						 M199.9,38.3c5.1,0,9.2-1.8,12.2-5.4c3-3.6,4.5-8.4,4.5-14.5c0-6.1-1.5-10.9-4.6-14.5c-3-3.6-7.1-5.3-12.2-5.3
						c-5.2,0-9.3,1.8-12.4,5.3c-3,3.6-4.5,8.4-4.5,14.5c0,6.1,1.5,11,4.6,14.5S194.8,38.3,199.9,38.3z M149.6,68
						c-2.8,0-5-1.2-6.6-3.6c-1.6-2.4-2.4-5.7-2.4-10c0-4.3,0.8-7.6,2.4-10.1c1.6-2.4,3.8-3.6,6.6-3.6c2.8,0,5.1,1.2,6.7,3.6
						c1.6,2.4,2.4,5.8,2.4,10.1c0,4.2-0.8,7.5-2.4,10C154.6,66.8,152.4,68,149.6,68z M193.7,74.2h7.8L155.9-1.4H148L193.7,74.2z
						 M149.6,74.2c5.1,0,9.2-1.8,12.3-5.3c3.1-3.6,4.6-8.4,4.6-14.5c0-6.1-1.5-11-4.6-14.5c-3-3.6-7.2-5.3-12.3-5.3
						c-5.2,0-9.3,1.8-12.3,5.3c-3,3.6-4.5,8.4-4.5,14.5c0,6.1,1.5,10.9,4.5,14.5C140.3,72.4,144.4,74.2,149.6,74.2z"/>
				</g>
			</g>
		</g>
		<g id="text_8">
			<g transform="translate(169.648762 76.616144)scale(0.2 -0.2)">
				<g>
					<path id="DejaVuSans-32" class="st8" d="M19.2,8.3h34.4V0H7.3v8.3c3.7,3.9,8.8,9.1,15.3,15.6c6.5,6.5,10.5,10.7,12.2,12.6
						c3.2,3.5,5.4,6.5,6.6,9c1.3,2.5,1.9,4.9,1.9,7.2c0,3.9-1.4,7-4.1,9.5c-2.7,2.4-6.3,3.7-10.6,3.7c-3.1,0-6.4-0.5-9.8-1.6
						c-3.4-1.1-7.1-2.7-11-4.9v10c4,1.6,7.7,2.8,11.1,3.6c3.5,0.8,6.6,1.2,9.5,1.2c7.6,0,13.6-1.9,18.1-5.7
						c4.5-3.8,6.7-8.8,6.7-15.1c0-3-0.6-5.8-1.7-8.5c-1.1-2.7-3.2-5.8-6.1-9.5c-0.8-0.9-3.4-3.7-7.8-8.2
						C33.3,22.7,27.1,16.4,19.2,8.3z"/>
				</g>
				<g>
					<path id="DejaVuSans-36" class="st8" d="M96.6,40.4c-4.4,0-7.9-1.5-10.5-4.5c-2.6-3-3.9-7.2-3.9-12.4c0-5.2,1.3-9.4,3.9-12.4
						c2.6-3,6.1-4.6,10.5-4.6s7.9,1.5,10.5,4.6c2.6,3.1,3.9,7.2,3.9,12.4c0,5.3-1.3,9.4-3.9,12.4C104.6,38.9,101.1,40.4,96.6,40.4z
						 M116.2,71.3v-9c-2.5,1.2-5,2.1-7.5,2.7c-2.5,0.6-5,0.9-7.5,0.9c-6.5,0-11.5-2.2-14.9-6.6c-3.4-4.4-5.4-11-5.9-19.9
						c1.9,2.8,4.3,5,7.2,6.5c2.9,1.5,6.1,2.3,9.6,2.3c7.3,0,13.1-2.2,17.4-6.7c4.2-4.4,6.4-10.5,6.4-18.1c0-7.5-2.2-13.5-6.6-18
						c-4.4-4.5-10.3-6.8-17.7-6.8c-8.4,0-14.9,3.2-19.3,9.7c-4.5,6.5-6.7,15.8-6.7,28.1c0,11.5,2.7,20.7,8.2,27.6s12.8,10.3,22,10.3
						c2.5,0,5-0.2,7.5-0.7C110.8,73,113.5,72.3,116.2,71.3z"/>
				</g>
				<g>
					<path id="DejaVuSans-25_00000121271160484321634650000017143973049363745688_" class="st8" d="M199.9,32.1
						c-2.8,0-5.1-1.2-6.7-3.6c-1.6-2.4-2.4-5.8-2.4-10.1c0-4.2,0.8-7.6,2.4-10c1.6-2.4,3.8-3.6,6.7-3.6c2.8,0,5,1.2,6.6,3.6
						c1.6,2.4,2.4,5.8,2.4,10c0,4.3-0.8,7.6-2.4,10C204.9,30.9,202.7,32.1,199.9,32.1z M199.9,38.3c5.1,0,9.2-1.8,12.2-5.4
						c3-3.6,4.5-8.4,4.5-14.5c0-6.1-1.5-10.9-4.6-14.5c-3-3.6-7.1-5.3-12.2-5.3c-5.2,0-9.3,1.8-12.4,5.3c-3,3.6-4.5,8.4-4.5,14.5
						c0,6.1,1.5,11,4.6,14.5S194.8,38.3,199.9,38.3z M149.6,68c-2.8,0-5-1.2-6.6-3.6c-1.6-2.4-2.4-5.7-2.4-10
						c0-4.3,0.8-7.6,2.4-10.1c1.6-2.4,3.8-3.6,6.6-3.6c2.8,0,5.1,1.2,6.7,3.6c1.6,2.4,2.4,5.8,2.4,10.1c0,4.2-0.8,7.5-2.4,10
						C154.6,66.8,152.4,68,149.6,68z M193.7,74.2h7.8L155.9-1.4H148L193.7,74.2z M149.6,74.2c5.1,0,9.2-1.8,12.3-5.3
						c3.1-3.6,4.6-8.4,4.6-14.5c0-6.1-1.5-11-4.6-14.5c-3-3.6-7.2-5.3-12.3-5.3c-5.2,0-9.3,1.8-12.3,5.3c-3,3.6-4.5,8.4-4.5,14.5
						c0,6.1,1.5,10.9,4.5,14.5C140.3,72.4,144.4,74.2,149.6,74.2z"/>
				</g>
			</g>
		</g>
		<g id="text_9">
			<g transform="translate(292.894379 130.835413)scale(0.2 -0.2)">
				<g>
					<path id="DejaVuSans-39" class="st8" d="M11,1.5v9c2.5-1.2,5-2.1,7.5-2.7c2.5-0.6,5-0.9,7.5-0.9c6.5,0,11.5,2.2,14.9,6.6
						c3.4,4.4,5.4,11,5.9,20c-1.9-2.8-4.3-5-7.2-6.5c-2.9-1.5-6.1-2.2-9.6-2.2c-7.3,0-13.1,2.2-17.3,6.6c-4.2,4.4-6.4,10.5-6.4,18.1
						c0,7.5,2.2,13.5,6.6,18c4.4,4.5,10.3,6.8,17.7,6.8c8.4,0,14.9-3.2,19.3-9.7c4.4-6.5,6.7-15.8,6.7-28.1
						c0-11.5-2.7-20.7-8.2-27.5C43,2,35.6-1.4,26.4-1.4c-2.5,0-5,0.2-7.5,0.7C16.4-0.2,13.7,0.5,11,1.5z M30.6,32.4
						c4.4,0,7.9,1.5,10.5,4.5c2.6,3,3.9,7.2,3.9,12.5c0,5.2-1.3,9.4-3.9,12.4c-2.6,3-6.1,4.6-10.5,4.6s-7.9-1.5-10.5-4.6
						c-2.6-3-3.9-7.2-3.9-12.4c0-5.3,1.3-9.4,3.9-12.5C22.7,33.9,26.2,32.4,30.6,32.4z"/>
				</g>
				<g>
					<path id="DejaVuSans-25_00000088132897365911825480000015563140976712357257_" class="st8" d="M136.3,32.1
						c-2.8,0-5.1-1.2-6.7-3.6c-1.6-2.4-2.4-5.8-2.4-10.1c0-4.2,0.8-7.6,2.4-10c1.6-2.4,3.8-3.6,6.7-3.6c2.8,0,5,1.2,6.6,3.6
						c1.6,2.4,2.4,5.8,2.4,10c0,4.3-0.8,7.6-2.4,10C141.3,30.9,139.1,32.1,136.3,32.1z M136.3,38.3c5.1,0,9.2-1.8,12.2-5.4
						c3-3.6,4.5-8.4,4.5-14.5c0-6.1-1.5-10.9-4.6-14.5c-3-3.6-7.1-5.3-12.2-5.3c-5.2,0-9.3,1.8-12.4,5.3c-3,3.6-4.5,8.4-4.5,14.5
						c0,6.1,1.5,11,4.6,14.5C127,36.5,131.1,38.3,136.3,38.3z M85.9,68c-2.8,0-5-1.2-6.6-3.6c-1.6-2.4-2.4-5.7-2.4-10
						c0-4.3,0.8-7.6,2.4-10.1c1.6-2.4,3.8-3.6,6.6-3.6s5.1,1.2,6.7,3.6c1.6,2.4,2.4,5.8,2.4,10.1c0,4.2-0.8,7.5-2.4,10
						C91,66.8,88.7,68,85.9,68z M130,74.2h7.8L92.2-1.4h-7.8L130,74.2z M85.9,74.2c5.1,0,9.2-1.8,12.3-5.3c3.1-3.6,4.6-8.4,4.6-14.5
						c0-6.1-1.5-11-4.6-14.5s-7.2-5.3-12.3-5.3s-9.3,1.8-12.3,5.3c-3,3.6-4.5,8.4-4.5,14.5c0,6.1,1.5,10.9,4.5,14.5
						C76.7,72.4,80.8,74.2,85.9,74.2z"/>
				</g>
			</g>
		</g>
		<g id="text_10">
			<g transform="translate(409.777496 134.024782)scale(0.2 -0.2)">
				<g>
					<path id="DejaVuSans-38" class="st8" d="M31.8,34.6c-4.7,0-8.4-1.3-11.1-3.8c-2.7-2.5-4-6-4-10.3c0-4.4,1.3-7.8,4-10.4
						c2.7-2.5,6.4-3.8,11.1-3.8s8.4,1.3,11.1,3.8c2.7,2.5,4.1,6,4.1,10.3c0,4.4-1.3,7.8-4,10.3C40.2,33.4,36.5,34.6,31.8,34.6z
						 M21.9,38.8c-4.2,1-7.5,3-9.9,5.9c-2.4,2.9-3.5,6.4-3.5,10.6c0,5.8,2.1,10.4,6.2,13.8c4.2,3.4,9.8,5.1,17.1,5.1
						c7.3,0,13-1.7,17.1-5.1s6.2-8,6.2-13.8c0-4.2-1.2-7.7-3.5-10.6c-2.4-2.9-5.6-4.9-9.8-5.9c4.8-1.1,8.4-3.3,11.1-6.5
						c2.7-3.2,4-7.2,4-11.8c0-7.1-2.2-12.5-6.5-16.3C46,0.5,39.8-1.4,31.8-1.4c-8,0-14.2,1.9-18.5,5.7C8.9,8,6.8,13.4,6.8,20.5
						c0,4.6,1.3,8.6,4,11.8C13.5,35.5,17.2,37.7,21.9,38.8z M18.3,54.4c0-3.8,1.2-6.7,3.5-8.8c2.4-2.1,5.7-3.2,9.9-3.2
						c4.2,0,7.6,1.1,9.9,3.2c2.4,2.1,3.6,5.1,3.6,8.8c0,3.8-1.2,6.7-3.6,8.8c-2.4,2.1-5.7,3.2-9.9,3.2c-4.3,0-7.6-1.1-9.9-3.2
						C19.5,61.1,18.3,58.2,18.3,54.4z"/>
				</g>
				<g>
					<path id="DejaVuSans-25_00000002379366336773640370000001958612664843730367_" class="st8" d="M136.3,32.1
						c-2.8,0-5.1-1.2-6.7-3.6c-1.6-2.4-2.4-5.8-2.4-10.1c0-4.2,0.8-7.6,2.4-10c1.6-2.4,3.8-3.6,6.7-3.6c2.8,0,5,1.2,6.6,3.6
						c1.6,2.4,2.4,5.8,2.4,10c0,4.3-0.8,7.6-2.4,10C141.3,30.9,139.1,32.1,136.3,32.1z M136.3,38.3c5.1,0,9.2-1.8,12.2-5.4
						c3-3.6,4.5-8.4,4.5-14.5c0-6.1-1.5-10.9-4.6-14.5c-3-3.6-7.1-5.3-12.2-5.3c-5.2,0-9.3,1.8-12.4,5.3c-3,3.6-4.5,8.4-4.5,14.5
						c0,6.1,1.5,11,4.6,14.5C127,36.5,131.1,38.3,136.3,38.3z M85.9,68c-2.8,0-5-1.2-6.6-3.6c-1.6-2.4-2.4-5.7-2.4-10
						c0-4.3,0.8-7.6,2.4-10.1c1.6-2.4,3.8-3.6,6.6-3.6c2.8,0,5.1,1.2,6.7,3.6c1.6,2.4,2.4,5.8,2.4,10.1c0,4.2-0.8,7.5-2.4,10
						C91,66.8,88.7,68,85.9,68z M130,74.2h7.8L92.2-1.4h-7.8L130,74.2z M85.9,74.2c5.1,0,9.2-1.8,12.3-5.3c3.1-3.6,4.6-8.4,4.6-14.5
						c0-6.1-1.5-11-4.6-14.5c-3-3.6-7.2-5.3-12.3-5.3c-5.2,0-9.3,1.8-12.3,5.3c-3,3.6-4.5,8.4-4.5,14.5c0,6.1,1.5,10.9,4.5,14.5
						C76.7,72.4,80.8,74.2,85.9,74.2z"/>
				</g>
			</g>
		</g>
		<g id="text_11">
			<g transform="translate(526.660613 137.214151)scale(0.2 -0.2)">
				<g>
					<path id="DejaVuSans-37" class="st8" d="M8.2,72.9h46.9v-4.2L28.6,0H18.3l24.9,64.6h-35V72.9z"/>
				</g>
				<g>
					<path id="DejaVuSans-25_00000075863400672358008930000015733781796466819513_" class="st8" d="M136.3,32.1
						c-2.8,0-5.1-1.2-6.7-3.6c-1.6-2.4-2.4-5.8-2.4-10.1c0-4.2,0.8-7.6,2.4-10c1.6-2.4,3.8-3.6,6.7-3.6c2.8,0,5,1.2,6.6,3.6
						c1.6,2.4,2.4,5.8,2.4,10c0,4.3-0.8,7.6-2.4,10C141.3,30.9,139.1,32.1,136.3,32.1z M136.3,38.3c5.1,0,9.2-1.8,12.2-5.4
						c3-3.6,4.5-8.4,4.5-14.5c0-6.1-1.5-10.9-4.6-14.5c-3-3.6-7.1-5.3-12.2-5.3c-5.2,0-9.3,1.8-12.4,5.3c-3,3.6-4.5,8.4-4.5,14.5
						c0,6.1,1.5,11,4.6,14.5C127,36.5,131.1,38.3,136.3,38.3z M85.9,68c-2.8,0-5-1.2-6.6-3.6c-1.6-2.4-2.4-5.7-2.4-10
						c0-4.3,0.8-7.6,2.4-10.1c1.6-2.4,3.8-3.6,6.6-3.6c2.8,0,5.1,1.2,6.7,3.6c1.6,2.4,2.4,5.8,2.4,10.1c0,4.2-0.8,7.5-2.4,10
						C91,66.8,88.7,68,85.9,68z M130,74.2h7.8L92.2-1.4h-7.8L130,74.2z M85.9,74.2c5.1,0,9.2-1.8,12.3-5.3c3.1-3.6,4.6-8.4,4.6-14.5
						c0-6.1-1.5-11-4.6-14.5c-3-3.6-7.2-5.3-12.3-5.3c-5.2,0-9.3,1.8-12.3,5.3c-3,3.6-4.5,8.4-4.5,14.5c0,6.1,1.5,10.9,4.5,14.5
						C76.7,72.4,80.8,74.2,85.9,74.2z"/>
				</g>
			</g>
		</g>
		<g id="text_12">
			<g transform="translate(643.54373 137.214151)scale(0.2 -0.2)">
				<g>
					<path id="DejaVuSans-37_00000013872230167770367600000002934198023956769210_" class="st8" d="M8.2,72.9h46.9v-4.2L28.6,0H18.3
						l24.9,64.6h-35V72.9z"/>
				</g>
				<g>
					<path id="DejaVuSans-25_00000052812263988461539380000016799438230068229268_" class="st8" d="M136.3,32.1
						c-2.8,0-5.1-1.2-6.7-3.6c-1.6-2.4-2.4-5.8-2.4-10.1c0-4.2,0.8-7.6,2.4-10c1.6-2.4,3.8-3.6,6.7-3.6c2.8,0,5,1.2,6.6,3.6
						c1.6,2.4,2.4,5.8,2.4,10c0,4.3-0.8,7.6-2.4,10C141.3,30.9,139.1,32.1,136.3,32.1z M136.3,38.3c5.1,0,9.2-1.8,12.2-5.4
						c3-3.6,4.5-8.4,4.5-14.5c0-6.1-1.5-10.9-4.6-14.5c-3-3.6-7.1-5.3-12.2-5.3c-5.2,0-9.3,1.8-12.4,5.3c-3,3.6-4.5,8.4-4.5,14.5
						c0,6.1,1.5,11,4.6,14.5C127,36.5,131.1,38.3,136.3,38.3z M85.9,68c-2.8,0-5-1.2-6.6-3.6c-1.6-2.4-2.4-5.7-2.4-10
						c0-4.3,0.8-7.6,2.4-10.1c1.6-2.4,3.8-3.6,6.6-3.6c2.8,0,5.1,1.2,6.7,3.6c1.6,2.4,2.4,5.8,2.4,10.1c0,4.2-0.8,7.5-2.4,10
						C91,66.8,88.7,68,85.9,68z M130,74.2h7.8L92.2-1.4h-7.8L130,74.2z M85.9,74.2c5.1,0,9.2-1.8,12.3-5.3c3.1-3.6,4.6-8.4,4.6-14.5
						c0-6.1-1.5-11-4.6-14.5c-3-3.6-7.2-5.3-12.3-5.3c-5.2,0-9.3,1.8-12.3,5.3c-3,3.6-4.5,8.4-4.5,14.5c0,6.1,1.5,10.9,4.5,14.5
						C76.7,72.4,80.8,74.2,85.9,74.2z"/>
				</g>
			</g>
		</g>
	</g>
</g>
</svg>
