<?xml version="1.0" encoding="utf-8"?>
<!-- Generator: Adobe Illustrator 26.0.2, SVG Export Plug-In . SVG Version: 6.00 Build 0)  -->
<svg version="1.1" id="Layer_1" xmlns="http://www.w3.org/2000/svg" xmlns:xlink="http://www.w3.org/1999/xlink" x="0px" y="0px"
	 viewBox="0 0 494 386" style="enable-background:new 0 0 494 386;" xml:space="preserve">
<style type="text/css">
	.st0{fill:none;}
	.st1{fill:#9866CF;stroke:#FFFFFF;stroke-width:8;}
	.st2{fill:#99D9EA;stroke:#FFFFFF;stroke-width:8;}
	.st3{fill:#FFC553;stroke:#FFFFFF;stroke-width:8;}
	.st4{fill:#290849;}
	.st5{fill:none;stroke:#290849;stroke-width:4;stroke-miterlimit:10;}
</style>
<path class="st0" d="M0,403.8h545.1V0H0V403.8z"/>
<g id="patch_2">
	<path class="st1" d="M204.8,94.8c-25.8,0-51,7.7-72.5,22s-38.2,34.7-48.1,58.6s-12.5,50.1-7.4,75.4s17.5,48.6,35.7,66.8
		c18.2,18.2,41.5,30.7,66.8,35.7s51.5,2.4,75.4-7.4c23.8-9.9,44.2-26.6,58.6-48.1c14.3-21.5,22-46.7,22-72.5h-52.2
		c0,15.5-4.6,30.6-13.2,43.5s-20.8,22.9-35.1,28.8s-30,7.5-45.2,4.5s-29.1-10.5-40.1-21.4c-10.9-10.9-18.4-24.9-21.4-40.1
		c-3-15.2-1.5-30.9,4.5-45.2c5.9-14.3,16-26.5,28.8-35.1s28-13.2,43.5-13.2V94.8H204.8z"/>
</g>
<g id="patch_3">
	<path class="st2" d="M335.3,225.3c0-16.4-3.1-32.7-9.2-48S311.2,148,299.9,136l-38,35.7c6.8,7.2,12.1,15.6,15.7,24.8
		s5.5,19,5.5,28.8H335.3z"/>
</g>
<g id="patch_4">
	<path class="st3" d="M299.9,136c-12.2-13-26.9-23.3-43.3-30.4s-34-10.7-51.8-10.7V147c10.7,0,21.3,2.2,31.1,6.4s18.7,10.5,26,18.3
		L299.9,136z"/>
</g>
<g id="matplotlib.axis_1">
</g>
<g id="matplotlib.axis_2">
</g>
<g id="text_1">
	<g transform="translate(7.2 390.371371)scale(0.3 -0.3)">
		<g>
			<path id="DejaVuSans-4e" class="st4" d="M98,355.3h13.3l32.3-61v61h9.6v-72.9h-13.3l-32.3,61v-61H98V355.3z"/>
		</g>
		<g>
			<path id="DejaVuSans-6f" class="st4" d="M193.6,330.8c-4.8,0-8.6-1.9-11.4-5.6c-2.8-3.8-4.2-8.9-4.2-15.5
				c0-6.5,1.4-11.7,4.2-15.5s6.6-5.6,11.5-5.6c4.8,0,8.6,1.9,11.4,5.7c2.8,3.8,4.2,8.9,4.2,15.4s-1.4,11.6-4.2,15.4
				C202.2,328.9,198.4,330.8,193.6,330.8z M193.6,338.4c7.8,0,13.9-2.5,18.4-7.6c4.5-5.1,6.7-12.1,6.7-21.1c0-8.9-2.2-16-6.7-21.1
				c-4.5-5.1-10.6-7.6-18.4-7.6c-7.8,0-14,2.5-18.4,7.6s-6.7,12.1-6.7,21.1s2.2,16,6.7,21.1C179.6,335.8,185.7,338.4,193.6,338.4z"
				/>
		</g>
	</g>
</g>
<g id="text_2">
	<g transform="translate(46.004307 354.850267)scale(0.35 -0.35)">
		<g>
			<path id="DejaVuSans-37" class="st4" d="M-79.4,46.6h46.9v-4.2L-59-26.3h-10.3l24.9,64.6h-35V46.6z"/>
		</g>
		<g>
			<path id="DejaVuSans-35" class="st4" d="M-13.2,46.6h38.7v-8.3H-4.2V20.4c1.4,0.5,2.9,0.9,4.3,1.1s2.9,0.4,4.3,0.4
				c8.1,0,14.6-2.2,19.3-6.7c4.8-4.5,7.1-10.5,7.1-18.1c0-7.8-2.4-13.9-7.3-18.3c-4.9-4.3-11.8-6.5-20.7-6.5c-3.1,0-6.2,0.3-9.4,0.8
				s-6.4,1.3-9.8,2.3v9.9c2.9-1.6,6-2.8,9.1-3.6s6.4-1.2,9.9-1.2c5.6,0,10.1,1.5,13.4,4.4C19.4-12,21-8,21-2.9s-1.6,9.1-4.9,12
				c-3.3,3-7.7,4.5-13.4,4.5c-2.6,0-5.3-0.3-7.9-0.9c-2.6-0.6-5.3-1.5-8-2.7C-13.2,10-13.2,46.6-13.2,46.6z"/>
		</g>
		<g>
			<path id="DejaVuSans-25" class="st4" d="M112.3,5.8c-2.8,0-5.1-1.2-6.7-3.6s-2.4-5.8-2.4-10.1c0-4.2,0.8-7.6,2.4-10
				s3.8-3.6,6.7-3.6c2.8,0,5,1.2,6.6,3.6s2.4,5.8,2.4,10c0,4.3-0.8,7.6-2.4,10S115.1,5.8,112.3,5.8z M112.3,12
				c5.1,0,9.2-1.8,12.2-5.4S129-1.8,129-7.9s-1.5-10.9-4.6-14.5c-3-3.6-7.1-5.3-12.2-5.3c-5.2,0-9.3,1.8-12.4,5.3
				c-3,3.6-4.5,8.4-4.5,14.5s1.5,11,4.6,14.5C103,10.2,107.1,12,112.3,12z M61.9,41.7c-2.8,0-5-1.2-6.6-3.6c-1.6-2.4-2.4-5.7-2.4-10
				s0.8-7.6,2.4-10.1c1.6-2.4,3.8-3.6,6.6-3.6c2.8,0,5.1,1.2,6.7,3.6S71,23.8,71,28.1c0,4.2-0.8,7.5-2.4,10
				C66.9,40.5,64.7,41.7,61.9,41.7z M106,47.9h7.8L68.2-27.7h-7.8L106,47.9z M61.9,47.9c5.1,0,9.2-1.8,12.3-5.3
				c3.1-3.6,4.6-8.4,4.6-14.5s-1.5-11-4.6-14.5c-3-3.6-7.2-5.3-12.3-5.3s-9.3,1.8-12.3,5.3c-3,3.6-4.5,8.4-4.5,14.5
				s1.5,10.9,4.5,14.5C52.7,46.1,56.8,47.9,61.9,47.9z"/>
		</g>
	</g>
</g>
<g id="text_3">
	<g transform="translate(411.042376 151.897106)scale(0.3 -0.3)">
		<g>
			<path id="DejaVuSans-4e_00000029756929682268747980000016076236963816504987_" class="st4" d="M-235.4,34.5h13.3l32.3-61v61h9.6
				v-72.9h-13.3l-32.3,61v-61h-9.6V34.5z"/>
		</g>
		<g>
			<path id="DejaVuSans-6f_00000125603948607794045670000000319143369055372183_" class="st4" d="M-139.8,9.9
				c-4.8,0-8.6-1.9-11.4-5.6c-2.8-3.8-4.2-8.9-4.2-15.5s1.4-11.7,4.2-15.5s6.6-5.6,11.5-5.6c4.8,0,8.6,1.9,11.4,5.7
				c2.8,3.8,4.2,8.9,4.2,15.4s-1.4,11.6-4.2,15.4C-131.2,8-135,9.9-139.8,9.9z M-139.8,17.5c7.8,0,13.9-2.5,18.4-7.6
				s6.7-12.1,6.7-21.1c0-8.9-2.2-16-6.7-21.1s-10.6-7.6-18.4-7.6s-14,2.5-18.4,7.6s-6.7,12.1-6.7,21.1s2.2,16,6.7,21.1
				S-147.6,17.5-139.8,17.5z"/>
		</g>
		<g>
			<path id="DejaVuSans-74" class="st4" d="M-90.9,31.8V16.2h18.5v-7h-18.5v-29.7c0-4.5,0.6-7.3,1.8-8.6c1.2-1.3,3.7-1.9,7.5-1.9
				h9.2v-7.5h-9.2c-6.9,0-11.7,1.3-14.4,3.9c-2.6,2.6-4,7.3-4,14.1V9.3h-6.6v7h6.6v15.5H-90.9z"/>
		</g>
		<g>
			<path id="DejaVuSans-20" class="st4" d="M-70-38.5"/>
		</g>
		<g>
			<path id="DejaVuSans-73" class="st4" d="M6.1,14.6V6.1C3.6,7.4,0.9,8.4-1.8,9c-2.7,0.7-5.6,1-8.5,1c-4.5,0-7.8-0.7-10-2
				s-3.3-3.4-3.3-6.2c0-2.1,0.8-3.7,2.4-4.9s4.8-2.3,9.6-3.4l3.1-0.7C-2.2-8.5,2.3-10.4,5-12.9s4-6,4-10.4c0-5.1-2-9.1-6-12.1
				s-9.5-4.4-16.6-4.4c-2.9,0-6,0.3-9.2,0.9c-3.2,0.6-6.5,1.4-10,2.6v9.3c3.3-1.7,6.6-3,9.8-3.9s6.4-1.3,9.6-1.3
				c4.2,0,7.5,0.7,9.8,2.2c2.3,1.4,3.4,3.5,3.4,6.1c0,2.4-0.8,4.3-2.5,5.6c-1.6,1.3-5.2,2.6-10.8,3.8l-3.1,0.7
				c-5.6,1.2-9.6,3-12.1,5.4s-3.7,5.8-3.7,10c0,5.1,1.8,9.1,5.5,11.9c3.6,2.8,8.8,4.2,15.5,4.2c3.3,0,6.4-0.2,9.4-0.7
				C0.9,16.3,3.6,15.6,6.1,14.6z"/>
		</g>
		<g>
			<path id="DejaVuSans-75" class="st4" d="M22.4-16.9v33.1h9v-32.8c0-5.2,1-9.1,3-11.7s5.1-3.9,9.1-3.9c4.8,0,8.7,1.5,11.5,4.6
				c2.8,3.1,4.2,7.3,4.2,12.7v31h9v-54.7h-9v8.4c-2.2-3.3-4.7-5.8-7.6-7.4c-2.9-1.6-6.2-2.4-10-2.4c-6.3,0-11.1,2-14.3,5.9
				C24-30.1,22.4-24.4,22.4-16.9z M45,17.5L45,17.5z"/>
		</g>
		<g>
			<path id="DejaVuSans-72" class="st4" d="M118.4,7.8c-1,0.6-2.1,1-3.3,1.3c-1.2,0.3-2.5,0.4-3.9,0.4c-5.1,0-9-1.7-11.7-5
				s-4.1-8-4.1-14.2v-28.8h-9v54.7h9V7.7c1.9,3.3,4.4,5.8,7.4,7.4c3,1.6,6.7,2.4,11,2.4c0.6,0,1.3,0,2-0.1c0.8-0.1,1.6-0.2,2.5-0.4
				L118.4,7.8z"/>
		</g>
		<g>
			<path id="DejaVuSans-65" class="st4" d="M172.4-8.9v-4.4H131c0.4-6.2,2.3-10.9,5.6-14.1s8-4.9,13.9-4.9c3.4,0,6.8,0.4,10,1.3
				c3.2,0.8,6.5,2.1,9.7,3.8v-8.5c-3.2-1.4-6.5-2.4-9.9-3.1c-3.4-0.7-6.8-1.1-10.3-1.1c-8.7,0-15.6,2.5-20.7,7.6s-7.6,12-7.6,20.6
				c0,8.9,2.4,16,7.2,21.3c4.8,5.3,11.4,7.9,19.6,7.9c7.4,0,13.2-2.4,17.5-7.1C170.2,5.7,172.4-0.7,172.4-8.9z M163.4-6.2
				c-0.1,4.9-1.4,8.8-4.1,11.8c-2.7,2.9-6.2,4.4-10.7,4.4c-5,0-9-1.4-12-4.2s-4.7-6.8-5.2-12H163.4z"/>
		</g>
	</g>
</g>
<g id="text_4">
	<g transform="translate(323.624948 172.487594)scale(0.35 -0.35)">
		<g>
			<path id="DejaVuSans-31" class="st4" d="M121.3-132.7h16.1v55.6l-17.5-3.5v9l17.4,3.5h9.9v-64.6h16.1v-8.3h-42V-132.7z"/>
		</g>
		<g>
			<path id="DejaVuSans-32" class="st4" d="M191.7-132.7h34.4v-8.3h-46.3v8.3c3.7,3.9,8.8,9.1,15.3,15.6s10.5,10.7,12.2,12.6
				c3.2,3.5,5.4,6.5,6.6,9c1.3,2.5,1.9,4.9,1.9,7.2c0,3.9-1.4,7-4.1,9.5c-2.7,2.4-6.3,3.7-10.6,3.7c-3.1,0-6.4-0.5-9.8-1.6
				c-3.4-1.1-7.1-2.7-11-4.9v10c4,1.6,7.7,2.8,11.1,3.6c3.5,0.8,6.6,1.2,9.5,1.2c7.6,0,13.6-1.9,18.1-5.7c4.5-3.8,6.7-8.8,6.7-15.1
				c0-3-0.6-5.8-1.7-8.5c-1.1-2.7-3.2-5.8-6.1-9.5c-0.8-0.9-3.4-3.7-7.8-8.2C205.8-118.3,199.7-124.6,191.7-132.7z"/>
		</g>
		<g>
			<path id="DejaVuSans-25_00000154397884366463131460000011044469175326071474_" class="st4" d="M308.8-108.9
				c-2.8,0-5.1-1.2-6.7-3.6s-2.4-5.8-2.4-10.1c0-4.2,0.8-7.6,2.4-10c1.6-2.4,3.8-3.6,6.7-3.6c2.8,0,5,1.2,6.6,3.6
				c1.6,2.4,2.4,5.8,2.4,10c0,4.3-0.8,7.6-2.4,10C313.8-110.1,311.6-108.9,308.8-108.9z M308.8-102.7c5.1,0,9.2-1.8,12.2-5.4
				s4.5-8.4,4.5-14.5s-1.5-10.9-4.6-14.5c-3-3.6-7.1-5.3-12.2-5.3c-5.2,0-9.3,1.8-12.4,5.3c-3,3.6-4.5,8.4-4.5,14.5
				c0,6.1,1.5,11,4.6,14.5C299.6-104.5,303.7-102.7,308.8-102.7z M258.5-73c-2.8,0-5-1.2-6.6-3.6s-2.4-5.7-2.4-10s0.8-7.6,2.4-10.1
				c1.6-2.4,3.8-3.6,6.6-3.6c2.8,0,5.1,1.2,6.7,3.6s2.4,5.8,2.4,10.1c0,4.2-0.8,7.5-2.4,10C263.5-74.2,261.3-73,258.5-73z
				 M302.6-66.8h7.8l-45.6-75.6H257L302.6-66.8z M258.5-66.8c5.1,0,9.2-1.8,12.3-5.3c3.1-3.6,4.6-8.4,4.6-14.5s-1.5-11-4.6-14.5
				c-3-3.6-7.2-5.3-12.3-5.3c-5.2,0-9.3,1.8-12.3,5.3c-3,3.6-4.5,8.4-4.5,14.5s1.5,10.9,4.5,14.5C249.2-68.6,253.3-66.8,258.5-66.8z
				"/>
		</g>
	</g>
</g>
<g>
	<g>
		<path id="DejaVuSans-59" class="st4" d="M267.9,13.2h3.2l6.1,9l6-9h3.2l-7.7,11.5v10.4h-3V24.6L267.9,13.2z"/>
	</g>
	<g>
		<path id="DejaVuSans-65_00000177485309130607667610000011519611085476168888_" class="st4" d="M299.1,26.2v1.3h-12.4
			c0.1,1.9,0.7,3.3,1.7,4.2s2.4,1.5,4.2,1.5c1,0,2-0.1,3-0.4c1-0.3,1.9-0.6,2.9-1.1v2.5c-1,0.4-2,0.7-3,0.9s-2,0.3-3.1,0.3
			c-2.6,0-4.7-0.8-6.2-2.3s-2.3-3.6-2.3-6.2c0-2.7,0.7-4.8,2.2-6.4c1.4-1.6,3.4-2.4,5.9-2.4c2.2,0,4,0.7,5.2,2.1
			C298.5,21.8,299.1,23.7,299.1,26.2z M296.4,25.4c0-1.5-0.4-2.6-1.2-3.5c-0.8-0.9-1.9-1.3-3.2-1.3c-1.5,0-2.7,0.4-3.6,1.3
			c-0.9,0.8-1.4,2-1.6,3.6L296.4,25.4z"/>
	</g>
	<g>
		<path id="DejaVuSans-73_00000060747553856481331500000007428293478263379364_" class="st4" d="M314,19.1v2.5
			c-0.8-0.4-1.6-0.7-2.4-0.9c-0.8-0.2-1.7-0.3-2.5-0.3c-1.3,0-2.3,0.2-3,0.6s-1,1-1,1.8c0,0.6,0.2,1.1,0.7,1.5s1.4,0.7,2.9,1
			l0.9,0.2c1.9,0.4,3.3,1,4.1,1.7s1.2,1.8,1.2,3.1c0,1.5-0.6,2.7-1.8,3.6c-1.2,0.9-2.9,1.3-5,1.3c-0.9,0-1.8-0.1-2.7-0.3
			s-2-0.4-3-0.8v-2.8c1,0.5,2,0.9,2.9,1.2c1,0.3,1.9,0.4,2.9,0.4c1.3,0,2.2-0.2,2.9-0.7c0.7-0.4,1-1,1-1.8c0-0.7-0.2-1.3-0.7-1.7
			c-0.5-0.4-1.6-0.8-3.2-1.1l-0.9-0.2c-1.7-0.4-2.9-0.9-3.6-1.6s-1.1-1.7-1.1-3c0-1.5,0.5-2.7,1.6-3.6c1.1-0.8,2.6-1.3,4.7-1.3
			c1,0,1.9,0.1,2.8,0.2C312.5,18.6,313.3,18.8,314,19.1z"/>
	</g>
</g>
<g id="text_6">
	<g transform="translate(233.289438 79.268575)scale(0.35 -0.35)">
		<g>
			<path id="DejaVuSans-31_00000142149881062087711090000009424121991445614465_" class="st4" d="M72.2-34.5h16.1v55.6l-17.5-3.5v9
				l17.4,3.5h9.9v-64.6h16.1v-8.3h-42V-34.5z"/>
		</g>
		<g>
			<path id="DejaVuSans-33" class="st4" d="M164-3.5c4.7-1,8.4-3.1,11-6.3c2.7-3.2,4-7.1,4-11.8c0-7.2-2.5-12.8-7.4-16.7
				s-12-5.9-21.1-5.9c-3.1,0-6.2,0.3-9.4,0.9c-3.2,0.6-6.6,1.5-10,2.7v9.5c2.7-1.6,5.7-2.8,9-3.6s6.7-1.2,10.2-1.2
				c6.2,0,10.9,1.2,14.1,3.7c3.2,2.4,4.9,6,4.9,10.6c0,4.3-1.5,7.7-4.5,10.1s-7.2,3.6-12.6,3.6h-8.5v8.1h8.9c4.8,0,8.6,1,11.1,2.9
				c2.6,1.9,3.9,4.7,3.9,8.4s-1.3,6.6-4,8.6c-2.6,2-6.4,3-11.4,3c-2.7,0-5.6-0.3-8.7-0.9c-3.1-0.6-6.5-1.5-10.2-2.7v8.8
				c3.8,1,7.3,1.8,10.5,2.3c3.3,0.5,6.4,0.8,9.2,0.8c7.5,0,13.4-1.7,17.8-5.1c4.4-3.4,6.5-8,6.5-13.8c0-4-1.2-7.5-3.5-10.2
				C171.5-0.5,168.2-2.4,164-3.5z"/>
		</g>
		<g>
			<path id="DejaVuSans-25_00000152974662422417089800000003968014387694252196_" class="st4" d="M259.7-10.7
				c-2.8,0-5.1-1.2-6.7-3.6c-1.6-2.4-2.4-5.8-2.4-10.1c0-4.2,0.8-7.6,2.4-10c1.6-2.4,3.8-3.6,6.7-3.6c2.8,0,5,1.2,6.6,3.6
				c1.6,2.4,2.4,5.8,2.4,10c0,4.3-0.8,7.6-2.4,10C264.7-11.9,262.5-10.7,259.7-10.7z M259.7-4.5c5.1,0,9.2-1.8,12.2-5.4
				s4.5-8.4,4.5-14.5s-1.5-10.9-4.6-14.5c-3-3.6-7.1-5.3-12.2-5.3c-5.2,0-9.3,1.8-12.4,5.3c-3,3.6-4.5,8.4-4.5,14.5s1.5,11,4.6,14.5
				C250.4-6.3,254.6-4.5,259.7-4.5z M209.3,25.2c-2.8,0-5-1.2-6.6-3.6s-2.4-5.7-2.4-10s0.8-7.6,2.4-10.1c1.6-2.4,3.8-3.6,6.6-3.6
				s5.1,1.2,6.7,3.6c1.6,2.4,2.4,5.8,2.4,10.1c0,4.2-0.8,7.5-2.4,10C214.4,24,212.1,25.2,209.3,25.2z M253.4,31.4h7.8l-45.6-75.6
				h-7.8L253.4,31.4z M209.3,31.4c5.1,0,9.2-1.8,12.3-5.3c3.1-3.6,4.6-8.4,4.6-14.5s-1.5-11-4.6-14.5c-3-3.6-7.2-5.3-12.3-5.3
				c-5.2,0-9.3,1.8-12.3,5.3c-3,3.6-4.5,8.4-4.5,14.5s1.5,10.9,4.5,14.5C200.1,29.6,204.2,31.4,209.3,31.4z"/>
		</g>
	</g>
</g>
<line class="st5" x1="364.5" y1="179.9" x2="438.7" y2="179.9"/>
<line class="st5" x1="257" y1="52.3" x2="331.2" y2="52.3"/>
<line class="st5" x1="17.6" y1="322.1" x2="91.8" y2="322.1"/>
</svg>
