<?xml version="1.0" encoding="utf-8"?>
<!-- Generator: Adobe Illustrator 26.0.2, SVG Export Plug-In . SVG Version: 6.00 Build 0)  -->
<svg version="1.1" id="Layer_1" xmlns="http://www.w3.org/2000/svg" xmlns:xlink="http://www.w3.org/1999/xlink" x="0px" y="0px"
	 viewBox="0 0 734.4 208.9" style="enable-background:new 0 0 734.4 208.9;" xml:space="preserve">
<style type="text/css">
	.st0{fill:none;}
	.st1{clip-path:url(#SVGID_00000067916000371078891750000014102003667036705188_);fill:#9866CF;}
	.st2{clip-path:url(#SVGID_00000113347621138594285890000001065967033863095691_);fill:#9866CF;}
	.st3{clip-path:url(#SVGID_00000090258079627629988880000011658560944063122828_);fill:#9866CF;}
	.st4{clip-path:url(#SVGID_00000124884412961702215850000000447491633606339201_);fill:#9866CF;}
	.st5{fill:#290849;stroke:#290849;stroke-width:0.8;stroke-linejoin:round;}
	.st6{fill:#290849;}
</style>
<g id="figure_1">
	<g id="patch_1">
		<path class="st0" d="M0,208.9h734.4V0H0V208.9z"/>
	</g>
	<g id="axes_1">
		<g id="patch_2">
			<path class="st0" d="M7.2,168.7h720v-144H7.2V168.7z"/>
		</g>
		<g id="patch_3">
			<g>
				<defs>
					<rect id="SVGID_1_" x="7.2" y="24.7" width="720" height="144"/>
				</defs>
				<clipPath id="SVGID_00000072271362465500208610000008103848040327595195_">
					<use xlink:href="#SVGID_1_"  style="overflow:visible;"/>
				</clipPath>
				<path style="clip-path:url(#SVGID_00000072271362465500208610000008103848040327595195_);fill:#9866CF;" d="M39.9,168.7H149
					V31.6H39.9V168.7z"/>
			</g>
		</g>
		<g id="patch_4">
			<g>
				<defs>
					<rect id="SVGID_00000112611691622340154850000008506765051763829901_" x="7.2" y="24.7" width="720" height="144"/>
				</defs>
				<clipPath id="SVGID_00000008144402974529099810000011259000001188814226_">
					<use xlink:href="#SVGID_00000112611691622340154850000008506765051763829901_"  style="overflow:visible;"/>
				</clipPath>
				<path style="clip-path:url(#SVGID_00000008144402974529099810000011259000001188814226_);fill:#9866CF;" d="M221.7,168.7h109.1
					v-105H221.7V168.7z"/>
			</g>
		</g>
		<g id="patch_5">
			<g>
				<defs>
					<rect id="SVGID_00000083085563877292804150000013414294025621399711_" x="7.2" y="24.7" width="720" height="144"/>
				</defs>
				<clipPath id="SVGID_00000073723537094843740870000010731424465937479809_">
					<use xlink:href="#SVGID_00000083085563877292804150000013414294025621399711_"  style="overflow:visible;"/>
				</clipPath>
				<path style="clip-path:url(#SVGID_00000073723537094843740870000010731424465937479809_);fill:#9866CF;" d="M403.6,168.7h109.1
					v-29.2H403.6V168.7z"/>
			</g>
		</g>
		<g id="patch_6">
			<g>
				<defs>
					<rect id="SVGID_00000154427423320764785200000008848140568301330072_" x="7.2" y="24.7" width="720" height="144"/>
				</defs>
				<clipPath id="SVGID_00000085961020137894097810000000888690249689639821_">
					<use xlink:href="#SVGID_00000154427423320764785200000008848140568301330072_"  style="overflow:visible;"/>
				</clipPath>
				<path style="clip-path:url(#SVGID_00000085961020137894097810000000888690249689639821_);fill:#9866CF;" d="M585.4,168.7h109.1
					v-23.3H585.4V168.7z"/>
			</g>
		</g>
		<g id="matplotlib.axis_1">
			<g id="xtick_1">
				<g id="line2d_1">
					<g>
						<g>
							<path id="mb792fd52e4_00000100348500237059327700000006925776446982940836_" class="st5" d="M94.5,168.7"/>
						</g>
					</g>
				</g>
				<g id="text_1">
					<g transform="translate(75.495384 198.596763)scale(0.15 -0.15)">
						<g>
							<path id="DejaVuSans-44" class="st6" d="M19.7,64.8V8.1h11.9c10.1,0,17.4,2.3,22.1,6.8c4.7,4.6,7,11.8,7,21.6
								c0,9.8-2.3,16.9-7,21.5s-12,6.8-22.1,6.8H19.7z M9.8,72.9h20.3c14.1,0,24.5-2.9,31.1-8.8c6.6-5.9,9.9-15.1,9.9-27.6
								c0-12.6-3.3-21.8-10-27.7c-6.6-5.9-17-8.8-31-8.8H9.8V72.9z"/>
						</g>
						<g>
							<path id="DejaVuSans-61" class="st6" d="M111.3,27.5c-7.3,0-12.3-0.8-15.1-2.5c-2.8-1.7-4.2-4.5-4.2-8.5
								c0-3.2,1.1-5.7,3.2-7.6c2.1-1.9,5-2.8,8.6-2.8c5,0,9,1.8,12,5.3c3,3.5,4.5,8.2,4.5,14.1v2H111.3z M129.2,31.2V0h-9v8.3
								c-2.1-3.3-4.6-5.8-7.7-7.3s-6.8-2.4-11.2-2.4c-5.6,0-10,1.6-13.4,4.7c-3.3,3.1-5,7.4-5,12.6c0,6.1,2.1,10.8,6.2,13.9
								c4.1,3.1,10.3,4.7,18.4,4.7h12.6v0.9c0,4.1-1.4,7.3-4.1,9.6c-2.7,2.3-6.5,3.4-11.5,3.4c-3.1,0-6.2-0.4-9.1-1.1
								c-3-0.8-5.8-1.9-8.5-3.4v8.3c3.3,1.3,6.5,2.2,9.6,2.8c3.1,0.6,6.1,1,9,1c7.9,0,13.8-2.1,17.7-6.2
								C127.3,45.8,129.2,39.5,129.2,31.2z"/>
						</g>
						<g>
							<path id="DejaVuSans-69" class="st6" d="M147.7,54.7h9V0h-9V54.7z M147.7,76h9V64.6h-9V76z"/>
						</g>
						<g>
							<path id="DejaVuSans-6c" class="st6" d="M175.5,76h9V0h-9V76z"/>
						</g>
						<g>
							<path id="DejaVuSans-79" class="st6" d="M226-5.1c-2.5-6.5-5-10.8-7.4-12.7c-2.4-2-5.6-3-9.7-3h-7.2v7.5h5.3
								c2.5,0,4.4,0.6,5.8,1.8c1.4,1.2,2.9,3.9,4.5,8.3l1.6,4.1l-22.1,53.8h9.5l17.1-42.8l17.1,42.8h9.5L226-5.1z"/>
						</g>
					</g>
				</g>
			</g>
			<g id="xtick_2">
				<g id="line2d_2">
					<g>
						<g>
							<path id="mb792fd52e4_00000104673197180803199130000003030949322688631987_" class="st5" d="M276.3,168.7"/>
						</g>
					</g>
				</g>
				<g id="text_2">
					<g transform="translate(249.220597 198.596763)scale(0.15 -0.15)">
						<g>
							<path id="DejaVuSans-57" class="st6" d="M3.3,72.9h10l15.3-61.6l15.3,61.6H55l15.3-61.6l15.3,61.6h10L77.3,0H64.9L49.5,63.3
								L34,0H21.6L3.3,72.9z"/>
						</g>
						<g>
							<path id="DejaVuSans-65" class="st6" d="M149.2,29.6v-4.4h-41.3c0.4-6.2,2.3-10.9,5.6-14.1s8-4.9,13.9-4.9
								c3.4,0,6.8,0.4,10,1.3c3.2,0.8,6.5,2.1,9.7,3.8V2.8c-3.2-1.4-6.5-2.4-9.9-3.1c-3.4-0.7-6.8-1.1-10.3-1.1
								c-8.7,0-15.6,2.5-20.7,7.6c-5.1,5.1-7.6,12-7.6,20.6c0,8.9,2.4,16,7.2,21.3c4.8,5.3,11.4,7.9,19.6,7.9
								c7.4,0,13.2-2.4,17.5-7.1C147.1,44.2,149.2,37.7,149.2,29.6z M140.2,32.2c-0.1,4.9-1.4,8.8-4.1,11.8
								c-2.7,2.9-6.2,4.4-10.7,4.4c-5,0-9-1.4-12-4.3c-3-2.8-4.7-6.8-5.2-12L140.2,32.2z"/>
						</g>
						<g>
							<path id="DejaVuSans-65_00000183207918261476196080000009414487488248839864_" class="st6" d="M210.7,29.6v-4.4h-41.3
								c0.4-6.2,2.3-10.9,5.6-14.1c3.3-3.2,8-4.9,13.9-4.9c3.4,0,6.8,0.4,10,1.3c3.2,0.8,6.5,2.1,9.7,3.8V2.8
								c-3.2-1.4-6.5-2.4-9.9-3.1c-3.4-0.7-6.8-1.1-10.3-1.1c-8.7,0-15.6,2.5-20.7,7.6c-5.1,5.1-7.6,12-7.6,20.6
								c0,8.9,2.4,16,7.2,21.3c4.8,5.3,11.4,7.9,19.6,7.9c7.4,0,13.2-2.4,17.5-7.1C208.6,44.2,210.7,37.7,210.7,29.6z M201.7,32.2
								c-0.1,4.9-1.4,8.8-4.1,11.8c-2.7,2.9-6.2,4.4-10.7,4.4c-5,0-9-1.4-12-4.3c-3-2.8-4.7-6.8-5.2-12L201.7,32.2z"/>
						</g>
						<g>
							<path id="DejaVuSans-6b" class="st6" d="M225.1,76h9V31.1L261,54.7h11.5l-29-25.6L273.7,0H262l-27.8,26.7V0h-9V76z"/>
						</g>
						<g>
							<path id="DejaVuSans-6c_00000176001637689925465100000005531537410133946535_" class="st6" d="M283.4,76h9V0h-9V76z"/>
						</g>
						<g>
							<path id="DejaVuSans-79_00000000200238459962417490000009850451568527978377_" class="st6" d="M333.9-5.1
								c-2.5-6.5-5-10.8-7.4-12.7c-2.4-2-5.6-3-9.7-3h-7.2v7.5h5.3c2.5,0,4.4,0.6,5.8,1.8c1.4,1.2,2.9,3.9,4.5,8.3l1.6,4.1
								l-22.1,53.8h9.5l17.1-42.8l17.1,42.8h9.5L333.9-5.1z"/>
						</g>
					</g>
				</g>
			</g>
			<g id="xtick_3">
				<g id="line2d_3">
					<g>
						<g>
							<path id="mb792fd52e4_00000168101770835016646350000012127813759203955376_" class="st5" d="M458.1,168.7"/>
						</g>
					</g>
				</g>
				<g id="text_3">
					<g transform="translate(428.079794 198.596763)scale(0.15 -0.15)">
						<g>
							<path id="DejaVuSans-4d" class="st6" d="M9.8,72.9h14.7l18.6-49.6l18.7,49.6h14.7V0h-9.6v64L48.1,14h-9.9L19.4,64V0H9.8V72.9
								z"/>
						</g>
						<g>
							<path id="DejaVuSans-6f" class="st6" d="M116.9,48.4c-4.8,0-8.6-1.9-11.4-5.6c-2.8-3.8-4.2-8.9-4.2-15.5s1.4-11.7,4.2-15.5
								c2.8-3.8,6.6-5.6,11.5-5.6c4.8,0,8.6,1.9,11.4,5.7c2.8,3.8,4.2,8.9,4.2,15.4c0,6.5-1.4,11.6-4.2,15.4
								C125.5,46.5,121.7,48.4,116.9,48.4z M116.9,56c7.8,0,13.9-2.5,18.4-7.6c4.5-5.1,6.7-12.1,6.7-21.1c0-8.9-2.2-16-6.7-21.1
								c-4.5-5.1-10.6-7.6-18.4-7.6c-7.8,0-14,2.5-18.4,7.6c-4.4,5.1-6.7,12.1-6.7,21.1c0,9,2.2,16,6.7,21.1
								C102.9,53.5,109,56,116.9,56z"/>
						</g>
						<g>
							<path id="DejaVuSans-6e" class="st6" d="M202.4,33V0h-9v32.7c0,5.2-1,9-3,11.6c-2,2.6-5,3.9-9.1,3.9c-4.9,0-8.7-1.5-11.5-4.6
								c-2.8-3.1-4.2-7.3-4.2-12.6V0h-9v54.7h9v-8.5c2.2,3.3,4.7,5.8,7.6,7.4c2.9,1.6,6.3,2.4,10.1,2.4c6.3,0,11-1.9,14.2-5.8
								C200.7,46.3,202.4,40.6,202.4,33z"/>
						</g>
						<g>
							<path id="DejaVuSans-74" class="st6" d="M229.2,70.2V54.7h18.5v-7h-18.5V18c0-4.5,0.6-7.3,1.8-8.6s3.7-1.9,7.5-1.9h9.2V0
								h-9.2c-6.9,0-11.7,1.3-14.4,3.9c-2.6,2.6-4,7.3-4,14.1v29.7h-6.6v7h6.6v15.5H229.2z"/>
						</g>
						<g>
							<path id="DejaVuSans-68" class="st6" d="M304.9,33V0h-9v32.7c0,5.2-1,9-3,11.6c-2,2.6-5,3.9-9.1,3.9c-4.9,0-8.7-1.5-11.5-4.6
								c-2.8-3.1-4.2-7.3-4.2-12.6V0h-9v76h9V46.2c2.2,3.3,4.7,5.8,7.6,7.4c2.9,1.6,6.3,2.4,10.1,2.4c6.3,0,11-1.9,14.2-5.8
								C303.3,46.3,304.9,40.6,304.9,33z"/>
						</g>
						<g>
							<path id="DejaVuSans-6c_00000005263309884813298150000004055488086363664301_" class="st6" d="M322.8,76h9V0h-9V76z"/>
						</g>
						<g>
							<path id="DejaVuSans-79_00000120555432268663011590000005280731860038779837_" class="st6" d="M373.4-5.1
								c-2.5-6.5-5-10.8-7.4-12.7c-2.4-2-5.6-3-9.7-3h-7.2v7.5h5.3c2.5,0,4.4,0.6,5.8,1.8c1.4,1.2,2.9,3.9,4.5,8.3l1.6,4.1
								l-22.1,53.8h9.5l17.1-42.8l17.1,42.8h9.5L373.4-5.1z"/>
						</g>
					</g>
				</g>
			</g>
			<g id="xtick_4">
				<g id="line2d_4">
					<g>
						<g>
							<path id="mb792fd52e4_00000142896632394569728820000000747811964472904895_" class="st5" d="M639.9,168.7"/>
						</g>
					</g>
				</g>
				<g id="text_4">
					<g transform="translate(582.552273 198.596763)scale(0.15 -0.15)">
						<g>
							<path id="DejaVuSans-4c" class="st6" d="M9.8,72.9h9.9V8.3h35.5V0H9.8V72.9z"/>
						</g>
						<g>
							<path id="DejaVuSans-65_00000054223868832919521880000003210169077605491887_" class="st6" d="M110.2,29.6v-4.4H68.9
								c0.4-6.2,2.3-10.9,5.6-14.1c3.3-3.2,8-4.9,13.9-4.9c3.4,0,6.8,0.4,10,1.3c3.2,0.8,6.5,2.1,9.7,3.8V2.8
								c-3.2-1.4-6.5-2.4-9.9-3.1c-3.4-0.7-6.8-1.1-10.3-1.1c-8.7,0-15.6,2.5-20.7,7.6c-5.1,5.1-7.6,12-7.6,20.6
								c0,8.9,2.4,16,7.2,21.3c4.8,5.3,11.4,7.9,19.6,7.9c7.4,0,13.2-2.4,17.5-7.1C108,44.2,110.2,37.7,110.2,29.6z M101.2,32.2
								c-0.1,4.9-1.4,8.8-4.1,11.8c-2.7,2.9-6.2,4.4-10.7,4.4c-5,0-9-1.4-12-4.3c-3-2.8-4.7-6.8-5.2-12L101.2,32.2z"/>
						</g>
						<g>
							<path id="DejaVuSans-73" class="st6" d="M159.8,53.1v-8.5c-2.5,1.3-5.2,2.3-7.9,2.9c-2.7,0.7-5.6,1-8.5,1
								c-4.5,0-7.8-0.7-10-2c-2.2-1.4-3.3-3.4-3.3-6.2c0-2.1,0.8-3.7,2.4-4.9s4.8-2.3,9.6-3.4l3.1-0.7c6.4-1.4,10.9-3.3,13.6-5.8
								s4-6,4-10.4c0-5.1-2-9.1-6-12.1c-4-3-9.5-4.4-16.6-4.4c-2.9,0-6,0.3-9.2,0.9c-3.2,0.6-6.5,1.4-10,2.6v9.3
								c3.3-1.7,6.6-3,9.8-3.9c3.2-0.9,6.4-1.3,9.6-1.3c4.2,0,7.5,0.7,9.8,2.2c2.3,1.4,3.4,3.5,3.4,6.1c0,2.4-0.8,4.3-2.5,5.6
								c-1.6,1.3-5.2,2.6-10.8,3.8l-3.1,0.7c-5.6,1.2-9.6,3-12.1,5.4c-2.5,2.4-3.7,5.8-3.7,10c0,5.1,1.8,9.1,5.5,11.9
								c3.6,2.8,8.8,4.2,15.5,4.2c3.3,0,6.4-0.2,9.4-0.7C154.6,54.8,157.3,54.1,159.8,53.1z"/>
						</g>
						<g>
							<path id="DejaVuSans-73_00000072988012108991013330000008977007516027806615_" class="st6" d="M211.9,53.1v-8.5
								c-2.5,1.3-5.2,2.3-7.9,2.9c-2.7,0.7-5.6,1-8.5,1c-4.5,0-7.8-0.7-10-2c-2.2-1.4-3.3-3.4-3.3-6.2c0-2.1,0.8-3.7,2.4-4.9
								s4.8-2.3,9.6-3.4l3.1-0.7c6.4-1.4,10.9-3.3,13.6-5.8s4-6,4-10.4c0-5.1-2-9.1-6-12.1c-4-3-9.5-4.4-16.6-4.4
								c-2.9,0-6,0.3-9.2,0.9c-3.2,0.6-6.5,1.4-10,2.6v9.3c3.3-1.7,6.6-3,9.8-3.9c3.2-0.9,6.4-1.3,9.6-1.3c4.2,0,7.5,0.7,9.8,2.2
								c2.3,1.4,3.4,3.5,3.4,6.1c0,2.4-0.8,4.3-2.5,5.6c-1.6,1.3-5.2,2.6-10.8,3.8l-3.1,0.7c-5.6,1.2-9.6,3-12.1,5.4
								c-2.5,2.4-3.7,5.8-3.7,10c0,5.1,1.8,9.1,5.5,11.9c3.6,2.8,8.8,4.2,15.5,4.2c3.3,0,6.4-0.2,9.4-0.7
								C206.7,54.8,209.4,54.1,211.9,53.1z"/>
						</g>
						<g>
							<path id="DejaVuSans-20" class="st6" d="M219.7,0"/>
						</g>
						<g>
							<path id="DejaVuSans-66" class="st6" d="M288.6,76v-7.5H280c-3.2,0-5.5-0.7-6.7-2c-1.2-1.3-1.9-3.6-1.9-7v-4.8h14.8v-7h-14.8
								V0h-9v47.7h-8.6v7h8.6v3.8c0,6.1,1.4,10.5,4.2,13.3c2.8,2.8,7.3,4.2,13.5,4.2H288.6z"/>
						</g>
						<g>
							<path id="DejaVuSans-72" class="st6" d="M327.8,46.3c-1,0.6-2.1,1-3.3,1.3c-1.2,0.3-2.5,0.4-3.9,0.4c-5.1,0-9-1.7-11.7-5
								c-2.7-3.3-4.1-8-4.1-14.2V0h-9v54.7h9v-8.5c1.9,3.3,4.4,5.8,7.4,7.4c3,1.6,6.7,2.4,11,2.4c0.6,0,1.3,0,2-0.1
								c0.8-0.1,1.6-0.2,2.5-0.4L327.8,46.3z"/>
						</g>
						<g>
							<path id="DejaVuSans-65_00000047061741541866641280000006919593191031585725_" class="st6" d="M381.7,29.6v-4.4h-41.3
								c0.4-6.2,2.3-10.9,5.6-14.1c3.3-3.2,8-4.9,13.9-4.9c3.4,0,6.8,0.4,10,1.3c3.2,0.8,6.5,2.1,9.7,3.8V2.8
								c-3.2-1.4-6.5-2.4-9.9-3.1c-3.4-0.7-6.8-1.1-10.3-1.1c-8.7,0-15.6,2.5-20.7,7.6c-5.1,5.1-7.6,12-7.6,20.6
								c0,8.9,2.4,16,7.2,21.3c4.8,5.3,11.4,7.9,19.6,7.9c7.4,0,13.2-2.4,17.5-7.1C379.6,44.2,381.7,37.7,381.7,29.6z M372.8,32.2
								c-0.1,4.9-1.4,8.8-4.1,11.8c-2.7,2.9-6.2,4.4-10.7,4.4c-5,0-9-1.4-12-4.3c-3-2.8-4.7-6.8-5.2-12L372.8,32.2z"/>
						</g>
						<g>
							<path id="DejaVuSans-71" class="st6" d="M401.9,27.3c0-6.6,1.4-11.8,4.1-15.5s6.5-5.6,11.2-5.6s8.5,1.9,11.2,5.6
								c2.7,3.8,4.1,8.9,4.1,15.5s-1.4,11.8-4.1,15.5c-2.7,3.8-6.5,5.6-11.2,5.6s-8.5-1.9-11.2-5.6
								C403.2,39.1,401.9,33.9,401.9,27.3z M432.5,8.2c-1.9-3.2-4.3-5.7-7.2-7.2c-2.9-1.6-6.3-2.4-10.4-2.4c-6.6,0-12,2.6-16.1,7.9
								c-4.1,5.3-6.2,12.2-6.2,20.8s2.1,15.5,6.2,20.8c4.2,5.3,9.5,7.9,16.1,7.9c4,0,7.5-0.8,10.4-2.4c2.9-1.6,5.3-4,7.2-7.2v8.3h9
								v-75.5h-9V8.2z"/>
						</g>
						<g>
							<path id="DejaVuSans-75" class="st6" d="M459,21.6v33.1h9V21.9c0-5.2,1-9.1,3-11.7c2-2.6,5.1-3.9,9.1-3.9
								c4.8,0,8.7,1.5,11.5,4.6c2.8,3.1,4.2,7.3,4.2,12.7v31h9V0h-9v8.4c-2.2-3.3-4.7-5.8-7.6-7.4c-2.9-1.6-6.2-2.4-10-2.4
								c-6.3,0-11.1,2-14.3,5.9C460.7,8.3,459,14.1,459,21.6z M481.7,56L481.7,56z"/>
						</g>
						<g>
							<path id="DejaVuSans-65_00000008135142977356854350000000826730841977790867_" class="st6" d="M570.1,29.6v-4.4h-41.3
								c0.4-6.2,2.3-10.9,5.6-14.1c3.3-3.2,8-4.9,13.9-4.9c3.4,0,6.8,0.4,10,1.3c3.2,0.8,6.5,2.1,9.7,3.8V2.8
								c-3.2-1.4-6.5-2.4-9.9-3.1c-3.4-0.7-6.8-1.1-10.3-1.1c-8.7,0-15.6,2.5-20.7,7.6c-5.1,5.1-7.6,12-7.6,20.6
								c0,8.9,2.4,16,7.2,21.3c4.8,5.3,11.4,7.9,19.6,7.9c7.4,0,13.2-2.4,17.5-7.1C568,44.2,570.1,37.7,570.1,29.6z M561.1,32.2
								c-0.1,4.9-1.4,8.8-4.1,11.8c-2.7,2.9-6.2,4.4-10.7,4.4c-5,0-9-1.4-12-4.3c-3-2.8-4.7-6.8-5.2-12L561.1,32.2z"/>
						</g>
						<g>
							<path id="DejaVuSans-6e_00000102523383913370477240000005282264758286173841_" class="st6" d="M630.3,33V0h-9v32.7
								c0,5.2-1,9-3,11.6c-2,2.6-5,3.9-9.1,3.9c-4.9,0-8.7-1.5-11.5-4.6c-2.8-3.1-4.2-7.3-4.2-12.6V0h-9v54.7h9v-8.5
								c2.2,3.3,4.7,5.8,7.6,7.4c2.9,1.6,6.3,2.4,10.1,2.4c6.3,0,11-1.9,14.2-5.8C628.7,46.3,630.3,40.6,630.3,33z"/>
						</g>
						<g>
							<path id="DejaVuSans-74_00000159454540780309174850000004275690011888903101_" class="st6" d="M657.1,70.2V54.7h18.5v-7
								h-18.5V18c0-4.5,0.6-7.3,1.8-8.6s3.7-1.9,7.5-1.9h9.2V0h-9.2c-6.9,0-11.7,1.3-14.4,3.9c-2.6,2.6-4,7.3-4,14.1v29.7h-6.6v7
								h6.6v15.5H657.1z"/>
						</g>
						<g>
							<path id="DejaVuSans-6c_00000168116223085380293440000003325111691477967747_" class="st6" d="M687.5,76h9V0h-9V76z"/>
						</g>
						<g>
							<path id="DejaVuSans-79_00000086677276777302773510000010103321882391169209_" class="st6" d="M738-5.1
								c-2.5-6.5-5-10.8-7.4-12.7c-2.4-2-5.6-3-9.7-3h-7.2v7.5h5.3c2.5,0,4.4,0.6,5.8,1.8c1.4,1.2,2.9,3.9,4.5,8.3l1.6,4.1
								l-22.1,53.8h9.5l17.1-42.8l17.1,42.8h9.5L738-5.1z"/>
						</g>
					</g>
				</g>
			</g>
		</g>
		<g id="text_5">
			<g transform="translate(72.246165 22.396875)scale(0.2 -0.2)">
				<g>
					<path id="DejaVuSans-34" class="st6" d="M37.8,64.3L12.9,25.4h24.9V64.3z M35.2,72.9h12.4V25.4H58v-8.2H47.6V0h-9.8v17.2H4.9
						v9.5L35.2,72.9z"/>
				</g>
				<g>
					<path id="DejaVuSans-37" class="st6" d="M71.8,72.9h46.9v-4.2L92.2,0H81.9l24.9,64.6h-35V72.9z"/>
				</g>
				<g>
					<path id="DejaVuSans-25" class="st6" d="M199.9,32.1c-2.8,0-5.1-1.2-6.7-3.6c-1.6-2.4-2.4-5.8-2.4-10.1c0-4.2,0.8-7.6,2.4-10
						c1.6-2.4,3.8-3.6,6.7-3.6c2.8,0,5,1.2,6.6,3.6c1.6,2.4,2.4,5.8,2.4,10c0,4.3-0.8,7.6-2.4,10C204.9,30.9,202.7,32.1,199.9,32.1z
						 M199.9,38.3c5.1,0,9.2-1.8,12.2-5.4c3-3.6,4.5-8.4,4.5-14.5c0-6.1-1.5-10.9-4.6-14.5c-3-3.6-7.1-5.3-12.2-5.3
						c-5.2,0-9.3,1.8-12.4,5.3c-3,3.6-4.5,8.4-4.5,14.5c0,6.1,1.5,11,4.6,14.5C190.7,36.5,194.8,38.3,199.9,38.3z M149.6,68
						c-2.8,0-5-1.2-6.6-3.6c-1.6-2.4-2.4-5.7-2.4-10c0-4.3,0.8-7.6,2.4-10.1c1.6-2.4,3.8-3.6,6.6-3.6c2.8,0,5.1,1.2,6.7,3.6
						c1.6,2.4,2.4,5.8,2.4,10.1c0,4.2-0.8,7.5-2.4,10C154.6,66.8,152.4,68,149.6,68z M193.7,74.2h7.8L155.9-1.4H148L193.7,74.2z
						 M149.6,74.2c5.1,0,9.2-1.8,12.3-5.3c3.1-3.6,4.6-8.4,4.6-14.5c0-6.1-1.5-11-4.6-14.5c-3-3.6-7.2-5.3-12.3-5.3
						c-5.2,0-9.3,1.8-12.3,5.3c-3,3.6-4.5,8.4-4.5,14.5c0,6.1,1.5,10.9,4.5,14.5C140.3,72.4,144.4,74.2,149.6,74.2z"/>
				</g>
			</g>
		</g>
		<g id="text_6">
			<g transform="translate(254.064347 54.494139)scale(0.2 -0.2)">
				<g>
					<path id="DejaVuSans-33" class="st6" d="M40.6,39.3c4.7-1,8.4-3.1,11-6.3c2.7-3.2,4-7.1,4-11.8c0-7.2-2.5-12.8-7.4-16.7
						c-4.9-3.9-12-5.9-21.1-5.9c-3.1,0-6.2,0.3-9.4,0.9S11.1,1,7.6,2.2v9.5c2.7-1.6,5.7-2.8,9-3.6c3.3-0.8,6.7-1.2,10.2-1.2
						c6.2,0,10.9,1.2,14.1,3.7s4.9,6,4.9,10.6c0,4.3-1.5,7.7-4.5,10.1c-3,2.4-7.2,3.6-12.6,3.6h-8.5V43h8.9c4.8,0,8.6,1,11.1,2.9
						s3.9,4.7,3.9,8.4c0,3.7-1.3,6.6-4,8.6c-2.6,2-6.4,3-11.4,3c-2.7,0-5.6-0.3-8.7-0.9c-3.1-0.6-6.5-1.5-10.2-2.7v8.8
						c3.8,1,7.3,1.8,10.5,2.3s6.4,0.8,9.2,0.8c7.5,0,13.4-1.7,17.8-5.1c4.4-3.4,6.5-8,6.5-13.8c0-4-1.2-7.5-3.5-10.2
						S44.8,40.4,40.6,39.3z"/>
				</g>
				<g>
					<path id="DejaVuSans-36" class="st6" d="M96.6,40.4c-4.4,0-7.9-1.5-10.5-4.5c-2.6-3-3.9-7.2-3.9-12.4c0-5.2,1.3-9.4,3.9-12.4
						c2.6-3,6.1-4.6,10.5-4.6c4.4,0,7.9,1.5,10.5,4.6c2.6,3.1,3.9,7.2,3.9,12.4c0,5.3-1.3,9.4-3.9,12.4
						C104.6,38.9,101.1,40.4,96.6,40.4z M116.2,71.3v-9c-2.5,1.2-5,2.1-7.5,2.7c-2.5,0.6-5,0.9-7.5,0.9c-6.5,0-11.5-2.2-14.9-6.6
						c-3.4-4.4-5.4-11-5.9-19.9c1.9,2.8,4.3,5,7.2,6.5c2.9,1.5,6.1,2.3,9.6,2.3c7.3,0,13.1-2.2,17.4-6.7c4.2-4.4,6.4-10.5,6.4-18.1
						c0-7.5-2.2-13.5-6.6-18c-4.4-4.5-10.3-6.8-17.7-6.8c-8.4,0-14.9,3.2-19.3,9.7c-4.5,6.5-6.7,15.8-6.7,28.1
						c0,11.5,2.7,20.7,8.2,27.6c5.5,6.9,12.8,10.3,22,10.3c2.5,0,5-0.2,7.5-0.7C110.8,73,113.5,72.3,116.2,71.3z"/>
				</g>
				<g>
					<path id="DejaVuSans-25_00000107562123585363788900000000424708056577178532_" class="st6" d="M199.9,32.1
						c-2.8,0-5.1-1.2-6.7-3.6c-1.6-2.4-2.4-5.8-2.4-10.1c0-4.2,0.8-7.6,2.4-10c1.6-2.4,3.8-3.6,6.7-3.6c2.8,0,5,1.2,6.6,3.6
						c1.6,2.4,2.4,5.8,2.4,10c0,4.3-0.8,7.6-2.4,10C204.9,30.9,202.7,32.1,199.9,32.1z M199.9,38.3c5.1,0,9.2-1.8,12.2-5.4
						c3-3.6,4.5-8.4,4.5-14.5c0-6.1-1.5-10.9-4.6-14.5c-3-3.6-7.1-5.3-12.2-5.3c-5.2,0-9.3,1.8-12.4,5.3c-3,3.6-4.5,8.4-4.5,14.5
						c0,6.1,1.5,11,4.6,14.5C190.7,36.5,194.8,38.3,199.9,38.3z M149.6,68c-2.8,0-5-1.2-6.6-3.6c-1.6-2.4-2.4-5.7-2.4-10
						c0-4.3,0.8-7.6,2.4-10.1c1.6-2.4,3.8-3.6,6.6-3.6c2.8,0,5.1,1.2,6.7,3.6c1.6,2.4,2.4,5.8,2.4,10.1c0,4.2-0.8,7.5-2.4,10
						C154.6,66.8,152.4,68,149.6,68z M193.7,74.2h7.8L155.9-1.4H148L193.7,74.2z M149.6,74.2c5.1,0,9.2-1.8,12.3-5.3
						c3.1-3.6,4.6-8.4,4.6-14.5c0-6.1-1.5-11-4.6-14.5c-3-3.6-7.2-5.3-12.3-5.3c-5.2,0-9.3,1.8-12.3,5.3c-3,3.6-4.5,8.4-4.5,14.5
						c0,6.1,1.5,10.9,4.5,14.5C140.3,72.4,144.4,74.2,149.6,74.2z"/>
				</g>
			</g>
		</g>
		<g id="text_7">
			<g transform="translate(435.882528 130.360401)scale(0.2 -0.2)">
				<g>
					<path id="DejaVuSans-31" class="st6" d="M12.4,8.3h16.1v55.6L11,60.4v9l17.4,3.5h9.9V8.3h16.1V0h-42V8.3z"/>
				</g>
				<g>
					<path id="DejaVuSans-30" class="st6" d="M95.4,66.4c-5.1,0-8.9-2.5-11.5-7.5c-2.6-5-3.8-12.5-3.8-22.5c0-10,1.3-17.5,3.8-22.5
						c2.6-5,6.4-7.5,11.5-7.5c5.1,0,8.9,2.5,11.5,7.5c2.6,5,3.8,12.5,3.8,22.5c0,10-1.3,17.5-3.8,22.5
						C104.4,63.9,100.5,66.4,95.4,66.4z M95.4,74.2c8.2,0,14.4-3.2,18.7-9.7c4.3-6.5,6.5-15.8,6.5-28.1c0-12.3-2.2-21.6-6.5-28.1
						c-4.3-6.5-10.6-9.7-18.7-9.7c-8.2,0-14.4,3.2-18.7,9.7c-4.3,6.5-6.5,15.8-6.5,28.1c0,12.3,2.2,21.7,6.5,28.1
						C81,71,87.2,74.2,95.4,74.2z"/>
				</g>
				<g>
					<path id="DejaVuSans-25_00000147180498236536398080000010464742560671411616_" class="st6" d="M199.9,32.1
						c-2.8,0-5.1-1.2-6.7-3.6c-1.6-2.4-2.4-5.8-2.4-10.1c0-4.2,0.8-7.6,2.4-10c1.6-2.4,3.8-3.6,6.7-3.6c2.8,0,5,1.2,6.6,3.6
						c1.6,2.4,2.4,5.8,2.4,10c0,4.3-0.8,7.6-2.4,10C204.9,30.9,202.7,32.1,199.9,32.1z M199.9,38.3c5.1,0,9.2-1.8,12.2-5.4
						c3-3.6,4.5-8.4,4.5-14.5c0-6.1-1.5-10.9-4.6-14.5c-3-3.6-7.1-5.3-12.2-5.3c-5.2,0-9.3,1.8-12.4,5.3c-3,3.6-4.5,8.4-4.5,14.5
						c0,6.1,1.5,11,4.6,14.5S194.8,38.3,199.9,38.3z M149.6,68c-2.8,0-5-1.2-6.6-3.6c-1.6-2.4-2.4-5.7-2.4-10
						c0-4.3,0.8-7.6,2.4-10.1c1.6-2.4,3.8-3.6,6.6-3.6s5.1,1.2,6.7,3.6c1.6,2.4,2.4,5.8,2.4,10.1c0,4.2-0.8,7.5-2.4,10
						C154.6,66.8,152.4,68,149.6,68z M193.7,74.2h7.8L155.9-1.4H148L193.7,74.2z M149.6,74.2c5.1,0,9.2-1.8,12.3-5.3
						c3.1-3.6,4.6-8.4,4.6-14.5c0-6.1-1.5-11-4.6-14.5s-7.2-5.3-12.3-5.3s-9.3,1.8-12.3,5.3c-3,3.6-4.5,8.4-4.5,14.5
						c0,6.1,1.5,10.9,4.5,14.5C140.3,72.4,144.4,74.2,149.6,74.2z"/>
				</g>
			</g>
		</g>
		<g id="text_8">
			<g transform="translate(624.06321 136.196267)scale(0.2 -0.2)">
				<g>
					<path id="DejaVuSans-38" class="st6" d="M31.8,34.6c-4.7,0-8.4-1.3-11.1-3.8c-2.7-2.5-4-6-4-10.3c0-4.4,1.3-7.8,4-10.4
						c2.7-2.5,6.4-3.8,11.1-3.8s8.4,1.3,11.1,3.8c2.7,2.5,4.1,6,4.1,10.3c0,4.4-1.3,7.8-4,10.3C40.2,33.4,36.5,34.6,31.8,34.6z
						 M21.9,38.8c-4.2,1-7.5,3-9.9,5.9c-2.4,2.9-3.5,6.4-3.5,10.6c0,5.8,2.1,10.4,6.2,13.8c4.2,3.4,9.8,5.1,17.1,5.1
						c7.3,0,13-1.7,17.1-5.1s6.2-8,6.2-13.8c0-4.2-1.2-7.7-3.5-10.6c-2.4-2.9-5.6-4.9-9.8-5.9c4.8-1.1,8.4-3.3,11.1-6.5
						c2.7-3.2,4-7.2,4-11.8c0-7.1-2.2-12.5-6.5-16.3C46,0.5,39.8-1.4,31.8-1.4c-8,0-14.2,1.9-18.5,5.7C8.9,8,6.8,13.4,6.8,20.5
						c0,4.6,1.3,8.6,4,11.8C13.5,35.5,17.2,37.7,21.9,38.8z M18.3,54.4c0-3.8,1.2-6.7,3.5-8.8c2.4-2.1,5.7-3.2,9.9-3.2
						c4.2,0,7.6,1.1,9.9,3.2c2.4,2.1,3.6,5.1,3.6,8.8c0,3.8-1.2,6.7-3.6,8.8c-2.4,2.1-5.7,3.2-9.9,3.2c-4.3,0-7.6-1.1-9.9-3.2
						C19.5,61.1,18.3,58.2,18.3,54.4z"/>
				</g>
				<g>
					<path id="DejaVuSans-25_00000051360108765922723680000008277864731787514018_" class="st6" d="M136.3,32.1
						c-2.8,0-5.1-1.2-6.7-3.6c-1.6-2.4-2.4-5.8-2.4-10.1c0-4.2,0.8-7.6,2.4-10c1.6-2.4,3.8-3.6,6.7-3.6c2.8,0,5,1.2,6.6,3.6
						c1.6,2.4,2.4,5.8,2.4,10c0,4.3-0.8,7.6-2.4,10C141.3,30.9,139.1,32.1,136.3,32.1z M136.3,38.3c5.1,0,9.2-1.8,12.2-5.4
						c3-3.6,4.5-8.4,4.5-14.5c0-6.1-1.5-10.9-4.6-14.5c-3-3.6-7.1-5.3-12.2-5.3c-5.2,0-9.3,1.8-12.4,5.3c-3,3.6-4.5,8.4-4.5,14.5
						c0,6.1,1.5,11,4.6,14.5C127,36.5,131.1,38.3,136.3,38.3z M85.9,68c-2.8,0-5-1.2-6.6-3.6c-1.6-2.4-2.4-5.7-2.4-10
						c0-4.3,0.8-7.6,2.4-10.1c1.6-2.4,3.8-3.6,6.6-3.6c2.8,0,5.1,1.2,6.7,3.6c1.6,2.4,2.4,5.8,2.4,10.1c0,4.2-0.8,7.5-2.4,10
						C91,66.8,88.7,68,85.9,68z M130,74.2h7.8L92.2-1.4h-7.8L130,74.2z M85.9,74.2c5.1,0,9.2-1.8,12.3-5.3c3.1-3.6,4.6-8.4,4.6-14.5
						c0-6.1-1.5-11-4.6-14.5c-3-3.6-7.2-5.3-12.3-5.3c-5.2,0-9.3,1.8-12.3,5.3c-3,3.6-4.5,8.4-4.5,14.5c0,6.1,1.5,10.9,4.5,14.5
						C76.7,72.4,80.8,74.2,85.9,74.2z"/>
				</g>
			</g>
		</g>
	</g>
</g>
</svg>
