<?xml version="1.0" encoding="utf-8"?>
<!-- Generator: Adobe Illustrator 26.0.2, SVG Export Plug-In . SVG Version: 6.00 Build 0)  -->
<svg version="1.1" id="Layer_1" xmlns="http://www.w3.org/2000/svg" xmlns:xlink="http://www.w3.org/1999/xlink" x="0px" y="0px"
	 viewBox="0 0 332 444.2" style="enable-background:new 0 0 332 444.2;" xml:space="preserve">
<style type="text/css">
	.st0{fill:none;}
	.st1{fill:#9866CF;stroke:#FFFFFF;stroke-width:8;}
	.st2{fill:#FFC553;stroke:#FFFFFF;stroke-width:8;}
	.st3{fill:#290849;}
	.st4{fill:none;stroke:#290849;stroke-width:4;stroke-miterlimit:10;}
</style>
<path class="st0" d="M0,444.2h340.6V8H0V444.2z"/>
<g id="patch_2">
	<path class="st1" d="M170.3,95.7c-15.2,0-30.4,2.7-44.7,7.9S98,116.4,86.3,126.3S64.8,147.8,57.2,161
		c-7.6,13.2-12.8,27.6-15.5,42.7c-2.6,15-2.6,30.4,0.1,45.4c2.7,15,8,29.4,15.6,42.6s17.6,24.9,29.3,34.7
		c11.7,9.8,25,17.4,39.4,22.6s29.5,7.8,44.7,7.7c15.2-0.1,30.3-2.8,44.6-8.1c14.3-5.3,27.6-13,39.2-22.9c11.6-9.9,21.4-21.7,29-34.9
		c7.5-13.2,12.7-27.7,15.3-42.7s2.5-30.4-0.3-45.4c-2.7-15-8.1-29.4-15.8-42.5c-7.7-13.1-17.7-24.8-29.4-34.6l-33.3,40.2
		c7,5.8,13,12.8,17.6,20.7c4.6,7.9,7.8,16.5,9.5,25.5c1.6,9,1.7,18.2,0.2,27.2s-4.6,17.7-9.2,25.6c-4.5,7.9-10.4,15-17.4,20.9
		c-7,5.9-14.9,10.6-23.5,13.7c-8.6,3.2-17.6,4.8-26.8,4.8c-9.1,0-18.2-1.5-26.8-4.6s-16.6-7.7-23.6-13.5c-7-5.9-13-12.9-17.6-20.8
		s-7.8-16.6-9.4-25.6c-1.6-9-1.6-18.2-0.1-27.2c1.6-9,4.7-17.7,9.3-25.6c4.6-7.9,10.5-15,17.5-20.9c7-5.9,15-10.5,23.6-13.6
		c8.6-3.1,17.7-4.7,26.8-4.7V95.7z"/>
</g>
<g id="patch_3">
	<path class="st2" d="M253.4,125.6c-11.6-9.6-24.8-17.1-39-22.2c-14.2-5.1-29.1-7.7-44.2-7.7v52.2c9,0,18,1.6,26.5,4.6
		c8.5,3.1,16.4,7.6,23.4,13.3L253.4,125.6z"/>
</g>
<g id="matplotlib.axis_1">
</g>
<g id="matplotlib.axis_2">
</g>
<g>
	<g id="text_3">
		<g transform="translate(240.988984 29.995312)scale(0.3 -0.3)">
			<g>
				<path id="DejaVuSans-59" class="st3" d="M-36.9,57.9h10.6l20.2-30l20.1,30h10.6L-1.2,19.7V-15h-9.9v34.7L-36.9,57.9z"/>
			</g>
			<g>
				<path id="DejaVuSans-65" class="st3" d="M67.4,14.5v-4.4H26C26.4,4,28.3-0.7,31.6-4s8-4.9,13.9-4.9c3.4,0,6.8,0.4,10,1.3
					s6.5,2.1,9.7,3.8v-8.5c-3.2-1.4-6.5-2.4-9.9-3.1s-6.8-1.1-10.3-1.1c-8.7,0-15.6,2.5-20.7,7.6c-5.1,5.1-7.6,12-7.6,20.6
					c0,8.9,2.4,16,7.2,21.3c4.8,5.3,11.4,7.9,19.6,7.9c7.4,0,13.2-2.4,17.5-7.1C65.2,29.1,67.4,22.7,67.4,14.5z M58.4,17.2
					c-0.1,4.9-1.4,8.8-4.1,11.8c-2.7,2.9-6.2,4.4-10.7,4.4c-5,0-9-1.4-12-4.2s-4.7-6.8-5.2-12L58.4,17.2z"/>
			</g>
			<g>
				<path id="DejaVuSans-73" class="st3" d="M117,38v-8.5c-2.5,1.3-5.2,2.3-7.9,2.9c-2.7,0.7-5.6,1-8.5,1c-4.5,0-7.8-0.7-10-2
					c-2.2-1.4-3.3-3.4-3.3-6.2c0-2.1,0.8-3.7,2.4-4.9s4.8-2.3,9.6-3.4l3.1-0.7c6.4-1.4,10.9-3.3,13.6-5.8s4-6,4-10.4
					c0-5.1-2-9.1-6-12.1c-4-3-9.5-4.4-16.6-4.4c-2.9,0-6,0.3-9.2,0.9c-3.2,0.6-6.5,1.4-10,2.6v9.3c3.3-1.7,6.6-3,9.8-3.9
					c3.2-0.9,6.4-1.3,9.6-1.3c4.2,0,7.5,0.7,9.8,2.2c2.3,1.4,3.4,3.5,3.4,6.1c0,2.4-0.8,4.3-2.5,5.6c-1.6,1.3-5.2,2.6-10.8,3.8
					l-3.1,0.7c-5.6,1.2-9.6,3-12.1,5.4c-2.5,2.4-3.7,5.8-3.7,10c0,5.1,1.8,9.1,5.5,11.9c3.6,2.8,8.8,4.2,15.5,4.2
					c3.3,0,6.4-0.2,9.4-0.7C111.8,39.7,114.5,39,117,38z"/>
			</g>
		</g>
	</g>
	<g id="text_4">
		<g transform="translate(186.62491 74.337873)scale(0.35 -0.35)">
			<g>
				<path id="DejaVuSans-31" class="st3" d="M89.4-44.8h16.1v55.6L88,7.3v9l17.4,3.5h9.9v-64.6h16.1v-8.3h-42V-44.8z"/>
			</g>
			<g>
				<path id="DejaVuSans-31_00000009555029879317916140000012309054452149955479_" class="st3" d="M153.1-44.8h16.1v55.6l-17.5-3.5
					v9l17.4,3.5h9.9v-64.6h16.1v-8.3h-42V-44.8z"/>
			</g>
			<g>
				<path id="DejaVuSans-25_00000040549565345907024710000016647670321507900296_" class="st3" d="M277-21c-2.8,0-5.1-1.2-6.7-3.6
					c-1.6-2.4-2.4-5.8-2.4-10.1c0-4.2,0.8-7.6,2.4-10c1.6-2.4,3.8-3.6,6.7-3.6c2.8,0,5,1.2,6.6,3.6c1.6,2.4,2.4,5.8,2.4,10
					c0,4.3-0.8,7.6-2.4,10C281.9-22.2,279.8-21,277-21z M277-14.8c5.1,0,9.2-1.8,12.2-5.4c3-3.6,4.5-8.4,4.5-14.5
					c0-6.1-1.5-10.9-4.6-14.5c-3-3.6-7.1-5.3-12.2-5.3c-5.2,0-9.3,1.8-12.4,5.3c-3,3.6-4.5,8.4-4.5,14.5c0,6.1,1.5,11,4.6,14.5
					C267.7-16.6,271.8-14.8,277-14.8z M226.6,14.9c-2.8,0-5-1.2-6.6-3.6c-1.6-2.4-2.4-5.7-2.4-10c0-4.3,0.8-7.6,2.4-10.1
					c1.6-2.4,3.8-3.6,6.6-3.6c2.8,0,5.1,1.2,6.7,3.6c1.6,2.4,2.4,5.8,2.4,10.1c0,4.2-0.8,7.5-2.4,10
					C231.6,13.7,229.4,14.9,226.6,14.9z M270.7,21.1h7.8l-45.6-75.6h-7.8L270.7,21.1z M226.6,21.1c5.1,0,9.2-1.8,12.3-5.3
					c3.1-3.6,4.6-8.4,4.6-14.5c0-6.1-1.5-11-4.6-14.5c-3-3.6-7.2-5.3-12.3-5.3c-5.2,0-9.3,1.8-12.3,5.3c-3,3.6-4.5,8.4-4.5,14.5
					c0,6.1,1.5,10.9,4.5,14.5C217.4,19.4,221.5,21.1,226.6,21.1z"/>
			</g>
		</g>
	</g>
	<line class="st4" x1="216.4" y1="50.9" x2="290.5" y2="50.9"/>
</g>
<g>
	<g id="text_1">
		<g transform="translate(58.771025 422.798722)scale(0.3 -0.3)">
			<g>
				<path id="DejaVuSans-4e" class="st3" d="M-65.3,66.4h13.3l32.3-61v61h9.6V-6.5h-13.3l-32.3,61v-61h-9.6V66.4z"/>
			</g>
			<g>
				<path id="DejaVuSans-6f" class="st3" d="M30.3,41.9c-4.8,0-8.6-1.9-11.4-5.6s-4.2-8.9-4.2-15.5S16,9.1,18.8,5.4
					c2.8-3.8,6.6-5.6,11.5-5.6c4.8,0,8.6,1.9,11.4,5.7c2.8,3.8,4.2,8.9,4.2,15.4c0,6.5-1.4,11.6-4.2,15.4
					C38.8,40,35.1,41.9,30.3,41.9z M30.3,49.5c7.8,0,13.9-2.5,18.4-7.6c4.5-5.1,6.7-12.1,6.7-21.1c0-8.9-2.2-16-6.7-21.1
					c-4.5-5.1-10.6-7.6-18.4-7.6c-7.8,0-14,2.5-18.4,7.6C7.4,4.9,5.2,11.9,5.2,20.8c0,9,2.2,16,6.7,21.1
					C16.3,47,22.4,49.5,30.3,49.5z"/>
			</g>
		</g>
	</g>
	<g id="text_2">
		<g transform="translate(76.142129 381.215537)scale(0.35 -0.35)">
			<g>
				<path id="DejaVuSans-38" class="st3" d="M-133.9,65.6c-4.7,0-8.4-1.3-11.1-3.8c-2.7-2.5-4-6-4-10.3c0-4.4,1.3-7.8,4-10.4
					c2.7-2.5,6.4-3.8,11.1-3.8s8.4,1.3,11.1,3.8c2.7,2.5,4.1,6,4.1,10.3c0,4.4-1.3,7.8-4,10.3C-125.5,64.4-129.2,65.6-133.9,65.6z
					 M-143.7,69.8c-4.2,1-7.5,3-9.9,5.9c-2.4,2.9-3.5,6.4-3.5,10.6c0,5.8,2.1,10.4,6.2,13.8c4.2,3.4,9.8,5.1,17.1,5.1
					c7.3,0,13-1.7,17.1-5.1c4.1-3.4,6.2-8,6.2-13.8c0-4.2-1.2-7.7-3.5-10.6c-2.4-2.9-5.6-4.9-9.8-5.9c4.8-1.1,8.4-3.3,11.1-6.5
					c2.7-3.2,4-7.2,4-11.8c0-7.1-2.2-12.5-6.5-16.3c-4.3-3.8-10.5-5.7-18.5-5.7c-8,0-14.2,1.9-18.5,5.7c-4.3,3.8-6.5,9.2-6.5,16.3
					c0,4.6,1.3,8.6,4,11.8C-152.2,66.5-148.5,68.7-143.7,69.8z M-147.4,85.4c0-3.8,1.2-6.7,3.5-8.8c2.4-2.1,5.7-3.2,9.9-3.2
					c4.2,0,7.6,1.1,9.9,3.2c2.4,2.1,3.6,5.1,3.6,8.8c0,3.8-1.2,6.7-3.6,8.8c-2.4,2.1-5.7,3.2-9.9,3.2c-4.3,0-7.6-1.1-9.9-3.2
					C-146.2,92.1-147.4,89.2-147.4,85.4z"/>
			</g>
			<g>
				<path id="DejaVuSans-39" class="st3" d="M-91.1,32.5v9c2.5-1.2,5-2.1,7.5-2.7c2.5-0.6,5-0.9,7.5-0.9c6.5,0,11.5,2.2,14.9,6.6
					c3.4,4.4,5.4,11,5.9,20c-1.9-2.8-4.3-5-7.2-6.5c-2.9-1.5-6.1-2.2-9.6-2.2c-7.3,0-13.1,2.2-17.3,6.6c-4.2,4.4-6.4,10.5-6.4,18.1
					c0,7.5,2.2,13.5,6.6,18c4.4,4.5,10.3,6.8,17.7,6.8c8.4,0,14.9-3.2,19.3-9.7c4.4-6.5,6.7-15.8,6.7-28.1c0-11.5-2.7-20.7-8.2-27.5
					c-5.4-6.9-12.8-10.3-22-10.3c-2.5,0-5,0.2-7.5,0.7C-85.7,30.8-88.3,31.5-91.1,32.5z M-71.4,63.4c4.4,0,7.9,1.5,10.5,4.5
					c2.6,3,3.9,7.2,3.9,12.5c0,5.2-1.3,9.4-3.9,12.4c-2.6,3-6.1,4.6-10.5,4.6c-4.4,0-7.9-1.5-10.5-4.6c-2.6-3-3.9-7.2-3.9-12.4
					c0-5.3,1.3-9.4,3.9-12.5C-79.4,64.9-75.9,63.4-71.4,63.4z"/>
			</g>
			<g>
				<path id="DejaVuSans-25" class="st3" d="M34.3,63.1c-2.8,0-5.1-1.2-6.7-3.6c-1.6-2.4-2.4-5.8-2.4-10.1c0-4.2,0.8-7.6,2.4-10
					c1.6-2.4,3.8-3.6,6.7-3.6c2.8,0,5,1.2,6.6,3.6c1.6,2.4,2.4,5.8,2.4,10c0,4.3-0.8,7.6-2.4,10C39.2,61.9,37.1,63.1,34.3,63.1z
					 M34.3,69.3c5.1,0,9.2-1.8,12.2-5.4c3-3.6,4.5-8.4,4.5-14.5c0-6.1-1.5-10.9-4.6-14.5c-3-3.6-7.1-5.3-12.2-5.3
					c-5.2,0-9.3,1.8-12.4,5.3c-3,3.6-4.5,8.4-4.5,14.5c0,6.1,1.5,11,4.6,14.5S29.1,69.3,34.3,69.3z M-16.1,99c-2.8,0-5-1.2-6.6-3.6
					c-1.6-2.4-2.4-5.7-2.4-10c0-4.3,0.8-7.6,2.4-10.1c1.6-2.4,3.8-3.6,6.6-3.6s5.1,1.2,6.7,3.6C-7.8,77.7-7,81.1-7,85.4
					c0,4.2-0.8,7.5-2.4,10C-11.1,97.8-13.3,99-16.1,99z M28,105.2h7.8L-9.8,29.6h-7.8L28,105.2z M-16.1,105.2
					c5.1,0,9.2-1.8,12.3-5.3c3.1-3.6,4.6-8.4,4.6-14.5c0-6.1-1.5-11-4.6-14.5c-3-3.6-7.2-5.3-12.3-5.3s-9.3,1.8-12.3,5.3
					c-3,3.6-4.5,8.4-4.5,14.5c0,6.1,1.5,10.9,4.5,14.5C-25.3,103.4-21.3,105.2-16.1,105.2z"/>
			</g>
		</g>
	</g>
	<line class="st4" x1="20.2" y1="386.9" x2="94.3" y2="386.9"/>
</g>
</svg>
