<?xml version="1.0" encoding="utf-8"?>
<!-- Generator: Adobe Illustrator 26.0.2, SVG Export Plug-In . SVG Version: 6.00 Build 0)  -->
<svg version="1.1" id="Layer_1" xmlns="http://www.w3.org/2000/svg" xmlns:xlink="http://www.w3.org/1999/xlink" x="0px" y="0px"
	 viewBox="0 0 529.6 340.6" style="enable-background:new 0 0 529.6 340.6;" xml:space="preserve">
<style type="text/css">
	.st0{fill:none;}
	.st1{fill:#9866CF;stroke:#FFFFFF;stroke-width:8;}
	.st2{fill:#FFC553;stroke:#FFFFFF;stroke-width:8;}
	.st3{fill:#290849;}
	.st4{fill:#290849;stroke:#290849;stroke-width:4;stroke-miterlimit:10;}
</style>
<path class="st0" d="M0,340.6h529.6V0H0V340.6z"/>
<g id="patch_2">
	<path class="st1" d="M261,39.8c-20.2,0-40.2,4.7-58.3,13.8s-33.9,22.2-46,38.4c-12.2,16.2-20.4,35-24,54.9s-2.6,40.4,3.1,59.8
		c5.6,19.4,15.7,37.3,29.5,52.2c13.7,14.9,30.8,26.3,49.7,33.5c18.9,7.2,39.3,9.8,59.4,7.7c20.1-2.1,39.5-8.8,56.6-19.6l-28-44.1
		c-10.3,6.5-21.9,10.5-34,11.8c-12.1,1.2-24.3-0.4-35.6-4.6c-11.4-4.3-21.6-11.2-29.8-20.1s-14.3-19.6-17.7-31.3s-4-24-1.8-35.9
		c2.2-11.9,7.1-23.2,14.4-32.9s16.7-17.6,27.6-23c10.9-5.4,22.8-8.3,35-8.3V39.8z"/>
</g>
<g id="patch_3">
	<path class="st2" d="M330.9,280.4c23.8-15.1,42.2-37.6,52.1-64s11.1-55.4,3.2-82.5c-7.9-27.1-24.4-51-47-67.9
		c-22.6-17-50.1-26.1-78.3-26.1l0,52.2c16.9,0,33.4,5.5,47,15.7c13.6,10.2,23.4,24.5,28.2,40.8s4,33.7-1.9,49.5
		c-6,15.9-17,29.3-31.3,38.4L330.9,280.4z"/>
</g>
<g id="matplotlib.axis_1">
</g>
<g id="matplotlib.axis_2">
</g>
<g id="text_1">
	<g transform="translate(7.2 240.43521)scale(0.3 -0.3)">
		<g>
			<path id="DejaVuSans-4e" class="st3" d="M302-6.6h13.3l32.3-61v61h9.6v-72.9h-13.3l-32.3,61v-61H302V-6.6z"/>
		</g>
		<g>
			<path id="DejaVuSans-6f" class="st3" d="M397.6-31.1c-4.8,0-8.6-1.9-11.4-5.6c-2.8-3.8-4.2-8.9-4.2-15.5s1.4-11.7,4.2-15.5
				c2.8-3.8,6.6-5.6,11.5-5.6c4.8,0,8.6,1.9,11.4,5.7c2.8,3.8,4.2,8.9,4.2,15.4c0,6.5-1.4,11.6-4.2,15.4
				C406.2-33,402.4-31.1,397.6-31.1z M397.6-23.5c7.8,0,13.9-2.5,18.4-7.6c4.5-5.1,6.7-12.1,6.7-21.1c0-8.9-2.2-16-6.7-21.1
				c-4.5-5.1-10.6-7.6-18.4-7.6c-7.8,0-14,2.5-18.4,7.6c-4.4,5.1-6.7,12.1-6.7,21.1c0,9,2.2,16,6.7,21.1
				C383.6-26.1,389.7-23.5,397.6-23.5z"/>
		</g>
	</g>
</g>
<g id="text_2">
	<g transform="translate(59.217019 227.255583)scale(0.35 -0.35)">
		<g>
			<path id="DejaVuSans-35" class="st3" d="M60.5-194.1h38.7v-8.3H69.5v-17.9c1.4,0.5,2.9,0.9,4.3,1.1c1.4,0.2,2.9,0.4,4.3,0.4
				c8.1,0,14.6-2.2,19.3-6.7c4.8-4.5,7.1-10.5,7.1-18.1c0-7.8-2.4-13.9-7.3-18.3c-4.9-4.3-11.8-6.5-20.7-6.5c-3.1,0-6.2,0.3-9.4,0.8
				c-3.2,0.5-6.4,1.3-9.8,2.3v9.9c2.9-1.6,6-2.8,9.1-3.6s6.4-1.2,9.9-1.2c5.6,0,10.1,1.5,13.4,4.4c3.3,3,4.9,7,4.9,12.1
				c0,5.1-1.6,9.1-4.9,12c-3.3,3-7.7,4.5-13.4,4.5c-2.6,0-5.3-0.3-7.9-0.9c-2.6-0.6-5.3-1.5-8-2.7V-194.1z"/>
		</g>
		<g>
			<path id="DejaVuSans-39" class="st3" d="M124.3-265.4v9c2.5-1.2,5-2.1,7.5-2.7c2.5-0.6,5-0.9,7.5-0.9c6.5,0,11.5,2.2,14.9,6.6
				c3.4,4.4,5.4,11,5.9,20c-1.9-2.8-4.3-5-7.2-6.5c-2.9-1.5-6.1-2.2-9.6-2.2c-7.3,0-13.1,2.2-17.3,6.6c-4.2,4.4-6.4,10.5-6.4,18.1
				c0,7.5,2.2,13.5,6.6,18c4.4,4.5,10.3,6.8,17.7,6.8c8.4,0,14.9-3.2,19.3-9.7c4.4-6.5,6.7-15.8,6.7-28.1c0-11.5-2.7-20.7-8.2-27.5
				c-5.4-6.9-12.8-10.3-22-10.3c-2.5,0-5,0.2-7.5,0.7C129.7-267.2,127.1-266.4,124.3-265.4z M143.9-234.5c4.4,0,7.9,1.5,10.5,4.5
				c2.6,3,3.9,7.2,3.9,12.5c0,5.2-1.3,9.4-3.9,12.4c-2.6,3-6.1,4.6-10.5,4.6c-4.4,0-7.9-1.5-10.5-4.6c-2.6-3-3.9-7.2-3.9-12.4
				c0-5.3,1.3-9.4,3.9-12.5C136-233,139.5-234.5,143.9-234.5z"/>
		</g>
		<g>
			<path id="DejaVuSans-25" class="st3" d="M249.7-234.9c-2.8,0-5.1-1.2-6.7-3.6c-1.6-2.4-2.4-5.8-2.4-10.1c0-4.2,0.8-7.6,2.4-10
				c1.6-2.4,3.8-3.6,6.7-3.6c2.8,0,5,1.2,6.6,3.6c1.6,2.4,2.4,5.8,2.4,10c0,4.3-0.8,7.6-2.4,10C254.6-236.1,252.4-234.9,249.7-234.9
				z M249.7-228.7c5.1,0,9.2-1.8,12.2-5.4c3-3.6,4.5-8.4,4.5-14.5c0-6.1-1.5-10.9-4.6-14.5c-3-3.6-7.1-5.3-12.2-5.3
				c-5.2,0-9.3,1.8-12.4,5.3c-3,3.6-4.5,8.4-4.5,14.5c0,6.1,1.5,11,4.6,14.5C240.4-230.5,244.5-228.7,249.7-228.7z M199.3-198.9
				c-2.8,0-5-1.2-6.6-3.6c-1.6-2.4-2.4-5.7-2.4-10c0-4.3,0.8-7.6,2.4-10.1c1.6-2.4,3.8-3.6,6.6-3.6c2.8,0,5.1,1.2,6.7,3.6
				c1.6,2.4,2.4,5.8,2.4,10.1c0,4.2-0.8,7.5-2.4,10C204.3-200.2,202.1-198.9,199.3-198.9z M243.4-192.7h7.8l-45.6-75.6h-7.8
				L243.4-192.7z M199.3-192.7c5.1,0,9.2-1.8,12.3-5.3c3.1-3.6,4.6-8.4,4.6-14.5c0-6.1-1.5-11-4.6-14.5c-3-3.6-7.2-5.3-12.3-5.3
				c-5.2,0-9.3,1.8-12.3,5.3c-3,3.6-4.5,8.4-4.5,14.5c0,6.1,1.5,10.9,4.5,14.5C190-194.5,194.1-192.7,199.3-192.7z"/>
		</g>
	</g>
</g>
<g id="text_3">
	<g transform="translate(473.964784 116.68106)scale(0.3 -0.3)">
		<g>
			<path id="DejaVuSans-59" class="st3" d="M-223.8,193.8h10.6l20.2-30l20.1,30h10.6l-25.8-38.2v-34.7h-9.9v34.7L-223.8,193.8z"/>
		</g>
		<g>
			<path id="DejaVuSans-65" class="st3" d="M-119.5,150.4v-4.4h-41.3c0.4-6.2,2.3-10.9,5.6-14.1c3.3-3.2,8-4.9,13.9-4.9
				c3.4,0,6.8,0.4,10,1.3c3.2,0.8,6.5,2.1,9.7,3.8v-8.5c-3.2-1.4-6.5-2.4-9.9-3.1c-3.4-0.7-6.8-1.1-10.3-1.1
				c-8.7,0-15.6,2.5-20.7,7.6c-5.1,5.1-7.6,12-7.6,20.6c0,8.9,2.4,16,7.2,21.3c4.8,5.3,11.4,7.9,19.6,7.9c7.4,0,13.2-2.4,17.5-7.1
				C-121.7,165-119.5,158.6-119.5,150.4z M-128.5,153.1c-0.1,4.9-1.4,8.8-4.1,11.8c-2.7,2.9-6.2,4.4-10.7,4.4c-5,0-9-1.4-12-4.2
				c-3-2.8-4.7-6.8-5.2-12L-128.5,153.1z"/>
		</g>
		<g>
			<path id="DejaVuSans-73" class="st3" d="M-69.9,173.9v-8.5c-2.5,1.3-5.2,2.3-7.9,2.9c-2.7,0.7-5.6,1-8.5,1c-4.5,0-7.8-0.7-10-2
				c-2.2-1.4-3.3-3.4-3.3-6.2c0-2.1,0.8-3.7,2.4-4.9s4.8-2.3,9.6-3.4l3.1-0.7c6.4-1.4,10.9-3.3,13.6-5.8s4-6,4-10.4
				c0-5.1-2-9.1-6-12.1c-4-3-9.5-4.4-16.6-4.4c-2.9,0-6,0.3-9.2,0.9c-3.2,0.6-6.5,1.4-10,2.6v9.3c3.3-1.7,6.6-3,9.8-3.9
				c3.2-0.9,6.4-1.3,9.6-1.3c4.2,0,7.5,0.7,9.8,2.2c2.3,1.4,3.4,3.5,3.4,6.1c0,2.4-0.8,4.3-2.5,5.6c-1.6,1.3-5.2,2.6-10.8,3.8
				l-3.1,0.7c-5.6,1.2-9.6,3-12.1,5.4c-2.5,2.4-3.7,5.8-3.7,10c0,5.1,1.8,9.1,5.5,11.9c3.6,2.8,8.8,4.2,15.5,4.2
				c3.3,0,6.4-0.2,9.4-0.7C-75.1,175.6-72.4,174.9-69.9,173.9z"/>
		</g>
	</g>
</g>
<g id="text_4">
	<g transform="translate(384.954795 132.620057)scale(0.35 -0.35)">
		<g>
			<path id="DejaVuSans-34" class="st3" d="M56.7,52.3L31.8,13.4h24.9V52.3z M54.1,60.9h12.4V13.4h10.4V5.2H66.5V-12h-9.8V5.2H23.8
				v9.5L54.1,60.9z"/>
		</g>
		<g>
			<path id="DejaVuSans-31" class="st3" d="M94.9-3.7H111v55.6l-17.5-3.5v9l17.4,3.5h9.9V-3.7h16.1V-12h-42V-3.7z"/>
		</g>
		<g>
			<path id="DejaVuSans-25_00000023243713678486201090000012748159090205309106_" class="st3" d="M218.8,20.1
				c-2.8,0-5.1-1.2-6.7-3.6c-1.6-2.4-2.4-5.8-2.4-10.1c0-4.2,0.8-7.6,2.4-10c1.6-2.4,3.8-3.6,6.7-3.6c2.8,0,5,1.2,6.6,3.6
				c1.6,2.4,2.4,5.8,2.4,10c0,4.3-0.8,7.6-2.4,10C223.8,18.8,221.6,20.1,218.8,20.1z M218.8,26.3c5.1,0,9.2-1.8,12.2-5.4
				c3-3.6,4.5-8.4,4.5-14.5c0-6.1-1.5-10.9-4.6-14.5c-3-3.6-7.1-5.3-12.2-5.3c-5.2,0-9.3,1.8-12.4,5.3c-3,3.6-4.5,8.4-4.5,14.5
				c0,6.1,1.5,11,4.6,14.5C209.5,24.5,213.7,26.3,218.8,26.3z M168.4,56c-2.8,0-5-1.2-6.6-3.6c-1.6-2.4-2.4-5.7-2.4-10
				c0-4.3,0.8-7.6,2.4-10.1c1.6-2.4,3.8-3.6,6.6-3.6c2.8,0,5.1,1.2,6.7,3.6c1.6,2.4,2.4,5.8,2.4,10.1c0,4.2-0.8,7.5-2.4,10
				C173.5,54.8,171.2,56,168.4,56z M212.5,62.2h7.8l-45.6-75.6h-7.8L212.5,62.2z M168.4,62.2c5.1,0,9.2-1.8,12.3-5.3
				c3.1-3.6,4.6-8.4,4.6-14.5c0-6.1-1.5-11-4.6-14.5c-3-3.6-7.2-5.3-12.3-5.3c-5.2,0-9.3,1.8-12.3,5.3c-3,3.6-4.5,8.4-4.5,14.5
				c0,6.1,1.5,10.9,4.5,14.5C159.2,60.4,163.3,62.2,168.4,62.2z"/>
		</g>
	</g>
</g>
<line class="st4" x1="393.3" y1="95.9" x2="467.4" y2="95.9"/>
<line class="st4" x1="78.8" y1="279.7" x2="153" y2="279.7"/>
</svg>
