<?xml version="1.0" encoding="utf-8"?>
<!-- Generator: Adobe Illustrator 26.0.2, SVG Export Plug-In . SVG Version: 6.00 Build 0)  -->
<svg version="1.1" id="Layer_1" xmlns="http://www.w3.org/2000/svg" xmlns:xlink="http://www.w3.org/1999/xlink" x="0px" y="0px"
	 viewBox="0 0 734.4 236.2" style="enable-background:new 0 0 734.4 236.2;" xml:space="preserve">
<style type="text/css">
	.st0{fill:none;}
	.st1{clip-path:url(#SVGID_00000171679318959926764810000013752848199086665885_);fill:#9866CF;}
	.st2{clip-path:url(#SVGID_00000049928587748959074500000012571060230828671924_);fill:#9866CF;}
	.st3{clip-path:url(#SVGID_00000028325051712871580060000004682880964818731916_);fill:#9866CF;}
	.st4{clip-path:url(#SVGID_00000142174868866723965210000017486786269721322401_);fill:#9866CF;}
	.st5{clip-path:url(#SVGID_00000044157130990596289860000015626600384411949697_);fill:#9866CF;}
	.st6{fill:#290849;stroke:#290849;stroke-width:0.8;stroke-linejoin:round;}
	.st7{fill:#290849;}
</style>
<g id="figure_1">
	<g id="patch_1">
		<path class="st0" d="M0,236.2h734.4V0H0V236.2z"/>
	</g>
	<g id="axes_1">
		<g id="patch_2">
			<path class="st0" d="M7.2,168.7h720v-144H7.2V168.7z"/>
		</g>
		<g id="patch_3">
			<g>
				<defs>
					<rect id="SVGID_1_" x="7.2" y="24.7" width="720" height="144"/>
				</defs>
				<clipPath id="SVGID_00000000925260893331235290000011397336624150112896_">
					<use xlink:href="#SVGID_1_"  style="overflow:visible;"/>
				</clipPath>
				<path style="clip-path:url(#SVGID_00000000925260893331235290000011397336624150112896_);fill:#9866CF;" d="M39.9,168.7h85.4
					v-53.1H39.9V168.7z"/>
			</g>
		</g>
		<g id="patch_4">
			<g>
				<defs>
					<rect id="SVGID_00000173875439935725292940000002704007795032752267_" x="7.2" y="24.7" width="720" height="144"/>
				</defs>
				<clipPath id="SVGID_00000166673946016334963490000000986686576059844244_">
					<use xlink:href="#SVGID_00000173875439935725292940000002704007795032752267_"  style="overflow:visible;"/>
				</clipPath>
				<path style="clip-path:url(#SVGID_00000166673946016334963490000000986686576059844244_);fill:#9866CF;" d="M182.2,168.7h85.4
					V93.5h-85.4V168.7z"/>
			</g>
		</g>
		<g id="patch_5">
			<g>
				<defs>
					<rect id="SVGID_00000180350548383505289680000018281315932619168409_" x="7.2" y="24.7" width="720" height="144"/>
				</defs>
				<clipPath id="SVGID_00000054968364589298237100000002428347145953625223_">
					<use xlink:href="#SVGID_00000180350548383505289680000018281315932619168409_"  style="overflow:visible;"/>
				</clipPath>
				<path style="clip-path:url(#SVGID_00000054968364589298237100000002428347145953625223_);fill:#9866CF;" d="M324.5,168.7h85.4
					V31.6h-85.4V168.7z"/>
			</g>
		</g>
		<g id="patch_6">
			<g>
				<defs>
					<rect id="SVGID_00000148658713318821934300000014963245225796553624_" x="7.2" y="24.7" width="720" height="144"/>
				</defs>
				<clipPath id="SVGID_00000182497051336171829930000003538760340578165410_">
					<use xlink:href="#SVGID_00000148658713318821934300000014963245225796553624_"  style="overflow:visible;"/>
				</clipPath>
				<path style="clip-path:url(#SVGID_00000182497051336171829930000003538760340578165410_);fill:#9866CF;" d="M466.8,168.7h85.4
					V44.8h-85.4V168.7z"/>
			</g>
		</g>
		<g id="patch_7">
			<g>
				<defs>
					<rect id="SVGID_00000157292532966018363400000006761532446146027411_" x="7.2" y="24.7" width="720" height="144"/>
				</defs>
				<clipPath id="SVGID_00000025400874876256409800000014827622573860556699_">
					<use xlink:href="#SVGID_00000157292532966018363400000006761532446146027411_"  style="overflow:visible;"/>
				</clipPath>
				<path style="clip-path:url(#SVGID_00000025400874876256409800000014827622573860556699_);fill:#9866CF;" d="M609.1,168.7h85.4
					v-53.1h-85.4V168.7z"/>
			</g>
		</g>
		<g id="matplotlib.axis_1">
			<g id="xtick_1">
				<g id="line2d_1">
					<g>
						<g>
							<path id="macf40f43e1_00000002349156109126099830000015559932873044689317_" class="st6" d="M82.6,168.7"/>
						</g>
					</g>
				</g>
				<g id="text_1">
					<g transform="translate(31.566582 202.395982)scale(0.2 -0.2)">
						<g>
							<path id="DejaVuSans-4c" class="st7" d="M9.8,72.9h9.9V8.3h35.5V0H9.8V72.9z"/>
						</g>
						<g>
							<path id="DejaVuSans-65" class="st7" d="M110.2,29.6v-4.4H68.9c0.4-6.2,2.3-10.9,5.6-14.1s8-4.9,13.9-4.9
								c3.4,0,6.8,0.4,10,1.3c3.2,0.8,6.5,2.1,9.7,3.8V2.8c-3.2-1.4-6.5-2.4-9.9-3.1c-3.4-0.7-6.8-1.1-10.3-1.1
								c-8.7,0-15.6,2.5-20.7,7.6c-5.1,5.1-7.6,12-7.6,20.6c0,8.9,2.4,16,7.2,21.3c4.8,5.3,11.4,7.9,19.6,7.9
								c7.4,0,13.2-2.4,17.5-7.1C108,44.2,110.2,37.7,110.2,29.6z M101.2,32.2c-0.1,4.9-1.4,8.8-4.1,11.8c-2.7,2.9-6.2,4.4-10.7,4.4
								c-5,0-9-1.4-12-4.2s-4.7-6.8-5.2-12L101.2,32.2z"/>
						</g>
						<g>
							<path id="DejaVuSans-73" class="st7" d="M159.8,53.1v-8.5c-2.5,1.3-5.2,2.3-7.9,2.9c-2.7,0.7-5.6,1-8.5,1
								c-4.5,0-7.8-0.7-10-2S130,43,130,40.3c0-2.1,0.8-3.7,2.4-4.9s4.8-2.3,9.6-3.4l3.1-0.7c6.4-1.4,10.9-3.3,13.6-5.8s4-6,4-10.4
								c0-5.1-2-9.1-6-12.1c-4-3-9.5-4.4-16.6-4.4c-2.9,0-6,0.3-9.2,0.9c-3.2,0.6-6.5,1.4-10,2.6v9.3c3.3-1.7,6.6-3,9.8-3.9
								c3.2-0.9,6.4-1.3,9.6-1.3c4.2,0,7.5,0.7,9.8,2.2c2.3,1.4,3.4,3.5,3.4,6.1c0,2.4-0.8,4.3-2.5,5.6c-1.6,1.3-5.2,2.6-10.8,3.8
								l-3.1,0.7c-5.6,1.2-9.6,3-12.1,5.4c-2.5,2.4-3.7,5.8-3.7,10c0,5.1,1.8,9.1,5.5,11.9c3.6,2.8,8.8,4.2,15.5,4.2
								c3.3,0,6.4-0.2,9.4-0.7C154.6,54.8,157.3,54.1,159.8,53.1z"/>
						</g>
						<g>
							<path id="DejaVuSans-73_00000003087825987783051200000004694091631315353520_" class="st7" d="M211.9,53.1v-8.5
								c-2.5,1.3-5.2,2.3-7.9,2.9c-2.7,0.7-5.6,1-8.5,1c-4.5,0-7.8-0.7-10-2s-3.3-3.4-3.3-6.2c0-2.1,0.8-3.7,2.4-4.9
								s4.8-2.3,9.6-3.4l3.1-0.7c6.4-1.4,10.9-3.3,13.6-5.8s4-6,4-10.4c0-5.1-2-9.1-6-12.1c-4-3-9.5-4.4-16.6-4.4
								c-2.9,0-6,0.3-9.2,0.9s-6.5,1.4-10,2.6v9.3c3.3-1.7,6.6-3,9.8-3.9c3.2-0.9,6.4-1.3,9.6-1.3c4.2,0,7.5,0.7,9.8,2.2
								c2.3,1.4,3.4,3.5,3.4,6.1c0,2.4-0.8,4.3-2.5,5.6c-1.6,1.3-5.2,2.6-10.8,3.8l-3.1,0.7c-5.6,1.2-9.6,3-12.1,5.4
								c-2.5,2.4-3.7,5.8-3.7,10c0,5.1,1.8,9.1,5.5,11.9c3.6,2.8,8.8,4.2,15.5,4.2c3.3,0,6.4-0.2,9.4-0.7
								C206.7,54.8,209.4,54.1,211.9,53.1z"/>
						</g>
						<g>
							<path id="DejaVuSans-20" class="st7" d="M219.7,0"/>
						</g>
						<g>
							<path id="DejaVuSans-74" class="st7" d="M269.8,70.2V54.7h18.5v-7h-18.5V18c0-4.5,0.6-7.3,1.8-8.6s3.7-1.9,7.5-1.9h9.2V0
								h-9.2c-6.9,0-11.7,1.3-14.4,3.9c-2.6,2.6-4,7.3-4,14.1v29.7h-6.6v7h6.6v15.5H269.8z"/>
						</g>
						<g>
							<path id="DejaVuSans-68" class="st7" d="M345.6,33V0h-9v32.7c0,5.2-1,9-3,11.6c-2,2.6-5,3.9-9.1,3.9c-4.9,0-8.7-1.5-11.5-4.6
								c-2.8-3.1-4.2-7.3-4.2-12.6V0h-9v76h9V46.2c2.2,3.3,4.7,5.8,7.6,7.4c2.9,1.6,6.3,2.4,10.1,2.4c6.3,0,11-1.9,14.2-5.8
								C344,46.3,345.6,40.6,345.6,33z"/>
						</g>
						<g>
							<path id="DejaVuSans-61" class="st7" d="M388.3,27.5c-7.3,0-12.3-0.8-15.1-2.5s-4.2-4.5-4.2-8.5c0-3.2,1.1-5.7,3.2-7.6
								c2.1-1.9,5-2.8,8.6-2.8c5,0,9,1.8,12,5.3c3,3.5,4.5,8.2,4.5,14.1v2H388.3z M406.3,31.2V0h-9v8.3c-2.1-3.3-4.6-5.8-7.7-7.3
								s-6.8-2.4-11.2-2.4c-5.6,0-10,1.6-13.4,4.7c-3.3,3.1-5,7.4-5,12.6c0,6.1,2.1,10.8,6.2,13.9c4.1,3.1,10.3,4.7,18.4,4.7h12.6
								v0.9c0,4.1-1.4,7.3-4.1,9.6s-6.5,3.4-11.5,3.4c-3.1,0-6.2-0.4-9.1-1.1c-3-0.8-5.8-1.9-8.5-3.4v8.3c3.3,1.3,6.5,2.2,9.6,2.8
								c3.1,0.6,6.1,1,9,1c7.9,0,13.8-2.1,17.7-6.2C404.3,45.8,406.3,39.5,406.3,31.2z"/>
						</g>
						<g>
							<path id="DejaVuSans-6e" class="st7" d="M470.2,33V0h-9v32.7c0,5.2-1,9-3,11.6c-2,2.6-5,3.9-9.1,3.9c-4.9,0-8.7-1.5-11.5-4.6
								c-2.8-3.1-4.2-7.3-4.2-12.6V0h-9v54.7h9v-8.5c2.2,3.3,4.7,5.8,7.6,7.4c2.9,1.6,6.3,2.4,10.1,2.4c6.3,0,11-1.9,14.2-5.8
								C468.6,46.3,470.2,40.6,470.2,33z"/>
						</g>
						<g>
							<path id="DejaVuSans-20_00000060716319239769088550000010472800167343877504_" class="st7" d="M478.7,0"/>
						</g>
					</g>
					<g transform="translate(47.585332 224.791607)scale(0.2 -0.2)">
						<g>
							<path id="DejaVuSans-20_00000045576714595172808790000003924986265394201514_" class="st7" d="M0,0"/>
						</g>
						<g>
							<path id="DejaVuSans-31" class="st7" d="M44.2,8.3h16.1v55.6l-17.5-3.5v9l17.4,3.5h9.9V8.3h16.1V0h-42V8.3z"/>
						</g>
						<g>
							<path id="DejaVuSans-20_00000131362442050854679860000013593009454345017021_" class="st7" d="M95.4,0"/>
						</g>
						<g>
							<path id="DejaVuSans-79" class="st7" d="M159.4-5.1c-2.5-6.5-5-10.8-7.4-12.7c-2.4-2-5.6-3-9.7-3h-7.2v7.5h5.3
								c2.5,0,4.4,0.6,5.8,1.8c1.4,1.2,2.9,3.9,4.5,8.3l1.6,4.1l-22.1,53.8h9.5l17.1-42.8l17.1,42.8h9.5L159.4-5.1z"/>
						</g>
						<g>
							<path id="DejaVuSans-65_00000029020927806678768820000015961577834002502319_" class="st7" d="M242.6,29.6v-4.4h-41.3
								c0.4-6.2,2.3-10.9,5.6-14.1c3.3-3.2,8-4.9,13.9-4.9c3.4,0,6.8,0.4,10,1.3s6.5,2.1,9.7,3.8V2.8c-3.2-1.4-6.5-2.4-9.9-3.1
								s-6.8-1.1-10.3-1.1c-8.7,0-15.6,2.5-20.7,7.6c-5.1,5.1-7.6,12-7.6,20.6c0,8.9,2.4,16,7.2,21.3c4.8,5.3,11.4,7.9,19.6,7.9
								c7.4,0,13.2-2.4,17.5-7.1C240.4,44.2,242.6,37.7,242.6,29.6z M233.6,32.2c-0.1,4.9-1.4,8.8-4.1,11.8
								c-2.7,2.9-6.2,4.4-10.7,4.4c-5,0-9-1.4-12-4.2c-3-2.8-4.7-6.8-5.2-12L233.6,32.2z"/>
						</g>
						<g>
							<path id="DejaVuSans-61_00000151506168848307417760000012488186267546372788_" class="st7" d="M282.2,27.5
								c-7.3,0-12.3-0.8-15.1-2.5s-4.2-4.5-4.2-8.5c0-3.2,1.1-5.7,3.2-7.6c2.1-1.9,5-2.8,8.6-2.8c5,0,9,1.8,12,5.3
								c3,3.5,4.5,8.2,4.5,14.1v2H282.2z M300.1,31.2V0h-9v8.3c-2.1-3.3-4.6-5.8-7.7-7.3s-6.8-2.4-11.2-2.4c-5.6,0-10,1.6-13.4,4.7
								c-3.3,3.1-5,7.4-5,12.6c0,6.1,2.1,10.8,6.2,13.9c4.1,3.1,10.3,4.7,18.4,4.7h12.6v0.9c0,4.1-1.4,7.3-4.1,9.6
								s-6.5,3.4-11.5,3.4c-3.1,0-6.2-0.4-9.1-1.1c-3-0.8-5.8-1.9-8.5-3.4v8.3c3.3,1.3,6.5,2.2,9.6,2.8c3.1,0.6,6.1,1,9,1
								c7.9,0,13.8-2.1,17.7-6.2C298.2,45.8,300.1,39.5,300.1,31.2z"/>
						</g>
						<g>
							<path id="DejaVuSans-72" class="st7" d="M350.3,46.3c-1,0.6-2.1,1-3.3,1.3c-1.2,0.3-2.5,0.4-3.9,0.4c-5.1,0-9-1.7-11.7-5
								s-4.1-8-4.1-14.2V0h-9v54.7h9v-8.5c1.9,3.3,4.4,5.8,7.4,7.4c3,1.6,6.7,2.4,11,2.4c0.6,0,1.3,0,2-0.1c0.8-0.1,1.6-0.2,2.5-0.4
								L350.3,46.3z"/>
						</g>
					</g>
				</g>
			</g>
			<g id="xtick_2">
				<g id="line2d_2">
					<g>
						<g>
							<path id="macf40f43e1_00000050643381779321800730000012876697818577916578_" class="st6" d="M224.9,168.7"/>
						</g>
					</g>
				</g>
				<g id="text_2">
					<g transform="translate(177.87626 202.395982)scale(0.2 -0.2)">
						<g>
							<path id="DejaVuSans-31_00000016041225610877702670000017121614104286103219_" class="st7" d="M12.4,8.3h16.1v55.6L11,60.4v9
								l17.4,3.5h9.9V8.3h16.1V0h-42V8.3z"/>
						</g>
						<g>
							<path id="DejaVuSans-2d" class="st7" d="M68.5,31.4h26.3v-8H68.5V31.4z"/>
						</g>
						<g>
							<path id="DejaVuSans-32" class="st7" d="M118.9,8.3h34.4V0H107v8.3c3.7,3.9,8.8,9.1,15.3,15.6c6.5,6.5,10.5,10.7,12.2,12.6
								c3.2,3.5,5.4,6.5,6.6,9c1.3,2.5,1.9,4.9,1.9,7.2c0,3.9-1.4,7-4.1,9.5c-2.7,2.4-6.3,3.7-10.6,3.7c-3.1,0-6.4-0.5-9.8-1.6
								c-3.4-1.1-7.1-2.7-11-4.9v10c4,1.6,7.7,2.8,11.1,3.6c3.5,0.8,6.6,1.2,9.5,1.2c7.6,0,13.6-1.9,18.1-5.7
								c4.5-3.8,6.7-8.8,6.7-15.1c0-3-0.6-5.8-1.7-8.5c-1.1-2.7-3.2-5.8-6.1-9.5c-0.8-0.9-3.4-3.7-7.8-8.2
								C133,22.7,126.8,16.4,118.9,8.3z"/>
						</g>
						<g>
							<path id="DejaVuSans-20_00000051378974151747901060000006984439111911747977_" class="st7" d="M163.3,0"/>
						</g>
						<g>
							<path id="DejaVuSans-79_00000124131745107342268730000000726821008937150598_" class="st7" d="M227.3-5.1
								c-2.5-6.5-5-10.8-7.4-12.7c-2.4-2-5.6-3-9.7-3H203v7.5h5.3c2.5,0,4.4,0.6,5.8,1.8c1.4,1.2,2.9,3.9,4.5,8.3l1.6,4.1
								l-22.1,53.8h9.5l17.1-42.8l17.1,42.8h9.5L227.3-5.1z"/>
						</g>
						<g>
							<path id="DejaVuSans-65_00000137113809756803421070000017780860815346122416_" class="st7" d="M310.5,29.6v-4.4h-41.3
								c0.4-6.2,2.3-10.9,5.6-14.1c3.3-3.2,8-4.9,13.9-4.9c3.4,0,6.8,0.4,10,1.3c3.2,0.8,6.5,2.1,9.7,3.8V2.8
								c-3.2-1.4-6.5-2.4-9.9-3.1c-3.4-0.7-6.8-1.1-10.3-1.1c-8.7,0-15.6,2.5-20.7,7.6c-5.1,5.1-7.6,12-7.6,20.6
								c0,8.9,2.4,16,7.2,21.3c4.8,5.3,11.4,7.9,19.6,7.9c7.4,0,13.2-2.4,17.5-7.1C308.4,44.2,310.5,37.7,310.5,29.6z M301.5,32.2
								c-0.1,4.9-1.4,8.8-4.1,11.8c-2.7,2.9-6.2,4.4-10.7,4.4c-5,0-9-1.4-12-4.2c-3-2.8-4.7-6.8-5.2-12L301.5,32.2z"/>
						</g>
						<g>
							<path id="DejaVuSans-61_00000059273652084262811110000003300154589233374121_" class="st7" d="M350.1,27.5
								c-7.3,0-12.3-0.8-15.1-2.5c-2.8-1.7-4.2-4.5-4.2-8.5c0-3.2,1.1-5.7,3.2-7.6c2.1-1.9,5-2.8,8.6-2.8c5,0,9,1.8,12,5.3
								c3,3.5,4.5,8.2,4.5,14.1v2H350.1z M368,31.2V0h-9v8.3C357,5,354.4,2.5,351.4,1s-6.8-2.4-11.2-2.4c-5.6,0-10,1.6-13.4,4.7
								c-3.3,3.1-5,7.4-5,12.6c0,6.1,2.1,10.8,6.2,13.9c4.1,3.1,10.3,4.7,18.4,4.7H359v0.9c0,4.1-1.4,7.3-4.1,9.6s-6.5,3.4-11.5,3.4
								c-3.1,0-6.2-0.4-9.1-1.1c-3-0.8-5.8-1.9-8.5-3.4v8.3c3.3,1.3,6.5,2.2,9.6,2.8c3.1,0.6,6.1,1,9,1c7.9,0,13.8-2.1,17.7-6.2
								C366.1,45.8,368,39.5,368,31.2z"/>
						</g>
						<g>
							<path id="DejaVuSans-72_00000057127680933197319250000010514477409939294124_" class="st7" d="M418.2,46.3
								c-1,0.6-2.1,1-3.3,1.3c-1.2,0.3-2.5,0.4-3.9,0.4c-5.1,0-9-1.7-11.7-5s-4.1-8-4.1-14.2V0h-9v54.7h9v-8.5
								c1.9,3.3,4.4,5.8,7.4,7.4c3,1.6,6.7,2.4,11,2.4c0.6,0,1.3,0,2-0.1c0.8-0.1,1.6-0.2,2.5-0.4L418.2,46.3z"/>
						</g>
						<g>
							<path id="DejaVuSans-73_00000101803930974459456930000017965901925177484461_" class="st7" d="M462.5,53.1v-8.5
								c-2.5,1.3-5.2,2.3-7.9,2.9c-2.7,0.7-5.6,1-8.5,1c-4.5,0-7.8-0.7-10-2c-2.2-1.4-3.3-3.4-3.3-6.2c0-2.1,0.8-3.7,2.4-4.9
								s4.8-2.3,9.6-3.4l3.1-0.7c6.4-1.4,10.9-3.3,13.6-5.8s4-6,4-10.4c0-5.1-2-9.1-6-12.1c-4-3-9.5-4.4-16.6-4.4
								c-2.9,0-6,0.3-9.2,0.9c-3.2,0.6-6.5,1.4-10,2.6v9.3c3.3-1.7,6.6-3,9.8-3.9c3.2-0.9,6.4-1.3,9.6-1.3c4.2,0,7.5,0.7,9.8,2.2
								c2.3,1.4,3.4,3.5,3.4,6.1c0,2.4-0.8,4.3-2.5,5.6c-1.6,1.3-5.2,2.6-10.8,3.8l-3.1,0.7c-5.6,1.2-9.6,3-12.1,5.4
								c-2.5,2.4-3.7,5.8-3.7,10c0,5.1,1.8,9.1,5.5,11.9c3.6,2.8,8.8,4.2,15.5,4.2c3.3,0,6.4-0.2,9.4-0.7
								C457.3,54.8,460,54.1,462.5,53.1z"/>
						</g>
					</g>
				</g>
			</g>
			<g id="xtick_3">
				<g id="line2d_3">
					<g>
						<g>
							<path id="macf40f43e1_00000023971371791403840000000009868093185631320973_" class="st6" d="M367.2,168.7"/>
						</g>
					</g>
				</g>
				<g id="text_3">
					<g transform="translate(320.16875 202.395982)scale(0.2 -0.2)">
						<g>
							<path id="DejaVuSans-33" class="st7" d="M40.6,39.3c4.7-1,8.4-3.1,11-6.3c2.7-3.2,4-7.1,4-11.8c0-7.2-2.5-12.8-7.4-16.7
								c-4.9-3.9-12-5.9-21.1-5.9c-3.1,0-6.2,0.3-9.4,0.9S11.1,1,7.6,2.2v9.5c2.7-1.6,5.7-2.8,9-3.6c3.3-0.8,6.7-1.2,10.2-1.2
								c6.2,0,10.9,1.2,14.1,3.7s4.9,6,4.9,10.6c0,4.3-1.5,7.7-4.5,10.1c-3,2.4-7.2,3.6-12.6,3.6h-8.5V43h8.9c4.8,0,8.6,1,11.1,2.9
								s3.9,4.7,3.9,8.4c0,3.7-1.3,6.6-4,8.6c-2.6,2-6.4,3-11.4,3c-2.7,0-5.6-0.3-8.7-0.9c-3.1-0.6-6.5-1.5-10.2-2.7v8.8
								c3.8,1,7.3,1.8,10.5,2.3s6.4,0.8,9.2,0.8c7.5,0,13.4-1.7,17.8-5.1c4.4-3.4,6.5-8,6.5-13.8c0-4-1.2-7.5-3.5-10.2
								S44.8,40.4,40.6,39.3z"/>
						</g>
						<g>
							<path id="DejaVuSans-2d_00000070830221170044476950000008508783009562504117_" class="st7" d="M68.5,31.4h26.3v-8H68.5V31.4z
								"/>
						</g>
						<g>
							<path id="DejaVuSans-35" class="st7" d="M110.5,72.9h38.7v-8.3h-29.7V46.7c1.4,0.5,2.9,0.9,4.3,1.1c1.4,0.2,2.9,0.4,4.3,0.4
								c8.1,0,14.6-2.2,19.3-6.7c4.8-4.5,7.1-10.5,7.1-18.1c0-7.8-2.4-13.9-7.3-18.3c-4.9-4.3-11.8-6.5-20.7-6.5
								c-3.1,0-6.2,0.3-9.4,0.8c-3.2,0.5-6.4,1.3-9.8,2.3v9.9c2.9-1.6,6-2.8,9.1-3.6s6.4-1.2,9.9-1.2c5.6,0,10.1,1.5,13.4,4.4
								c3.3,3,4.9,7,4.9,12.1c0,5.1-1.6,9.1-4.9,12c-3.3,3-7.7,4.5-13.4,4.5c-2.6,0-5.3-0.3-7.9-0.9c-2.6-0.6-5.3-1.5-8-2.7V72.9z"
								/>
						</g>
						<g>
							<path id="DejaVuSans-20_00000095336935700425826680000002541731092275035528_" class="st7" d="M163.3,0"/>
						</g>
						<g>
							<path id="DejaVuSans-79_00000138531934185809774830000000049845492787711147_" class="st7" d="M227.3-5.1
								c-2.5-6.5-5-10.8-7.4-12.7c-2.4-2-5.6-3-9.7-3H203v7.5h5.3c2.5,0,4.4,0.6,5.8,1.8c1.4,1.2,2.9,3.9,4.5,8.3l1.6,4.1
								l-22.1,53.8h9.5l17.1-42.8l17.1,42.8h9.5L227.3-5.1z"/>
						</g>
						<g>
							<path id="DejaVuSans-65_00000166647100852774979870000005023757772044156557_" class="st7" d="M310.5,29.6v-4.4h-41.3
								c0.4-6.2,2.3-10.9,5.6-14.1s8-4.9,13.9-4.9c3.4,0,6.8,0.4,10,1.3c3.2,0.8,6.5,2.1,9.7,3.8V2.8c-3.2-1.4-6.5-2.4-9.9-3.1
								c-3.4-0.7-6.8-1.1-10.3-1.1c-8.7,0-15.6,2.5-20.7,7.6c-5.1,5.1-7.6,12-7.6,20.6c0,8.9,2.4,16,7.2,21.3
								c4.8,5.3,11.4,7.9,19.6,7.9c7.4,0,13.2-2.4,17.5-7.1C308.4,44.2,310.5,37.7,310.5,29.6z M301.5,32.2
								c-0.1,4.9-1.4,8.8-4.1,11.8c-2.7,2.9-6.2,4.4-10.7,4.4c-5,0-9-1.4-12-4.2s-4.7-6.8-5.2-12L301.5,32.2z"/>
						</g>
						<g>
							<path id="DejaVuSans-61_00000147210126427242413490000011139219056045972914_" class="st7" d="M350.1,27.5
								c-7.3,0-12.3-0.8-15.1-2.5c-2.8-1.7-4.2-4.5-4.2-8.5c0-3.2,1.1-5.7,3.2-7.6c2.1-1.9,5-2.8,8.6-2.8c5,0,9,1.8,12,5.3
								c3,3.5,4.5,8.2,4.5,14.1v2H350.1z M368,31.2V0h-9v8.3C357,5,354.4,2.5,351.4,1s-6.8-2.4-11.2-2.4c-5.6,0-10,1.6-13.4,4.7
								c-3.3,3.1-5,7.4-5,12.6c0,6.1,2.1,10.8,6.2,13.9c4.1,3.1,10.3,4.7,18.4,4.7H359v0.9c0,4.1-1.4,7.3-4.1,9.6s-6.5,3.4-11.5,3.4
								c-3.1,0-6.2-0.4-9.1-1.1c-3-0.8-5.8-1.9-8.5-3.4v8.3c3.3,1.3,6.5,2.2,9.6,2.8c3.1,0.6,6.1,1,9,1c7.9,0,13.8-2.1,17.7-6.2
								C366.1,45.8,368,39.5,368,31.2z"/>
						</g>
						<g>
							<path id="DejaVuSans-72_00000076586105882765908410000013839801967440625801_" class="st7" d="M418.2,46.3
								c-1,0.6-2.1,1-3.3,1.3c-1.2,0.3-2.5,0.4-3.9,0.4c-5.1,0-9-1.7-11.7-5s-4.1-8-4.1-14.2V0h-9v54.7h9v-8.5
								c1.9,3.3,4.4,5.8,7.4,7.4c3,1.6,6.7,2.4,11,2.4c0.6,0,1.3,0,2-0.1c0.8-0.1,1.6-0.2,2.5-0.4L418.2,46.3z"/>
						</g>
						<g>
							<path id="DejaVuSans-73_00000135689826875194171100000016999249213470728608_" class="st7" d="M462.5,53.1v-8.5
								c-2.5,1.3-5.2,2.3-7.9,2.9c-2.7,0.7-5.6,1-8.5,1c-4.5,0-7.8-0.7-10-2c-2.2-1.4-3.3-3.4-3.3-6.2c0-2.1,0.8-3.7,2.4-4.9
								s4.8-2.3,9.6-3.4l3.1-0.7c6.4-1.4,10.9-3.3,13.6-5.8s4-6,4-10.4c0-5.1-2-9.1-6-12.1c-4-3-9.5-4.4-16.6-4.4
								c-2.9,0-6,0.3-9.2,0.9c-3.2,0.6-6.5,1.4-10,2.6v9.3c3.3-1.7,6.6-3,9.8-3.9c3.2-0.9,6.4-1.3,9.6-1.3c4.2,0,7.5,0.7,9.8,2.2
								c2.3,1.4,3.4,3.5,3.4,6.1c0,2.4-0.8,4.3-2.5,5.6c-1.6,1.3-5.2,2.6-10.8,3.8l-3.1,0.7c-5.6,1.2-9.6,3-12.1,5.4
								c-2.5,2.4-3.7,5.8-3.7,10c0,5.1,1.8,9.1,5.5,11.9c3.6,2.8,8.8,4.2,15.5,4.2c3.3,0,6.4-0.2,9.4-0.7
								C457.3,54.8,460,54.1,462.5,53.1z"/>
						</g>
					</g>
				</g>
			</g>
			<g id="xtick_4">
				<g id="line2d_4">
					<g>
						<g>
							<path id="macf40f43e1_00000065784815278730370660000018260383333009829535_" class="st6" d="M509.5,168.7"/>
						</g>
					</g>
				</g>
				<g id="text_4">
					<g transform="translate(456.09874 202.395982)scale(0.2 -0.2)">
						<g>
							<path id="DejaVuSans-35_00000174586652314883984240000000693109940815317433_" class="st7" d="M10.8,72.9h38.7v-8.3H19.8
								V46.7c1.4,0.5,2.9,0.9,4.3,1.1c1.4,0.2,2.9,0.4,4.3,0.4c8.1,0,14.6-2.2,19.3-6.7c4.8-4.5,7.1-10.5,7.1-18.1
								c0-7.8-2.4-13.9-7.3-18.3c-4.9-4.3-11.8-6.5-20.7-6.5c-3.1,0-6.2,0.3-9.4,0.8c-3.2,0.5-6.4,1.3-9.8,2.3v9.9
								c2.9-1.6,6-2.8,9.1-3.6s6.4-1.2,9.9-1.2c5.6,0,10.1,1.5,13.4,4.4c3.3,3,4.9,7,4.9,12.1c0,5.1-1.6,9.1-4.9,12
								c-3.3,3-7.7,4.5-13.4,4.5c-2.6,0-5.3-0.3-7.9-0.9c-2.6-0.6-5.3-1.5-8-2.7V72.9z"/>
						</g>
						<g>
							<path id="DejaVuSans-2d_00000039101226735062651230000002904327688687286915_" class="st7" d="M68.5,31.4h26.3v-8H68.5V31.4z
								"/>
						</g>
						<g>
							<path id="DejaVuSans-31_00000166652766790754106740000007878724778246293902_" class="st7" d="M112.1,8.3h16.1v55.6
								l-17.5-3.5v9l17.4,3.5h9.9V8.3h16.1V0h-42V8.3z"/>
						</g>
						<g>
							<path id="DejaVuSans-30" class="st7" d="M195.1,66.4c-5.1,0-8.9-2.5-11.5-7.5c-2.6-5-3.8-12.5-3.8-22.5
								c0-10,1.3-17.5,3.8-22.5c2.6-5,6.4-7.5,11.5-7.5c5.1,0,8.9,2.5,11.5,7.5c2.6,5,3.8,12.5,3.8,22.5c0,10-1.3,17.5-3.8,22.5
								C204.1,63.9,200.2,66.4,195.1,66.4z M195.1,74.2c8.2,0,14.4-3.2,18.7-9.7c4.3-6.5,6.5-15.8,6.5-28.1
								c0-12.3-2.2-21.6-6.5-28.1c-4.3-6.5-10.6-9.7-18.7-9.7c-8.2,0-14.4,3.2-18.7,9.7c-4.3,6.5-6.5,15.8-6.5,28.1
								c0,12.3,2.2,21.7,6.5,28.1C180.7,71,186.9,74.2,195.1,74.2z"/>
						</g>
						<g>
							<path id="DejaVuSans-20_00000018208310249851595230000017436947037314303134_" class="st7" d="M227,0"/>
						</g>
						<g>
							<path id="DejaVuSans-79_00000171693982491373017490000008200594315438483598_" class="st7" d="M290.9-5.1
								c-2.5-6.5-5-10.8-7.4-12.7c-2.4-2-5.6-3-9.7-3h-7.2v7.5h5.3c2.5,0,4.4,0.6,5.8,1.8c1.4,1.2,2.9,3.9,4.5,8.3l1.6,4.1
								l-22.1,53.8h9.5l17.1-42.8l17.1,42.8h9.5L290.9-5.1z"/>
						</g>
						<g>
							<path id="DejaVuSans-65_00000084529614378991604670000008933100933987222193_" class="st7" d="M374.1,29.6v-4.4h-41.3
								c0.4-6.2,2.3-10.9,5.6-14.1s8-4.9,13.9-4.9c3.4,0,6.8,0.4,10,1.3c3.2,0.8,6.5,2.1,9.7,3.8V2.8c-3.2-1.4-6.5-2.4-9.9-3.1
								c-3.4-0.7-6.8-1.1-10.3-1.1c-8.7,0-15.6,2.5-20.7,7.6c-5.1,5.1-7.6,12-7.6,20.6c0,8.9,2.4,16,7.2,21.3
								c4.8,5.3,11.4,7.9,19.6,7.9c7.4,0,13.2-2.4,17.5-7.1C372,44.2,374.1,37.7,374.1,29.6z M365.1,32.2c-0.1,4.9-1.4,8.8-4.1,11.8
								c-2.7,2.9-6.2,4.4-10.7,4.4c-5,0-9-1.4-12-4.2s-4.7-6.8-5.2-12L365.1,32.2z"/>
						</g>
						<g>
							<path id="DejaVuSans-61_00000055672692297511611800000016624300663611323017_" class="st7" d="M413.7,27.5
								c-7.3,0-12.3-0.8-15.1-2.5s-4.2-4.5-4.2-8.5c0-3.2,1.1-5.7,3.2-7.6c2.1-1.9,5-2.8,8.6-2.8c5,0,9,1.8,12,5.3
								c3,3.5,4.5,8.2,4.5,14.1v2H413.7z M431.6,31.2V0h-9v8.3C420.6,5,418.1,2.5,415,1s-6.8-2.4-11.2-2.4c-5.6,0-10,1.6-13.4,4.7
								c-3.3,3.1-5,7.4-5,12.6c0,6.1,2.1,10.8,6.2,13.9c4.1,3.1,10.3,4.7,18.4,4.7h12.6v0.9c0,4.1-1.4,7.3-4.1,9.6
								s-6.5,3.4-11.5,3.4c-3.1,0-6.2-0.4-9.1-1.1c-3-0.8-5.8-1.9-8.5-3.4v8.3c3.3,1.3,6.5,2.2,9.6,2.8c3.1,0.6,6.1,1,9,1
								c7.9,0,13.8-2.1,17.7-6.2C429.7,45.8,431.6,39.5,431.6,31.2z"/>
						</g>
						<g>
							<path id="DejaVuSans-72_00000024696924628778421870000010869787284440549808_" class="st7" d="M481.8,46.3
								c-1,0.6-2.1,1-3.3,1.3c-1.2,0.3-2.5,0.4-3.9,0.4c-5.1,0-9-1.7-11.7-5s-4.1-8-4.1-14.2V0h-9v54.7h9v-8.5
								c1.9,3.3,4.4,5.8,7.4,7.4c3,1.6,6.7,2.4,11,2.4c0.6,0,1.3,0,2-0.1c0.8-0.1,1.6-0.2,2.5-0.4L481.8,46.3z"/>
						</g>
						<g>
							<path id="DejaVuSans-73_00000063601070273008668710000009938985359981644197_" class="st7" d="M526.1,53.1v-8.5
								c-2.5,1.3-5.2,2.3-7.9,2.9c-2.7,0.7-5.6,1-8.5,1c-4.5,0-7.8-0.7-10-2c-2.2-1.4-3.3-3.4-3.3-6.2c0-2.1,0.8-3.7,2.4-4.9
								s4.8-2.3,9.6-3.4l3.1-0.7c6.4-1.4,10.9-3.3,13.6-5.8s4-6,4-10.4c0-5.1-2-9.1-6-12.1c-4-3-9.5-4.4-16.6-4.4
								c-2.9,0-6,0.3-9.2,0.9c-3.2,0.6-6.5,1.4-10,2.6v9.3c3.3-1.7,6.6-3,9.8-3.9c3.2-0.9,6.4-1.3,9.6-1.3c4.2,0,7.5,0.7,9.8,2.2
								c2.3,1.4,3.4,3.5,3.4,6.1c0,2.4-0.8,4.3-2.5,5.6c-1.6,1.3-5.2,2.6-10.8,3.8l-3.1,0.7c-5.6,1.2-9.6,3-12.1,5.4
								c-2.5,2.4-3.7,5.8-3.7,10c0,5.1,1.8,9.1,5.5,11.9c3.6,2.8,8.8,4.2,15.5,4.2c3.3,0,6.4-0.2,9.4-0.7
								C520.9,54.8,523.6,54.1,526.1,53.1z"/>
						</g>
					</g>
				</g>
			</g>
			<g id="xtick_5">
				<g id="line2d_5">
					<g>
						<g>
							<path id="macf40f43e1_00000008121068460226251800000008334199815576260739_" class="st6" d="M651.8,168.7"/>
						</g>
					</g>
				</g>
				<g id="text_5">
					<g transform="translate(599.981855 202.395982)scale(0.2 -0.2)">
						<g>
							<path id="DejaVuSans-31_00000003812163026701706670000000371225100598492093_" class="st7" d="M12.4,8.3h16.1v55.6L11,60.4v9
								l17.4,3.5h9.9V8.3h16.1V0h-42V8.3z"/>
						</g>
						<g>
							<path id="DejaVuSans-30_00000179639836883857900940000008392240005756408966_" class="st7" d="M95.4,66.4
								c-5.1,0-8.9-2.5-11.5-7.5c-2.6-5-3.8-12.5-3.8-22.5c0-10,1.3-17.5,3.8-22.5c2.6-5,6.4-7.5,11.5-7.5c5.1,0,8.9,2.5,11.5,7.5
								c2.6,5,3.8,12.5,3.8,22.5c0,10-1.3,17.5-3.8,22.5C104.4,63.9,100.5,66.4,95.4,66.4z M95.4,74.2c8.2,0,14.4-3.2,18.7-9.7
								c4.3-6.5,6.5-15.8,6.5-28.1c0-12.3-2.2-21.6-6.5-28.1c-4.3-6.5-10.6-9.7-18.7-9.7c-8.2,0-14.4,3.2-18.7,9.7
								c-4.3,6.5-6.5,15.8-6.5,28.1c0,12.3,2.2,21.7,6.5,28.1C81,71,87.2,74.2,95.4,74.2z"/>
						</g>
						<g>
							<path id="DejaVuSans-2b" class="st7" d="M173.2,62.7V35.5h27.2v-8.3h-27.2V0H165v27.2h-27.2v8.3H165v27.2H173.2z"/>
						</g>
						<g>
							<path id="DejaVuSans-20_00000018204505167628084350000012359189848705175987_" class="st7" d="M211,0"/>
						</g>
						<g>
							<path id="DejaVuSans-79_00000118375362151406712350000011984583880146092929_" class="st7" d="M275-5.1
								c-2.5-6.5-5-10.8-7.4-12.7c-2.4-2-5.6-3-9.7-3h-7.2v7.5h5.3c2.5,0,4.4,0.6,5.8,1.8c1.4,1.2,2.9,3.9,4.5,8.3l1.6,4.1
								l-22.1,53.8h9.5l17.1-42.8l17.1,42.8h9.5L275-5.1z"/>
						</g>
						<g>
							<path id="DejaVuSans-65_00000013888492669063628160000003569481343944100000_" class="st7" d="M358.2,29.6v-4.4h-41.3
								c0.4-6.2,2.3-10.9,5.6-14.1s8-4.9,13.9-4.9c3.4,0,6.8,0.4,10,1.3s6.5,2.1,9.7,3.8V2.8c-3.2-1.4-6.5-2.4-9.9-3.1
								s-6.8-1.1-10.3-1.1c-8.7,0-15.6,2.5-20.7,7.6c-5.1,5.1-7.6,12-7.6,20.6c0,8.9,2.4,16,7.2,21.3c4.8,5.3,11.4,7.9,19.6,7.9
								c7.4,0,13.2-2.4,17.5-7.1C356.1,44.2,358.2,37.7,358.2,29.6z M349.2,32.2c-0.1,4.9-1.4,8.8-4.1,11.8
								c-2.7,2.9-6.2,4.4-10.7,4.4c-5,0-9-1.4-12-4.2s-4.7-6.8-5.2-12L349.2,32.2z"/>
						</g>
						<g>
							<path id="DejaVuSans-61_00000134964455360544472910000009889823901417256372_" class="st7" d="M397.8,27.5
								c-7.3,0-12.3-0.8-15.1-2.5s-4.2-4.5-4.2-8.5c0-3.2,1.1-5.7,3.2-7.6c2.1-1.9,5-2.8,8.6-2.8c5,0,9,1.8,12,5.3
								c3,3.5,4.5,8.2,4.5,14.1v2H397.8z M415.7,31.2V0h-9v8.3c-2.1-3.3-4.6-5.8-7.7-7.3s-6.8-2.4-11.2-2.4c-5.6,0-10,1.6-13.4,4.7
								c-3.3,3.1-5,7.4-5,12.6c0,6.1,2.1,10.8,6.2,13.9c4.1,3.1,10.3,4.7,18.4,4.7h12.6v0.9c0,4.1-1.4,7.3-4.1,9.6
								s-6.5,3.4-11.5,3.4c-3.1,0-6.2-0.4-9.1-1.1c-3-0.8-5.8-1.9-8.5-3.4v8.3c3.3,1.3,6.5,2.2,9.6,2.8c3.1,0.6,6.1,1,9,1
								c7.9,0,13.8-2.1,17.7-6.2C413.8,45.8,415.7,39.5,415.7,31.2z"/>
						</g>
						<g>
							<path id="DejaVuSans-72_00000134971440349070775180000012911996110575685024_" class="st7" d="M465.9,46.3
								c-1,0.6-2.1,1-3.3,1.3c-1.2,0.3-2.5,0.4-3.9,0.4c-5.1,0-9-1.7-11.7-5s-4.1-8-4.1-14.2V0h-9v54.7h9v-8.5
								c1.9,3.3,4.4,5.8,7.4,7.4c3,1.6,6.7,2.4,11,2.4c0.6,0,1.3,0,2-0.1c0.8-0.1,1.6-0.2,2.5-0.4L465.9,46.3z"/>
						</g>
						<g>
							<path id="DejaVuSans-73_00000045602489129737915300000013152103852818336415_" class="st7" d="M510.2,53.1v-8.5
								c-2.5,1.3-5.2,2.3-7.9,2.9c-2.7,0.7-5.6,1-8.5,1c-4.5,0-7.8-0.7-10-2s-3.3-3.4-3.3-6.2c0-2.1,0.8-3.7,2.4-4.9
								s4.8-2.3,9.6-3.4l3.1-0.7c6.4-1.4,10.9-3.3,13.6-5.8s4-6,4-10.4c0-5.1-2-9.1-6-12.1c-4-3-9.5-4.4-16.6-4.4
								c-2.9,0-6,0.3-9.2,0.9c-3.2,0.6-6.5,1.4-10,2.6v9.3c3.3-1.7,6.6-3,9.8-3.9c3.2-0.9,6.4-1.3,9.6-1.3c4.2,0,7.5,0.7,9.8,2.2
								c2.3,1.4,3.4,3.5,3.4,6.1c0,2.4-0.8,4.3-2.5,5.6c-1.6,1.3-5.2,2.6-10.8,3.8l-3.1,0.7c-5.6,1.2-9.6,3-12.1,5.4
								c-2.5,2.4-3.7,5.8-3.7,10c0,5.1,1.8,9.1,5.5,11.9c3.6,2.8,8.8,4.2,15.5,4.2c3.3,0,6.4-0.2,9.4-0.7
								C505,54.8,507.7,54.1,510.2,53.1z"/>
						</g>
					</g>
				</g>
			</g>
		</g>
		<g id="text_6">
			<g transform="translate(60.388457 106.452175)scale(0.2 -0.2)">
				<g>
					<path id="DejaVuSans-31_00000045621177689649883450000006061398280181800381_" class="st7" d="M12.4,8.3h16.1v55.6L11,60.4v9
						l17.4,3.5h9.9V8.3h16.1V0h-42V8.3z"/>
				</g>
				<g>
					<path id="DejaVuSans-32_00000037680356927920162590000000380281557643793339_" class="st7" d="M82.8,8.3h34.4V0H71v8.3
						c3.7,3.9,8.8,9.1,15.3,15.6c6.5,6.5,10.5,10.7,12.2,12.6c3.2,3.5,5.4,6.5,6.6,9c1.3,2.5,1.9,4.9,1.9,7.2c0,3.9-1.4,7-4.1,9.5
						c-2.7,2.4-6.3,3.7-10.6,3.7c-3.1,0-6.4-0.5-9.8-1.6c-3.4-1.1-7.1-2.7-11-4.9v10c4,1.6,7.7,2.8,11.1,3.6
						c3.5,0.8,6.6,1.2,9.5,1.2c7.6,0,13.6-1.9,18.1-5.7c4.5-3.8,6.7-8.8,6.7-15.1c0-3-0.6-5.8-1.7-8.5c-1.1-2.7-3.2-5.8-6.1-9.5
						c-0.8-0.9-3.4-3.7-7.8-8.2C96.9,22.7,90.8,16.4,82.8,8.3z"/>
				</g>
				<g>
					<path id="DejaVuSans-25" class="st7" d="M199.9,32.1c-2.8,0-5.1-1.2-6.7-3.6c-1.6-2.4-2.4-5.8-2.4-10.1c0-4.2,0.8-7.6,2.4-10
						c1.6-2.4,3.8-3.6,6.7-3.6c2.8,0,5,1.2,6.6,3.6c1.6,2.4,2.4,5.8,2.4,10c0,4.3-0.8,7.6-2.4,10C204.9,30.9,202.7,32.1,199.9,32.1z
						 M199.9,38.3c5.1,0,9.2-1.8,12.2-5.4c3-3.6,4.5-8.4,4.5-14.5c0-6.1-1.5-10.9-4.6-14.5c-3-3.6-7.1-5.3-12.2-5.3
						c-5.2,0-9.3,1.8-12.4,5.3c-3,3.6-4.5,8.4-4.5,14.5c0,6.1,1.5,11,4.6,14.5C190.7,36.5,194.8,38.3,199.9,38.3z M149.6,68
						c-2.8,0-5-1.2-6.6-3.6c-1.6-2.4-2.4-5.7-2.4-10c0-4.3,0.8-7.6,2.4-10.1c1.6-2.4,3.8-3.6,6.6-3.6c2.8,0,5.1,1.2,6.7,3.6
						c1.6,2.4,2.4,5.8,2.4,10.1c0,4.2-0.8,7.5-2.4,10C154.6,66.8,152.4,68,149.6,68z M193.7,74.2h7.8L155.9-1.4H148L193.7,74.2z
						 M149.6,74.2c5.1,0,9.2-1.8,12.3-5.3c3.1-3.6,4.6-8.4,4.6-14.5c0-6.1-1.5-11-4.6-14.5c-3-3.6-7.2-5.3-12.3-5.3
						c-5.2,0-9.3,1.8-12.3,5.3c-3,3.6-4.5,8.4-4.5,14.5c0,6.1,1.5,10.9,4.5,14.5C140.3,72.4,144.4,74.2,149.6,74.2z"/>
				</g>
			</g>
		</g>
		<g id="text_7">
			<g transform="translate(202.680947 84.332359)scale(0.2 -0.2)">
				<g>
					<path id="DejaVuSans-31_00000177455756210071052230000003809400289666747582_" class="st7" d="M12.4,8.3h16.1v55.6L11,60.4v9
						l17.4,3.5h9.9V8.3h16.1V0h-42V8.3z"/>
				</g>
				<g>
					<path id="DejaVuSans-37" class="st7" d="M71.8,72.9h46.9v-4.2L92.2,0H81.9l24.9,64.6h-35V72.9z"/>
				</g>
				<g>
					<path id="DejaVuSans-25_00000001656311654252082840000004590261684633476757_" class="st7" d="M199.9,32.1
						c-2.8,0-5.1-1.2-6.7-3.6c-1.6-2.4-2.4-5.8-2.4-10.1c0-4.2,0.8-7.6,2.4-10c1.6-2.4,3.8-3.6,6.7-3.6c2.8,0,5,1.2,6.6,3.6
						c1.6,2.4,2.4,5.8,2.4,10c0,4.3-0.8,7.6-2.4,10C204.9,30.9,202.7,32.1,199.9,32.1z M199.9,38.3c5.1,0,9.2-1.8,12.2-5.4
						c3-3.6,4.5-8.4,4.5-14.5c0-6.1-1.5-10.9-4.6-14.5c-3-3.6-7.1-5.3-12.2-5.3c-5.2,0-9.3,1.8-12.4,5.3c-3,3.6-4.5,8.4-4.5,14.5
						c0,6.1,1.5,11,4.6,14.5S194.8,38.3,199.9,38.3z M149.6,68c-2.8,0-5-1.2-6.6-3.6c-1.6-2.4-2.4-5.7-2.4-10
						c0-4.3,0.8-7.6,2.4-10.1c1.6-2.4,3.8-3.6,6.6-3.6c2.8,0,5.1,1.2,6.7,3.6c1.6,2.4,2.4,5.8,2.4,10.1c0,4.2-0.8,7.5-2.4,10
						C154.6,66.8,152.4,68,149.6,68z M193.7,74.2h7.8L155.9-1.4H148L193.7,74.2z M149.6,74.2c5.1,0,9.2-1.8,12.3-5.3
						c3.1-3.6,4.6-8.4,4.6-14.5c0-6.1-1.5-11-4.6-14.5c-3-3.6-7.2-5.3-12.3-5.3c-5.2,0-9.3,1.8-12.3,5.3c-3,3.6-4.5,8.4-4.5,14.5
						c0,6.1,1.5,10.9,4.5,14.5C140.3,72.4,144.4,74.2,149.6,74.2z"/>
				</g>
			</g>
		</g>
		<g id="text_8">
			<g transform="translate(344.973438 22.396875)scale(0.2 -0.2)">
				<g>
					<path id="DejaVuSans-33_00000045583736263240467790000000536082574660313782_" class="st7" d="M40.6,39.3c4.7-1,8.4-3.1,11-6.3
						c2.7-3.2,4-7.1,4-11.8c0-7.2-2.5-12.8-7.4-16.7c-4.9-3.9-12-5.9-21.1-5.9c-3.1,0-6.2,0.3-9.4,0.9S11.1,1,7.6,2.2v9.5
						c2.7-1.6,5.7-2.8,9-3.6c3.3-0.8,6.7-1.2,10.2-1.2c6.2,0,10.9,1.2,14.1,3.7s4.9,6,4.9,10.6c0,4.3-1.5,7.7-4.5,10.1
						c-3,2.4-7.2,3.6-12.6,3.6h-8.5V43h8.9c4.8,0,8.6,1,11.1,2.9s3.9,4.7,3.9,8.4c0,3.7-1.3,6.6-4,8.6c-2.6,2-6.4,3-11.4,3
						c-2.7,0-5.6-0.3-8.7-0.9c-3.1-0.6-6.5-1.5-10.2-2.7v8.8c3.8,1,7.3,1.8,10.5,2.3s6.4,0.8,9.2,0.8c7.5,0,13.4-1.7,17.8-5.1
						c4.4-3.4,6.5-8,6.5-13.8c0-4-1.2-7.5-3.5-10.2S44.8,40.4,40.6,39.3z"/>
				</g>
				<g>
					<path id="DejaVuSans-31_00000109714465277068612960000010579044288364445602_" class="st7" d="M76,8.3h16.1v55.6l-17.5-3.5v9
						L92,72.9h9.9V8.3H118V0H76V8.3z"/>
				</g>
				<g>
					<path id="DejaVuSans-25_00000151514544800769831490000018025630192056623010_" class="st7" d="M199.9,32.1
						c-2.8,0-5.1-1.2-6.7-3.6c-1.6-2.4-2.4-5.8-2.4-10.1c0-4.2,0.8-7.6,2.4-10c1.6-2.4,3.8-3.6,6.7-3.6c2.8,0,5,1.2,6.6,3.6
						c1.6,2.4,2.4,5.8,2.4,10c0,4.3-0.8,7.6-2.4,10C204.9,30.9,202.7,32.1,199.9,32.1z M199.9,38.3c5.1,0,9.2-1.8,12.2-5.4
						c3-3.6,4.5-8.4,4.5-14.5c0-6.1-1.5-10.9-4.6-14.5c-3-3.6-7.1-5.3-12.2-5.3c-5.2,0-9.3,1.8-12.4,5.3c-3,3.6-4.5,8.4-4.5,14.5
						c0,6.1,1.5,11,4.6,14.5S194.8,38.3,199.9,38.3z M149.6,68c-2.8,0-5-1.2-6.6-3.6c-1.6-2.4-2.4-5.7-2.4-10
						c0-4.3,0.8-7.6,2.4-10.1c1.6-2.4,3.8-3.6,6.6-3.6s5.1,1.2,6.7,3.6c1.6,2.4,2.4,5.8,2.4,10.1c0,4.2-0.8,7.5-2.4,10
						C154.6,66.8,152.4,68,149.6,68z M193.7,74.2h7.8L155.9-1.4H148L193.7,74.2z M149.6,74.2c5.1,0,9.2-1.8,12.3-5.3
						c3.1-3.6,4.6-8.4,4.6-14.5c0-6.1-1.5-11-4.6-14.5s-7.2-5.3-12.3-5.3s-9.3,1.8-12.3,5.3c-3,3.6-4.5,8.4-4.5,14.5
						c0,6.1,1.5,10.9,4.5,14.5C140.3,72.4,144.4,74.2,149.6,74.2z"/>
				</g>
			</g>
		</g>
		<g id="text_9">
			<g transform="translate(487.265928 35.668764)scale(0.2 -0.2)">
				<g>
					<path id="DejaVuSans-32_00000004511123368275066760000016528427697643535283_" class="st7" d="M19.2,8.3h34.4V0H7.3v8.3
						c3.7,3.9,8.8,9.1,15.3,15.6c6.5,6.5,10.5,10.7,12.2,12.6c3.2,3.5,5.4,6.5,6.6,9c1.3,2.5,1.9,4.9,1.9,7.2c0,3.9-1.4,7-4.1,9.5
						c-2.7,2.4-6.3,3.7-10.6,3.7c-3.1,0-6.4-0.5-9.8-1.6c-3.4-1.1-7.1-2.7-11-4.9v10c4,1.6,7.7,2.8,11.1,3.6
						c3.5,0.8,6.6,1.2,9.5,1.2c7.6,0,13.6-1.9,18.1-5.7c4.5-3.8,6.7-8.8,6.7-15.1c0-3-0.6-5.8-1.7-8.5c-1.1-2.7-3.2-5.8-6.1-9.5
						c-0.8-0.9-3.4-3.7-7.8-8.2C33.3,22.7,27.1,16.4,19.2,8.3z"/>
				</g>
				<g>
					<path id="DejaVuSans-38" class="st7" d="M95.4,34.6c-4.7,0-8.4-1.3-11.1-3.8c-2.7-2.5-4-6-4-10.3c0-4.4,1.3-7.8,4-10.4
						c2.7-2.5,6.4-3.8,11.1-3.8s8.4,1.3,11.1,3.8c2.7,2.5,4.1,6,4.1,10.3c0,4.4-1.3,7.8-4,10.3C103.8,33.4,100.1,34.6,95.4,34.6z
						 M85.5,38.8c-4.2,1-7.5,3-9.9,5.9c-2.4,2.9-3.5,6.4-3.5,10.6c0,5.8,2.1,10.4,6.2,13.8c4.2,3.4,9.8,5.1,17.1,5.1
						c7.3,0,13-1.7,17.1-5.1c4.1-3.4,6.2-8,6.2-13.8c0-4.2-1.2-7.7-3.5-10.6c-2.4-2.9-5.6-4.9-9.8-5.9c4.8-1.1,8.4-3.3,11.1-6.5
						c2.7-3.2,4-7.2,4-11.8c0-7.1-2.2-12.5-6.5-16.3c-4.3-3.8-10.5-5.7-18.5-5.7c-8,0-14.2,1.9-18.5,5.7c-4.3,3.8-6.5,9.2-6.5,16.3
						c0,4.6,1.3,8.6,4,11.8C77.1,35.5,80.8,37.7,85.5,38.8z M81.9,54.4c0-3.8,1.2-6.7,3.5-8.8c2.4-2.1,5.7-3.2,9.9-3.2
						c4.2,0,7.6,1.1,9.9,3.2c2.4,2.1,3.6,5.1,3.6,8.8c0,3.8-1.2,6.7-3.6,8.8c-2.4,2.1-5.7,3.2-9.9,3.2c-4.3,0-7.6-1.1-9.9-3.2
						C83.1,61.1,81.9,58.2,81.9,54.4z"/>
				</g>
				<g>
					<path id="DejaVuSans-25_00000014608214558823663790000000602746688714873791_" class="st7" d="M199.9,32.1
						c-2.8,0-5.1-1.2-6.7-3.6c-1.6-2.4-2.4-5.8-2.4-10.1c0-4.2,0.8-7.6,2.4-10c1.6-2.4,3.8-3.6,6.7-3.6c2.8,0,5,1.2,6.6,3.6
						c1.6,2.4,2.4,5.8,2.4,10c0,4.3-0.8,7.6-2.4,10C204.9,30.9,202.7,32.1,199.9,32.1z M199.9,38.3c5.1,0,9.2-1.8,12.2-5.4
						c3-3.6,4.5-8.4,4.5-14.5c0-6.1-1.5-10.9-4.6-14.5c-3-3.6-7.1-5.3-12.2-5.3c-5.2,0-9.3,1.8-12.4,5.3c-3,3.6-4.5,8.4-4.5,14.5
						c0,6.1,1.5,11,4.6,14.5S194.8,38.3,199.9,38.3z M149.6,68c-2.8,0-5-1.2-6.6-3.6c-1.6-2.4-2.4-5.7-2.4-10
						c0-4.3,0.8-7.6,2.4-10.1c1.6-2.4,3.8-3.6,6.6-3.6c2.8,0,5.1,1.2,6.7,3.6c1.6,2.4,2.4,5.8,2.4,10.1c0,4.2-0.8,7.5-2.4,10
						C154.6,66.8,152.4,68,149.6,68z M193.7,74.2h7.8L155.9-1.4H148L193.7,74.2z M149.6,74.2c5.1,0,9.2-1.8,12.3-5.3
						c3.1-3.6,4.6-8.4,4.6-14.5c0-6.1-1.5-11-4.6-14.5c-3-3.6-7.2-5.3-12.3-5.3c-5.2,0-9.3,1.8-12.3,5.3c-3,3.6-4.5,8.4-4.5,14.5
						c0,6.1,1.5,10.9,4.5,14.5C140.3,72.4,144.4,74.2,149.6,74.2z"/>
				</g>
			</g>
		</g>
		<g id="text_10">
			<g transform="translate(629.558418 106.452175)scale(0.2 -0.2)">
				<g>
					<path id="DejaVuSans-31_00000149354287935621002330000002725746230967213459_" class="st7" d="M12.4,8.3h16.1v55.6L11,60.4v9
						l17.4,3.5h9.9V8.3h16.1V0h-42V8.3z"/>
				</g>
				<g>
					<path id="DejaVuSans-32_00000100369910498628504510000012378335038756594828_" class="st7" d="M82.8,8.3h34.4V0H71v8.3
						c3.7,3.9,8.8,9.1,15.3,15.6c6.5,6.5,10.5,10.7,12.2,12.6c3.2,3.5,5.4,6.5,6.6,9c1.3,2.5,1.9,4.9,1.9,7.2c0,3.9-1.4,7-4.1,9.5
						c-2.7,2.4-6.3,3.7-10.6,3.7c-3.1,0-6.4-0.5-9.8-1.6c-3.4-1.1-7.1-2.7-11-4.9v10c4,1.6,7.7,2.8,11.1,3.6
						c3.5,0.8,6.6,1.2,9.5,1.2c7.6,0,13.6-1.9,18.1-5.7c4.5-3.8,6.7-8.8,6.7-15.1c0-3-0.6-5.8-1.7-8.5c-1.1-2.7-3.2-5.8-6.1-9.5
						c-0.8-0.9-3.4-3.7-7.8-8.2C96.9,22.7,90.8,16.4,82.8,8.3z"/>
				</g>
				<g>
					<path id="DejaVuSans-25_00000167384454524893909380000009642250508843534255_" class="st7" d="M199.9,32.1
						c-2.8,0-5.1-1.2-6.7-3.6c-1.6-2.4-2.4-5.8-2.4-10.1c0-4.2,0.8-7.6,2.4-10c1.6-2.4,3.8-3.6,6.7-3.6c2.8,0,5,1.2,6.6,3.6
						c1.6,2.4,2.4,5.8,2.4,10c0,4.3-0.8,7.6-2.4,10C204.9,30.9,202.7,32.1,199.9,32.1z M199.9,38.3c5.1,0,9.2-1.8,12.2-5.4
						c3-3.6,4.5-8.4,4.5-14.5c0-6.1-1.5-10.9-4.6-14.5c-3-3.6-7.1-5.3-12.2-5.3c-5.2,0-9.3,1.8-12.4,5.3c-3,3.6-4.5,8.4-4.5,14.5
						c0,6.1,1.5,11,4.6,14.5S194.8,38.3,199.9,38.3z M149.6,68c-2.8,0-5-1.2-6.6-3.6c-1.6-2.4-2.4-5.7-2.4-10
						c0-4.3,0.8-7.6,2.4-10.1c1.6-2.4,3.8-3.6,6.6-3.6s5.1,1.2,6.7,3.6c1.6,2.4,2.4,5.8,2.4,10.1c0,4.2-0.8,7.5-2.4,10
						C154.6,66.8,152.4,68,149.6,68z M193.7,74.2h7.8L155.9-1.4H148L193.7,74.2z M149.6,74.2c5.1,0,9.2-1.8,12.3-5.3
						c3.1-3.6,4.6-8.4,4.6-14.5c0-6.1-1.5-11-4.6-14.5s-7.2-5.3-12.3-5.3s-9.3,1.8-12.3,5.3c-3,3.6-4.5,8.4-4.5,14.5
						c0,6.1,1.5,10.9,4.5,14.5C140.3,72.4,144.4,74.2,149.6,74.2z"/>
				</g>
			</g>
		</g>
	</g>
</g>
</svg>
