<?xml version="1.0" encoding="utf-8"?>
<!-- Generator: Adobe Illustrator 26.0.2, SVG Export Plug-In . SVG Version: 6.00 Build 0)  -->
<svg version="1.1" id="Layer_1" xmlns="http://www.w3.org/2000/svg" xmlns:xlink="http://www.w3.org/1999/xlink" x="0px" y="0px"
	 viewBox="0 0 734.4 208.9" style="enable-background:new 0 0 734.4 208.9;" xml:space="preserve">
<style type="text/css">
	.st0{fill:none;}
	.st1{clip-path:url(#SVGID_00000060013852239334990910000003689467831801076119_);fill:#9866CF;}
	.st2{clip-path:url(#SVGID_00000047037070674570385390000000124506806700308648_);fill:#9866CF;}
	.st3{clip-path:url(#SVGID_00000081648617448904204980000009996163143651037577_);fill:#9866CF;}
	.st4{clip-path:url(#SVGID_00000079457027282574239270000017409315013695081131_);fill:#9866CF;}
	.st5{clip-path:url(#SVGID_00000129911513693364195070000010474141316901505948_);fill:#9866CF;}
	.st6{clip-path:url(#SVGID_00000154410801707839696250000015717828674101143958_);fill:#9866CF;}
	.st7{clip-path:url(#SVGID_00000150075732826311333970000005780475856329683852_);fill:#9866CF;}
	.st8{clip-path:url(#SVGID_00000158749564404667545020000014852257401129630343_);fill:#9866CF;}
	.st9{clip-path:url(#SVGID_00000163769487477585441820000002265234868933224609_);fill:#9866CF;}
	.st10{fill:#290849;stroke:#290849;stroke-width:0.8;stroke-linejoin:round;}
	.st11{fill:#290849;}
</style>
<g id="figure_1">
	<g id="patch_1">
		<path class="st0" d="M0,208.9h734.4V0H0V208.9z"/>
	</g>
	<g id="axes_1">
		<g id="patch_2">
			<path class="st0" d="M7.2,168.7h720v-144H7.2V168.7z"/>
		</g>
		<g id="patch_3">
			<g>
				<defs>
					<rect id="SVGID_1_" x="7.2" y="24.7" width="720" height="144"/>
				</defs>
				<clipPath id="SVGID_00000060747509921008644240000000522381688731970947_">
					<use xlink:href="#SVGID_1_"  style="overflow:visible;"/>
				</clipPath>
				<path style="clip-path:url(#SVGID_00000060747509921008644240000000522381688731970947_);fill:#9866CF;" d="M39.9,168.7h45.7
					V31.6H39.9V168.7z"/>
			</g>
		</g>
		<g id="patch_4">
			<g>
				<defs>
					<rect id="SVGID_00000117656749277666029880000011109531020756858027_" x="7.2" y="24.7" width="720" height="144"/>
				</defs>
				<clipPath id="SVGID_00000094595722841185399790000010305847445441064862_">
					<use xlink:href="#SVGID_00000117656749277666029880000011109531020756858027_"  style="overflow:visible;"/>
				</clipPath>
				<path style="clip-path:url(#SVGID_00000094595722841185399790000010305847445441064862_);fill:#9866CF;" d="M116,168.7h45.7V83
					H116V168.7z"/>
			</g>
		</g>
		<g id="patch_5">
			<g>
				<defs>
					<rect id="SVGID_00000112622718382866016090000006748248752603383738_" x="7.2" y="24.7" width="720" height="144"/>
				</defs>
				<clipPath id="SVGID_00000158718107680955991580000003094377788279423144_">
					<use xlink:href="#SVGID_00000112622718382866016090000006748248752603383738_"  style="overflow:visible;"/>
				</clipPath>
				<path style="clip-path:url(#SVGID_00000158718107680955991580000003094377788279423144_);fill:#9866CF;" d="M192.1,168.7h45.7
					V98h-45.7V168.7z"/>
			</g>
		</g>
		<g id="patch_6">
			<g>
				<defs>
					<rect id="SVGID_00000078747947043878543380000002654383995769947837_" x="7.2" y="24.7" width="720" height="144"/>
				</defs>
				<clipPath id="SVGID_00000161604433909422290900000003337466722016547519_">
					<use xlink:href="#SVGID_00000078747947043878543380000002654383995769947837_"  style="overflow:visible;"/>
				</clipPath>
				<path style="clip-path:url(#SVGID_00000161604433909422290900000003337466722016547519_);fill:#9866CF;" d="M268.3,168.7h45.7
					v-60h-45.7V168.7z"/>
			</g>
		</g>
		<g id="patch_7">
			<g>
				<defs>
					<rect id="SVGID_00000075155991853643468070000010245123360129212845_" x="7.2" y="24.7" width="720" height="144"/>
				</defs>
				<clipPath id="SVGID_00000075870330916069582850000018152750522605617326_">
					<use xlink:href="#SVGID_00000075155991853643468070000010245123360129212845_"  style="overflow:visible;"/>
				</clipPath>
				<path style="clip-path:url(#SVGID_00000075870330916069582850000018152750522605617326_);fill:#9866CF;" d="M344.4,168.7H390
					v-47.1h-45.7V168.7z"/>
			</g>
		</g>
		<g id="patch_8">
			<g>
				<defs>
					<rect id="SVGID_00000124157426775067817250000010423487864877755061_" x="7.2" y="24.7" width="720" height="144"/>
				</defs>
				<clipPath id="SVGID_00000183247247635553597780000008639395772889485997_">
					<use xlink:href="#SVGID_00000124157426775067817250000010423487864877755061_"  style="overflow:visible;"/>
				</clipPath>
				<path style="clip-path:url(#SVGID_00000183247247635553597780000008639395772889485997_);fill:#9866CF;" d="M420.5,168.7h45.7
					V128h-45.7V168.7z"/>
			</g>
		</g>
		<g id="patch_9">
			<g>
				<defs>
					<rect id="SVGID_00000058565294144275383970000009571859198269189762_" x="7.2" y="24.7" width="720" height="144"/>
				</defs>
				<clipPath id="SVGID_00000162333538060084416990000007184863119013680012_">
					<use xlink:href="#SVGID_00000058565294144275383970000009571859198269189762_"  style="overflow:visible;"/>
				</clipPath>
				<path style="clip-path:url(#SVGID_00000162333538060084416990000007184863119013680012_);fill:#9866CF;" d="M496.6,168.7h45.7
					v-23.6h-45.7V168.7z"/>
			</g>
		</g>
		<g id="patch_10">
			<g>
				<defs>
					<rect id="SVGID_00000077325369891703728530000000074835472934638985_" x="7.2" y="24.7" width="720" height="144"/>
				</defs>
				<clipPath id="SVGID_00000145748810389746319730000008289304242825497249_">
					<use xlink:href="#SVGID_00000077325369891703728530000000074835472934638985_"  style="overflow:visible;"/>
				</clipPath>
				<path style="clip-path:url(#SVGID_00000145748810389746319730000008289304242825497249_);fill:#9866CF;" d="M572.7,168.7h45.7
					v-23.6h-45.7V168.7z"/>
			</g>
		</g>
		<g id="patch_11">
			<g>
				<defs>
					<rect id="SVGID_00000121979476501356940530000005408965952537643445_" x="7.2" y="24.7" width="720" height="144"/>
				</defs>
				<clipPath id="SVGID_00000138563469077146942840000015468487656285918105_">
					<use xlink:href="#SVGID_00000121979476501356940530000005408965952537643445_"  style="overflow:visible;"/>
				</clipPath>
				<path style="clip-path:url(#SVGID_00000138563469077146942840000015468487656285918105_);fill:#9866CF;" d="M648.8,168.7h45.7
					v-8.6h-45.7V168.7z"/>
			</g>
		</g>
		<g id="matplotlib.axis_1">
			<g id="xtick_1">
				<g id="line2d_1">
					<g>
						<g>
							<path id="m1e9d02cf60_00000105389968114607581820000000890074745714910104_" class="st10" d="M62.8,168.7"/>
						</g>
					</g>
				</g>
				<g id="text_1">
					<g transform="translate(37.189941 198.596763)scale(0.15 -0.15)">
						<g>
							<path id="DejaVuSans-43" class="st11" d="M64.4,67.3V56.9c-3.3,3.1-6.9,5.4-10.6,6.9c-3.8,1.5-7.8,2.3-12,2.3
								c-8.3,0-14.7-2.5-19.1-7.6S16,46,16,36.4c0-9.6,2.2-17,6.6-22s10.8-7.6,19.1-7.6c4.2,0,8.2,0.8,12,2.3s7.3,3.8,10.6,6.9V5.6
								c-3.4-2.3-7.1-4.1-11-5.3c-3.9-1.2-7.9-1.8-12.2-1.8c-11,0-19.7,3.4-26.1,10.1c-6.3,6.8-9.5,16-9.5,27.7
								c0,11.7,3.2,21,9.5,27.7c6.4,6.8,15.1,10.1,26.1,10.1c4.4,0,8.5-0.6,12.3-1.7C57.4,71.3,61,69.6,64.4,67.3z"/>
						</g>
						<g>
							<path id="DejaVuSans-2f" class="st11" d="M95.2,72.9h8.3L78.1-9.3h-8.3L95.2,72.9z"/>
						</g>
						<g>
							<path id="DejaVuSans-43_00000003087054972168143790000001898349893900226957_" class="st11" d="M167.9,67.3V56.9
								c-3.3,3.1-6.9,5.4-10.6,6.9c-3.8,1.5-7.8,2.3-12,2.3c-8.3,0-14.7-2.5-19.1-7.6s-6.6-12.5-6.6-22.1c0-9.6,2.2-17,6.6-22
								s10.8-7.6,19.1-7.6c4.2,0,8.2,0.8,12,2.3c3.8,1.5,7.3,3.8,10.6,6.9V5.6c-3.4-2.3-7.1-4.1-11-5.3c-3.9-1.2-7.9-1.8-12.2-1.8
								c-11,0-19.7,3.4-26.1,10.1c-6.3,6.8-9.5,16-9.5,27.7c0,11.7,3.2,21,9.5,27.7c6.4,6.8,15.1,10.1,26.1,10.1
								c4.4,0,8.5-0.6,12.3-1.7C160.9,71.3,164.5,69.6,167.9,67.3z"/>
						</g>
						<g>
							<path id="DejaVuSans-2b" class="st11" d="M219.3,62.7V35.5h27.2v-8.3h-27.2V0h-8.2v27.2h-27.2v8.3h27.2v27.2H219.3z"/>
						</g>
						<g>
							<path id="DejaVuSans-2b_00000057842079673587717400000005391530189744614052_" class="st11" d="M303.1,62.7V35.5h27.2v-8.3
								h-27.2V0h-8.2v27.2h-27.2v8.3h27.2v27.2H303.1z"/>
						</g>
					</g>
				</g>
			</g>
			<g id="xtick_2">
				<g id="line2d_2">
					<g>
						<g>
							<path id="m1e9d02cf60_00000075878240065544852540000015798048042767355815_" class="st10" d="M138.9,168.7"/>
						</g>
					</g>
				</g>
				<g id="text_2">
					<g transform="translate(113.421753 198.596763)scale(0.15 -0.15)">
						<g>
							<path id="DejaVuSans-4d" class="st11" d="M9.8,72.9h14.7l18.6-49.6l18.7,49.6h14.7V0h-9.6v64L48.1,14h-9.9L19.4,64V0H9.8
								V72.9z"/>
						</g>
						<g>
							<path id="DejaVuSans-61" class="st11" d="M120.6,27.5c-7.3,0-12.3-0.8-15.1-2.5c-2.8-1.7-4.2-4.5-4.2-8.5
								c0-3.2,1.1-5.7,3.2-7.6c2.1-1.9,5-2.8,8.6-2.8c5,0,9,1.8,12,5.3c3,3.5,4.5,8.2,4.5,14.1v2H120.6z M138.5,31.2V0h-9v8.3
								c-2.1-3.3-4.6-5.8-7.7-7.3s-6.8-2.4-11.2-2.4c-5.6,0-10,1.6-13.4,4.7c-3.3,3.1-5,7.4-5,12.6c0,6.1,2.1,10.8,6.2,13.9
								c4.1,3.1,10.3,4.7,18.4,4.7h12.6v0.9c0,4.1-1.4,7.3-4.1,9.6c-2.7,2.3-6.5,3.4-11.5,3.4c-3.1,0-6.2-0.4-9.1-1.1
								c-3-0.8-5.8-1.9-8.5-3.4v8.3c3.3,1.3,6.5,2.2,9.6,2.8c3.1,0.6,6.1,1,9,1c7.9,0,13.8-2.1,17.7-6.2
								C136.5,45.8,138.5,39.5,138.5,31.2z"/>
						</g>
						<g>
							<path id="DejaVuSans-74" class="st11" d="M165.9,70.2V54.7h18.5v-7h-18.5V18c0-4.5,0.6-7.3,1.8-8.6s3.7-1.9,7.5-1.9h9.2V0
								h-9.2c-6.9,0-11.7,1.3-14.4,3.9c-2.6,2.6-4,7.3-4,14.1v29.7h-6.6v7h6.6v15.5H165.9z"/>
						</g>
						<g>
							<path id="DejaVuSans-6c" class="st11" d="M196.2,76h9V0h-9V76z"/>
						</g>
						<g>
							<path id="DejaVuSans-61_00000183957181261055934520000013030576870873977230_" class="st11" d="M248.8,27.5
								c-7.3,0-12.3-0.8-15.1-2.5c-2.8-1.7-4.2-4.5-4.2-8.5c0-3.2,1.1-5.7,3.2-7.6c2.1-1.9,5-2.8,8.6-2.8c5,0,9,1.8,12,5.3
								s4.5,8.2,4.5,14.1v2H248.8z M266.8,31.2V0h-9v8.3c-2.1-3.3-4.6-5.8-7.7-7.3s-6.8-2.4-11.2-2.4c-5.6,0-10,1.6-13.4,4.7
								c-3.3,3.1-5,7.4-5,12.6c0,6.1,2.1,10.8,6.2,13.9c4.1,3.1,10.3,4.7,18.4,4.7h12.6v0.9c0,4.1-1.4,7.3-4.1,9.6
								c-2.7,2.3-6.5,3.4-11.5,3.4c-3.1,0-6.2-0.4-9.1-1.1c-3-0.8-5.8-1.9-8.5-3.4v8.3c3.3,1.3,6.5,2.2,9.6,2.8c3.1,0.6,6.1,1,9,1
								c7.9,0,13.8-2.1,17.7-6.2C264.8,45.8,266.8,39.5,266.8,31.2z"/>
						</g>
						<g>
							<path id="DejaVuSans-62" class="st11" d="M324.5,27.3c0,6.6-1.4,11.8-4.1,15.5c-2.7,3.8-6.5,5.6-11.2,5.6
								c-4.8,0-8.5-1.9-11.2-5.6c-2.7-3.8-4.1-8.9-4.1-15.5s1.4-11.8,4.1-15.5s6.5-5.6,11.2-5.6c4.8,0,8.5,1.9,11.2,5.6
								S324.5,20.7,324.5,27.3z M293.9,46.4c1.9,3.2,4.3,5.7,7.2,7.2c2.9,1.6,6.3,2.4,10.3,2.4c6.6,0,12-2.6,16.2-7.9
								c4.2-5.3,6.2-12.2,6.2-20.8s-2.1-15.5-6.2-20.8c-4.1-5.3-9.5-7.9-16.2-7.9c-4,0-7.4,0.8-10.3,2.4c-2.9,1.6-5.3,4-7.2,7.2V0
								h-9v76h9V46.4z"/>
						</g>
					</g>
				</g>
			</g>
			<g id="xtick_3">
				<g id="line2d_3">
					<g>
						<g>
							<path id="m1e9d02cf60_00000045608077312864750700000007417523598885992082_" class="st10" d="M215,168.7"/>
						</g>
					</g>
				</g>
				<g id="text_3">
					<g transform="translate(178.237158 198.596763)scale(0.15 -0.15)">
						<g>
							<path id="DejaVuSans-4a" class="st11" d="M9.8,72.9h9.9V5.1c0-8.8-1.7-15.2-5-19.1S6-20-1.4-20h-3.8v8.3h3.1
								c4.4,0,7.4,1.2,9.2,3.7C8.9-5.6,9.8-1.2,9.8,5.1V72.9z"/>
						</g>
						<g>
							<path id="DejaVuSans-61_00000168076013183287781350000017669781452021308296_" class="st11" d="M63.8,27.5
								c-7.3,0-12.3-0.8-15.1-2.5c-2.8-1.7-4.2-4.5-4.2-8.5c0-3.2,1.1-5.7,3.2-7.6c2.1-1.9,5-2.8,8.6-2.8c5,0,9,1.8,12,5.3
								c3,3.5,4.5,8.2,4.5,14.1v2H63.8z M81.7,31.2V0h-9v8.3C70.7,5,68.1,2.5,65,1C62-0.6,58.2-1.4,53.8-1.4c-5.6,0-10,1.6-13.4,4.7
								c-3.3,3.1-5,7.4-5,12.6c0,6.1,2.1,10.8,6.2,13.9c4.1,3.1,10.3,4.7,18.4,4.7h12.6v0.9c0,4.1-1.4,7.3-4.1,9.6
								c-2.7,2.3-6.5,3.4-11.5,3.4c-3.1,0-6.2-0.4-9.1-1.1c-3-0.8-5.8-1.9-8.5-3.4v8.3c3.3,1.3,6.5,2.2,9.6,2.8c3.1,0.6,6.1,1,9,1
								c7.9,0,13.8-2.1,17.7-6.2C79.7,45.8,81.7,39.5,81.7,31.2z"/>
						</g>
						<g>
							<path id="DejaVuSans-76" class="st11" d="M93.8,54.7h9.5l17.1-45.9l17.1,45.9h9.5L126.5,0h-12.2L93.8,54.7z"/>
						</g>
						<g>
							<path id="DejaVuSans-61_00000164484896550413258910000013649772659429722807_" class="st11" d="M184.2,27.5
								c-7.3,0-12.3-0.8-15.1-2.5c-2.8-1.7-4.2-4.5-4.2-8.5c0-3.2,1.1-5.7,3.2-7.6c2.1-1.9,5-2.8,8.6-2.8c5,0,9,1.8,12,5.3
								c3,3.5,4.5,8.2,4.5,14.1v2H184.2z M202.2,31.2V0h-9v8.3c-2.1-3.3-4.6-5.8-7.7-7.3s-6.8-2.4-11.2-2.4c-5.6,0-10,1.6-13.4,4.7
								c-3.3,3.1-5,7.4-5,12.6c0,6.1,2.1,10.8,6.2,13.9c4.1,3.1,10.3,4.7,18.4,4.7h12.6v0.9c0,4.1-1.4,7.3-4.1,9.6
								c-2.7,2.3-6.5,3.4-11.5,3.4c-3.1,0-6.2-0.4-9.1-1.1c-3-0.8-5.8-1.9-8.5-3.4v8.3c3.3,1.3,6.5,2.2,9.6,2.8c3.1,0.6,6.1,1,9,1
								c7.9,0,13.8-2.1,17.7-6.2C200.2,45.8,202.2,39.5,202.2,31.2z"/>
						</g>
						<g>
							<path id="DejaVuSans-73" class="st11" d="M255.5,53.1v-8.5c-2.5,1.3-5.2,2.3-7.9,2.9c-2.7,0.7-5.6,1-8.5,1
								c-4.5,0-7.8-0.7-10-2c-2.2-1.4-3.3-3.4-3.3-6.2c0-2.1,0.8-3.7,2.4-4.9s4.8-2.3,9.6-3.4l3.1-0.7c6.4-1.4,10.9-3.3,13.6-5.8
								c2.7-2.5,4-6,4-10.4c0-5.1-2-9.1-6-12.1c-4-3-9.5-4.4-16.6-4.4c-2.9,0-6,0.3-9.2,0.9c-3.2,0.6-6.5,1.4-10,2.6v9.3
								c3.3-1.7,6.6-3,9.8-3.9c3.2-0.9,6.4-1.3,9.6-1.3c4.2,0,7.5,0.7,9.8,2.2c2.3,1.4,3.4,3.5,3.4,6.1c0,2.4-0.8,4.3-2.5,5.6
								c-1.6,1.3-5.2,2.6-10.8,3.8l-3.1,0.7c-5.6,1.2-9.6,3-12.1,5.4c-2.5,2.4-3.7,5.8-3.7,10c0,5.1,1.8,9.1,5.5,11.9
								c3.6,2.8,8.8,4.2,15.5,4.2c3.3,0,6.4-0.2,9.4-0.7C250.3,54.8,253,54.1,255.5,53.1z"/>
						</g>
						<g>
							<path id="DejaVuSans-63" class="st11" d="M312.1,52.6v-8.4c-2.5,1.4-5.1,2.5-7.6,3.2c-2.6,0.7-5.1,1-7.7,1
								c-5.8,0-10.4-1.8-13.6-5.5c-3.2-3.7-4.8-8.9-4.8-15.5s1.6-11.9,4.8-15.6c3.2-3.7,7.8-5.5,13.6-5.5c2.6,0,5.2,0.3,7.7,1
								c2.6,0.7,5.1,1.8,7.6,3.2V2.1c-2.5-1.2-5.1-2-7.8-2.6c-2.7-0.6-5.5-0.9-8.6-0.9c-8.2,0-14.8,2.6-19.6,7.8
								c-4.8,5.2-7.3,12.2-7.3,21c0,8.9,2.4,15.9,7.3,21c4.9,5.1,11.6,7.7,20.2,7.7c2.8,0,5.5-0.3,8.1-0.9
								C307.1,54.6,309.6,53.7,312.1,52.6z"/>
						</g>
						<g>
							<path id="DejaVuSans-72" class="st11" d="M359.4,46.3c-1,0.6-2.1,1-3.3,1.3c-1.2,0.3-2.5,0.4-3.9,0.4c-5.1,0-9-1.7-11.7-5
								c-2.7-3.3-4.1-8-4.1-14.2V0h-9v54.7h9v-8.5c1.9,3.3,4.4,5.8,7.4,7.4c3,1.6,6.7,2.4,11,2.4c0.6,0,1.3,0,2-0.1
								c0.8-0.1,1.6-0.2,2.5-0.4L359.4,46.3z"/>
						</g>
						<g>
							<path id="DejaVuSans-69" class="st11" d="M368.8,54.7h9V0h-9V54.7z M368.8,76h9V64.6h-9V76z"/>
						</g>
						<g>
							<path id="DejaVuSans-70" class="st11" d="M405.3,8.2v-29h-9v75.5h9v-8.3c1.9,3.2,4.3,5.7,7.2,7.2c2.9,1.6,6.3,2.4,10.3,2.4
								c6.6,0,12-2.6,16.2-7.9c4.2-5.3,6.2-12.2,6.2-20.8s-2.1-15.5-6.2-20.8c-4.1-5.3-9.5-7.9-16.2-7.9c-4,0-7.4,0.8-10.3,2.4
								C409.6,2.5,407.2,5,405.3,8.2z M435.9,27.3c0,6.6-1.4,11.8-4.1,15.5c-2.7,3.8-6.5,5.6-11.2,5.6c-4.8,0-8.5-1.9-11.2-5.6
								c-2.7-3.8-4.1-8.9-4.1-15.5s1.4-11.8,4.1-15.5s6.5-5.6,11.2-5.6c4.8,0,8.5,1.9,11.2,5.6S435.9,20.7,435.9,27.3z"/>
						</g>
						<g>
							<path id="DejaVuSans-74_00000158744839420086905320000015459938000213322158_" class="st11" d="M469,70.2V54.7h18.5v-7H469
								V18c0-4.5,0.6-7.3,1.8-8.6s3.7-1.9,7.5-1.9h9.2V0h-9.2c-6.9,0-11.7,1.3-14.4,3.9c-2.6,2.6-4,7.3-4,14.1v29.7h-6.6v7h6.6v15.5
								H469z"/>
						</g>
					</g>
				</g>
			</g>
			<g id="xtick_4">
				<g id="line2d_4">
					<g>
						<g>
							<path id="m1e9d02cf60_00000063609562214446663410000001627959669381133442_" class="st10" d="M291.1,168.7"/>
						</g>
					</g>
				</g>
				<g id="text_4">
					<g transform="translate(285.878735 198.596763)scale(0.15 -0.15)">
						<g>
							<path id="DejaVuSans-52" class="st11" d="M44.4,34.2c2.1-0.7,4.2-2.2,6.2-4.6s4-5.6,6-9.7L66.6,0H56l-9.3,18.7
								c-2.4,4.9-4.8,8.1-7,9.7s-5.3,2.4-9.3,2.4H19.7V0H9.8v72.9h22.3c8.3,0,14.6-1.7,18.7-5.2c4.1-3.5,6.2-8.7,6.2-15.8
								c0-4.6-1.1-8.4-3.2-11.4C51.6,37.4,48.5,35.4,44.4,34.2z M19.7,64.8V38.9h12.4c4.8,0,8.3,1.1,10.8,3.3s3.6,5.4,3.6,9.7
								s-1.2,7.5-3.6,9.6s-6,3.2-10.8,3.2H19.7z"/>
						</g>
					</g>
				</g>
			</g>
			<g id="xtick_5">
				<g id="line2d_5">
					<g>
						<g>
							<path id="m1e9d02cf60_00000101798493935693134090000004446835886645380026_" class="st10" d="M367.2,168.7"/>
						</g>
					</g>
				</g>
				<g id="text_5">
					<g transform="translate(351.35625 198.596763)scale(0.15 -0.15)">
						<g>
							<path id="DejaVuSans-4a_00000145054175909061755140000001869288500530956970_" class="st11" d="M9.8,72.9h9.9V5.1
								c0-8.8-1.7-15.2-5-19.1S6-20-1.4-20h-3.8v8.3h3.1c4.4,0,7.4,1.2,9.2,3.7C8.9-5.6,9.8-1.2,9.8,5.1V72.9z"/>
						</g>
						<g>
							<path id="DejaVuSans-61_00000119115843295526598020000013047605507810833334_" class="st11" d="M63.8,27.5
								c-7.3,0-12.3-0.8-15.1-2.5c-2.8-1.7-4.2-4.5-4.2-8.5c0-3.2,1.1-5.7,3.2-7.6c2.1-1.9,5-2.8,8.6-2.8c5,0,9,1.8,12,5.3
								c3,3.5,4.5,8.2,4.5,14.1v2H63.8z M81.7,31.2V0h-9v8.3C70.7,5,68.1,2.5,65,1C62-0.6,58.2-1.4,53.8-1.4c-5.6,0-10,1.6-13.4,4.7
								c-3.3,3.1-5,7.4-5,12.6c0,6.1,2.1,10.8,6.2,13.9c4.1,3.1,10.3,4.7,18.4,4.7h12.6v0.9c0,4.1-1.4,7.3-4.1,9.6
								c-2.7,2.3-6.5,3.4-11.5,3.4c-3.1,0-6.2-0.4-9.1-1.1c-3-0.8-5.8-1.9-8.5-3.4v8.3c3.3,1.3,6.5,2.2,9.6,2.8c3.1,0.6,6.1,1,9,1
								c7.9,0,13.8-2.1,17.7-6.2C79.7,45.8,81.7,39.5,81.7,31.2z"/>
						</g>
						<g>
							<path id="DejaVuSans-76_00000023964249838383422770000005254471016092907706_" class="st11" d="M93.8,54.7h9.5l17.1-45.9
								l17.1,45.9h9.5L126.5,0h-12.2L93.8,54.7z"/>
						</g>
						<g>
							<path id="DejaVuSans-61_00000140714739554416294370000011773943537407987608_" class="st11" d="M184.2,27.5
								c-7.3,0-12.3-0.8-15.1-2.5c-2.8-1.7-4.2-4.5-4.2-8.5c0-3.2,1.1-5.7,3.2-7.6c2.1-1.9,5-2.8,8.6-2.8c5,0,9,1.8,12,5.3
								c3,3.5,4.5,8.2,4.5,14.1v2H184.2z M202.2,31.2V0h-9v8.3c-2.1-3.3-4.6-5.8-7.7-7.3s-6.8-2.4-11.2-2.4c-5.6,0-10,1.6-13.4,4.7
								c-3.3,3.1-5,7.4-5,12.6c0,6.1,2.1,10.8,6.2,13.9c4.1,3.1,10.3,4.7,18.4,4.7h12.6v0.9c0,4.1-1.4,7.3-4.1,9.6
								c-2.7,2.3-6.5,3.4-11.5,3.4c-3.1,0-6.2-0.4-9.1-1.1c-3-0.8-5.8-1.9-8.5-3.4v8.3c3.3,1.3,6.5,2.2,9.6,2.8c3.1,0.6,6.1,1,9,1
								c7.9,0,13.8-2.1,17.7-6.2C200.2,45.8,202.2,39.5,202.2,31.2z"/>
						</g>
					</g>
				</g>
			</g>
			<g id="xtick_6">
				<g id="line2d_6">
					<g>
						<g>
							<path id="m1e9d02cf60_00000080180427775961973150000009907688069770741174_" class="st10" d="M443.3,168.7"/>
						</g>
					</g>
				</g>
				<g id="text_6">
					<g transform="translate(416.223218 198.596763)scale(0.15 -0.15)">
						<g>
							<path id="DejaVuSans-46" class="st11" d="M9.8,72.9h41.9v-8.3h-32V43.1h28.9v-8.3H19.7V0H9.8V72.9z"/>
						</g>
						<g>
							<path id="DejaVuSans-6f" class="st11" d="M84.5,48.4c-4.8,0-8.6-1.9-11.4-5.6c-2.8-3.8-4.2-8.9-4.2-15.5s1.4-11.7,4.2-15.5
								c2.8-3.8,6.6-5.6,11.5-5.6c4.8,0,8.6,1.9,11.4,5.7c2.8,3.8,4.2,8.9,4.2,15.4c0,6.5-1.4,11.6-4.2,15.4
								C93.1,46.5,89.3,48.4,84.5,48.4z M84.5,56c7.8,0,13.9-2.5,18.4-7.6c4.5-5.1,6.7-12.1,6.7-21.1c0-8.9-2.2-16-6.7-21.1
								c-4.5-5.1-10.6-7.6-18.4-7.6c-7.8,0-14,2.5-18.4,7.6c-4.4,5.1-6.7,12.1-6.7,21.1c0,9,2.2,16,6.7,21.1
								C70.5,53.5,76.7,56,84.5,56z"/>
						</g>
						<g>
							<path id="DejaVuSans-72_00000072270140176855762810000001410356778730512270_" class="st11" d="M156.2,46.3
								c-1,0.6-2.1,1-3.3,1.3c-1.2,0.3-2.5,0.4-3.9,0.4c-5.1,0-9-1.7-11.7-5c-2.7-3.3-4.1-8-4.1-14.2V0h-9v54.7h9v-8.5
								c1.9,3.3,4.4,5.8,7.4,7.4c3,1.6,6.7,2.4,11,2.4c0.6,0,1.3,0,2-0.1c0.8-0.1,1.6-0.2,2.5-0.4L156.2,46.3z"/>
						</g>
						<g>
							<path id="DejaVuSans-74_00000056410653239251395640000010700523858431815849_" class="st11" d="M174.5,70.2V54.7H193v-7
								h-18.5V18c0-4.5,0.6-7.3,1.8-8.6s3.7-1.9,7.5-1.9h9.2V0h-9.2c-6.9,0-11.7,1.3-14.4,3.9c-2.6,2.6-4,7.3-4,14.1v29.7h-6.6v7
								h6.6v15.5H174.5z"/>
						</g>
						<g>
							<path id="DejaVuSans-72_00000005234897669943826940000007126932948223944332_" class="st11" d="M236.5,46.3
								c-1,0.6-2.1,1-3.3,1.3c-1.2,0.3-2.5,0.4-3.9,0.4c-5.1,0-9-1.7-11.7-5c-2.7-3.3-4.1-8-4.1-14.2V0h-9v54.7h9v-8.5
								c1.9,3.3,4.4,5.8,7.4,7.4c3,1.6,6.7,2.4,11,2.4c0.6,0,1.3,0,2-0.1c0.8-0.1,1.6-0.2,2.5-0.4L236.5,46.3z"/>
						</g>
						<g>
							<path id="DejaVuSans-61_00000183227432668194090520000001048745217976430235_" class="st11" d="M270.8,27.5
								c-7.3,0-12.3-0.8-15.1-2.5c-2.8-1.7-4.2-4.5-4.2-8.5c0-3.2,1.1-5.7,3.2-7.6c2.1-1.9,5-2.8,8.6-2.8c5,0,9,1.8,12,5.3
								c3,3.5,4.5,8.2,4.5,14.1v2H270.8z M288.7,31.2V0h-9v8.3c-2.1-3.3-4.6-5.8-7.7-7.3s-6.8-2.4-11.2-2.4c-5.6,0-10,1.6-13.4,4.7
								c-3.3,3.1-5,7.4-5,12.6c0,6.1,2.1,10.8,6.2,13.9c4.1,3.1,10.3,4.7,18.4,4.7h12.6v0.9c0,4.1-1.4,7.3-4.1,9.6
								c-2.7,2.3-6.5,3.4-11.5,3.4c-3.1,0-6.2-0.4-9.1-1.1c-3-0.8-5.8-1.9-8.5-3.4v8.3c3.3,1.3,6.5,2.2,9.6,2.8c3.1,0.6,6.1,1,9,1
								c7.9,0,13.8-2.1,17.7-6.2C286.8,45.8,288.7,39.5,288.7,31.2z"/>
						</g>
						<g>
							<path id="DejaVuSans-6e" class="st11" d="M352.7,33V0h-9v32.7c0,5.2-1,9-3,11.6c-2,2.6-5,3.9-9.1,3.9
								c-4.9,0-8.7-1.5-11.5-4.6c-2.8-3.1-4.2-7.3-4.2-12.6V0h-9v54.7h9v-8.5c2.2,3.3,4.7,5.8,7.6,7.4c2.9,1.6,6.3,2.4,10.1,2.4
								c6.3,0,11-1.9,14.2-5.8C351.1,46.3,352.7,40.6,352.7,33z"/>
						</g>
					</g>
				</g>
			</g>
			<g id="xtick_7">
				<g id="line2d_7">
					<g>
						<g>
							<path id="m1e9d02cf60_00000035501122203792776030000017587532175275178152_" class="st10" d="M519.4,168.7"/>
						</g>
					</g>
				</g>
				<g id="text_7">
					<g transform="translate(503.690967 198.596763)scale(0.15 -0.15)">
						<g>
							<path id="DejaVuSans-4a_00000115502079069504712810000013268983875081862529_" class="st11" d="M9.8,72.9h9.9V5.1
								c0-8.8-1.7-15.2-5-19.1S6-20-1.4-20h-3.8v8.3h3.1c4.4,0,7.4,1.2,9.2,3.7C8.9-5.6,9.8-1.2,9.8,5.1V72.9z"/>
						</g>
						<g>
							<path id="DejaVuSans-75" class="st11" d="M38,21.6v33.1h9V21.9c0-5.2,1-9.1,3-11.7c2-2.6,5.1-3.9,9.1-3.9
								c4.8,0,8.7,1.5,11.5,4.6c2.8,3.1,4.2,7.3,4.2,12.7v31h9V0h-9v8.4c-2.2-3.3-4.7-5.8-7.6-7.4c-2.9-1.6-6.2-2.4-10-2.4
								c-6.3,0-11.1,2-14.3,5.9C39.6,8.3,38,14.1,38,21.6z M60.6,56L60.6,56z"/>
						</g>
						<g>
							<path id="DejaVuSans-6c_00000008868167103828674780000004016530544409644435_" class="st11" d="M102.3,76h9V0h-9V76z"/>
						</g>
						<g>
							<path id="DejaVuSans-69_00000160149550870082224330000008472195048830714774_" class="st11" d="M130.1,54.7h9V0h-9V54.7z
								 M130.1,76h9V64.6h-9V76z"/>
						</g>
						<g>
							<path id="DejaVuSans-61_00000175308304286935847040000007968696611216733341_" class="st11" d="M182.7,27.5
								c-7.3,0-12.3-0.8-15.1-2.5c-2.8-1.7-4.2-4.5-4.2-8.5c0-3.2,1.1-5.7,3.2-7.6c2.1-1.9,5-2.8,8.6-2.8c5,0,9,1.8,12,5.3
								c3,3.5,4.5,8.2,4.5,14.1v2H182.7z M200.6,31.2V0h-9v8.3C189.6,5,187,2.5,184,1s-6.8-2.4-11.2-2.4c-5.6,0-10,1.6-13.4,4.7
								c-3.3,3.1-5,7.4-5,12.6c0,6.1,2.1,10.8,6.2,13.9c4.1,3.1,10.3,4.7,18.4,4.7h12.6v0.9c0,4.1-1.4,7.3-4.1,9.6
								c-2.7,2.3-6.5,3.4-11.5,3.4c-3.1,0-6.2-0.4-9.1-1.1c-3-0.8-5.8-1.9-8.5-3.4v8.3c3.3,1.3,6.5,2.2,9.6,2.8c3.1,0.6,6.1,1,9,1
								c7.9,0,13.8-2.1,17.7-6.2C198.7,45.8,200.6,39.5,200.6,31.2z"/>
						</g>
					</g>
				</g>
			</g>
			<g id="xtick_8">
				<g id="line2d_8">
					<g>
						<g>
							<path id="m1e9d02cf60_00000050624441184759464120000017144561875541675935_" class="st10" d="M595.5,168.7"/>
						</g>
					</g>
				</g>
				<g id="text_8">
					<g transform="translate(584.007935 198.596763)scale(0.15 -0.15)">
						<g>
							<path id="DejaVuSans-43_00000135667789500039490930000006234989494829341874_" class="st11" d="M64.4,67.3V56.9
								c-3.3,3.1-6.9,5.4-10.6,6.9c-3.8,1.5-7.8,2.3-12,2.3c-8.3,0-14.7-2.5-19.1-7.6S16,46,16,36.4c0-9.6,2.2-17,6.6-22
								s10.8-7.6,19.1-7.6c4.2,0,8.2,0.8,12,2.3s7.3,3.8,10.6,6.9V5.6c-3.4-2.3-7.1-4.1-11-5.3c-3.9-1.2-7.9-1.8-12.2-1.8
								c-11,0-19.7,3.4-26.1,10.1c-6.3,6.8-9.5,16-9.5,27.7c0,11.7,3.2,21,9.5,27.7c6.4,6.8,15.1,10.1,26.1,10.1
								c4.4,0,8.5-0.6,12.3-1.7C57.4,71.3,61,69.6,64.4,67.3z"/>
						</g>
						<g>
							<path id="DejaVuSans-23" class="st11" d="M120.9,44h-14.2l-4.1-16.3h14.3L120.9,44z M113.6,71.8l-5.1-20.3h14.3l5.1,20.3h7.8
								l-5-20.3h15.2V44h-17.1l-4-16.3h15.5v-7.5h-17.4L117.8,0H110l5,20.2h-14.3L95.7,0h-7.9l5.1,20.2H77.5v7.5h17.2L98.8,44H83.1
								v7.5h17.6l5,20.3H113.6z"/>
						</g>
					</g>
				</g>
			</g>
			<g id="xtick_9">
				<g id="line2d_9">
					<g>
						<g>
							<path id="m1e9d02cf60_00000070821139252273213700000010671599165698000783_" class="st10" d="M671.6,168.7"/>
						</g>
					</g>
				</g>
				<g id="text_9">
					<g transform="translate(652.812403 198.596763)scale(0.15 -0.15)">
						<g>
							<path id="DejaVuSans-52_00000000200581422034036560000006806980627437630897_" class="st11" d="M44.4,34.2
								c2.1-0.7,4.2-2.2,6.2-4.6s4-5.6,6-9.7L66.6,0H56l-9.3,18.7c-2.4,4.9-4.8,8.1-7,9.7s-5.3,2.4-9.2,2.4H19.7V0H9.8v72.9h22.3
								c8.3,0,14.6-1.7,18.7-5.2c4.1-3.5,6.2-8.7,6.2-15.8c0-4.6-1.1-8.4-3.2-11.4C51.6,37.4,48.5,35.4,44.4,34.2z M19.7,64.8V38.9
								h12.4c4.8,0,8.3,1.1,10.8,3.3s3.6,5.4,3.6,9.7s-1.2,7.5-3.6,9.6s-6,3.2-10.8,3.2H19.7z"/>
						</g>
						<g>
							<path id="DejaVuSans-75_00000097486528231463240740000014552206258728387722_" class="st11" d="M73.5,21.6v33.1h9V21.9
								c0-5.2,1-9.1,3-11.7c2-2.6,5.1-3.9,9.1-3.9c4.8,0,8.7,1.5,11.5,4.6c2.8,3.1,4.2,7.3,4.2,12.7v31h9V0h-9v8.4
								c-2.2-3.3-4.7-5.8-7.6-7.4c-2.9-1.6-6.2-2.4-10-2.4c-6.3,0-11.1,2-14.3,5.9C75.1,8.3,73.5,14.1,73.5,21.6z M96.1,56L96.1,56z
								"/>
						</g>
						<g>
							<path id="DejaVuSans-62_00000026127943082656913910000016199534435433967780_" class="st11" d="M177,27.3
								c0,6.6-1.4,11.8-4.1,15.5c-2.7,3.8-6.5,5.6-11.2,5.6c-4.8,0-8.5-1.9-11.2-5.6c-2.7-3.8-4.1-8.9-4.1-15.5s1.4-11.8,4.1-15.5
								s6.5-5.6,11.2-5.6c4.8,0,8.5,1.9,11.2,5.6S177,20.7,177,27.3z M146.5,46.4c1.9,3.2,4.3,5.7,7.2,7.2c2.9,1.6,6.3,2.4,10.3,2.4
								c6.6,0,12-2.6,16.2-7.9c4.2-5.3,6.2-12.2,6.2-20.8s-2.1-15.5-6.2-20.8c-4.1-5.3-9.5-7.9-16.2-7.9c-4,0-7.4,0.8-10.3,2.4
								c-2.9,1.6-5.3,4-7.2,7.2V0h-9v76h9V46.4z"/>
						</g>
						<g>
							<path id="DejaVuSans-79" class="st11" d="M224-5.1c-2.5-6.5-5-10.8-7.4-12.7c-2.4-2-5.6-3-9.7-3h-7.2v7.5h5.3
								c2.5,0,4.4,0.6,5.8,1.8c1.4,1.2,2.9,3.9,4.5,8.3l1.6,4.1l-22.1,53.8h9.5l17.1-42.8l17.1,42.8h9.5L224-5.1z"/>
						</g>
					</g>
				</g>
			</g>
		</g>
		<g id="text_10">
			<g transform="translate(40.533691 22.396875)scale(0.2 -0.2)">
				<g>
					<path id="DejaVuSans-36" class="st11" d="M33,40.4c-4.4,0-7.9-1.5-10.5-4.5c-2.6-3-3.9-7.2-3.9-12.4c0-5.2,1.3-9.4,3.9-12.4
						c2.6-3,6.1-4.6,10.5-4.6s7.9,1.5,10.5,4.6c2.6,3.1,3.9,7.2,3.9,12.4c0,5.3-1.3,9.4-3.9,12.4C40.9,38.9,37.4,40.4,33,40.4z
						 M52.6,71.3v-9c-2.5,1.2-5,2.1-7.5,2.7c-2.5,0.6-5,0.9-7.5,0.9c-6.5,0-11.5-2.2-14.9-6.6c-3.4-4.4-5.4-11-5.9-19.9
						c1.9,2.8,4.3,5,7.2,6.5c2.9,1.5,6.1,2.3,9.6,2.3c7.3,0,13.1-2.2,17.4-6.7c4.2-4.4,6.4-10.5,6.4-18.1c0-7.5-2.2-13.5-6.6-18
						C46.3,0.8,40.4-1.4,33-1.4c-8.4,0-14.9,3.2-19.3,9.7C9.2,14.7,7,24.1,7,36.4c0,11.5,2.7,20.7,8.2,27.6s12.8,10.3,22,10.3
						c2.5,0,5-0.2,7.5-0.7S49.9,72.3,52.6,71.3z"/>
				</g>
				<g>
					<path id="DejaVuSans-34" class="st11" d="M101.4,64.3L76.5,25.4h24.9V64.3z M98.8,72.9h12.4V25.4h10.4v-8.2h-10.4V0h-9.8v17.2
						H68.5v9.5L98.8,72.9z"/>
				</g>
				<g>
					<path id="DejaVuSans-25" class="st11" d="M199.9,32.1c-2.8,0-5.1-1.2-6.7-3.6c-1.6-2.4-2.4-5.8-2.4-10.1c0-4.2,0.8-7.6,2.4-10
						c1.6-2.4,3.8-3.6,6.7-3.6c2.8,0,5,1.2,6.6,3.6c1.6,2.4,2.4,5.8,2.4,10c0,4.3-0.8,7.6-2.4,10C204.9,30.9,202.7,32.1,199.9,32.1z
						 M199.9,38.3c5.1,0,9.2-1.8,12.2-5.4c3-3.6,4.5-8.4,4.5-14.5c0-6.1-1.5-10.9-4.6-14.5c-3-3.6-7.1-5.3-12.2-5.3
						c-5.2,0-9.3,1.8-12.4,5.3c-3,3.6-4.5,8.4-4.5,14.5c0,6.1,1.5,11,4.6,14.5C190.7,36.5,194.8,38.3,199.9,38.3z M149.6,68
						c-2.8,0-5-1.2-6.6-3.6c-1.6-2.4-2.4-5.7-2.4-10c0-4.3,0.8-7.6,2.4-10.1c1.6-2.4,3.8-3.6,6.6-3.6c2.8,0,5.1,1.2,6.7,3.6
						c1.6,2.4,2.4,5.8,2.4,10.1c0,4.2-0.8,7.5-2.4,10C154.6,66.8,152.4,68,149.6,68z M193.7,74.2h7.8L155.9-1.4H148L193.7,74.2z
						 M149.6,74.2c5.1,0,9.2-1.8,12.3-5.3c3.1-3.6,4.6-8.4,4.6-14.5c0-6.1-1.5-11-4.6-14.5c-3-3.6-7.2-5.3-12.3-5.3
						c-5.2,0-9.3,1.8-12.3,5.3c-3,3.6-4.5,8.4-4.5,14.5c0,6.1,1.5,10.9,4.5,14.5C140.3,72.4,144.4,74.2,149.6,74.2z"/>
				</g>
			</g>
		</g>
		<g id="text_11">
			<g transform="translate(116.643628 73.825446)scale(0.2 -0.2)">
				<g>
					<path id="DejaVuSans-34_00000124124128701290424250000012273948823971188915_" class="st11" d="M37.8,64.3L12.9,25.4h24.9V64.3
						z M35.2,72.9h12.4V25.4H58v-8.2H47.6V0h-9.8v17.2H4.9v9.5L35.2,72.9z"/>
				</g>
				<g>
					<path id="DejaVuSans-30" class="st11" d="M95.4,66.4c-5.1,0-8.9-2.5-11.5-7.5c-2.6-5-3.8-12.5-3.8-22.5c0-10,1.3-17.5,3.8-22.5
						c2.6-5,6.4-7.5,11.5-7.5c5.1,0,8.9,2.5,11.5,7.5c2.6,5,3.8,12.5,3.8,22.5c0,10-1.3,17.5-3.8,22.5
						C104.4,63.9,100.5,66.4,95.4,66.4z M95.4,74.2c8.2,0,14.4-3.2,18.7-9.7c4.3-6.5,6.5-15.8,6.5-28.1c0-12.3-2.2-21.6-6.5-28.1
						c-4.3-6.5-10.6-9.7-18.7-9.7c-8.2,0-14.4,3.2-18.7,9.7c-4.3,6.5-6.5,15.8-6.5,28.1c0,12.3,2.2,21.7,6.5,28.1
						C81,71,87.2,74.2,95.4,74.2z"/>
				</g>
				<g>
					<path id="DejaVuSans-25_00000150098193000546948220000015558554816124659853_" class="st11" d="M199.9,32.1
						c-2.8,0-5.1-1.2-6.7-3.6c-1.6-2.4-2.4-5.8-2.4-10.1c0-4.2,0.8-7.6,2.4-10c1.6-2.4,3.8-3.6,6.7-3.6c2.8,0,5,1.2,6.6,3.6
						c1.6,2.4,2.4,5.8,2.4,10c0,4.3-0.8,7.6-2.4,10C204.9,30.9,202.7,32.1,199.9,32.1z M199.9,38.3c5.1,0,9.2-1.8,12.2-5.4
						c3-3.6,4.5-8.4,4.5-14.5c0-6.1-1.5-10.9-4.6-14.5c-3-3.6-7.1-5.3-12.2-5.3c-5.2,0-9.3,1.8-12.4,5.3c-3,3.6-4.5,8.4-4.5,14.5
						c0,6.1,1.5,11,4.6,14.5S194.8,38.3,199.9,38.3z M149.6,68c-2.8,0-5-1.2-6.6-3.6c-1.6-2.4-2.4-5.7-2.4-10
						c0-4.3,0.8-7.6,2.4-10.1c1.6-2.4,3.8-3.6,6.6-3.6c2.8,0,5.1,1.2,6.7,3.6c1.6,2.4,2.4,5.8,2.4,10.1c0,4.2-0.8,7.5-2.4,10
						C154.6,66.8,152.4,68,149.6,68z M193.7,74.2h7.8L155.9-1.4H148L193.7,74.2z M149.6,74.2c5.1,0,9.2-1.8,12.3-5.3
						c3.1-3.6,4.6-8.4,4.6-14.5c0-6.1-1.5-11-4.6-14.5c-3-3.6-7.2-5.3-12.3-5.3c-5.2,0-9.3,1.8-12.3,5.3c-3,3.6-4.5,8.4-4.5,14.5
						c0,6.1,1.5,10.9,4.5,14.5C140.3,72.4,144.4,74.2,149.6,74.2z"/>
				</g>
			</g>
		</g>
		<g id="text_12">
			<g transform="translate(192.753564 88.825446)scale(0.2 -0.2)">
				<g>
					<path id="DejaVuSans-33" class="st11" d="M40.6,39.3c4.7-1,8.4-3.1,11-6.3c2.7-3.2,4-7.1,4-11.8c0-7.2-2.5-12.8-7.4-16.7
						c-4.9-3.9-12-5.9-21.1-5.9c-3.1,0-6.2,0.3-9.4,0.9S11.1,1,7.6,2.2v9.5c2.7-1.6,5.7-2.8,9-3.6c3.3-0.8,6.7-1.2,10.2-1.2
						c6.2,0,10.9,1.2,14.1,3.7s4.9,6,4.9,10.6c0,4.3-1.5,7.7-4.5,10.1c-3,2.4-7.2,3.6-12.6,3.6h-8.5V43h8.9c4.8,0,8.6,1,11.1,2.9
						s3.9,4.7,3.9,8.4c0,3.7-1.3,6.6-4,8.6c-2.6,2-6.4,3-11.4,3c-2.7,0-5.6-0.3-8.7-0.9c-3.1-0.6-6.5-1.5-10.2-2.7v8.8
						c3.8,1,7.3,1.8,10.5,2.3s6.4,0.8,9.2,0.8c7.5,0,13.4-1.7,17.8-5.1c4.4-3.4,6.5-8,6.5-13.8c0-4-1.2-7.5-3.5-10.2
						S44.8,40.4,40.6,39.3z"/>
				</g>
				<g>
					<path id="DejaVuSans-33_00000079452236767203424900000018441622754672073108_" class="st11" d="M104.2,39.3
						c4.7-1,8.4-3.1,11-6.3c2.7-3.2,4-7.1,4-11.8c0-7.2-2.5-12.8-7.4-16.7c-4.9-3.9-12-5.9-21.1-5.9c-3.1,0-6.2,0.3-9.4,0.9
						s-6.6,1.5-10,2.7v9.5c2.7-1.6,5.7-2.8,9-3.6c3.3-0.8,6.7-1.2,10.2-1.2c6.2,0,10.9,1.2,14.1,3.7c3.2,2.4,4.9,6,4.9,10.6
						c0,4.3-1.5,7.7-4.5,10.1c-3,2.4-7.2,3.6-12.6,3.6h-8.5V43h8.9c4.8,0,8.6,1,11.1,2.9c2.6,1.9,3.9,4.7,3.9,8.4
						c0,3.7-1.3,6.6-4,8.6c-2.6,2-6.4,3-11.4,3c-2.7,0-5.6-0.3-8.7-0.9c-3.1-0.6-6.5-1.5-10.2-2.7v8.8c3.8,1,7.3,1.8,10.5,2.3
						s6.4,0.8,9.2,0.8c7.5,0,13.4-1.7,17.8-5.1c4.4-3.4,6.5-8,6.5-13.8c0-4-1.2-7.5-3.5-10.2S108.5,40.4,104.2,39.3z"/>
				</g>
				<g>
					<path id="DejaVuSans-25_00000124143331192161479200000008935742453923852218_" class="st11" d="M199.9,32.1
						c-2.8,0-5.1-1.2-6.7-3.6c-1.6-2.4-2.4-5.8-2.4-10.1c0-4.2,0.8-7.6,2.4-10c1.6-2.4,3.8-3.6,6.7-3.6c2.8,0,5,1.2,6.6,3.6
						c1.6,2.4,2.4,5.8,2.4,10c0,4.3-0.8,7.6-2.4,10C204.9,30.9,202.7,32.1,199.9,32.1z M199.9,38.3c5.1,0,9.2-1.8,12.2-5.4
						c3-3.6,4.5-8.4,4.5-14.5c0-6.1-1.5-10.9-4.6-14.5c-3-3.6-7.1-5.3-12.2-5.3c-5.2,0-9.3,1.8-12.4,5.3c-3,3.6-4.5,8.4-4.5,14.5
						c0,6.1,1.5,11,4.6,14.5S194.8,38.3,199.9,38.3z M149.6,68c-2.8,0-5-1.2-6.6-3.6c-1.6-2.4-2.4-5.7-2.4-10
						c0-4.3,0.8-7.6,2.4-10.1c1.6-2.4,3.8-3.6,6.6-3.6s5.1,1.2,6.7,3.6c1.6,2.4,2.4,5.8,2.4,10.1c0,4.2-0.8,7.5-2.4,10
						C154.6,66.8,152.4,68,149.6,68z M193.7,74.2h7.8L155.9-1.4H148L193.7,74.2z M149.6,74.2c5.1,0,9.2-1.8,12.3-5.3
						c3.1-3.6,4.6-8.4,4.6-14.5c0-6.1-1.5-11-4.6-14.5s-7.2-5.3-12.3-5.3s-9.3,1.8-12.3,5.3c-3,3.6-4.5,8.4-4.5,14.5
						c0,6.1,1.5,10.9,4.5,14.5C140.3,72.4,144.4,74.2,149.6,74.2z"/>
				</g>
			</g>
		</g>
		<g id="text_13">
			<g transform="translate(268.863501 99.539732)scale(0.2 -0.2)">
				<g>
					<path id="DejaVuSans-32" class="st11" d="M19.2,8.3h34.4V0H7.3v8.3c3.7,3.9,8.8,9.1,15.3,15.6c6.5,6.5,10.5,10.7,12.2,12.6
						c3.2,3.5,5.4,6.5,6.6,9c1.3,2.5,1.9,4.9,1.9,7.2c0,3.9-1.4,7-4.1,9.5c-2.7,2.4-6.3,3.7-10.6,3.7c-3.1,0-6.4-0.5-9.8-1.6
						c-3.4-1.1-7.1-2.7-11-4.9v10c4,1.6,7.7,2.8,11.1,3.6c3.5,0.8,6.6,1.2,9.5,1.2c7.6,0,13.6-1.9,18.1-5.7
						c4.5-3.8,6.7-8.8,6.7-15.1c0-3-0.6-5.8-1.7-8.5c-1.1-2.7-3.2-5.8-6.1-9.5c-0.8-0.9-3.4-3.7-7.8-8.2
						C33.3,22.7,27.1,16.4,19.2,8.3z"/>
				</g>
				<g>
					<path id="DejaVuSans-38" class="st11" d="M95.4,34.6c-4.7,0-8.4-1.3-11.1-3.8c-2.7-2.5-4-6-4-10.3c0-4.4,1.3-7.8,4-10.4
						c2.7-2.5,6.4-3.8,11.1-3.8s8.4,1.3,11.1,3.8c2.7,2.5,4.1,6,4.1,10.3c0,4.4-1.3,7.8-4,10.3C103.8,33.4,100.1,34.6,95.4,34.6z
						 M85.5,38.8c-4.2,1-7.5,3-9.9,5.9c-2.4,2.9-3.5,6.4-3.5,10.6c0,5.8,2.1,10.4,6.2,13.8c4.2,3.4,9.8,5.1,17.1,5.1
						c7.3,0,13-1.7,17.1-5.1c4.1-3.4,6.2-8,6.2-13.8c0-4.2-1.2-7.7-3.5-10.6c-2.4-2.9-5.6-4.9-9.8-5.9c4.8-1.1,8.4-3.3,11.1-6.5
						c2.7-3.2,4-7.2,4-11.8c0-7.1-2.2-12.5-6.5-16.3c-4.3-3.8-10.5-5.7-18.5-5.7c-8,0-14.2,1.9-18.5,5.7c-4.3,3.8-6.5,9.2-6.5,16.3
						c0,4.6,1.3,8.6,4,11.8C77.1,35.5,80.8,37.7,85.5,38.8z M81.9,54.4c0-3.8,1.2-6.7,3.5-8.8c2.4-2.1,5.7-3.2,9.9-3.2
						c4.2,0,7.6,1.1,9.9,3.2c2.4,2.1,3.6,5.1,3.6,8.8c0,3.8-1.2,6.7-3.6,8.8c-2.4,2.1-5.7,3.2-9.9,3.2c-4.3,0-7.6-1.1-9.9-3.2
						C83.1,61.1,81.9,58.2,81.9,54.4z"/>
				</g>
				<g>
					<path id="DejaVuSans-25_00000134248128484442481900000015554237772057340549_" class="st11" d="M199.9,32.1
						c-2.8,0-5.1-1.2-6.7-3.6c-1.6-2.4-2.4-5.8-2.4-10.1c0-4.2,0.8-7.6,2.4-10c1.6-2.4,3.8-3.6,6.7-3.6c2.8,0,5,1.2,6.6,3.6
						c1.6,2.4,2.4,5.8,2.4,10c0,4.3-0.8,7.6-2.4,10C204.9,30.9,202.7,32.1,199.9,32.1z M199.9,38.3c5.1,0,9.2-1.8,12.2-5.4
						c3-3.6,4.5-8.4,4.5-14.5c0-6.1-1.5-10.9-4.6-14.5c-3-3.6-7.1-5.3-12.2-5.3c-5.2,0-9.3,1.8-12.4,5.3c-3,3.6-4.5,8.4-4.5,14.5
						c0,6.1,1.5,11,4.6,14.5S194.8,38.3,199.9,38.3z M149.6,68c-2.8,0-5-1.2-6.6-3.6c-1.6-2.4-2.4-5.7-2.4-10
						c0-4.3,0.8-7.6,2.4-10.1c1.6-2.4,3.8-3.6,6.6-3.6s5.1,1.2,6.7,3.6c1.6,2.4,2.4,5.8,2.4,10.1c0,4.2-0.8,7.5-2.4,10
						C154.6,66.8,152.4,68,149.6,68z M193.7,74.2h7.8L155.9-1.4H148L193.7,74.2z M149.6,74.2c5.1,0,9.2-1.8,12.3-5.3
						c3.1-3.6,4.6-8.4,4.6-14.5c0-6.1-1.5-11-4.6-14.5s-7.2-5.3-12.3-5.3s-9.3,1.8-12.3,5.3c-3,3.6-4.5,8.4-4.5,14.5
						c0,6.1,1.5,10.9,4.5,14.5C140.3,72.4,144.4,74.2,149.6,74.2z"/>
				</g>
			</g>
		</g>
		<g id="text_14">
			<g transform="translate(344.973437 112.396875)scale(0.2 -0.2)">
				<g>
					<path id="DejaVuSans-32_00000104693489046226638030000010530764455588217483_" class="st11" d="M19.2,8.3h34.4V0H7.3v8.3
						c3.7,3.9,8.8,9.1,15.3,15.6c6.5,6.5,10.5,10.7,12.2,12.6c3.2,3.5,5.4,6.5,6.6,9c1.3,2.5,1.9,4.9,1.9,7.2c0,3.9-1.4,7-4.1,9.5
						c-2.7,2.4-6.3,3.7-10.6,3.7c-3.1,0-6.4-0.5-9.8-1.6c-3.4-1.1-7.1-2.7-11-4.9v10c4,1.6,7.7,2.8,11.1,3.6
						c3.5,0.8,6.6,1.2,9.5,1.2c7.6,0,13.6-1.9,18.1-5.7c4.5-3.8,6.7-8.8,6.7-15.1c0-3-0.6-5.8-1.7-8.5c-1.1-2.7-3.2-5.8-6.1-9.5
						c-0.8-0.9-3.4-3.7-7.8-8.2C33.3,22.7,27.1,16.4,19.2,8.3z"/>
				</g>
				<g>
					<path id="DejaVuSans-32_00000008851137073468388630000003848071714501017011_" class="st11" d="M82.8,8.3h34.4V0H71v8.3
						c3.7,3.9,8.8,9.1,15.3,15.6c6.5,6.5,10.5,10.7,12.2,12.6c3.2,3.5,5.4,6.5,6.6,9c1.3,2.5,1.9,4.9,1.9,7.2c0,3.9-1.4,7-4.1,9.5
						c-2.7,2.4-6.3,3.7-10.6,3.7c-3.1,0-6.4-0.5-9.8-1.6c-3.4-1.1-7.1-2.7-11-4.9v10c4,1.6,7.7,2.8,11.1,3.6
						c3.5,0.8,6.6,1.2,9.5,1.2c7.6,0,13.6-1.9,18.1-5.7c4.5-3.8,6.7-8.8,6.7-15.1c0-3-0.6-5.8-1.7-8.5c-1.1-2.7-3.2-5.8-6.1-9.5
						c-0.8-0.9-3.4-3.7-7.8-8.2C96.9,22.7,90.8,16.4,82.8,8.3z"/>
				</g>
				<g>
					<path id="DejaVuSans-25_00000053531982765388107890000000143729554623785089_" class="st11" d="M199.9,32.1
						c-2.8,0-5.1-1.2-6.7-3.6c-1.6-2.4-2.4-5.8-2.4-10.1c0-4.2,0.8-7.6,2.4-10c1.6-2.4,3.8-3.6,6.7-3.6c2.8,0,5,1.2,6.6,3.6
						c1.6,2.4,2.4,5.8,2.4,10c0,4.3-0.8,7.6-2.4,10C204.9,30.9,202.7,32.1,199.9,32.1z M199.9,38.3c5.1,0,9.2-1.8,12.2-5.4
						c3-3.6,4.5-8.4,4.5-14.5c0-6.1-1.5-10.9-4.6-14.5c-3-3.6-7.1-5.3-12.2-5.3c-5.2,0-9.3,1.8-12.4,5.3c-3,3.6-4.5,8.4-4.5,14.5
						c0,6.1,1.5,11,4.6,14.5S194.8,38.3,199.9,38.3z M149.6,68c-2.8,0-5-1.2-6.6-3.6c-1.6-2.4-2.4-5.7-2.4-10
						c0-4.3,0.8-7.6,2.4-10.1c1.6-2.4,3.8-3.6,6.6-3.6s5.1,1.2,6.7,3.6c1.6,2.4,2.4,5.8,2.4,10.1c0,4.2-0.8,7.5-2.4,10
						C154.6,66.8,152.4,68,149.6,68z M193.7,74.2h7.8L155.9-1.4H148L193.7,74.2z M149.6,74.2c5.1,0,9.2-1.8,12.3-5.3
						c3.1-3.6,4.6-8.4,4.6-14.5c0-6.1-1.5-11-4.6-14.5s-7.2-5.3-12.3-5.3s-9.3,1.8-12.3,5.3c-3,3.6-4.5,8.4-4.5,14.5
						c0,6.1,1.5,10.9,4.5,14.5C140.3,72.4,144.4,74.2,149.6,74.2z"/>
				</g>
			</g>
		</g>
		<g id="text_15">
			<g transform="translate(421.083374 118.825446)scale(0.2 -0.2)">
				<g>
					<path id="DejaVuSans-31" class="st11" d="M12.4,8.3h16.1v55.6L11,60.4v9l17.4,3.5h9.9V8.3h16.1V0h-42V8.3z"/>
				</g>
				<g>
					<path id="DejaVuSans-39" class="st11" d="M74.6,1.5v9c2.5-1.2,5-2.1,7.5-2.7c2.5-0.6,5-0.9,7.5-0.9c6.5,0,11.5,2.2,14.9,6.6
						c3.4,4.4,5.4,11,5.9,20c-1.9-2.8-4.3-5-7.2-6.5c-2.9-1.5-6.1-2.2-9.6-2.2c-7.3,0-13.1,2.2-17.3,6.6c-4.2,4.4-6.4,10.5-6.4,18.1
						c0,7.5,2.2,13.5,6.6,18c4.4,4.5,10.3,6.8,17.7,6.8c8.4,0,14.9-3.2,19.3-9.7c4.4-6.5,6.7-15.8,6.7-28.1
						c0-11.5-2.7-20.7-8.2-27.5C106.6,2,99.3-1.4,90-1.4c-2.5,0-5,0.2-7.5,0.7C80-0.2,77.3,0.5,74.6,1.5z M94.2,32.4
						c4.4,0,7.9,1.5,10.5,4.5c2.6,3,3.9,7.2,3.9,12.5c0,5.2-1.3,9.4-3.9,12.4c-2.6,3-6.1,4.6-10.5,4.6s-7.9-1.5-10.5-4.6
						c-2.6-3-3.9-7.2-3.9-12.4c0-5.3,1.3-9.4,3.9-12.5C86.3,33.9,89.8,32.4,94.2,32.4z"/>
				</g>
				<g>
					<path id="DejaVuSans-25_00000088823649798207869670000008647113671056424615_" class="st11" d="M199.9,32.1
						c-2.8,0-5.1-1.2-6.7-3.6c-1.6-2.4-2.4-5.8-2.4-10.1c0-4.2,0.8-7.6,2.4-10c1.6-2.4,3.8-3.6,6.7-3.6c2.8,0,5,1.2,6.6,3.6
						c1.6,2.4,2.4,5.8,2.4,10c0,4.3-0.8,7.6-2.4,10C204.9,30.9,202.7,32.1,199.9,32.1z M199.9,38.3c5.1,0,9.2-1.8,12.2-5.4
						c3-3.6,4.5-8.4,4.5-14.5c0-6.1-1.5-10.9-4.6-14.5c-3-3.6-7.1-5.3-12.2-5.3c-5.2,0-9.3,1.8-12.4,5.3c-3,3.6-4.5,8.4-4.5,14.5
						c0,6.1,1.5,11,4.6,14.5S194.8,38.3,199.9,38.3z M149.6,68c-2.8,0-5-1.2-6.6-3.6c-1.6-2.4-2.4-5.7-2.4-10
						c0-4.3,0.8-7.6,2.4-10.1c1.6-2.4,3.8-3.6,6.6-3.6c2.8,0,5.1,1.2,6.7,3.6c1.6,2.4,2.4,5.8,2.4,10.1c0,4.2-0.8,7.5-2.4,10
						C154.6,66.8,152.4,68,149.6,68z M193.7,74.2h7.8L155.9-1.4H148L193.7,74.2z M149.6,74.2c5.1,0,9.2-1.8,12.3-5.3
						c3.1-3.6,4.6-8.4,4.6-14.5c0-6.1-1.5-11-4.6-14.5c-3-3.6-7.2-5.3-12.3-5.3c-5.2,0-9.3,1.8-12.3,5.3c-3,3.6-4.5,8.4-4.5,14.5
						c0,6.1,1.5,10.9,4.5,14.5C140.3,72.4,144.4,74.2,149.6,74.2z"/>
				</g>
			</g>
		</g>
		<g id="text_16">
			<g transform="translate(497.193311 135.968304)scale(0.2 -0.2)">
				<g>
					<path id="DejaVuSans-31_00000041990819165637896050000008259735274990312112_" class="st11" d="M12.4,8.3h16.1v55.6L11,60.4v9
						l17.4,3.5h9.9V8.3h16.1V0h-42V8.3z"/>
				</g>
				<g>
					<path id="DejaVuSans-31_00000095316200243690002300000018200544412973934728_" class="st11" d="M76,8.3h16.1v55.6l-17.5-3.5v9
						L92,72.9h9.9V8.3H118V0H76V8.3z"/>
				</g>
				<g>
					<path id="DejaVuSans-25_00000036213547096561561450000018196948328429014915_" class="st11" d="M199.9,32.1
						c-2.8,0-5.1-1.2-6.7-3.6c-1.6-2.4-2.4-5.8-2.4-10.1c0-4.2,0.8-7.6,2.4-10c1.6-2.4,3.8-3.6,6.7-3.6c2.8,0,5,1.2,6.6,3.6
						c1.6,2.4,2.4,5.8,2.4,10c0,4.3-0.8,7.6-2.4,10C204.9,30.9,202.7,32.1,199.9,32.1z M199.9,38.3c5.1,0,9.2-1.8,12.2-5.4
						c3-3.6,4.5-8.4,4.5-14.5c0-6.1-1.5-10.9-4.6-14.5c-3-3.6-7.1-5.3-12.2-5.3c-5.2,0-9.3,1.8-12.4,5.3c-3,3.6-4.5,8.4-4.5,14.5
						c0,6.1,1.5,11,4.6,14.5C190.7,36.5,194.8,38.3,199.9,38.3z M149.6,68c-2.8,0-5-1.2-6.6-3.6c-1.6-2.4-2.4-5.7-2.4-10
						c0-4.3,0.8-7.6,2.4-10.1c1.6-2.4,3.8-3.6,6.6-3.6c2.8,0,5.1,1.2,6.7,3.6c1.6,2.4,2.4,5.8,2.4,10.1c0,4.2-0.8,7.5-2.4,10
						C154.6,66.8,152.4,68,149.6,68z M193.7,74.2h7.8L155.9-1.4H148L193.7,74.2z M149.6,74.2c5.1,0,9.2-1.8,12.3-5.3
						c3.1-3.6,4.6-8.4,4.6-14.5c0-6.1-1.5-11-4.6-14.5c-3-3.6-7.2-5.3-12.3-5.3c-5.2,0-9.3,1.8-12.3,5.3c-3,3.6-4.5,8.4-4.5,14.5
						c0,6.1,1.5,10.9,4.5,14.5C140.3,72.4,144.4,74.2,149.6,74.2z"/>
				</g>
			</g>
		</g>
		<g id="text_17">
			<g transform="translate(573.303247 135.968304)scale(0.2 -0.2)">
				<g>
					<path id="DejaVuSans-31_00000011747148813690170790000016574738648207050637_" class="st11" d="M12.4,8.3h16.1v55.6L11,60.4v9
						l17.4,3.5h9.9V8.3h16.1V0h-42V8.3z"/>
				</g>
				<g>
					<path id="DejaVuSans-31_00000010285227798933358530000007039311156928355740_" class="st11" d="M76,8.3h16.1v55.6l-17.5-3.5v9
						L92,72.9h9.9V8.3H118V0H76V8.3z"/>
				</g>
				<g>
					<path id="DejaVuSans-25_00000155121343776826638830000002714658925658222223_" class="st11" d="M199.9,32.1
						c-2.8,0-5.1-1.2-6.7-3.6c-1.6-2.4-2.4-5.8-2.4-10.1c0-4.2,0.8-7.6,2.4-10c1.6-2.4,3.8-3.6,6.7-3.6c2.8,0,5,1.2,6.6,3.6
						c1.6,2.4,2.4,5.8,2.4,10c0,4.3-0.8,7.6-2.4,10C204.9,30.9,202.7,32.1,199.9,32.1z M199.9,38.3c5.1,0,9.2-1.8,12.2-5.4
						c3-3.6,4.5-8.4,4.5-14.5c0-6.1-1.5-10.9-4.6-14.5c-3-3.6-7.1-5.3-12.2-5.3c-5.2,0-9.3,1.8-12.4,5.3c-3,3.6-4.5,8.4-4.5,14.5
						c0,6.1,1.5,11,4.6,14.5S194.8,38.3,199.9,38.3z M149.6,68c-2.8,0-5-1.2-6.6-3.6c-1.6-2.4-2.4-5.7-2.4-10
						c0-4.3,0.8-7.6,2.4-10.1c1.6-2.4,3.8-3.6,6.6-3.6s5.1,1.2,6.7,3.6c1.6,2.4,2.4,5.8,2.4,10.1c0,4.2-0.8,7.5-2.4,10
						C154.6,66.8,152.4,68,149.6,68z M193.7,74.2h7.8L155.9-1.4H148L193.7,74.2z M149.6,74.2c5.1,0,9.2-1.8,12.3-5.3
						c3.1-3.6,4.6-8.4,4.6-14.5c0-6.1-1.5-11-4.6-14.5c-3-3.6-7.2-5.3-12.3-5.3s-9.3,1.8-12.3,5.3c-3,3.6-4.5,8.4-4.5,14.5
						c0,6.1,1.5,10.9,4.5,14.5C140.3,72.4,144.4,74.2,149.6,74.2z"/>
				</g>
			</g>
		</g>
		<g id="text_18">
			<g transform="translate(655.775684 150.968304)scale(0.2 -0.2)">
				<g>
					<path id="DejaVuSans-34_00000106106850469429237410000001835111774795498120_" class="st11" d="M37.8,64.3L12.9,25.4h24.9V64.3
						z M35.2,72.9h12.4V25.4H58v-8.2H47.6V0h-9.8v17.2H4.9v9.5L35.2,72.9z"/>
				</g>
				<g>
					<path id="DejaVuSans-25_00000037677669300310301250000017313310162327032242_" class="st11" d="M136.3,32.1
						c-2.8,0-5.1-1.2-6.7-3.6c-1.6-2.4-2.4-5.8-2.4-10.1c0-4.2,0.8-7.6,2.4-10c1.6-2.4,3.8-3.6,6.7-3.6c2.8,0,5,1.2,6.6,3.6
						c1.6,2.4,2.4,5.8,2.4,10c0,4.3-0.8,7.6-2.4,10C141.3,30.9,139.1,32.1,136.3,32.1z M136.3,38.3c5.1,0,9.2-1.8,12.2-5.4
						c3-3.6,4.5-8.4,4.5-14.5c0-6.1-1.5-10.9-4.6-14.5c-3-3.6-7.1-5.3-12.2-5.3c-5.2,0-9.3,1.8-12.4,5.3c-3,3.6-4.5,8.4-4.5,14.5
						c0,6.1,1.5,11,4.6,14.5C127,36.5,131.1,38.3,136.3,38.3z M85.9,68c-2.8,0-5-1.2-6.6-3.6c-1.6-2.4-2.4-5.7-2.4-10
						c0-4.3,0.8-7.6,2.4-10.1c1.6-2.4,3.8-3.6,6.6-3.6s5.1,1.2,6.7,3.6c1.6,2.4,2.4,5.8,2.4,10.1c0,4.2-0.8,7.5-2.4,10
						C91,66.8,88.7,68,85.9,68z M130,74.2h7.8L92.2-1.4h-7.8L130,74.2z M85.9,74.2c5.1,0,9.2-1.8,12.3-5.3c3.1-3.6,4.6-8.4,4.6-14.5
						c0-6.1-1.5-11-4.6-14.5c-3-3.6-7.2-5.3-12.3-5.3s-9.3,1.8-12.3,5.3c-3,3.6-4.5,8.4-4.5,14.5c0,6.1,1.5,10.9,4.5,14.5
						C76.7,72.4,80.8,74.2,85.9,74.2z"/>
				</g>
			</g>
		</g>
	</g>
</g>
</svg>
