<?xml version="1.0" encoding="utf-8"?>
<!-- Generator: Adobe Illustrator 26.0.2, SVG Export Plug-In . SVG Version: 6.00 Build 0)  -->
<svg version="1.1" id="Layer_1" xmlns="http://www.w3.org/2000/svg" xmlns:xlink="http://www.w3.org/1999/xlink" x="0px" y="0px"
	 viewBox="0 0 734.4 208.9" style="enable-background:new 0 0 734.4 208.9;" xml:space="preserve">
<style type="text/css">
	.st0{fill:none;}
	.st1{clip-path:url(#SVGID_00000044882690575406857850000004168944408038954684_);fill:#9866CF;}
	.st2{clip-path:url(#SVGID_00000080164252229448452570000003745248912857415046_);fill:#9866CF;}
	.st3{clip-path:url(#SVGID_00000002354135538919039760000009431792849666011296_);fill:#9866CF;}
	.st4{clip-path:url(#SVGID_00000183251181856986731870000001824817213082521216_);fill:#9866CF;}
	.st5{clip-path:url(#SVGID_00000021088353181505516740000002387977127822484669_);fill:#9866CF;}
	.st6{clip-path:url(#SVGID_00000001637312757721088400000006265100244700005041_);fill:#9866CF;}
	.st7{clip-path:url(#SVGID_00000132047599862533063550000011700383924280792501_);fill:#9866CF;}
	.st8{fill:#290849;stroke:#290849;stroke-width:0.8;stroke-linejoin:round;}
	.st9{fill:#290849;}
</style>
<g id="figure_1">
	<g id="patch_1">
		<path class="st0" d="M0,208.9h734.4V0H0V208.9z"/>
	</g>
	<g id="axes_1">
		<g id="patch_2">
			<path class="st0" d="M7.2,168.7h720v-144H7.2V168.7z"/>
		</g>
		<g id="patch_3">
			<g>
				<defs>
					<rect id="SVGID_1_" x="7.2" y="24.7" width="720" height="144"/>
				</defs>
				<clipPath id="SVGID_00000003807655368810766430000009216565649227417276_">
					<use xlink:href="#SVGID_1_"  style="overflow:visible;"/>
				</clipPath>
				<path style="clip-path:url(#SVGID_00000003807655368810766430000009216565649227417276_);fill:#9866CF;" d="M39.9,168.7h59.5
					V31.6H39.9V168.7z"/>
			</g>
		</g>
		<g id="patch_4">
			<g>
				<defs>
					<rect id="SVGID_00000140703438671467428400000013508059810393665442_" x="7.2" y="24.7" width="720" height="144"/>
				</defs>
				<clipPath id="SVGID_00000064318933646826372410000009077473644524820407_">
					<use xlink:href="#SVGID_00000140703438671467428400000013508059810393665442_"  style="overflow:visible;"/>
				</clipPath>
				<path style="clip-path:url(#SVGID_00000064318933646826372410000009077473644524820407_);fill:#9866CF;" d="M139.1,168.7h59.5
					v-13.5h-59.5V168.7z"/>
			</g>
		</g>
		<g id="patch_5">
			<g>
				<defs>
					<rect id="SVGID_00000128465141181373016630000016204628361300125863_" x="7.2" y="24.7" width="720" height="144"/>
				</defs>
				<clipPath id="SVGID_00000032620082044540250760000015869187354528390057_">
					<use xlink:href="#SVGID_00000128465141181373016630000016204628361300125863_"  style="overflow:visible;"/>
				</clipPath>
				<path style="clip-path:url(#SVGID_00000032620082044540250760000015869187354528390057_);fill:#9866CF;" d="M238.3,168.7h59.5
					v-11.6h-59.5V168.7z"/>
			</g>
		</g>
		<g id="patch_6">
			<g>
				<defs>
					<rect id="SVGID_00000067235078373781492700000012987505377413406130_" x="7.2" y="24.7" width="720" height="144"/>
				</defs>
				<clipPath id="SVGID_00000083773782970488940520000014246616031860128443_">
					<use xlink:href="#SVGID_00000067235078373781492700000012987505377413406130_"  style="overflow:visible;"/>
				</clipPath>
				<path style="clip-path:url(#SVGID_00000083773782970488940520000014246616031860128443_);fill:#9866CF;" d="M337.4,168.7H397
					V159h-59.5V168.7z"/>
			</g>
		</g>
		<g id="patch_7">
			<g>
				<defs>
					<rect id="SVGID_00000149371307771294550900000017045436962792780192_" x="7.2" y="24.7" width="720" height="144"/>
				</defs>
				<clipPath id="SVGID_00000116918534944625129900000004291606383331227779_">
					<use xlink:href="#SVGID_00000149371307771294550900000017045436962792780192_"  style="overflow:visible;"/>
				</clipPath>
				<path style="clip-path:url(#SVGID_00000116918534944625129900000004291606383331227779_);fill:#9866CF;" d="M436.6,168.7h59.5
					v-3.9h-59.5V168.7z"/>
			</g>
		</g>
		<g id="patch_8">
			<g>
				<defs>
					<rect id="SVGID_00000129178096057096111030000005077937782552852645_" x="7.2" y="24.7" width="720" height="144"/>
				</defs>
				<clipPath id="SVGID_00000145766743084714109510000012577537291702025384_">
					<use xlink:href="#SVGID_00000129178096057096111030000005077937782552852645_"  style="overflow:visible;"/>
				</clipPath>
				<path style="clip-path:url(#SVGID_00000145766743084714109510000012577537291702025384_);fill:#9866CF;" d="M535.8,168.7h59.5
					v-1.9h-59.5V168.7z"/>
			</g>
		</g>
		<g id="patch_9">
			<g>
				<defs>
					<rect id="SVGID_00000057827841673379992800000016531033795305541250_" x="7.2" y="24.7" width="720" height="144"/>
				</defs>
				<clipPath id="SVGID_00000179621233347826334670000015012968567601385629_">
					<use xlink:href="#SVGID_00000057827841673379992800000016531033795305541250_"  style="overflow:visible;"/>
				</clipPath>
				<path style="clip-path:url(#SVGID_00000179621233347826334670000015012968567601385629_);fill:#9866CF;" d="M635,168.7h59.5
					v-1.9H635V168.7z"/>
			</g>
		</g>
		<g id="matplotlib.axis_1">
			<g id="xtick_1">
				<g id="line2d_1">
					<g>
						<g>
							<path id="m41560180b3_00000120517050005248720240000006306225405866509194_" class="st8" d="M69.7,168.7"/>
						</g>
					</g>
				</g>
				<g id="text_1">
					<g transform="translate(42.598479 198.596763)scale(0.15 -0.15)">
						<g>
							<path id="DejaVuSans-45" class="st9" d="M9.8,72.9h46.1v-8.3H19.7V43h34.7v-8.3H19.7V8.3h37.1V0h-47V72.9z"/>
						</g>
						<g>
							<path id="DejaVuSans-6e" class="st9" d="M118.1,33V0h-9v32.7c0,5.2-1,9-3,11.6c-2,2.6-5,3.9-9.1,3.9c-4.9,0-8.7-1.5-11.5-4.6
								c-2.8-3.1-4.2-7.3-4.2-12.6V0h-9v54.7h9v-8.5c2.2,3.3,4.7,5.8,7.6,7.4C91.8,55.2,95.2,56,99,56c6.3,0,11-1.9,14.2-5.8
								C116.5,46.3,118.1,40.6,118.1,33z"/>
						</g>
						<g>
							<path id="DejaVuSans-67" class="st9" d="M172,28c0,6.5-1.3,11.6-4,15.1c-2.7,3.6-6.4,5.4-11.3,5.4c-4.8,0-8.6-1.8-11.3-5.4
								c-2.7-3.6-4-8.6-4-15.1c0-6.5,1.3-11.5,4-15.1s6.4-5.4,11.3-5.4c4.9,0,8.6,1.8,11.3,5.4C170.6,16.5,172,21.5,172,28z
								 M181,6.8c0-9.3-2.1-16.2-6.2-20.8c-4.1-4.5-10.5-6.8-19-6.8c-3.2,0-6.1,0.2-8.9,0.7c-2.8,0.5-5.5,1.2-8.2,2.2v8.7
								c2.6-1.4,5.2-2.5,7.8-3.2c2.6-0.7,5.2-1,7.9-1c5.9,0,10.3,1.5,13.2,4.6C170.5-5.7,172-1,172,5.2v4.5
								c-1.9-3.2-4.2-5.6-7.1-7.2c-2.9-1.6-6.4-2.4-10.4-2.4c-6.7,0-12.1,2.6-16.2,7.7c-4.1,5.1-6.2,11.9-6.2,20.3
								c0,8.5,2.1,15.2,6.2,20.3c4.1,5.1,9.5,7.7,16.2,7.7c4,0,7.5-0.8,10.4-2.4c2.9-1.6,5.3-4,7.1-7.2v8.3h9V6.8z"/>
						</g>
						<g>
							<path id="DejaVuSans-6c" class="st9" d="M199.5,76h9V0h-9V76z"/>
						</g>
						<g>
							<path id="DejaVuSans-69" class="st9" d="M227.2,54.7h9V0h-9V54.7z M227.2,76h9V64.6h-9V76z"/>
						</g>
						<g>
							<path id="DejaVuSans-73" class="st9" d="M289.9,53.1v-8.5c-2.5,1.3-5.2,2.3-7.9,2.9c-2.7,0.7-5.6,1-8.5,1
								c-4.5,0-7.8-0.7-10-2c-2.2-1.4-3.3-3.4-3.3-6.2c0-2.1,0.8-3.7,2.4-4.9s4.8-2.3,9.6-3.4l3.1-0.7c6.4-1.4,10.9-3.3,13.6-5.8
								s4-6,4-10.4c0-5.1-2-9.1-6-12.1c-4-3-9.5-4.4-16.6-4.4c-2.9,0-6,0.3-9.2,0.9c-3.2,0.6-6.5,1.4-10,2.6v9.3
								c3.3-1.7,6.6-3,9.8-3.9c3.2-0.9,6.4-1.3,9.6-1.3c4.2,0,7.5,0.7,9.8,2.2c2.3,1.4,3.4,3.5,3.4,6.1c0,2.4-0.8,4.3-2.5,5.6
								c-1.6,1.3-5.2,2.6-10.8,3.8l-3.1,0.7c-5.6,1.2-9.6,3-12.1,5.4c-2.5,2.4-3.7,5.8-3.7,10c0,5.1,1.8,9.1,5.5,11.9
								c3.6,2.8,8.8,4.2,15.5,4.2c3.3,0,6.4-0.2,9.4-0.7C284.7,54.8,287.4,54.1,289.9,53.1z"/>
						</g>
						<g>
							<path id="DejaVuSans-68" class="st9" d="M352.6,33V0h-9v32.7c0,5.2-1,9-3,11.6c-2,2.6-5,3.9-9.1,3.9c-4.9,0-8.7-1.5-11.5-4.6
								c-2.8-3.1-4.2-7.3-4.2-12.6V0h-9v76h9V46.2c2.2,3.3,4.7,5.8,7.6,7.4c2.9,1.6,6.3,2.4,10.1,2.4c6.3,0,11-1.9,14.3-5.8
								C351,46.3,352.6,40.6,352.6,33z"/>
						</g>
					</g>
				</g>
			</g>
			<g id="xtick_2">
				<g id="line2d_2">
					<g>
						<g>
							<path id="m41560180b3_00000113345062666341286440000016174135631009366422_" class="st8" d="M168.9,168.7"/>
						</g>
					</g>
				</g>
				<g id="text_2">
					<g transform="translate(139.237268 198.596763)scale(0.15 -0.15)">
						<g>
							<path id="DejaVuSans-53" class="st9" d="M53.5,70.5v-9.6c-3.7,1.8-7.3,3.1-10.6,4c-3.3,0.9-6.5,1.3-9.6,1.3
								c-5.4,0-9.5-1-12.4-3.1s-4.4-5-4.4-8.9c0-3.2,1-5.7,2.9-7.3c1.9-1.6,5.6-3,11-4l6-1.2c7.4-1.4,12.8-3.9,16.3-7.4
								s5.2-8.3,5.2-14.2c0-7.1-2.4-12.4-7.1-16.1C46.1,0.4,39.1-1.4,30-1.4c-3.4,0-7.1,0.4-11,1.2c-3.9,0.8-7.9,1.9-12.1,3.5v10.2
								c4-2.2,7.9-3.9,11.8-5.1c3.8-1.1,7.6-1.7,11.3-1.7c5.6,0,10,1.1,13,3.3c3.1,2.2,4.6,5.4,4.6,9.5c0,3.6-1.1,6.4-3.3,8.4
								s-5.8,3.5-10.8,4.5l-6,1.2c-7.4,1.5-12.7,3.8-16,6.9c-3.3,3.1-4.9,7.5-4.9,13c0,6.4,2.3,11.5,6.8,15.2s10.8,5.6,18.8,5.6
								c3.4,0,6.9-0.3,10.5-0.9C46.2,72.7,49.8,71.7,53.5,70.5z"/>
						</g>
						<g>
							<path id="DejaVuSans-70" class="st9" d="M81.6,8.2v-29h-9v75.5h9v-8.3c1.9,3.2,4.3,5.7,7.2,7.2c2.9,1.6,6.3,2.4,10.3,2.4
								c6.6,0,12-2.6,16.2-7.9c4.2-5.3,6.2-12.2,6.2-20.8s-2.1-15.5-6.2-20.8c-4.1-5.3-9.5-7.9-16.2-7.9c-4,0-7.4,0.8-10.3,2.4
								C85.9,2.5,83.5,5,81.6,8.2z M112.2,27.3c0,6.6-1.4,11.8-4.1,15.5c-2.7,3.8-6.5,5.6-11.2,5.6c-4.8,0-8.5-1.9-11.2-5.6
								c-2.7-3.8-4.1-8.9-4.1-15.5s1.4-11.8,4.1-15.5s6.5-5.6,11.2-5.6c4.8,0,8.5,1.9,11.2,5.6S112.2,20.7,112.2,27.3z"/>
						</g>
						<g>
							<path id="DejaVuSans-61" class="st9" d="M161.2,27.5c-7.3,0-12.3-0.8-15.1-2.5c-2.8-1.7-4.2-4.5-4.2-8.5
								c0-3.2,1.1-5.7,3.2-7.6c2.1-1.9,5-2.8,8.6-2.8c5,0,9,1.8,12,5.3c3,3.5,4.5,8.2,4.5,14.1v2H161.2z M179.2,31.2V0h-9v8.3
								c-2.1-3.3-4.6-5.8-7.7-7.3c-3.1-1.6-6.8-2.4-11.2-2.4c-5.6,0-10,1.6-13.4,4.7c-3.3,3.1-5,7.4-5,12.6c0,6.1,2.1,10.8,6.2,13.9
								c4.1,3.1,10.3,4.7,18.4,4.7h12.6v0.9c0,4.1-1.4,7.3-4.1,9.6c-2.7,2.3-6.5,3.4-11.5,3.4c-3.1,0-6.2-0.4-9.1-1.1
								c-3-0.8-5.8-1.9-8.5-3.4v8.3c3.3,1.3,6.5,2.2,9.6,2.8c3.1,0.6,6.1,1,9,1c7.9,0,13.8-2.1,17.7-6.2
								C177.2,45.8,179.2,39.5,179.2,31.2z"/>
						</g>
						<g>
							<path id="DejaVuSans-6e_00000006669782000505031650000000907781299221493400_" class="st9" d="M243.1,33V0h-9v32.7
								c0,5.2-1,9-3,11.6c-2,2.6-5,3.9-9.1,3.9c-4.9,0-8.7-1.5-11.5-4.6c-2.8-3.1-4.2-7.3-4.2-12.6V0h-9v54.7h9v-8.5
								c2.2,3.3,4.7,5.8,7.6,7.4c2.9,1.6,6.3,2.4,10.1,2.4c6.3,0,11-1.9,14.2-5.8C241.5,46.3,243.1,40.6,243.1,33z"/>
						</g>
						<g>
							<path id="DejaVuSans-69_00000176724607566286747670000003355822365073275055_" class="st9" d="M261,54.7h9V0h-9V54.7z
								 M261,76h9V64.6h-9V76z"/>
						</g>
						<g>
							<path id="DejaVuSans-73_00000176752896587450111510000014473074896912794032_" class="st9" d="M323.7,53.1v-8.5
								c-2.5,1.3-5.2,2.3-7.9,2.9c-2.7,0.7-5.6,1-8.5,1c-4.5,0-7.8-0.7-10-2c-2.2-1.4-3.3-3.4-3.3-6.2c0-2.1,0.8-3.7,2.4-4.9
								s4.8-2.3,9.6-3.4l3.1-0.7c6.4-1.4,10.9-3.3,13.6-5.8s4-6,4-10.4c0-5.1-2-9.1-6-12.1c-4-3-9.5-4.4-16.6-4.4
								c-2.9,0-6,0.3-9.2,0.9c-3.2,0.6-6.5,1.4-10,2.6v9.3c3.3-1.7,6.6-3,9.8-3.9c3.2-0.9,6.4-1.3,9.6-1.3c4.2,0,7.5,0.7,9.8,2.2
								c2.3,1.4,3.4,3.5,3.4,6.1c0,2.4-0.8,4.3-2.5,5.6c-1.6,1.3-5.2,2.6-10.8,3.8l-3.1,0.7c-5.6,1.2-9.6,3-12.1,5.4
								c-2.5,2.4-3.7,5.8-3.7,10c0,5.1,1.8,9.1,5.5,11.9c3.6,2.8,8.8,4.2,15.5,4.2c3.3,0,6.4-0.2,9.4-0.7
								C318.5,54.8,321.2,54.1,323.7,53.1z"/>
						</g>
						<g>
							<path id="DejaVuSans-68_00000103263799806786990310000008372855254075067008_" class="st9" d="M386.4,33V0h-9v32.7
								c0,5.2-1,9-3,11.6c-2,2.6-5,3.9-9.1,3.9c-4.9,0-8.7-1.5-11.5-4.6c-2.8-3.1-4.2-7.3-4.2-12.6V0h-9v76h9V46.2
								c2.2,3.3,4.7,5.8,7.6,7.4c2.9,1.6,6.3,2.4,10.1,2.4c6.3,0,11-1.9,14.2-5.8C384.8,46.3,386.4,40.6,386.4,33z"/>
						</g>
					</g>
				</g>
			</g>
			<g id="xtick_3">
				<g id="line2d_3">
					<g>
						<g>
							<path id="m41560180b3_00000039844080267106298990000016462282401701007273_" class="st8" d="M268,168.7"/>
						</g>
					</g>
				</g>
				<g id="text_3">
					<g transform="translate(243.097149 198.596763)scale(0.15 -0.15)">
						<g>
							<path id="DejaVuSans-46" class="st9" d="M9.8,72.9h41.9v-8.3h-32V43.1h28.9v-8.3H19.7V0H9.8V72.9z"/>
						</g>
						<g>
							<path id="DejaVuSans-72" class="st9" d="M91.4,46.3c-1,0.6-2.1,1-3.3,1.3c-1.2,0.3-2.5,0.4-3.9,0.4c-5.1,0-9-1.7-11.7-5
								c-2.7-3.3-4.1-8-4.1-14.2V0h-9v54.7h9v-8.5c1.9,3.3,4.4,5.8,7.4,7.4c3,1.6,6.7,2.4,11,2.4c0.6,0,1.3,0,2-0.1
								c0.8-0.1,1.6-0.2,2.5-0.4L91.4,46.3z"/>
						</g>
						<g>
							<path id="DejaVuSans-65" class="st9" d="M145.3,29.6v-4.4H104c0.4-6.2,2.3-10.9,5.6-14.1c3.3-3.2,8-4.9,13.9-4.9
								c3.4,0,6.8,0.4,10,1.3s6.5,2.1,9.7,3.8V2.8c-3.2-1.4-6.5-2.4-9.9-3.1s-6.8-1.1-10.3-1.1c-8.7,0-15.6,2.5-20.7,7.6
								c-5.1,5.1-7.6,12-7.6,20.6c0,8.9,2.4,16,7.2,21.3c4.8,5.3,11.4,7.9,19.6,7.9c7.4,0,13.2-2.4,17.5-7.1
								C143.2,44.2,145.3,37.7,145.3,29.6z M136.4,32.2c-0.1,4.9-1.4,8.8-4.1,11.8c-2.7,2.9-6.2,4.4-10.7,4.4c-5,0-9-1.4-12-4.3
								c-3-2.8-4.7-6.8-5.2-12L136.4,32.2z"/>
						</g>
						<g>
							<path id="DejaVuSans-6e_00000104694298434562287640000009388402317866618028_" class="st9" d="M205.5,33V0h-9v32.7
								c0,5.2-1,9-3,11.6c-2,2.6-5,3.9-9.1,3.9c-4.9,0-8.7-1.5-11.5-4.6c-2.8-3.1-4.2-7.3-4.2-12.6V0h-9v54.7h9v-8.5
								c2.2,3.3,4.7,5.8,7.6,7.4c2.9,1.6,6.3,2.4,10.1,2.4c6.3,0,11-1.9,14.2-5.8C203.9,46.3,205.5,40.6,205.5,33z"/>
						</g>
						<g>
							<path id="DejaVuSans-63" class="st9" d="M262.8,52.6v-8.4c-2.5,1.4-5.1,2.5-7.6,3.2c-2.6,0.7-5.1,1-7.7,1
								c-5.8,0-10.4-1.8-13.6-5.5c-3.2-3.7-4.8-8.9-4.8-15.5s1.6-11.9,4.8-15.6c3.2-3.7,7.8-5.5,13.6-5.5c2.6,0,5.2,0.3,7.7,1
								c2.6,0.7,5.1,1.8,7.6,3.2V2.1c-2.5-1.2-5.1-2-7.8-2.6c-2.7-0.6-5.5-0.9-8.6-0.9c-8.2,0-14.8,2.6-19.6,7.8
								c-4.8,5.2-7.3,12.2-7.3,21c0,8.9,2.4,15.9,7.3,21c4.9,5.1,11.6,7.7,20.2,7.7c2.8,0,5.5-0.3,8.1-0.9
								C257.8,54.6,260.3,53.7,262.8,52.6z"/>
						</g>
						<g>
							<path id="DejaVuSans-68_00000182511060274379510990000006769901160421384637_" class="st9" d="M323.9,33V0h-9v32.7
								c0,5.2-1,9-3,11.6c-2,2.6-5,3.9-9.1,3.9c-4.9,0-8.7-1.5-11.5-4.6c-2.8-3.1-4.2-7.3-4.2-12.6V0h-9v76h9V46.2
								c2.2,3.3,4.7,5.8,7.6,7.4c2.9,1.6,6.3,2.4,10.1,2.4c6.3,0,11-1.9,14.2-5.8C322.3,46.3,323.9,40.6,323.9,33z"/>
						</g>
					</g>
				</g>
			</g>
			<g id="xtick_4">
				<g id="line2d_4">
					<g>
						<g>
							<path id="m41560180b3_00000093161110377063141710000016511628703190331572_" class="st8" d="M367.2,168.7"/>
						</g>
					</g>
				</g>
				<g id="text_4">
					<g transform="translate(333.144141 198.596763)scale(0.15 -0.15)">
						<g>
							<path id="DejaVuSans-4a" class="st9" d="M9.8,72.9h9.9V5.1c0-8.8-1.7-15.2-5-19.1S6-20-1.4-20h-3.8v8.3h3.1
								c4.4,0,7.4,1.2,9.2,3.7C8.9-5.6,9.8-1.2,9.8,5.1V72.9z"/>
						</g>
						<g>
							<path id="DejaVuSans-61_00000048471197024728517570000007519527340998263448_" class="st9" d="M63.8,27.5
								c-7.3,0-12.3-0.8-15.1-2.5c-2.8-1.7-4.2-4.5-4.2-8.5c0-3.2,1.1-5.7,3.2-7.6c2.1-1.9,5-2.8,8.6-2.8c5,0,9,1.8,12,5.3
								c3,3.5,4.5,8.2,4.5,14.1v2H63.8z M81.7,31.2V0h-9v8.3C70.7,5,68.1,2.5,65,1s-6.8-2.4-11.2-2.4c-5.6,0-10,1.6-13.4,4.7
								c-3.3,3.1-5,7.4-5,12.6c0,6.1,2.1,10.8,6.2,13.9c4.1,3.1,10.3,4.7,18.4,4.7h12.6v0.9c0,4.1-1.4,7.3-4.1,9.6
								c-2.7,2.3-6.5,3.4-11.5,3.4c-3.1,0-6.2-0.4-9.1-1.1c-3-0.8-5.8-1.9-8.5-3.4v8.3c3.3,1.3,6.5,2.2,9.6,2.8c3.1,0.6,6.1,1,9,1
								c7.9,0,13.8-2.1,17.7-6.2C79.7,45.8,81.7,39.5,81.7,31.2z"/>
						</g>
						<g>
							<path id="DejaVuSans-70_00000129193056021962253730000008971781164268857236_" class="st9" d="M108.9,8.2v-29h-9v75.5h9v-8.3
								c1.9,3.2,4.3,5.7,7.2,7.2c2.9,1.6,6.3,2.4,10.3,2.4c6.6,0,12-2.6,16.2-7.9c4.2-5.3,6.2-12.2,6.2-20.8s-2.1-15.5-6.2-20.8
								c-4.1-5.3-9.5-7.9-16.2-7.9c-4,0-7.4,0.8-10.3,2.4C113.2,2.5,110.8,5,108.9,8.2z M139.5,27.3c0,6.6-1.4,11.8-4.1,15.5
								c-2.7,3.8-6.5,5.6-11.2,5.6c-4.8,0-8.5-1.9-11.2-5.6c-2.7-3.8-4.1-8.9-4.1-15.5s1.4-11.8,4.1-15.5s6.5-5.6,11.2-5.6
								c4.8,0,8.5,1.9,11.2,5.6S139.5,20.7,139.5,27.3z"/>
						</g>
						<g>
							<path id="DejaVuSans-61_00000163069854233898512450000006017195779806392254_" class="st9" d="M188.5,27.5
								c-7.3,0-12.3-0.8-15.1-2.5c-2.8-1.7-4.2-4.5-4.2-8.5c0-3.2,1.1-5.7,3.2-7.6c2.1-1.9,5-2.8,8.6-2.8c5,0,9,1.8,12,5.3
								c3,3.5,4.5,8.2,4.5,14.1v2H188.5z M206.5,31.2V0h-9v8.3c-2.1-3.3-4.6-5.8-7.7-7.3s-6.8-2.4-11.2-2.4c-5.6,0-10,1.6-13.4,4.7
								c-3.3,3.1-5,7.4-5,12.6c0,6.1,2.1,10.8,6.2,13.9c4.1,3.1,10.3,4.7,18.4,4.7h12.6v0.9c0,4.1-1.4,7.3-4.1,9.6
								c-2.7,2.3-6.5,3.4-11.5,3.4c-3.1,0-6.2-0.4-9.1-1.1c-3-0.8-5.8-1.9-8.5-3.4v8.3c3.3,1.3,6.5,2.2,9.6,2.8c3.1,0.6,6.1,1,9,1
								c7.9,0,13.8-2.1,17.7-6.2C204.5,45.8,206.5,39.5,206.5,31.2z"/>
						</g>
						<g>
							<path id="DejaVuSans-6e_00000168114125199384581830000002837992463577327277_" class="st9" d="M270.4,33V0h-9v32.7
								c0,5.2-1,9-3,11.6c-2,2.6-5,3.9-9.1,3.9c-4.9,0-8.7-1.5-11.5-4.6c-2.8-3.1-4.2-7.3-4.2-12.6V0h-9v54.7h9v-8.5
								c2.2,3.3,4.7,5.8,7.6,7.4c2.9,1.6,6.3,2.4,10.1,2.4c6.3,0,11-1.9,14.2-5.8C268.8,46.3,270.4,40.6,270.4,33z"/>
						</g>
						<g>
							<path id="DejaVuSans-65_00000013163721151376072950000013547870302232132001_" class="st9" d="M335.1,29.6v-4.4h-41.3
								c0.4-6.2,2.3-10.9,5.6-14.1c3.3-3.2,8-4.9,13.9-4.9c3.4,0,6.8,0.4,10,1.3c3.2,0.8,6.5,2.1,9.7,3.8V2.8
								c-3.2-1.4-6.5-2.4-9.9-3.1c-3.4-0.7-6.8-1.1-10.3-1.1c-8.7,0-15.6,2.5-20.7,7.6c-5.1,5.1-7.6,12-7.6,20.6
								c0,8.9,2.4,16,7.2,21.3c4.8,5.3,11.4,7.9,19.6,7.9c7.4,0,13.2-2.4,17.5-7.1C333,44.2,335.1,37.7,335.1,29.6z M326.1,32.2
								c-0.1,4.9-1.4,8.8-4.1,11.8c-2.7,2.9-6.2,4.4-10.7,4.4c-5,0-9-1.4-12-4.3c-3-2.8-4.7-6.8-5.2-12L326.1,32.2z"/>
						</g>
						<g>
							<path id="DejaVuSans-73_00000132047508725444957980000005006137995424891788_" class="st9" d="M384.7,53.1v-8.5
								c-2.5,1.3-5.2,2.3-7.9,2.9c-2.7,0.7-5.6,1-8.5,1c-4.5,0-7.8-0.7-10-2c-2.2-1.4-3.3-3.4-3.3-6.2c0-2.1,0.8-3.7,2.4-4.9
								s4.8-2.3,9.6-3.4l3.1-0.7c6.4-1.4,10.9-3.3,13.6-5.8s4-6,4-10.4c0-5.1-2-9.1-6-12.1c-4-3-9.5-4.4-16.6-4.4
								c-2.9,0-6,0.3-9.2,0.9c-3.2,0.6-6.5,1.4-10,2.6v9.3c3.3-1.7,6.6-3,9.8-3.9c3.2-0.9,6.4-1.3,9.6-1.3c4.2,0,7.5,0.7,9.8,2.2
								c2.3,1.4,3.4,3.5,3.4,6.1c0,2.4-0.8,4.3-2.5,5.6c-1.6,1.3-5.2,2.6-10.8,3.8l-3.1,0.7c-5.6,1.2-9.6,3-12.1,5.4
								c-2.5,2.4-3.7,5.8-3.7,10c0,5.1,1.8,9.1,5.5,11.9c3.6,2.8,8.8,4.2,15.5,4.2c3.3,0,6.4-0.2,9.4-0.7
								C379.5,54.8,382.2,54.1,384.7,53.1z"/>
						</g>
						<g>
							<path id="DejaVuSans-65_00000021813214778356409440000015552482983496879021_" class="st9" d="M448.7,29.6v-4.4h-41.3
								c0.4-6.2,2.3-10.9,5.6-14.1c3.3-3.2,8-4.9,13.9-4.9c3.4,0,6.8,0.4,10,1.3c3.2,0.8,6.5,2.1,9.7,3.8V2.8
								c-3.2-1.4-6.5-2.4-9.9-3.1c-3.4-0.7-6.8-1.1-10.3-1.1c-8.7,0-15.6,2.5-20.7,7.6c-5.1,5.1-7.6,12-7.6,20.6
								c0,8.9,2.4,16,7.2,21.3c4.8,5.3,11.4,7.9,19.6,7.9c7.4,0,13.2-2.4,17.5-7.1C446.6,44.2,448.7,37.7,448.7,29.6z M439.7,32.2
								c-0.1,4.9-1.4,8.8-4.1,11.8c-2.7,2.9-6.2,4.4-10.7,4.4c-5,0-9-1.4-12-4.3c-3-2.8-4.7-6.8-5.2-12L439.7,32.2z"/>
						</g>
					</g>
				</g>
			</g>
			<g id="xtick_5">
				<g id="line2d_5">
					<g>
						<g>
							<path id="m41560180b3_00000096040367658344149000000014643509628344730786_" class="st8" d="M466.4,168.7"/>
						</g>
					</g>
				</g>
				<g id="text_5">
					<g transform="translate(437.499726 198.596763)scale(0.15 -0.15)">
						<g>
							<path id="DejaVuSans-52" class="st9" d="M44.4,34.2c2.1-0.7,4.2-2.2,6.2-4.6s4-5.6,6-9.7L66.6,0H56l-9.3,18.7
								c-2.4,4.9-4.8,8.1-7,9.7s-5.3,2.4-9.2,2.4H19.7V0H9.8v72.9h22.3c8.3,0,14.6-1.7,18.7-5.2c4.1-3.5,6.2-8.7,6.2-15.8
								c0-4.6-1.1-8.4-3.2-11.4C51.6,37.4,48.5,35.4,44.4,34.2z M19.7,64.8V38.9h12.4c4.8,0,8.3,1.1,10.8,3.3s3.6,5.4,3.6,9.7
								s-1.2,7.5-3.6,9.6s-6,3.2-10.8,3.2H19.7z"/>
						</g>
						<g>
							<path id="DejaVuSans-75" class="st9" d="M73.5,21.6v33.1h9V21.9c0-5.2,1-9.1,3-11.7c2-2.6,5.1-3.9,9.1-3.9
								c4.8,0,8.7,1.5,11.5,4.6c2.8,3.1,4.2,7.3,4.2,12.7v31h9V0h-9v8.4c-2.2-3.3-4.7-5.8-7.6-7.4c-2.9-1.6-6.2-2.4-10-2.4
								c-6.3,0-11.1,2-14.3,5.9C75.1,8.3,73.5,14.1,73.5,21.6z M96.1,56L96.1,56z"/>
						</g>
						<g>
							<path id="DejaVuSans-73_00000040576328316929989730000000550217585906345889_" class="st9" d="M172.6,53.1v-8.5
								c-2.5,1.3-5.2,2.3-7.9,2.9c-2.7,0.7-5.6,1-8.5,1c-4.5,0-7.8-0.7-10-2c-2.2-1.4-3.3-3.4-3.3-6.2c0-2.1,0.8-3.7,2.4-4.9
								s4.8-2.3,9.6-3.4l3.1-0.7c6.4-1.4,10.9-3.3,13.6-5.8s4-6,4-10.4c0-5.1-2-9.1-6-12.1c-4-3-9.5-4.4-16.6-4.4
								c-2.9,0-6,0.3-9.2,0.9c-3.2,0.6-6.5,1.4-10,2.6v9.3c3.3-1.7,6.6-3,9.8-3.9c3.2-0.9,6.4-1.3,9.6-1.3c4.2,0,7.5,0.7,9.8,2.2
								c2.3,1.4,3.4,3.5,3.4,6.1c0,2.4-0.8,4.3-2.5,5.6c-1.6,1.3-5.2,2.6-10.8,3.8l-3.1,0.7c-5.6,1.2-9.6,3-12.1,5.4
								c-2.5,2.4-3.7,5.8-3.7,10c0,5.1,1.8,9.1,5.5,11.9c3.6,2.8,8.8,4.2,15.5,4.2c3.3,0,6.4-0.2,9.4-0.7
								C167.5,54.8,170.2,54.1,172.6,53.1z"/>
						</g>
						<g>
							<path id="DejaVuSans-73_00000109747709551095347270000006980723773382795136_" class="st9" d="M224.7,53.1v-8.5
								c-2.5,1.3-5.2,2.3-7.9,2.9c-2.7,0.7-5.6,1-8.5,1c-4.5,0-7.8-0.7-10-2c-2.2-1.4-3.3-3.4-3.3-6.2c0-2.1,0.8-3.7,2.4-4.9
								s4.8-2.3,9.6-3.4l3.1-0.7c6.4-1.4,10.9-3.3,13.6-5.8s4-6,4-10.4c0-5.1-2-9.1-6-12.1c-4-3-9.5-4.4-16.6-4.4
								c-2.9,0-6,0.3-9.2,0.9c-3.2,0.6-6.5,1.4-10,2.6v9.3c3.3-1.7,6.6-3,9.8-3.9c3.2-0.9,6.4-1.3,9.6-1.3c4.2,0,7.5,0.7,9.8,2.2
								c2.3,1.4,3.4,3.5,3.4,6.1c0,2.4-0.8,4.3-2.5,5.6c-1.6,1.3-5.2,2.6-10.8,3.8l-3.1,0.7c-5.6,1.2-9.6,3-12.1,5.4
								c-2.5,2.4-3.7,5.8-3.7,10c0,5.1,1.8,9.1,5.5,11.9c3.6,2.8,8.8,4.2,15.5,4.2c3.3,0,6.4-0.2,9.4-0.7
								C219.6,54.8,222.3,54.1,224.7,53.1z"/>
						</g>
						<g>
							<path id="DejaVuSans-69_00000170260520581249789130000001006711250780686004_" class="st9" d="M242,54.7h9V0h-9V54.7z
								 M242,76h9V64.6h-9V76z"/>
						</g>
						<g>
							<path id="DejaVuSans-61_00000119111245238648843190000007970813536078509503_" class="st9" d="M294.6,27.5
								c-7.3,0-12.3-0.8-15.1-2.5c-2.8-1.7-4.2-4.5-4.2-8.5c0-3.2,1.1-5.7,3.2-7.6c2.1-1.9,5-2.8,8.6-2.8c5,0,9,1.8,12,5.3
								c3,3.5,4.5,8.2,4.5,14.1v2H294.6z M312.5,31.2V0h-9v8.3C301.5,5,299,2.5,295.9,1s-6.8-2.4-11.2-2.4c-5.6,0-10,1.6-13.4,4.7
								c-3.3,3.1-5,7.4-5,12.6c0,6.1,2.1,10.8,6.2,13.9c4.1,3.1,10.3,4.7,18.4,4.7h12.6v0.9c0,4.1-1.4,7.3-4.1,9.6
								c-2.7,2.3-6.5,3.4-11.5,3.4c-3.1,0-6.2-0.4-9.1-1.1c-3-0.8-5.8-1.9-8.5-3.4v8.3c3.3,1.3,6.5,2.2,9.6,2.8c3.1,0.6,6.1,1,9,1
								c7.9,0,13.8-2.1,17.7-6.2C310.6,45.8,312.5,39.5,312.5,31.2z"/>
						</g>
						<g>
							<path id="DejaVuSans-6e_00000139272374426064292180000018443202072302257035_" class="st9" d="M376.5,33V0h-9v32.7
								c0,5.2-1,9-3,11.6c-2,2.6-5,3.9-9.1,3.9c-4.9,0-8.7-1.5-11.5-4.6c-2.8-3.1-4.2-7.3-4.2-12.6V0h-9v54.7h9v-8.5
								c2.2,3.3,4.7,5.8,7.6,7.4c2.9,1.6,6.3,2.4,10.1,2.4c6.3,0,11-1.9,14.2-5.8C374.9,46.3,376.5,40.6,376.5,33z"/>
						</g>
					</g>
				</g>
			</g>
			<g id="xtick_6">
				<g id="line2d_6">
					<g>
						<g>
							<path id="m41560180b3_00000068641947572967491290000006884789210578303383_" class="st8" d="M565.5,168.7"/>
						</g>
					</g>
				</g>
				<g id="text_6">
					<g transform="translate(530.449451 198.596763)scale(0.15 -0.15)">
						<g>
							<path id="DejaVuSans-4d" class="st9" d="M9.8,72.9h14.7l18.6-49.6l18.7,49.6h14.7V0h-9.6v64L48.1,14h-9.9L19.4,64V0H9.8V72.9
								z"/>
						</g>
						<g>
							<path id="DejaVuSans-61_00000041988458655484132270000013817299524205952683_" class="st9" d="M120.6,27.5
								c-7.3,0-12.3-0.8-15.1-2.5c-2.8-1.7-4.2-4.5-4.2-8.5c0-3.2,1.1-5.7,3.2-7.6c2.1-1.9,5-2.8,8.6-2.8c5,0,9,1.8,12,5.3
								c3,3.5,4.5,8.2,4.5,14.1v2H120.6z M138.5,31.2V0h-9v8.3c-2.1-3.3-4.6-5.8-7.7-7.3s-6.8-2.4-11.2-2.4c-5.6,0-10,1.6-13.4,4.7
								c-3.3,3.1-5,7.4-5,12.6c0,6.1,2.1,10.8,6.2,13.9c4.1,3.1,10.3,4.7,18.4,4.7h12.6v0.9c0,4.1-1.4,7.3-4.1,9.6
								c-2.7,2.3-6.5,3.4-11.5,3.4c-3.1,0-6.2-0.4-9.1-1.1c-3-0.8-5.8-1.9-8.5-3.4v8.3c3.3,1.3,6.5,2.2,9.6,2.8c3.1,0.6,6.1,1,9,1
								c7.9,0,13.8-2.1,17.7-6.2C136.5,45.8,138.5,39.5,138.5,31.2z"/>
						</g>
						<g>
							<path id="DejaVuSans-6e_00000168835610263204876460000002026587399545302935_" class="st9" d="M202.4,33V0h-9v32.7
								c0,5.2-1,9-3,11.6c-2,2.6-5,3.9-9.1,3.9c-4.9,0-8.7-1.5-11.5-4.6c-2.8-3.1-4.2-7.3-4.2-12.6V0h-9v54.7h9v-8.5
								c2.2,3.3,4.7,5.8,7.6,7.4c2.9,1.6,6.3,2.4,10.1,2.4c6.3,0,11-1.9,14.2-5.8C200.8,46.3,202.4,40.6,202.4,33z"/>
						</g>
						<g>
							<path id="DejaVuSans-64" class="st9" d="M256.3,46.4V76h9V0h-9v8.2c-1.9-3.2-4.3-5.7-7.2-7.2c-2.9-1.6-6.3-2.4-10.4-2.4
								c-6.6,0-12,2.6-16.1,7.9c-4.1,5.3-6.2,12.2-6.2,20.8s2.1,15.5,6.2,20.8c4.2,5.3,9.5,7.9,16.1,7.9c4,0,7.5-0.8,10.4-2.4
								C252.1,52.1,254.5,49.6,256.3,46.4z M225.7,27.3c0-6.6,1.4-11.8,4.1-15.5s6.5-5.6,11.2-5.6s8.5,1.9,11.2,5.6
								c2.7,3.8,4.1,8.9,4.1,15.5s-1.4,11.8-4.1,15.5c-2.7,3.8-6.5,5.6-11.2,5.6s-8.5-1.9-11.2-5.6
								C227.1,39.1,225.7,33.9,225.7,27.3z"/>
						</g>
						<g>
							<path id="DejaVuSans-61_00000176728751539628806360000007186021434127796615_" class="st9" d="M308.7,27.5
								c-7.3,0-12.3-0.8-15.1-2.5c-2.8-1.7-4.2-4.5-4.2-8.5c0-3.2,1.1-5.7,3.2-7.6c2.1-1.9,5-2.8,8.6-2.8c5,0,9,1.8,12,5.3
								c3,3.5,4.5,8.2,4.5,14.1v2H308.7z M326.6,31.2V0h-9v8.3C315.6,5,313,2.5,310,1s-6.8-2.4-11.2-2.4c-5.6,0-10,1.6-13.4,4.7
								c-3.3,3.1-5,7.4-5,12.6c0,6.1,2.1,10.8,6.2,13.9c4.1,3.1,10.3,4.7,18.4,4.7h12.6v0.9c0,4.1-1.4,7.3-4.1,9.6
								c-2.7,2.3-6.5,3.4-11.5,3.4c-3.1,0-6.2-0.4-9.1-1.1c-3-0.8-5.8-1.9-8.5-3.4v8.3c3.3,1.3,6.5,2.2,9.6,2.8c3.1,0.6,6.1,1,9,1
								c7.9,0,13.8-2.1,17.7-6.2C324.7,45.8,326.6,39.5,326.6,31.2z"/>
						</g>
						<g>
							<path id="DejaVuSans-72_00000037687575512893943000000004954898199315842960_" class="st9" d="M376.8,46.3
								c-1,0.6-2.1,1-3.3,1.3c-1.2,0.3-2.5,0.4-3.9,0.4c-5.1,0-9-1.7-11.7-5c-2.7-3.3-4.1-8-4.1-14.2V0h-9v54.7h9v-8.5
								c1.9,3.3,4.4,5.8,7.4,7.4c3,1.6,6.7,2.4,11,2.4c0.6,0,1.3,0,2-0.1c0.8-0.1,1.6-0.2,2.5-0.4L376.8,46.3z"/>
						</g>
						<g>
							<path id="DejaVuSans-69_00000044900678711720639160000011013758255188817324_" class="st9" d="M386.2,54.7h9V0h-9V54.7z
								 M386.2,76h9V64.6h-9V76z"/>
						</g>
						<g>
							<path id="DejaVuSans-6e_00000021115755775788765760000017114382403237230516_" class="st9" d="M459.5,33V0h-9v32.7
								c0,5.2-1,9-3,11.6c-2,2.6-5,3.9-9.1,3.9c-4.9,0-8.7-1.5-11.5-4.6c-2.8-3.1-4.2-7.3-4.2-12.6V0h-9v54.7h9v-8.5
								c2.2,3.3,4.7,5.8,7.6,7.4c2.9,1.6,6.3,2.4,10.1,2.4c6.3,0,11-1.9,14.2-5.8C457.9,46.3,459.5,40.6,459.5,33z"/>
						</g>
					</g>
				</g>
			</g>
			<g id="xtick_7">
				<g id="line2d_7">
					<g>
						<g>
							<path id="m41560180b3_00000157998924146031367050000015096630066088239293_" class="st8" d="M664.7,168.7"/>
						</g>
					</g>
				</g>
				<g id="text_7">
					<g transform="translate(622.453474 198.596763)scale(0.15 -0.15)">
						<g>
							<path id="DejaVuSans-50" class="st9" d="M19.7,64.8V37.4h12.4c4.6,0,8.1,1.2,10.6,3.6c2.5,2.4,3.8,5.8,3.8,10.2
								c0,4.4-1.3,7.7-3.8,10.1c-2.5,2.4-6,3.6-10.6,3.6H19.7z M9.8,72.9h22.3c8.2,0,14.4-1.8,18.5-5.5c4.2-3.7,6.3-9.1,6.3-16.2
								c0-7.2-2.1-12.6-6.3-16.3c-4.2-3.7-10.4-5.5-18.5-5.5H19.7V0H9.8V72.9z"/>
						</g>
						<g>
							<path id="DejaVuSans-6f" class="st9" d="M87.3,48.4c-4.8,0-8.6-1.9-11.4-5.6c-2.8-3.8-4.2-8.9-4.2-15.5s1.4-11.7,4.2-15.5
								c2.8-3.8,6.6-5.6,11.5-5.6c4.8,0,8.6,1.9,11.4,5.7c2.8,3.8,4.2,8.9,4.2,15.4c0,6.5-1.4,11.6-4.2,15.4
								C95.9,46.5,92.1,48.4,87.3,48.4z M87.3,56c7.8,0,13.9-2.5,18.4-7.6c4.5-5.1,6.7-12.1,6.7-21.1c0-8.9-2.2-16-6.7-21.1
								c-4.5-5.1-10.6-7.6-18.4-7.6c-7.8,0-14,2.5-18.4,7.6c-4.4,5.1-6.7,12.1-6.7,21.1c0,9,2.2,16,6.7,21.1
								C73.3,53.5,79.4,56,87.3,56z"/>
						</g>
						<g>
							<path id="DejaVuSans-72_00000162344183082140108390000006872003931398172053_" class="st9" d="M159,46.3
								c-1,0.6-2.1,1-3.3,1.3c-1.2,0.3-2.5,0.4-3.9,0.4c-5.1,0-9-1.7-11.7-5c-2.7-3.3-4.1-8-4.1-14.2V0h-9v54.7h9v-8.5
								c1.9,3.3,4.4,5.8,7.4,7.4c3,1.6,6.7,2.4,11,2.4c0.6,0,1.3,0,2-0.1c0.8-0.1,1.6-0.2,2.5-0.4L159,46.3z"/>
						</g>
						<g>
							<path id="DejaVuSans-74" class="st9" d="M177.3,70.2V54.7h18.5v-7h-18.5V18c0-4.5,0.6-7.3,1.8-8.6s3.7-1.9,7.5-1.9h9.2V0
								h-9.2c-6.9,0-11.7,1.3-14.4,3.9c-2.6,2.6-4,7.3-4,14.1v29.7h-6.6v7h6.6v15.5H177.3z"/>
						</g>
						<g>
							<path id="DejaVuSans-75_00000153691635033994274240000005790498067513654677_" class="st9" d="M206.7,21.6v33.1h9V21.9
								c0-5.2,1-9.1,3-11.7c2-2.6,5.1-3.9,9.1-3.9c4.8,0,8.7,1.5,11.5,4.6c2.8,3.1,4.2,7.3,4.2,12.7v31h9V0h-9v8.4
								c-2.2-3.3-4.7-5.8-7.6-7.4c-2.9-1.6-6.2-2.4-10-2.4c-6.3,0-11.1,2-14.3,5.9C208.3,8.3,206.7,14.1,206.7,21.6z M229.3,56
								L229.3,56z"/>
						</g>
						<g>
							<path id="DejaVuSans-67_00000147917277471613584510000010720143341876061836_" class="st9" d="M307,28c0,6.5-1.3,11.6-4,15.1
								c-2.7,3.6-6.4,5.4-11.3,5.4c-4.8,0-8.6-1.8-11.2-5.4c-2.7-3.6-4-8.6-4-15.1c0-6.5,1.3-11.5,4-15.1s6.4-5.4,11.2-5.4
								c4.9,0,8.6,1.8,11.3,5.4C305.6,16.5,307,21.5,307,28z M316,6.8c0-9.3-2.1-16.2-6.2-20.8c-4.1-4.5-10.5-6.8-19-6.8
								c-3.2,0-6.1,0.2-8.9,0.7c-2.8,0.5-5.5,1.2-8.2,2.2v8.7c2.6-1.4,5.2-2.5,7.8-3.2c2.6-0.7,5.2-1,7.9-1c5.9,0,10.3,1.5,13.2,4.6
								C305.5-5.7,307-1,307,5.2v4.5c-1.9-3.2-4.2-5.6-7.1-7.2c-2.9-1.6-6.4-2.4-10.4-2.4c-6.7,0-12.1,2.6-16.2,7.7
								c-4.1,5.1-6.2,11.9-6.2,20.3c0,8.5,2.1,15.2,6.2,20.3c4.1,5.1,9.5,7.7,16.2,7.7c4,0,7.5-0.8,10.4-2.4c2.9-1.6,5.3-4,7.1-7.2
								v8.3h9V6.8z"/>
						</g>
						<g>
							<path id="DejaVuSans-75_00000100370643205266187870000000572122467910906547_" class="st9" d="M333.5,21.6v33.1h9V21.9
								c0-5.2,1-9.1,3-11.7c2-2.6,5.1-3.9,9.1-3.9c4.8,0,8.7,1.5,11.5,4.6c2.8,3.1,4.2,7.3,4.2,12.7v31h9V0h-9v8.4
								c-2.2-3.3-4.7-5.8-7.6-7.4c-2.9-1.6-6.2-2.4-10-2.4c-6.3,0-11.1,2-14.3,5.9C335.2,8.3,333.5,14.1,333.5,21.6z M356.1,56
								L356.1,56z"/>
						</g>
						<g>
							<path id="DejaVuSans-65_00000141423193528891438670000000201244916584449941_" class="st9" d="M444.6,29.6v-4.4h-41.3
								c0.4-6.2,2.3-10.9,5.6-14.1c3.3-3.2,8-4.9,13.9-4.9c3.4,0,6.8,0.4,10,1.3c3.2,0.8,6.5,2.1,9.7,3.8V2.8
								c-3.2-1.4-6.5-2.4-9.9-3.1c-3.4-0.7-6.8-1.1-10.3-1.1c-8.7,0-15.6,2.5-20.7,7.6c-5.1,5.1-7.6,12-7.6,20.6
								c0,8.9,2.4,16,7.2,21.3c4.8,5.3,11.4,7.9,19.6,7.9c7.4,0,13.2-2.4,17.5-7.1C442.5,44.2,444.6,37.7,444.6,29.6z M435.6,32.2
								c-0.1,4.9-1.4,8.8-4.1,11.8c-2.7,2.9-6.2,4.4-10.7,4.4c-5,0-9-1.4-12-4.3c-3-2.8-4.7-6.8-5.2-12L435.6,32.2z"/>
						</g>
						<g>
							<path id="DejaVuSans-73_00000065073425978241147000000006300929644491360689_" class="st9" d="M494.2,53.1v-8.5
								c-2.5,1.3-5.2,2.3-7.9,2.9c-2.7,0.7-5.6,1-8.5,1c-4.5,0-7.8-0.7-10-2c-2.2-1.4-3.3-3.4-3.3-6.2c0-2.1,0.8-3.7,2.4-4.9
								s4.8-2.3,9.6-3.4l3.1-0.7c6.4-1.4,10.9-3.3,13.6-5.8s4-6,4-10.4c0-5.1-2-9.1-6-12.1c-4-3-9.5-4.4-16.6-4.4
								c-2.9,0-6,0.3-9.2,0.9c-3.2,0.6-6.5,1.4-10,2.6v9.3c3.3-1.7,6.6-3,9.8-3.9c3.2-0.9,6.4-1.3,9.6-1.3c4.2,0,7.5,0.7,9.8,2.2
								c2.3,1.4,3.4,3.5,3.4,6.1c0,2.4-0.8,4.3-2.5,5.6c-1.6,1.3-5.2,2.6-10.8,3.8l-3.1,0.7c-5.6,1.2-9.6,3-12.1,5.4
								c-2.5,2.4-3.7,5.8-3.7,10c0,5.1,1.8,9.1,5.5,11.9c3.6,2.8,8.8,4.2,15.5,4.2c3.3,0,6.4-0.2,9.4-0.7
								C489,54.8,491.8,54.1,494.2,53.1z"/>
						</g>
						<g>
							<path id="DejaVuSans-65_00000058583248358043182840000016732544034514336441_" class="st9" d="M558.2,29.6v-4.4h-41.3
								c0.4-6.2,2.3-10.9,5.6-14.1c3.3-3.2,8-4.9,13.9-4.9c3.4,0,6.8,0.4,10,1.3c3.2,0.8,6.5,2.1,9.7,3.8V2.8
								c-3.2-1.4-6.5-2.4-9.9-3.1c-3.4-0.7-6.8-1.1-10.3-1.1c-8.7,0-15.6,2.5-20.7,7.6c-5.1,5.1-7.6,12-7.6,20.6
								c0,8.9,2.4,16,7.2,21.3c4.8,5.3,11.4,7.9,19.6,7.9c7.4,0,13.2-2.4,17.5-7.1C556.1,44.2,558.2,37.7,558.2,29.6z M549.3,32.2
								c-0.1,4.9-1.4,8.8-4.1,11.8c-2.7,2.9-6.2,4.4-10.7,4.4c-5,0-9-1.4-12-4.3c-3-2.8-4.7-6.8-5.2-12L549.3,32.2z"/>
						</g>
					</g>
				</g>
			</g>
		</g>
		<g id="text_8">
			<g transform="translate(47.452776 22.396875)scale(0.2 -0.2)">
				<g>
					<path id="DejaVuSans-37" class="st9" d="M8.2,72.9h46.9v-4.2L28.6,0H18.3l24.9,64.6h-35V72.9z"/>
				</g>
				<g>
					<path id="DejaVuSans-31" class="st9" d="M76,8.3h16.1v55.6l-17.5-3.5v9L92,72.9h9.9V8.3H118V0H76V8.3z"/>
				</g>
				<g>
					<path id="DejaVuSans-25" class="st9" d="M199.9,32.1c-2.8,0-5.1-1.2-6.7-3.6c-1.6-2.4-2.4-5.8-2.4-10.1c0-4.2,0.8-7.6,2.4-10
						c1.6-2.4,3.8-3.6,6.7-3.6c2.8,0,5,1.2,6.6,3.6c1.6,2.4,2.4,5.8,2.4,10c0,4.3-0.8,7.6-2.4,10C204.9,30.9,202.7,32.1,199.9,32.1z
						 M199.9,38.3c5.1,0,9.2-1.8,12.2-5.4c3-3.6,4.5-8.4,4.5-14.5c0-6.1-1.5-10.9-4.6-14.5c-3-3.6-7.1-5.3-12.2-5.3
						c-5.2,0-9.3,1.8-12.4,5.3c-3,3.6-4.5,8.4-4.5,14.5c0,6.1,1.5,11,4.6,14.5S194.8,38.3,199.9,38.3z M149.6,68
						c-2.8,0-5-1.2-6.6-3.6c-1.6-2.4-2.4-5.7-2.4-10c0-4.3,0.8-7.6,2.4-10.1c1.6-2.4,3.8-3.6,6.6-3.6s5.1,1.2,6.7,3.6
						c1.6,2.4,2.4,5.8,2.4,10.1c0,4.2-0.8,7.5-2.4,10C154.6,66.8,152.4,68,149.6,68z M193.7,74.2h7.8L155.9-1.4H148L193.7,74.2z
						 M149.6,74.2c5.1,0,9.2-1.8,12.3-5.3c3.1-3.6,4.6-8.4,4.6-14.5c0-6.1-1.5-11-4.6-14.5s-7.2-5.3-12.3-5.3s-9.3,1.8-12.3,5.3
						c-3,3.6-4.5,8.4-4.5,14.5c0,6.1,1.5,10.9,4.5,14.5C140.3,72.4,144.4,74.2,149.6,74.2z"/>
				</g>
			</g>
		</g>
		<g id="text_9">
			<g transform="translate(152.98883 146.018605)scale(0.2 -0.2)">
				<g>
					<path id="DejaVuSans-37_00000176759042684543582690000001803827488422771382_" class="st9" d="M8.2,72.9h46.9v-4.2L28.6,0H18.3
						l24.9,64.6h-35V72.9z"/>
				</g>
				<g>
					<path id="DejaVuSans-25_00000052802903838554292790000006938452696959917211_" class="st9" d="M136.3,32.1
						c-2.8,0-5.1-1.2-6.7-3.6c-1.6-2.4-2.4-5.8-2.4-10.1c0-4.2,0.8-7.6,2.4-10c1.6-2.4,3.8-3.6,6.7-3.6c2.8,0,5,1.2,6.6,3.6
						c1.6,2.4,2.4,5.8,2.4,10c0,4.3-0.8,7.6-2.4,10C141.3,30.9,139.1,32.1,136.3,32.1z M136.3,38.3c5.1,0,9.2-1.8,12.2-5.4
						c3-3.6,4.5-8.4,4.5-14.5c0-6.1-1.5-10.9-4.6-14.5c-3-3.6-7.1-5.3-12.2-5.3c-5.2,0-9.3,1.8-12.4,5.3c-3,3.6-4.5,8.4-4.5,14.5
						c0,6.1,1.5,11,4.6,14.5C127,36.5,131.1,38.3,136.3,38.3z M85.9,68c-2.8,0-5-1.2-6.6-3.6c-1.6-2.4-2.4-5.7-2.4-10
						c0-4.3,0.8-7.6,2.4-10.1c1.6-2.4,3.8-3.6,6.6-3.6s5.1,1.2,6.7,3.6c1.6,2.4,2.4,5.8,2.4,10.1c0,4.2-0.8,7.5-2.4,10
						C91,66.8,88.7,68,85.9,68z M130,74.2h7.8L92.2-1.4h-7.8L130,74.2z M85.9,74.2c5.1,0,9.2-1.8,12.3-5.3c3.1-3.6,4.6-8.4,4.6-14.5
						c0-6.1-1.5-11-4.6-14.5s-7.2-5.3-12.3-5.3s-9.3,1.8-12.3,5.3c-3,3.6-4.5,8.4-4.5,14.5c0,6.1,1.5,10.9,4.5,14.5
						C76.7,72.4,80.8,74.2,85.9,74.2z"/>
				</g>
			</g>
		</g>
		<g id="text_10">
			<g transform="translate(252.162384 147.950195)scale(0.2 -0.2)">
				<g>
					<path id="DejaVuSans-36" class="st9" d="M33,40.4c-4.4,0-7.9-1.5-10.5-4.5c-2.6-3-3.9-7.2-3.9-12.4c0-5.2,1.3-9.4,3.9-12.4
						c2.6-3,6.1-4.6,10.5-4.6s7.9,1.5,10.5,4.6c2.6,3.1,3.9,7.2,3.9,12.4c0,5.3-1.3,9.4-3.9,12.4C40.9,38.9,37.4,40.4,33,40.4z
						 M52.6,71.3v-9c-2.5,1.2-5,2.1-7.5,2.7c-2.5,0.6-5,0.9-7.5,0.9c-6.5,0-11.5-2.2-14.9-6.6c-3.4-4.4-5.4-11-5.9-19.9
						c1.9,2.8,4.3,5,7.2,6.5c2.9,1.5,6.1,2.3,9.6,2.3c7.3,0,13.1-2.2,17.4-6.7c4.2-4.4,6.4-10.5,6.4-18.1c0-7.5-2.2-13.5-6.6-18
						C46.3,0.8,40.4-1.4,33-1.4c-8.4,0-14.9,3.2-19.3,9.7C9.2,14.7,7,24.1,7,36.4c0,11.5,2.7,20.7,8.2,27.6s12.8,10.3,22,10.3
						c2.5,0,5-0.2,7.5-0.7S49.9,72.3,52.6,71.3z"/>
				</g>
				<g>
					<path id="DejaVuSans-25_00000005245788936633878720000016367026126157320875_" class="st9" d="M136.3,32.1
						c-2.8,0-5.1-1.2-6.7-3.6c-1.6-2.4-2.4-5.8-2.4-10.1c0-4.2,0.8-7.6,2.4-10c1.6-2.4,3.8-3.6,6.7-3.6c2.8,0,5,1.2,6.6,3.6
						c1.6,2.4,2.4,5.8,2.4,10c0,4.3-0.8,7.6-2.4,10C141.3,30.9,139.1,32.1,136.3,32.1z M136.3,38.3c5.1,0,9.2-1.8,12.2-5.4
						c3-3.6,4.5-8.4,4.5-14.5c0-6.1-1.5-10.9-4.6-14.5c-3-3.6-7.1-5.3-12.2-5.3c-5.2,0-9.3,1.8-12.4,5.3c-3,3.6-4.5,8.4-4.5,14.5
						c0,6.1,1.5,11,4.6,14.5C127,36.5,131.1,38.3,136.3,38.3z M85.9,68c-2.8,0-5-1.2-6.6-3.6c-1.6-2.4-2.4-5.7-2.4-10
						c0-4.3,0.8-7.6,2.4-10.1c1.6-2.4,3.8-3.6,6.6-3.6s5.1,1.2,6.7,3.6c1.6,2.4,2.4,5.8,2.4,10.1c0,4.2-0.8,7.5-2.4,10
						C91,66.8,88.7,68,85.9,68z M130,74.2h7.8L92.2-1.4h-7.8L130,74.2z M85.9,74.2c5.1,0,9.2-1.8,12.3-5.3c3.1-3.6,4.6-8.4,4.6-14.5
						c0-6.1-1.5-11-4.6-14.5c-3-3.6-7.2-5.3-12.3-5.3s-9.3,1.8-12.3,5.3c-3,3.6-4.5,8.4-4.5,14.5c0,6.1,1.5,10.9,4.5,14.5
						C76.7,72.4,80.8,74.2,85.9,74.2z"/>
				</g>
			</g>
		</g>
		<g id="text_11">
			<g transform="translate(351.335938 149.881784)scale(0.2 -0.2)">
				<g>
					<path id="DejaVuSans-35" class="st9" d="M10.8,72.9h38.7v-8.3H19.8V46.7c1.4,0.5,2.9,0.9,4.3,1.1c1.4,0.2,2.9,0.4,4.3,0.4
						c8.1,0,14.6-2.2,19.3-6.7c4.8-4.5,7.1-10.5,7.1-18.1c0-7.8-2.4-13.9-7.3-18.3c-4.9-4.3-11.8-6.5-20.7-6.5
						c-3.1,0-6.2,0.3-9.4,0.8c-3.2,0.5-6.4,1.3-9.8,2.3v9.9c2.9-1.6,6-2.8,9.1-3.6s6.4-1.2,9.9-1.2c5.6,0,10.1,1.5,13.4,4.4
						c3.3,3,4.9,7,4.9,12.1c0,5.1-1.6,9.1-4.9,12c-3.3,3-7.7,4.5-13.4,4.5c-2.6,0-5.3-0.3-7.9-0.9c-2.6-0.6-5.3-1.5-8-2.7V72.9z"/>
				</g>
				<g>
					<path id="DejaVuSans-25_00000162335059670859695900000016599520352184674202_" class="st9" d="M136.3,32.1
						c-2.8,0-5.1-1.2-6.7-3.6c-1.6-2.4-2.4-5.8-2.4-10.1c0-4.2,0.8-7.6,2.4-10c1.6-2.4,3.8-3.6,6.7-3.6c2.8,0,5,1.2,6.6,3.6
						c1.6,2.4,2.4,5.8,2.4,10c0,4.3-0.8,7.6-2.4,10C141.3,30.9,139.1,32.1,136.3,32.1z M136.3,38.3c5.1,0,9.2-1.8,12.2-5.4
						c3-3.6,4.5-8.4,4.5-14.5c0-6.1-1.5-10.9-4.6-14.5c-3-3.6-7.1-5.3-12.2-5.3c-5.2,0-9.3,1.8-12.4,5.3c-3,3.6-4.5,8.4-4.5,14.5
						c0,6.1,1.5,11,4.6,14.5C127,36.5,131.1,38.3,136.3,38.3z M85.9,68c-2.8,0-5-1.2-6.6-3.6c-1.6-2.4-2.4-5.7-2.4-10
						c0-4.3,0.8-7.6,2.4-10.1c1.6-2.4,3.8-3.6,6.6-3.6s5.1,1.2,6.7,3.6c1.6,2.4,2.4,5.8,2.4,10.1c0,4.2-0.8,7.5-2.4,10
						C91,66.8,88.7,68,85.9,68z M130,74.2h7.8L92.2-1.4h-7.8L130,74.2z M85.9,74.2c5.1,0,9.2-1.8,12.3-5.3c3.1-3.6,4.6-8.4,4.6-14.5
						c0-6.1-1.5-11-4.6-14.5s-7.2-5.3-12.3-5.3s-9.3,1.8-12.3,5.3c-3,3.6-4.5,8.4-4.5,14.5c0,6.1,1.5,10.9,4.5,14.5
						C76.7,72.4,80.8,74.2,85.9,74.2z"/>
				</g>
			</g>
		</g>
		<g id="text_12">
			<g transform="translate(450.509491 155.676553)scale(0.2 -0.2)">
				<g>
					<path id="DejaVuSans-32" class="st9" d="M19.2,8.3h34.4V0H7.3v8.3c3.7,3.9,8.8,9.1,15.3,15.6c6.5,6.5,10.5,10.7,12.2,12.6
						c3.2,3.5,5.4,6.5,6.6,9c1.3,2.5,1.9,4.9,1.9,7.2c0,3.9-1.4,7-4.1,9.5c-2.7,2.4-6.3,3.7-10.6,3.7c-3.1,0-6.4-0.5-9.8-1.6
						c-3.4-1.1-7.1-2.7-11-4.9v10c4,1.6,7.7,2.8,11.1,3.6c3.5,0.8,6.6,1.2,9.5,1.2c7.6,0,13.6-1.9,18.1-5.7
						c4.5-3.8,6.7-8.8,6.7-15.1c0-3-0.6-5.8-1.7-8.5c-1.1-2.7-3.2-5.8-6.1-9.5c-0.8-0.9-3.4-3.7-7.8-8.2
						C33.3,22.7,27.1,16.4,19.2,8.3z"/>
				</g>
				<g>
					<path id="DejaVuSans-25_00000152264445059961812240000014893457201015979711_" class="st9" d="M136.3,32.1
						c-2.8,0-5.1-1.2-6.7-3.6c-1.6-2.4-2.4-5.8-2.4-10.1c0-4.2,0.8-7.6,2.4-10c1.6-2.4,3.8-3.6,6.7-3.6c2.8,0,5,1.2,6.6,3.6
						c1.6,2.4,2.4,5.8,2.4,10c0,4.3-0.8,7.6-2.4,10C141.3,30.9,139.1,32.1,136.3,32.1z M136.3,38.3c5.1,0,9.2-1.8,12.2-5.4
						c3-3.6,4.5-8.4,4.5-14.5c0-6.1-1.5-10.9-4.6-14.5c-3-3.6-7.1-5.3-12.2-5.3c-5.2,0-9.3,1.8-12.4,5.3c-3,3.6-4.5,8.4-4.5,14.5
						c0,6.1,1.5,11,4.6,14.5C127,36.5,131.1,38.3,136.3,38.3z M85.9,68c-2.8,0-5-1.2-6.6-3.6c-1.6-2.4-2.4-5.7-2.4-10
						c0-4.3,0.8-7.6,2.4-10.1c1.6-2.4,3.8-3.6,6.6-3.6s5.1,1.2,6.7,3.6c1.6,2.4,2.4,5.8,2.4,10.1c0,4.2-0.8,7.5-2.4,10
						C91,66.8,88.7,68,85.9,68z M130,74.2h7.8L92.2-1.4h-7.8L130,74.2z M85.9,74.2c5.1,0,9.2-1.8,12.3-5.3c3.1-3.6,4.6-8.4,4.6-14.5
						c0-6.1-1.5-11-4.6-14.5c-3-3.6-7.2-5.3-12.3-5.3s-9.3,1.8-12.3,5.3c-3,3.6-4.5,8.4-4.5,14.5c0,6.1,1.5,10.9,4.5,14.5
						C76.7,72.4,80.8,74.2,85.9,74.2z"/>
				</g>
			</g>
		</g>
		<g id="text_13">
			<g transform="translate(549.683045 157.608143)scale(0.2 -0.2)">
				<g>
					<path id="DejaVuSans-31_00000065769355993182949740000006815227923954893245_" class="st9" d="M12.4,8.3h16.1v55.6L11,60.4v9
						l17.4,3.5h9.9V8.3h16.1V0h-42V8.3z"/>
				</g>
				<g>
					<path id="DejaVuSans-25_00000116209438239841484660000007030237727693441975_" class="st9" d="M136.3,32.1
						c-2.8,0-5.1-1.2-6.7-3.6c-1.6-2.4-2.4-5.8-2.4-10.1c0-4.2,0.8-7.6,2.4-10c1.6-2.4,3.8-3.6,6.7-3.6c2.8,0,5,1.2,6.6,3.6
						c1.6,2.4,2.4,5.8,2.4,10c0,4.3-0.8,7.6-2.4,10C141.3,30.9,139.1,32.1,136.3,32.1z M136.3,38.3c5.1,0,9.2-1.8,12.2-5.4
						c3-3.6,4.5-8.4,4.5-14.5c0-6.1-1.5-10.9-4.6-14.5c-3-3.6-7.1-5.3-12.2-5.3c-5.2,0-9.3,1.8-12.4,5.3c-3,3.6-4.5,8.4-4.5,14.5
						c0,6.1,1.5,11,4.6,14.5C127,36.5,131.1,38.3,136.3,38.3z M85.9,68c-2.8,0-5-1.2-6.6-3.6c-1.6-2.4-2.4-5.7-2.4-10
						c0-4.3,0.8-7.6,2.4-10.1c1.6-2.4,3.8-3.6,6.6-3.6c2.8,0,5.1,1.2,6.7,3.6c1.6,2.4,2.4,5.8,2.4,10.1c0,4.2-0.8,7.5-2.4,10
						C91,66.8,88.7,68,85.9,68z M130,74.2h7.8L92.2-1.4h-7.8L130,74.2z M85.9,74.2c5.1,0,9.2-1.8,12.3-5.3c3.1-3.6,4.6-8.4,4.6-14.5
						c0-6.1-1.5-11-4.6-14.5c-3-3.6-7.2-5.3-12.3-5.3c-5.2,0-9.3,1.8-12.3,5.3c-3,3.6-4.5,8.4-4.5,14.5c0,6.1,1.5,10.9,4.5,14.5
						C76.7,72.4,80.8,74.2,85.9,74.2z"/>
				</g>
			</g>
		</g>
		<g id="text_14">
			<g transform="translate(648.856599 157.608143)scale(0.2 -0.2)">
				<g>
					<path id="DejaVuSans-31_00000000190250363453798790000016230406428863030434_" class="st9" d="M12.4,8.3h16.1v55.6L11,60.4v9
						l17.4,3.5h9.9V8.3h16.1V0h-42V8.3z"/>
				</g>
				<g>
					<path id="DejaVuSans-25_00000102513355043599169560000000051334083192489130_" class="st9" d="M136.3,32.1
						c-2.8,0-5.1-1.2-6.7-3.6c-1.6-2.4-2.4-5.8-2.4-10.1c0-4.2,0.8-7.6,2.4-10c1.6-2.4,3.8-3.6,6.7-3.6c2.8,0,5,1.2,6.6,3.6
						c1.6,2.4,2.4,5.8,2.4,10c0,4.3-0.8,7.6-2.4,10C141.3,30.9,139.1,32.1,136.3,32.1z M136.3,38.3c5.1,0,9.2-1.8,12.2-5.4
						c3-3.6,4.5-8.4,4.5-14.5c0-6.1-1.5-10.9-4.6-14.5c-3-3.6-7.1-5.3-12.2-5.3c-5.2,0-9.3,1.8-12.4,5.3c-3,3.6-4.5,8.4-4.5,14.5
						c0,6.1,1.5,11,4.6,14.5C127,36.5,131.1,38.3,136.3,38.3z M85.9,68c-2.8,0-5-1.2-6.6-3.6c-1.6-2.4-2.4-5.7-2.4-10
						c0-4.3,0.8-7.6,2.4-10.1c1.6-2.4,3.8-3.6,6.6-3.6c2.8,0,5.1,1.2,6.7,3.6c1.6,2.4,2.4,5.8,2.4,10.1c0,4.2-0.8,7.5-2.4,10
						C91,66.8,88.7,68,85.9,68z M130,74.2h7.8L92.2-1.4h-7.8L130,74.2z M85.9,74.2c5.1,0,9.2-1.8,12.3-5.3c3.1-3.6,4.6-8.4,4.6-14.5
						c0-6.1-1.5-11-4.6-14.5c-3-3.6-7.2-5.3-12.3-5.3c-5.2,0-9.3,1.8-12.3,5.3c-3,3.6-4.5,8.4-4.5,14.5c0,6.1,1.5,10.9,4.5,14.5
						C76.7,72.4,80.8,74.2,85.9,74.2z"/>
				</g>
			</g>
		</g>
	</g>
</g>
</svg>
